<svg version="1.0" xmlns="http://www.w3.org/2000/svg" viewBox="0 0 2554 2001"><path d="M374 31.1v1.2l-40-.8-40-.7V33h-17v-2h-4.8l-.5 1.2-.5 1.3-.1-1.3-.1-1.2h-9v2h-17v-2h-6.1l-1.5 1.4-1.4 1.5V53h-2v1.4c0 .8.4 1.6 1 1.8l.9.3-.8 75.5-.8 75.5.9.3.8.4v8.8h-2v17h2v9h-2v4.8l1.3.5 1.2.5-1.2.1-1.3.1v3h2v3h-2v9h2v15h-2v4.8l.8.4.9.3-.7 70.9-.7 70.8-1.4.9-1.4.8 1.3 1.3 1.2 1.2v8.4l-1.2.5-1.3.4 1.3 1.6 1.4 1.6-1.2 120.8-1.2 120.8-.9.3-.9.4v3.7l1.1.7 1.1.6-1.3.9-1.4.8 1.3 1.3 1.2 1.2v6.6h-2v15h2v3h-3v15.9l1 .6 1 .6v4.9h-2v5h2v9h-2v7l1.3 2.1 1.2 2.2-1.2.4-1.3.5v1.4c0 .8.6 2.4 1.3 3.5l1.2 2.2-1.2.4-1.3.5v2.6l1.3.5 1.2.5-1.2.1-1.3.1v21.9l1.1.7 1.1.6-1.3.9-1.4.8 1.3 1.3 1.2 1.2v6.4l-1.2.5-1.3.4 1.3 1.5 1.3 1.6-.9.4-.9.3-.6 4.7-.7 4.8h2v4h-2v3h2.5l-1.4.9-1.5.9 1.3 1.6 1.3 1.6H228v3.6l1.2 1.2 1.2 1.2H228v5h2v8.8l-1.2.5-1.3.5 1.3 1.3 1.2 1.3v4.6h-2v3h2v9h-2v7h2v3h-2v15.9l1 .6 1 .6v6.9h-2v1.5c0 .8.6 2.4 1.3 3.5l1.2 2.1-1.2.7-1.2.8-.7 9.3-.7 9.4 1.1-.7 1.2-.7v4.1h-2v18.8l1.3.5 1.2.5-1.2.1-1.3.1v5.9l1 .6 1 .6v4.9h-2v7.9l1 .6 1 .6v24.5l1.2 1.2 1.2 1.2h-2.1l-.5 14.6-.5 14.6-1.2.8-1.3.7.4 1.9c.2 1 .8 2.2 1.3 2.6l1 .8H226v29.9l1.1.7 1.1.6-.7 66.3-.8 66.2 1.3.8 1.2.8-1.2.7-1.2.7 1.4 2.3 1.3 2.3-1.3.4-1.2.5v5.4l1.2 1.2 1.2 1.2H227v11.6l1.2 1.2 1.2 1.2h-2l.4 6 .4 6H226l.2 1.2c.2.7.8 1.6 1.3 2l1 .8H226v5.6l1.2 1.2 1.2 1.2H226v19h2v3h-2v11.6l1.2 1.2 1.2 1.2H226v2.8l1.3.5 1.2.5-1.2.1-1.3.1v15h2v3h-2v15.9l1 .6 1 .6v8.9h-3v1.3c0 .7.6 1.9 1.3 2.6l1.2 1.4-1.2.4-1.3.5v6.8h2v3h-2v10.8l1.3.5 1.2.5-1.2.1-1.3.1v5.9l1 .6 1 .6v6.9h-2v5h2v35h-2v7.9l1 .6 1 .6v10.9h-1.8l-.5 2-.5 2h2.1l-.7 80.7-.6 80.8-1 .3c-.6.2-1 1-1 1.8v1.4h2.3l-.7 35.7-.7 35.8-1.2.7-1.2.7 1.3 2.1c.6 1.1 1.2 2.7 1.2 3.5v1.5h-2v4.1l1-.6 1-.6v57.1l1.3 2.2c1.2 2.1 1.8 3.1 4.3 6.1l1.2 1.4 5.8.2 5.9.2.9.9c.6.6 1.8 1 2.8 1h1.8v-2h7v2h2.8l.5-1.3.5-1.2.1 1.2.1 1.3h2.8l.5-1.3.5-1.2.1 1.2.1 1.3h41v-2h4.6l1 1 1 1 30.7.7 30.7.6v-2.7l1.2 1.2 1.2 1.2H388v-2h18.8l.4.9.3 1 12.9.2 13 .2.4-1.1.4-1.2h4.7l1.3 1.2 1.3 1.3 4.3.3 4.2.4v-2.2h7v2h3v-2h17v2h6.8l.5-1.3.4-1.2 2.2 1.2 2.1 1.3h9v-2h3v2h5v-2.3l31.8.7c17.4.3 49.6.6 71.4.7l39.7.1 2.6 1.4c1.5.8 3.6 1.4 4.6 1.4h1.9v-2h3v2h5v-2h80.6l1.3 1.3 1.3 1.2.4-1 .4-1 34 .3 34 .3v-2.1h5v2h21v-2.2l1.6 1.3 1.5 1.2 22.5.5 22.4.4v-2.2h5v2h13v-2.1l64.3.6c35.3.3 73.5.8 85 1l20.7.5v-2.2l1.6 1.3 1.6 1.3.8-1.3.8-1.3.6 1.1.7 1.1h3.9v-2h3v2h47v-2.4l1.2 1.2 1.2 1.2h15.6v-2h2.8l.4 1.2.5 1.3 31.1.4 31.2.3v-2.7l.8 1.2.7 1.2 58 .5c31.9.4 72.1.9 89.3 1.2l31.2.5v-2.1h4.9l.6 1 .6 1h25.7l.5-1.3.5-1.2.1 1.2.1 1.3h15v-2.2l1.7 1.3 1.6 1.4.4-1.3.5-1.2h8.4l1.2 1.2 1.3 1.3.9-1.5.9-1.5 2.3 1.4 2.2 1.4.4-1.1.3-1 2.6 1.3 2.7 1.4 1.1-1.6 1.2-1.6 1.2.7 1.1.7-.5.9-.5.9 45.9.1c25.3 0 55.2.3 66.5.6l20.6.6v-2.7l.8 1.1.7 1.2 46.3.4 46.2.3v-1.5h11v2h3v-2h11v2h3v-2h8.9l.6 1 .6 1h5.9v-2h10.9l.6 1 .6 1h5.9v-2.4l1.2 1.2 1.2 1.2h3.6v-2h10.6l1.2 1.2 1.3 1.3.7-1.1.7-1.1 7 .1 7 .1 1.3 1.5 1.3 1.5.5-1.3.6-1.2h24.4l1.3 1.2 1.4 1.3.4-1.3.5-1.2h2.8v2h7v-2h3v2h3v-2h18.9l.6 1 .6 1h17.7l.5-1.3.4-1.2 2.9 1.6 2.9 1.6 51.5.3c28.3.1 55.6.3 60.5.5 5 .1 31.2.4 58.3.5l49.3.2.6 1.4.5 1.4h2.8v-2h13v2h3v-2h4.9l.6 1 .6 1h47.9v-2.3l21.2.6 21.1.6 1.1 1.1c.5.5 1.8 1 2.8 1h1.8v-2h7v2h4.8l.5-1.3.4-1.2 2.2 1.2 2.1 1.3h5v-2.1l33 .3 33 .3.4-1 .4-1 .1 1.2.1 1.3h2.8l.5-1.3.5-1.2.1 1.2.1 1.3h41v-2.2l1.7 1.3 1.6 1.4.5-1.3.4-1.3 1.6 1.3 1.5 1.3.5-1.3.4-1.2 63.9.6 63.9.7v-2.3h15.7l.7-4.6c.3-2.6.6-10.3.6-17.1v-12.4l-1 .6-1 .6v-5.1h2v-18.1l-1 .6-1 .6v-5.1h2v-5h-2v-15h2v-6.1l-.9.5-.9.6.6-57 .5-57h-2.3v-5h2v-7h-2v-3h2.2l-.5-2-.5-2h1.8v-3.9l-1-.6-1-.6v-6.8l1-.6 1-.6V1540h-2v-7h2v-13h-2v-5h2v-5h-2v-3h2v-2.8l-1.2-.5-1.3-.5 1.3-.1 1.2-.1v-6.8l-1-.4-.9-.3.9-87.4 1-87.5-1.3-.8-1.2-.8h2.5v-18.8l-1.2-.5-1.3-.5 1.3-.1 1.2-.1v-33h-1.9l.6-20.2.6-20.3.9-.3.8-.4v-8.8h-2v-64h-2.1l1.5-1.6 1.6-1.5V1110h-2v-3h2v-4.8l-1.2-.5-1.3-.5 1.3-.1 1.2-.1v-10.8l-1.2-.5-1.3-.5 1.3-.1 1.2-.1v-2.8l-1.2-.5-1.3-.5 1.3-.1 1.2-.1v-7h-2v-15h2v-3h-2.3l.6-11.1.6-11.2 1-1c.6-.6 1.1-1.9 1.1-2.9v-1.8h-2v-5h2v-3h-2.3l.7-74 .8-74h-2.2v-3h2v-6.8l-1.2-.5-1.3-.5 1.3-.1 1.2-.1v-5h-2v-3h2v-3h-2v-18.9l1.5-1.5 1.5-1.5V816h-2v-41h2v-2.8l-1-.4-1-.3 1.1-109.4 1.2-109.3-1.4-.9-1.4-.9h2.5v-7h-2v-3h2v-6.8l-1.2-.5-1.3-.5 1.3-.1 1.2-.1v-9h-2v-2.8l1.5-.6 1.5-.5V506h-2v-21h2v-5h-2v-5h2v-2.8l-1.2-.5-1.3-.5 1.3-.1 1.2-.1v-5h-2v-11h2v-9h-2.2l.4-17.2.3-17.1 1.3-.5 1.2-.4V406h-2v-17h2v-3h-2.2l.4-42 .3-42-1-.4-1-.4 1.3-.1 1.2-.1v-15h-2.3l.6-57.9.6-58-1.2-.4-1.2-.5 1.3-.1 1.2-.1v-12.8l-1.2-.5-1.3-.5 1.3-.1 1.2-.1v-8.8l-1.2-.5-1.3-.5 1.3-.1 1.2-.1v-11h-2v-3h2v-2.8l-1.2-.5-1.3-.5 1.3-.1 1.2-.1v-2.8l-1.2-.5-1.3-.5 1.3-.1 1.2-.1v-5h-1.8l.6-38.4.5-38.4-1.6-1.6-1.6-1.6H2512v2h-3v-2h-3v2.3l-54.9-.6-54.9-.7-.5 1.3-.5 1.2-.1-1.3-.1-1.2h-63v2h-4.8l-.6-1.5-.5-1.5h-9.9l-.5 1.2-.5 1.3-.1-1.3-.1-1.2h-4.8l-.5 1.2-.5 1.3-.1-1.3-.1-1.2h-6.8l-.5 1.2-.5 1.3-.1-1.3-.1-1.2h-7v2h-7v-2h-27v2h-13v-2h-23v1.8l-6.2-.5-6.3-.6-.3-.8-.4-.9h-4.8v2h-7v-2h-9v2h-15v-2h-12.8l-.5 1.2-.5 1.3-.1-1.3-.1-1.2h-3v2h-5v-2h-9v2h-17v-1.8l-11.2-.7-11.2-.7-.4 1.1-.4 1.1H2071v-2h-4.8l-.4 1.1-.3 1L1959 37l-106.5-1.1-.3 1-.4 1.1h-2.8v-2h-17v2h-3v-2h-5v2h-7v-2h-7v2h-6.1l-1.7-1.6-1.6-1.7-.4 1.2-.4 1.1H1789v-2h-3v2h-27v-2h-3v2.1l-74-.7-74-.7v2.8l-.8-1.1-.7-1.1-11.2-.6-11.3-.7v2h-3v-2h-29v2h-1.4c-.8 0-1.6-.4-1.8-.9l-.3-.8-39.2-.5-39.3-.5V36h-7v-2h-20.8l-.5 1.2-.5 1.3-.1-1.3-.1-1.2h-8.8l-.5 1.2-.5 1.3-.1-1.3-.1-1.2h-7v2h-17v-2h-5v2h-13v-2h-1.4c-.8 0-1.6.3-1.8.7l-.3.8-84.5-.8-84.5-.8-.3 1.1-.4 1H1199v-2h-9v2h-6.8l-.4-.9-.3-1-12.2-.7-12.3-.7V35h-3v-2h-7v2h-5v-2h-55v2h-3v-2h-3v2h-12.1l-1.5-1.5-1.5-1.5h-10.7l-.5 1.2-.5 1.3-.1-1.3-.1-1.2h-11v2h-9v-2h-6.8l-.5 1.2-.5 1.3-.1-1.3-.1-1.2h-7v2h-3v-2h-17v2h-11v-2h-7v2h-14.8l-.4-1-.3-1-6.2-.6-6.3-.7v2.6l-94.6-.8-94.6-.7-.9 1.3-.9 1.4V32h-9v2.4l-1.6-2-1.5-1.9-.5 1.2-.6 1.3H747v-2h-5v2h-5v-2h-16.8l-.5 1.2-.5 1.3-.1-1.3-.1-1.2h-3v2h-17v-2h-4.8l-.5 1.2-.5 1.3-.1-1.3-.1-1.2h-3v2h-3v-2h-3v2h-25v-2h-3v1.8l-20.2-.6-20.3-.5-.3-.8c-.2-.5-1-.9-1.8-.9H612v2h-58v2.5l-1-1.5-.9-1.5-47.1-.3-47-.4V33h-3v-2h-7v2h-10.9l-1.5-1.5-1.5-1.5H424v2h-47v-2h-3v1.1zM264 45v1h2.8l.4-1.1.3-1 88.5.8 88.5.8.3-.7.4-.8h4.8v2h23v-2h13v2h11v-2.3l33.2.6 33.3.7.3 1 .4 1h2.8v-2.3l68 .7 68 .7V44h3v2h3l.1-1.3.1-1.2.5 1.2.5 1.3H725v-2h3v2h15v-2h5v2h3v-1.7l2.5.5 2.5.4V47h3v-2h15v2h7v-2.2l88 .8 88 .7v-2.8l.8 1.1c.4.6 2 1.4 3.6 1.8l2.9.7.8-1.3.9-1.3V47h35v-2h11v2h18.8l.4-1 .3-.9 146.4 1.5 146.5 1.4.8-1.2.8-1.3V48h25v-2h7v2h10.8l.4-.8.3-.8 123.5 1.2 123.5 1.1.7-1.1.8-1.1V49h21l.1-1.3.1-1.2.5 1.2.5 1.3h1.3c.7 0 1.5-.5 1.7-1l.3-1.1 83.5.9 83.5.8.7-1.1.8-1V49h3l.1-1.3.1-1.2.5 1.2.5 1.3h8.8v-2h7v2h4.8l.4-1.1.4-1.1 102.4 1 102.5 1.1.4-1.1.3-1 .7.9.6 1 48.3.6 48.2.5V48h9v2h19v-2h3v2h3l.1-1.3.1-1.2.5 1.2.5 1.3h6.8l.1-1.3.1-1.2.5 1.2.5 1.3h4.8v-2h7v2h9l.1-1.3.1-1.2.5 1.2.5 1.3h6.8l.1-1.3.1-1.2.5 1.2.5 1.3h2.8v-1.7l9.3.5 9.2.5.3.8c.2.5 1 .9 1.8.9h1.4v-2h13v2h7v-2h23v2h9v-2h15v2h5v-2h5v2h7v-1.5l37.2.3 37.3.3.3.9c.2.6 1 1 1.8 1h1.4l.1-1.3.1-1.2.5 1.2.5 1.3h2.8v-2.3l22.3.7 22.2.7.3 1c.2.5 1 .9 1.8.9h1.4v-2h13v2h3v-2h35v2h5v-2h4.1l1.6 1.6 1.6 1.6-.6 32.4-.6 32.4h1.9v15h-2v7h2.3l-.5 40-.5 40 1.1.1 1.1.1-1.2.5-1.3.5V235h2v3h-2v13h2v3h-2v3l1.3.1 1.2.1-1.2.5-1.3.5v2.8h2v3h-2v5h2v13h-2v3h2v21h-1.8l-.4 2.5-.5 2.5h1.7v30l1.3.1 1.2.1-1.3.5-1.2.5V389l1.3.1 1.2.1-1.2.5-1.3.5V405h2v3h-2v5h1.3l1.2.1-1.7 1-1.8 1v5.9h2v5h-2v5h2v5h-2v23l1.3.1 1.2.1-1.2.5-1.3.5V479h2v5h-2v3l1.3.1 1.2.1-1.2.5-1.3.5v4.8h2v9h-2v7h2v1.4c0 .8-.4 1.6-.9 1.8l-1 .3-.7 8.9-.7 8.8 1.4.9 1.4.9h-2.5v3h2.3l-.7 77-.7 77h2.1v4.8l-1 .4-.9.3-.7 47.2-.7 47.3h2.3v3h-2v7l1.3.1 1.2.1-1.2.5-1.3.5v4.8h2v15h-2v3h2v10.8l-1.5.6-1.5.5v4.1h2v5h-2v11h2v5h-2v5h2v5h-2v5h2v17h-2v3h2v17h-2v3h2.3l-.5 16.2-.6 16.2-1.1.4-1.1.4V959h2v34h2v3h-2v11l1.3.1 1.2.1-1.2.5-1.3.5v14.8l1.3.1 1.2.1-1.2.5-1.3.5v18.6l1.3.6 1.2.5-1.7 1.4-1.8 1.4v6.9l1.2 1.2 1.2 1.2h-2.4v1.5c0 .8.6 2.5 1.3 3.6l1.2 2.2-1.2.4-1.3.5v6.8h2v13h-2v5h2v3h-2v7h2.1l-.7 67-.7 67h2.3v7h-2v3h2v12.1l-1.5.5-1.5.6v3.7l1 .6 1 .6v18.9h-2v3h2v7h-2v5h2v13h-2v31h1.8l-.6 45-.5 45h2.3v1.4c0 .8-.4 1.6-.9 1.8l-1 .3-.7 37.2-.7 37.3h2.3v3h-2v25h2v3h-2v3h2v26.3l-1.7 1.4-1.8 1.4 1.3.5 1.2.6v10.8h-2v3h2v11h-2v3h2v7h-2v5h2v5h-2v5h2v7h-2v9h2.1l-.7 46.6-.7 46.6 1.4.9 1.4.8-1.3 1.3-1.2 1.2v18.4l1.3.6 1.2.6-1.2.6-1.3.6v16.9l-1-.6-1-.6v2.1h-18v2h-5v-2h-13l-.1 1.2-.1 1.3-.5-1.3-.5-1.2h-6.8v2.4l-1.2-1.2-1.2-1.2h-3.6v2.2l-51-.7-51-.8v2.3h-8.9l-.6-1-.6-1h-7.9v2h-3v-2h-3v2h-16.8l-.6-1.5c-.7-1.9-2-1.9-3.8-.2l-1.3 1.4-5.3-.1-5.2-.1-.5-1.3-.4-1.2H2290v2h-3v-2h-9v2h-7v-2h-9v2h-22.9l-.6-1-.6-1H2216v2h-3.1l-.4-1.3-.5-1.2-11.2-.3-11.1-.2-1.4-1.2-1.5-1.2-.9 1.5-.9 1.4v-2.5h-3l-.1 1.2-.1 1.3-.5-1.3-.5-1.2h-2.8v2.4l-1.2-1.2-1.2-1.2h-22.5l-.6-1-.6-1h-16.8l-.6-1-.6-1H2115v-2h-5v1.2l-.1 1.3-.8-1.5-.9-1.5-7.6.1h-7.5l-.5-1.3-.5-1.3h-15l-.6-1-.6-1H2061v-2h-20v-2h-14v-2h-14v-2h-3v2h-4.8l-.4-1.1-.4-1.1h-9.2l-.6-1.3-.5-1.3-6.2-.1-6.3-.1-1-1-1-1h-8.6v-2h-10v-2h-3l-.1 1.2-.1 1.3-.5-1.3-.5-1.2H1943v-2h-14v-2h-8v-2h-14v-2h-10.6l-1.1-1.1-1.1-1.1-5.8-.5-5.9-.5-2.7-1.1c-1.6-.7-2.8-1.5-2.8-1.9v-.8h-12v-2h-12v-2h-12v-2h-8v-2h-8v-2h-12v-2h-6v-2h-7.8l-.4-.9-.3-.9-4.5-.3-4.5-.4-.7-1-.7-1-4.3-.1-4.2-.2-.4-1.1-.4-1.1h-7.8v-2h-10v-2h-8v-2h-10v-2h-8v-2h-8v-2h-8v-2h-8v-2h-4v-2h-10v-2h-5.8l-.4-1.2-.4-1.1h-6.9l-.6-.9-.5-.9-3.5-.4-3.4-.4-.3-1.1-.4-1h-5.8v-2h-10v-2h-6v-2h-6v-2h-6v-2h-9v-2h-6v-2h-5.9l-.6-1-.6-1h-4.8l-.6-1-.6-1h-5.5l-2.7-1.3c-1.5-.6-2.7-1.5-2.7-2v-.7h-6v-2h-6v-2h-5.8l-.5-1.3-.5-1.4-3 .5-3.1.4-1.6-1.3c-.8-.8-2.1-1.9-2.8-2.4l-1.2-1-3.5-.3c-1.9-.2-3.9-.8-4.4-1.3-.6-.5-2-.9-3.3-.9h-2.3v-2h-6v-2h-4v-2h-6v-2h-4v-1.8l-6-.7-6-.7v-1.8h-4v-2h-6v-2h-6v-2h-6v-2h-6v-2h-4v-2h-4v-2h-4v-2h-7.1l-.5-1.5-.6-1.5h-3.8v-2h-6v-2h-4v-2h-6v-2h-6v-2h-6v-2h-4v-2h-4v-2h-3.6l-1.4-2-1.4-2h-5.6v-2h-6v-2h-4v-2h-4v-2h-6v-2h-4v-2h-4v-2h-6v-2h-4v-2h-4v-2h-4v-2h-6v-3h-4v-2h-4v-2h-3v-2h-6v-2h-4v-2h-4v-2h-4v-2h-6v-2h-3.6l-1.4-2-1.4-2h-3.6v-2h-6v-2h-6v-2h-4v-2h-4v-2h-4v-2h-4v-2h-4v-2h-4v-2h-4v-2h-4v-2h-4v-2h-4v-2h-4v-2h-3.1l-.5-1.5-.6-1.5h-5.4l-1.4-2-1.4-2h-3.6v-2h-6v-2h-4v-2h-4v-2h-3.6l-1.4-2-1.4-2h-3.6v-2h-5.6l-1.4-2-1.4-2h-3.2l-1.4-2-1.4-2h-3.6v-2h-4v-2h-4v-2h-4v-2h-3.6l-1.4-2-1.4-2h-3.6v-2h-4v-2h-3.6l-1.4-2-1.4-2h-3.6v-2h-3.6l-1.4-2-1.4-2h-3.6v-2h-4v-1.1c0-1.4-1.9-3.1-5.5-4.9-1.6-.8-3.7-2.3-4.6-3.2l-1.6-1.8h-3.3v-2h-4v-2h-4v-2h-3.6l-1.4-2-1.4-2h-3.6v-2h-3.6l-1.4-2-1.4-2h-2.7l-3.4-3.5c-1.9-1.9-3.5-3.7-3.5-4 0-.4 1.8-2.4 4-4.5s4-4.3 4-5v-1.1l8-7.9 8-7.9v-2.7l2-1.4 2-1.4v-2.7l5-4.9 5-4.9v-1.1c0-.6 1.8-2.9 4-5l4-3.8v-2.4l3.3-2.9c1.7-1.6 3.5-2.9 4-2.9h.7v-3.7l5.5-5.1c3-2.9 5.7-5.2 6-5.2.9 0 5.5-5.1 5.5-6.2 0-.6 2-3 4.3-5.4l4.4-4.3 38.6-.3 38.6-.3 1.2-1.2 1.2-1.2-1.8-1.8-1.9-1.8-40.3-.3-40.3-.3-6.5 6.5-6.5 6.6v3h-1.6c-1.8 0-4.4 2.4-4.4 4.1v1.2l-2.7 2.3c-1.6 1.3-3.1 2.4-3.5 2.4-.5 0-.8.5-.8 1.2v1.2l-6 5.7-6 5.7v2.4l-3 2.8-3 2.8v2.8l-2 1.4-2 1.4v3.6h-4v3.1l-6 5.9-6 5.9v1.1c0 .6-1.8 2.9-4 5l-4 3.8v1.2c0 .7-1.3 2.5-3 4l-3 2.8v3.2h-4v2h-5v-2h-4v-2h-3.6l-1.4-2-1.4-2h-3.2l-1.4-2-1.4-2h-3.6v-2h-3.6l-1.4-2-1.4-2h-3.2l-1.4-2-1.4-2h-3.6v-2h-3.1l-2.4-2.3c-1.4-1.2-3.6-3.2-5-4.5-1.3-1.2-2.9-2.2-3.6-2.2-.6 0-2.4-1.4-3.9-3l-2.8-3h-2.8l-1.4-2-1.4-2h-3.2l-1.4-2-1.4-2h-3.2l-1.4-2-1.4-2h-2.8l-2.8-3-2.8-3h-2.8l-1.4-2-1.4-2h-3.6v-2h-3.2l-2.8-3-2.8-3h-3.1l-.6-2-.6-2h-3.5l-1.4-2-1.4-2h-2.8l-2.8-3-2.8-3h-2.8l-1.4-2-1.4-2h-2.8l-2.8-3-2.8-3h-2.4l-2.8-3-2.8-3h-2.5l-2.3-2.7c-1.3-1.6-2.4-3.1-2.4-3.6 0-.4-.7-.7-1.6-.7h-1.6l-2.8-3-2.8-3h-2.4l-2.8-3c-1.5-1.7-3.3-3-4-3h-1.1l-5.9-6-5.9-6H923c-.6 0-2.9-1.8-5-4s-4.4-4-5-4h-1.1l-5.9-6-5.9-6H899c-.6 0-2.9-1.8-5-4l-3.8-4h-2.4l-3.8-4c-2.1-2.2-4.3-4-4.9-4-.6 0-3.6-2.4-6.5-5.4l-5.5-5.4.6-.6.6-.6h-3.4l-4.4-4.5-4.5-4.4v-4.9l1.4-2.7c.8-1.5 3-4.2 5-6l3.6-3.3v-2.9l6-5.6 6-5.6v-3.1h2v-7h-2l1.2-2.2c.7-1.3 2.1-3 3.1-3.9l1.7-1.6v-3.3h2v-3.2l3-2.8 3-2.8v-3.2h2v-3.2l3-2.8 3-2.8v-3.2h2v-4h2v-3.6l2-1.4 2-1.4v-1.4c0-.7.9-2.3 2-3.5 1.1-1.2 3.5-4 5.5-6.2l3.5-3.9v-4.6l2-1.2 2-1.3v-3.5h2v-3.6l2-1.4 2-1.4v-3.6h2v-4h2v-3.2l3-2.8 3-2.8v-3.2h2v-3.2l3-2.8 3-2.8v-2.8l2-1.4 2-1.4v-2.7l2.3-2.2 2.2-2.2 40.8.3 40.7.2v-7h-38v-2h-5l-.1 1.2-.1 1.3-.5-1.3-.5-1.2H982l-.1 1.2-.1 1.3-.5-1.3-.5-1.2H976v2h-7v-1.7l-10-.7-10-.7-1.5 1.5-1.5 1.5v3.1h-2v4h-2v3.6l-2 1.4-2 1.4v3.6h-2v3.6l-2 1.4-2 1.4v3.6h-2v3.6l-2 1.4-2 1.4v3.2l-2 1.4-2 1.4v3.6h-2v3.6l-2 1.4-2 1.4v3.2l-2 1.4-2 1.4v3.6h-2v5.2l-3 2.8c-1.6 1.5-3 3.2-3 3.8 0 .5-1.1 1.8-2.5 2.8l-2.5 1.9v3.1l-2 1.4-2 1.4v3.2l-2 1.4-2 1.4v3.6h-2v3.6l-2 1.4-2 1.4v3.6h-2v3.6l-2 1.4-2 1.4v3.2l-2 1.4-2 1.4v2.7l-3.5 3.4-3.4 3.5h-4.2l-1.5 1.4c-.8.8-1.4 2.2-1.4 3v1.6h-2v8h-2v6h-2v4h-2v5.9l-2 .6-2 .6v1.9h-4.2l-3.8-4c-2.1-2.2-4.3-4-4.9-4H835l-16-16-16-16h-1c-.6 0-5.1-4-10-9l-8.9-9H782c-1.5 0-4-2.5-4-4 0-1.4-2.5-4-3.9-4H773l-9.5-9.5c-5.3-5.2-9.3-9.5-8.9-9.5.3 0-1.3-1.8-3.6-4s-4.6-4-5.1-4h-.9v-4h-3.1l-3.4-3.5-3.5-3.4v-3.1h-3l-23-23-23-23h-3v-3.1l-4.5-4.4-4.4-4.5H671v-4h-3l-5.5-5.5c-3-3-5.5-5.9-5.5-6.5 0-.6-1.9-3.1-4.2-5.5-2.4-2.5-5.8-6-7.5-8l-3.3-3.4v-2.8l-5.4-5.7-5.4-5.6H630c-1.5 0-4-2.5-4-4 0-.6-1.8-2.9-4-5l-4-3.8v-2.8l-2-1.4-2-1.4v-2.7l-10-9.9c-5.5-5.5-10-10.4-10-11 0-.6-4-5.1-9-10l-9-8.9V952c0-.6-3.6-4.6-8-9s-8-8.4-8-9c0-1.2-1-2.6-5.7-7.5-1.8-1.9-3.3-3.9-3.3-4.5 0-.6-2.8-3.9-6.2-7.4-9.1-9.3-11.8-12.5-11.8-13.9v-1.3l-2-1.4-2-1.4v-2.7l-6-5.9-6-5.9v-2.2l-6-5.9-6-5.9v-2.7l-2-1.4-2-1.4V859h-2v-8h-2v-6h-2v-4h-2v-6h-2v-6h-2.2l.6-3 .6-3h-2v-4h-2v-8h-2v-4h-2v-4h-2v-6h-2v-6h-2v-4h-2v-4h-2v-6h-2v-6h-2v-4h-2v-6h-2v-4h-2v-8h-2v-5.6l-2-1.4-2-1.4V735h-2v-8h-2v-6h-2.1l.6-1 .6-1H449v-6h-2v-4h-2v-6h-2v-6h-2v-6h-2v-5.6l-2-1.4-2-1.4v-3.5l-1-.6-1-.6V670h-2v-4h-2v-6h-2v-6h-2v-4h-2v-6h-2v-6h-2v-4h-2v-6h-2v-6h-2v-6h-1.7l.5-3 .4-3H410v-4h-2v-4h-2v-6h-2v-6h-2v-6h-2v-6h-2v-4h-2v-8h-2v-4h-2v-8h-2v-4h-2v-4h-2v-6h-2v-6h-2v-4h-2v-6h-2v-4h-2v-6h-2.3l.7-3.8.6-3.8-2-1.4-2-1.4V498h-2v-8h-2v-4h-2v-4h-2v-6h-2v-6h-2v-4h-2v-6h-2v-6h-2v-6h-2v-4h-2v-4h-2v-8h-2v-4h-2v-7.6l-2-1.4-2-1.4V410h-2v-4h-1.8l.5-4 .6-4H334v-4h-2v-5.9l-1-.6-1-.6V381h-2v-4h-2v-4h-2v-8h-2v-6h-2v-4h-2v-4h-2v-8h-2v-4h-2v-6h-2v-4h-2v-4h-2v-6h-2v-8h-2v-6h-2v-5.9l-1.5-1.5-1.5-1.5v-6.7l-2-1.4-2-1.4V279h-2v-6h-2v-4h-2v-6h-2v-6h-2v-6h-2v-4h-2v-6h-2v-6h-2v-4h-2v-6h-2v-6h-2v-4h-2v-4h-2v-8h-2v-4h-2.2l.4-3 .5-3H260v-8h-2v-5.6l-2-1.4-2-1.4V171h-2v-8h-2v-4h-2.3l.5-46.2.6-46.2 1.1-.4 1.1-.4V63h-2V46h4v-2h11v1zm-12 160.4v2.6h2v6h2v4h2v4h2v8h2v4h2v6h2v6h2v6h2v4h2v6h2v4h2v6h2v7.6l2 1.4 2 1.4v3.6h2v6h2v6h2.1l-.6 2-.6 2h2.1v4h2v6h2v6h2v8h2v4h2v6h2v4h2v4h2v8h2v6h2v4h2v4h2v6h2v6h2v6h2v4h2v6h2v6h2.2l-.4 3-.5 3h1.7v6h2v4h2v5.9l1 .6 1 .6v5.9h2v4h2v8h2v3.8l3 5.7c1.7 3.1 3 6.3 3 7.1v1.4h2v4h2v8h2v4.9l1 .6 1 .6v3.9h2v6h2v6h2v4h2v8h2v4h1.9l-.5 1.4-.5 1.4 1 .7 1.1.6v7.9h.8c.8 0 3.2 4.9 3.2 6.7v1.3h2v6h2v6.9l1 .6 1 .6v3.5l2 1.4 2 1.4v5.6h2v7.6l2 1.4 2 1.4v7.6h2v4h2v6h2v4l1.3.1 1.2.1-1.2.5c-.7.2-1.3 1-1.3 1.7v1.2l2 1.4 2 1.4v9.6h2v4h2v6h2.2l-.5 2-.5 2h.6c.4 0 1.3 1.2 2 2.7l1.2 2.7v6.6h2v4h2v8h2v4h2v4h2v6h2v4h2v8h2v4h2v6h2v6l1.3.1 1.2.1-1.2.5-1.3.5v2.8h2v6h2v4h2v6h2v4h2v9h2v2.2c0 1.3.7 3.6 1.5 5.2l1.5 2.8v5.8h2v4h2v6h2v6h2v4.7l2 1.8 2 1.8v5.7h2v6h2v4.9l1 .6 1 .6v4.8l1 .6 1 .6v5.9h2v4h2v6l1.3.1 1.2.1-1.2.5c-.7.2-1.3 1-1.3 1.7v1.2l2 1.4 2 1.4v7.6h2v4h2v6h2v4h1.7l-.4 2.4-.5 2.4 1.1.6 1.1.7v6.8l1 .6 1 .6v4.8l1 .6 1 .6v3.9h2v6.1l-1.4 1.5-1.5 1.4H468v7h10v2h3l.1-1.3.1-1.2.5 1.2.5 1.3h4.9l1.5 1.4 1.4 1.5v5.1h2v27.1l1.4 1.5c1.8 1.8 2.4 1.8 4.2 0l1.4-1.5V884h1c1.4 0 12 10.7 12 12 0 .6 2.7 3.8 6 7s6 6.4 6 7v1.1l7 6.9 7 6.9v3.2l2.8 2.6 2.7 2.5-.3.9-.2.9h3.3l-.6.7-.7.6 2 1.4 2 1.4v3l4 3.8c2.2 2.1 4 4.2 4 4.8 0 1.3 5.4 6.3 6.8 6.3h1.2v2.8l4 4.1c2.2 2.2 4 4.6 4 5.1v1.1l1.7.6c2.3.9 12.3 11 12.3 12.4 0 .6 1.8 2.8 4 4.9 2.2 2.1 4 4.3 4 4.9v1.1l15 15 15 15v1c0 1.5 2.5 4 4 4h1.2l3.6 4c5.7 6.1 6.2 6.8 6.2 8.5v1.5h2.9l1.1 2c.6 1.1.9 2 .6 2-.3 0 5.3 5.7 12.4 12.7l13 12.8v3.5h3.2l10.4 10.5L694 1097v3h3l20.4 20.4c11.3 11.2 20.2 20.6 20 20.9-.3.3.9 1.1 2.5 1.8l3.1 1.4v2.7l3 2.8c1.7 1.5 3 3.3 3 3.9v1.1h3.5l11.9 12c6.5 6.6 12.2 12 12.8 12 1.3 0 3.8 2.6 3.8 4v1.1l1.7.6c1 .4 7 6 13.5 12.5l11.7 11.8h3.1v3.1l3.5 3.4c1.9 1.9 3.9 3.5 4.5 3.5.6 0 4.2 3.1 8 7l6.9 7h1.2c.6 0 2.4 1.3 3.9 3l2.8 3h3.2v4h3.6l1.4 2.2c.8 1.2 2.5 3.2 3.8 4.4 1.2 1.1 2.2 2.3 2.2 2.6 0 .3 2 2.6 4.5 5.2l4.5 4.6h2.5l4.8 5 4.9 5h2.8l1.2 2 1.3 2h2.7l2.8 3 2.8 3h3.2v3.1l4.5 4.4 4.4 4.5h2.7l1.4 2 1.4 2h3.6v2h3.1l6.9 7 6.9 7h2.7l1.4 2 1.4 2h2.8l2.8 3c1.5 1.6 3.3 3 4 3h1.2l3.8 4c2.1 2.2 4.3 4 5 4 .6 0 2.4 1.6 4.1 3.5l3.1 3.5h2.6l2.3 3 2.4 3h3.5v2h3.1l3.5 3.5c1.9 1.9 3.2 3.5 2.9 3.5-.4 0 0 .7.9 1.5.8.8 2.1 1.5 2.8 1.5h1.4l1.4 2 1.4 2h3.6v2h3.8l2.3 3 2.4 3h3.5v2h3.2l3.8 4 3.8 4h1.2c.7 0 2.5 1.3 4 3l2.8 3h2.8l1.4 2 1.4 2h3.2l1.4 2 1.4 2h2.8l2.8 3 2.8 3h3.2v2h4v2h3.6l1.4 2 1.4 2h1.6l1.5.1 2.5 3.4 2.5 3.4 1.7.1h1.8l1.2 2 1.3 2h3.5v2h4v2h3.2l2.8 3 2.8 3h2.8l1.4 2 1.4 2h3.6v4h2.3l-2.1 1.9c-1.2 1-2.2 2.4-2.2 3.1v1.2l-3 2.8c-1.6 1.5-3 3.3-3 4 0 1.6-2.6 4-4.4 4h-1.6v4h-.8c-.4 0-2.5 1.5-4.5 3.4l-3.7 3.4v2.4l-3 2.8c-1.6 1.5-3 3.3-3 4 0 .6-.6 1.8-1.4 2.6l-1.5 1.4h-3.9l-.6-1.5-.5-1.5h-3.2l-1.5 1.4-1.4 1.5v5.1h-2v4h-2v4h-2v4h-2v5.2l-4 3.8-4 3.8v3.2h-4v2h-3v-2h-4v-2h-5.6l-1.4-2-1.4-2h-3.2l-1.4-2-1.4-2h-5.6v-2h-3.6l-1.4-2-1.4-2H995v-2h-3.6l-1.4-2-1.4-2h-3.2l-1.4-2-1.4-2h-5.2l-1.4-2-1.4-2H971v-2h-3.6l-1.4-2-1.4-2H961v-2h-1.5c-1.6 0-2.8-.8-7-4.8l-2.4-2.2H947v-2h-4v-2h-3.6l-1.4-2c-.8-1.1-1.9-2-2.5-2-.6 0-1.7-.9-2.5-2l-1.4-2H928v-2h-3.6l-1.4-2-1.4-2H918v-2h-3.2l-2.8-3-2.8-3h-2.8l-1.4-2-1.4-2H900v-2h-3.2l-2.8-3-2.8-3H888v-2h-4v-2h-3.6l-1.4-2-1.4-2H874v-2h-3.6l-1.4-2-1.4-2h-2.8l-2.8-3-2.8-3h-2.8l-1.4-2-1.4-2H850v-1.1c0-1.5-2.6-3.9-4.2-3.9h-1.4l-1.4-2-1.4-2H838v-2h-3.6l-1.4-2-1.4-2H828v-2h-3.6l-1.4-2-1.4-2h-2.8l-2.8-3-2.8-3H810v-2h-3.6l-1.4-2-1.4-2h-3.2l-1.4-2-1.4-2h-3.2l-1.4-2-1.4-2h-2.8l-2.8-3-2.8-3H780v-2h-1.6c-.8 0-2.2-.6-2.9-1.4l-1.4-1.4.6-.6.6-.6h-3.5l-2.8-3-2.8-3h-2.8l-1.4-2-1.4-2H757v-2h-3.6l-1.4-2-1.4-2H747v-.8c0-.4-1.1-1.9-2.4-3.5l-2.3-2.7h-2.9l-1.4-2-1.4-2h-3.2l-1.4-2-1.4-2H724v2h-3.2l-3.8 4c-2.1 2.2-4.4 4-5 4h-1.1l-4.9 5c-2.7 2.7-5.4 5-6 5-.6 0-2.2 1.1-3.5 2.5l-2.5 2.4v3.1h-3.6l-1.4 2c-.8 1.1-1.8 2-2.3 2-.4 0-3.5 2.7-6.7 6s-6.4 6-7 6c-.6 0-2.2 1.1-3.5 2.5l-2.5 2.4v3.1h-3.1l-4.9 5-4.9 5H653c-1.7 0-4 2.6-4 4.4v1.6h-3.1l-2.5 2.5-2.5 2.5h-3l-2.4 2.5-2.5 2.4v3.1h-3.1l-10.9 11c-6 6.1-11.4 11-12 11-.6 0-6.4 5.4-13 12s-12.4 12-13 12c-1 0-5.8 4.3-18.5 16.7-4.1 4-8 7.3-8.5 7.3-.6 0-3.3 2.2-6 5l-4.9 5H542c-.7 0-2.5 1.4-4.1 3.1-1.6 1.7-2.9 2.8-2.9 2.4 0-.4-1.3.7-2.9 2.4-1.6 1.7-3.4 3.1-4 3.1h-1.2l-9.9 10-9.9 10H506c-.7 0-2.9 1.8-5 4s-4.3 4-4.9 4H495v-6h-7v13.2l-4 3.8-4 3.8v3.2h-3.1l-6.9 7c-3.8 3.8-7.4 7-7.9 7-.6 0-3.4 2.3-6.2 5l-5.1 5H448l-9.5 9.5-9.5 9.5h-3.1l-12.9 13-12.9 13H399c-.6 0-4.6 3.6-9 8l-7.9 8H379v3h-3.1l-2.4 2.5c-1.4 1.3-2.5 2.9-2.5 3.5 0 1.5-2.5 4-4 4h-1.1l-4.9 5c-2.7 2.7-5.4 5-6 5h-1.1l-6.9 7-6.9 7H337v4h-3.5l-6.2 5.9-6.1 5.9-.6-.5-.6-.6v3.3h-.8c-.5 0-1.9.9-3.2 2l-2.3 2-.7-.5-.7-.4-1.4 2.7c-1.6 3.2-3.4 5.2-4.6 5.2-.4 0-3 2.2-5.8 5l-5 4.9-1.2.1h-1.2l-13.1 13-13 13h-3v4h-3.1l-5.9 6-5.9 6H248c-.7 0-2.5 1.4-4 3l-2.8 3h-4.5l.6-59.9.5-60-1-.3-.9-.3 1.8-194 1.9-194-1.1-.7-1-.8h2.5v-37h-2.2l1.3-1.6 1.3-1.6-1.3-.8-1.3-.7 1.1-.7 1.1-.7v-7.9l-1.2-.1-1.3-.1 1.3-.5 1.2-.5v-18.6l-1.2-.5-1.3-.4 1.2-2.4 1.2-2.4.6-19.3.7-19.2h-2.6l1.2-1.2 1.2-1.2V1105l-1.2-.1-1.3-.1 1.3-.5 1.2-.5v-6.8h-2.4l1.2-1.2 1.2-1.2v-35.4l-1.2-.5-1.3-.4 1.4-2.3 1.3-2.4.9-77.5.8-77.6 1-.3 1.1-.4V895h-2v-11h2v-3h-2v-12.1l2.5-2.4 2.4-2.5H266v2h3v-2h15.1l1.5-1.4c1.8-1.8 1.8-2.4 0-4.2l-1.5-1.4h-36.2l-2.4-2.5c-2.6-2.5-3.2-4.5-1.5-4.5h1v-3h-2v-13h2v-3h-2v-6.3l1.8-1.4 1.7-1.4-1.2-.5-1.3-.6V810h2v-3h-2.3l.6-62 .6-62H243v-12.6l1.3-1.3 1.2-1.4-1.2-.4-1.3-.5V638h2v-7l-1.2-.1-1.3-.1 1.3-.5 1.2-.5V625h-2.2l.7-11.3.7-11.2.9-1 .9-.9V593h-2v-11h2v-3h-2v-9h2v-11h-2.4l1.2-1.2 1.2-1.2V547h-2v-11h2v-5l-1.2-.1-1.3-.1 1.3-.5 1.2-.5V527h-2v-10.8l1-.4.9-.3.7-8.3.7-8.2h-2.7l1.2-1.2c.7-.7 1.2-2 1.2-2.9v-1.7l-1.2-.5-1.3-.4 1.3-2.2 1.2-2.1v-9h-2v-5h2v-3h-2v-7h2v-3h-2.2l.3-33.2.4-33.1 1.3-.5 1.2-.4V391h-2v-27h2v-11h-2v-5h2v-3h-2v-31h2v-3h-2v-3h2v-3h-1.7l.5-16.3.5-16.2.8-.3.9-.4V261h-2v-11h2v-3h-2v-7h2v-5h-2v-3h2v-19h-2v-3h2v-10.1l1.5 1.5 1.5 1.5v2.5zM724.5 1351l.7 13h3.9l1.4-1.3 1.3-1.4.3-5.5.2-5.4-.7-1.2-.7-1.2h2.1v-3h-1.8l1.1-2.5 1.2-2.5h4.1l1.4 2 1.4 2h3.6v.8c0 .5 1.9 1.8 4.3 3l4.3 2.2 1.4 2.5 1.3 2.5h6.6l.6 1.9.6 1.9 3.2 1.5c1.8.9 4.3 2.7 5.6 4.1l2.4 2.6h2.7l1.2 2 1.3 2h3.5l1.2 2 1.3 2h3.1l1.4 2 1.4 2h3.6v2h3.6l1.4 2 1.4 2h2.8l2.8 3 2.8 3h2.4l2.8 3 2.8 3h3.2v2h3.6l1.4 2 1.4 2h3.2l1.4 2 1.4 2h3.6v2h3.6l1.4 2 1.4 2h1.4c.7 0 2.3.9 3.5 2 4.7 4.4 8.2 7 9.5 7 .6 0 1.2.4 1.2.8 0 .5 2.1 2 4.8 3.3 2.6 1.3 5.4 3.2 6.3 4.1l1.6 1.8h3.3v2h3.6l1.4 2 1.4 2h3.2l1.4 2 1.4 2h3.2l1.4 2 1.4 2h3.6v2h4v2h3.6l1.4 2 1.4 2h1.4c.7 0 2 .6 2.7 1.4l1.4 1.4-.6.6-.6.6h6.3v1.8l5.4 2.6c3 1.5 5.9 3.3 6.6 4.1.7.8 1.9 1.5 2.6 1.5h1.4v2h4v.8c0 .5 1.2 1.5 2.8 2.3 1.5.8 3.4 2.2 4.3 3.1l1.6 1.8h4.9l1.4 2.1 1.5 2 3.5 1.7c1.9.9 4.2 2.4 5.1 3.4.9 1 2.1 1.8 2.6 1.8.6 0 2.4.7 4.2 1.6l3.2 1.6.6 1.4.5 1.4h3.8v2h4v2h4v2h4v2h4v2h4v2h4v2h3.6l1.4 2 1.4 2h3.6v2h4v2h3.6l1.4 2 1.4 2h5.6v2h4v2h4v2h3.6l1.4 2 1.4 2h5.6v2h4v2h4v2h4v2l4 1.7c2.2 1 4 2.1 4 2.5v.8h4v2h6v2h4v2h4v2h4v2h4v2h4v2h4v2h5.1l1.4 1.4 1.4 1.4-.6.6-.6.6h6.2l.6 1 .6 1h4.9v2h1.3c1.8 0 6.7 2.4 6.7 3.2 0 .5.6.8 1.4.8 1.7 0 10 4.2 10.4 5.2l.4.8h5.8v2h4v2h6v2h5.5l1.9 2.5 1.9 2.5h2.7v2h3.9l.6 1 .6 1h1.8c2.1 0 7.1 2.2 7.1 3.2v.8h6v2h4v2h2.3c2.6 0 7.7 2.1 7.7 3.2v.8h4v2h6v2h6v2h4v2h6v2h4v2h6v2h6v2h4v2h6v2h6v2h5.1l1.5 1.5 1.5 1.5h3.9v2h5.3l1.6 1.8 1.6 1.8 3.5.2 3.5.3.9.9 1 1h4.6v2h6v2h6v2h4v2h6v2h6v2h8v2h4v2h6v2h8v2h8v2h6v2h7.8l.4 1.1.4 1.1h5.4v2.3l3.6-.1 3.5-.2.6 1.4.5 1.5 2.1-.7 2-.6-.6 1.6-.6 1.6h5.8l.6 1 .6 1h5.7l5.7 3 5.7 3h9.7l.6 1 .6 1h4.9v2h6v2h10v2h7.9l.6 1 .6 1h6.9v2h8v2h9.8l.4 1.1.4 1.1 2.7.1 2.7.2v.7c0 .3 1.3.9 3 1.3 1.6.4 3.2 1.1 3.5 1.6l.6.9h4.8l.6 1 .6 1h12.9v2h6v2h12v2h8v2h10v2h10v2h14v2h7.8l.4.9.3.9 4.5.3 4.5.4.6.9.7.9 4.2.3 4.3.3 1.1 1.1 1 1h8.6v2h10v2h14v2h8v2h14v2h14v2h10v2h11.1l.4 1.2.5 1.3 6.6.2 6.6.1 1.1 1.1 1.1 1.1 1.2-1.1 1.2-1 .7 1.1.6 1h10.9v2h14v2h14v2h14v2h16v2h13.7l3.9 1.3 3.9 1.2 2.8-.1 2.9-.1.4 1.2.5 1.2 8.7.2 8.7.2.3 1 .4.9h13.8v2h28v2h12v2h13.8l.4 1.1.4 1.2 7.7-.1 7.6-.1 1.3 1.2c1.5 1.4 1.3 1.4 11.3 1.5l7.5.2v2.2l-43.2-.7-43.3-.7-.9-.9-1-.9h-5.6v2h-26.9l-.6-1-.6-1h-9.9v1.7l-21.2-.4-21.3-.5-.3-.9-.4-.9H1732v2h-8.9l-.6-1-.6-1H1706v2h-6.6l-1-.9-.9-1-16.5-.5c-9.1-.3-51.1-.8-93.5-1.1-74.1-.5-105.7-.8-213.7-2.1l-49.8-.6v2.6l-1.2-1.2-1.2-1.2h-9.6v2.4l-1.2-1.2-1.2-1.2H1298v2.5l-.8-1.2-.8-1.2-41.9-.6c-77.2-1-132.7-1.5-165.4-1.6l-32.4-.1-.8 1.4-.9 1.3-.1-1c-.1-.6-.1-1.2-.1-1.5 0-.3-7.6-.7-17-.8l-17.1-.4-.8 1.3-.8 1.3-2.3-1.1-2.3-1.2-59.5-.5c-32.7-.3-88.6-.9-124.2-1.2l-64.8-.7v2.3h-3v-2h-3v2h-5v-2h-8.7c-4.9 0-9.6-.1-10.5-.2l-1.8-.1-1.5-1.7-1.5-1.6v-25.3l-.1-25.3-1.4-1.4-1.4-1.4H724v4h-2v14h2v37.1l-1.4 1.5-1.5 1.4h-33.7l-1.3-1.2-1.3-1.3-.5 1.2-.5 1.3h-4.7l-.6-1-.6-1H672v2.2l-1.6-1.3-1.6-1.3-.8 1.3-.8 1.3-33.8-.7-33.9-.7-1.4-1.1-1.4-1.2-.4 1.2-.5 1.3h-6.7l-.6-1-.6-1H578v2h-31v-2h-5v2l-22.2-.6-22.3-.6-1.2-1-1.3-1V1710h-2v-4h-5v4h-2v33.8l1.3.6 1.2.6-1.2.6-1.3.6v8.9l-1.6 1.6-1.5 1.6-38.5-.5-38.4-.5v1.7h-4.9l-.6-1-.6-1H352v2h-3v-2h-9v2h-10.8l-.4-.9-.3-1-8.2-.5-8.3-.5v1.9h-24.9l-.6-1-.6-1H280v2h-26.8l-1.3-1.6-1.3-1.6 8.7-8.4c4.8-4.6 9.2-8.4 9.8-8.4.5 0 4.5-3.6 8.9-8s8.4-8 9-8h1.1l9.9-10 9.9-10h1.2c.6 0 2.4-1.4 3.9-3 1.5-1.7 3.3-3 4-3 1.6 0 4-2.6 4-4.4v-1.6h4v-1.9l3.9-1.7 3.9-1.7 1.3-2.4c.7-1.2 1.4-2.1 1.7-1.8.3.2 1.7-.9 3.2-2.5 1.6-1.7 3.3-3 3.9-3 .6 0 3.6-2.4 6.5-5.3 8-7.7 11.5-10.7 12.7-10.7 1.6 0 3.9-2.6 3.9-4.4v-1.6h2.7l7.9-8 7.9-8h2.6l8.9-9c4.9-5 9.4-9 10-9 .5 0 6.2-5.1 12.4-11.2 12.8-12.6 14.1-13.8 15.4-13.8.5 0 4.1-3.2 8-7 3.9-3.9 7.6-7 8.2-7h1.1l6.9-7 6.9-7h1.1c1.7 0 4-2.6 4-4.4v-1.6h3.9l.6-2 .6-2h3.9v-3.5l2.7-1.3c1.5-.6 3.6-1.2 4.6-1.2h1.9l-.3 7.7-.4 7.8 3.1.3 3.1.3.6-5.3c.4-2.9.7-9 .7-13.6v-8.2l7.5-7.5c4.1-4.1 7.9-7.5 8.5-7.5.6 0 6.4-5.3 12.8-11.8l11.8-11.8 1.1.3 1.2.4 3.7-4 3.6-4.1h3.8v-4h2.9l10.1-10c5.5-5.5 10.5-10 11-10 .6 0 4.2-3.2 8-7l6.9-7h4.1v-4h2.6l7.1-7c3.9-3.9 7.6-7 8.2-7 .5 0 4.6-3.6 9-8 4.5-4.4 8.6-8 9.2-8 1.4 0 3.9-2.6 3.9-4 0-1.5 2.5-4 4.1-4 .6 0 2-1 3-2.2 1.1-1.1 1.9-1.8 1.9-1.5 0 .3 3-2.4 6.8-6.1 6.6-6.6 10.1-9.2 12.3-9.2 1.6 0 3.9-2.6 3.9-4.4v-1.6h3.1l12.9-13 12.9-13h1.1c1.7 0 4-2.6 4-4.4v-1.6h3.1l3.7-3.5c2-2 5.3-5.1 7.3-7l3.6-3.5h2.8l1.3-2 1.2-2h2.7l.8 13zm387.5 91 1.4 2h3.2l1.4 2 1.4 2h3.6v2h4v2h3.2l2.8 3 2.8 3h3.3l-.6 1-.6 1h4.1v2h3.7l1.8 2 1.8 2h2.7v2h1.3c1.8 0 6.7 2.4 6.7 3.2v.8h3.7l1.3 2.5 1.3 2.5h1.4c.8 0 2.3.9 3.5 2l2.2 2h4.4l1.2 1.5c.7.9 2.9 2.3 4.9 3.2 2 1 4.5 2.5 5.5 3.5 1.1 1 2.6 1.8 3.3 1.8h1.3v2h6v2h3.6l1.4 2 1.4 2h5.2l1.4 2 1.4 2h3.2l1.4 2 1.4 2h5.6v2h3.6l1.4 2 1.4 2h5.2l1.4 2 1.4 2h3.6v2h4v2h4v2h4v2h6v2h4v2h4v3h3.1l2.1 2 2.2 2h1.8c2.2 0 5.7 1.9 7.9 4.2l1.6 1.8h3.3v2h4v2h4v2h6v2h4v2h4v2h4v2h4v2h4v2h4v2h4v2h4.1l-.6 1-.6 1h6.1v2h1.3c1.8 0 6.7 2.4 6.7 3.2v.8h3.9l.6 1 .6 1h4.9v2h4v2h5.1l2.5 2.5 2.5 2.5h3.9v2h4v2h4v2h3.9l.6 1 .6 1h1.9c1.1 0 3.5.9 5.5 2l3.6 2h3.9v2h4v2h1.3c1.8 0 6.7 2.4 6.7 3.2v.8h4v2h6v2h6v2h3.6l1.4 2 1.4 2h3.6v2h8v2h6v2h6v2h4v2h4v2h3.1l1.5 1.5 1.5 1.5h3.9v2h5.9l.6 1 .6 1h4.9v2h6v2h4v2h6v2h4v2h6v2h6v2h6v2h4v2h8v2h6v2h4v2h6v2h9.6l1.4 2 1.4 2h5.6v2h5.8l.6 1.5.6 1.5 2.3-.5 2.4-.6.6 1.5.6 1.6h5l.6 1 .6 1h5l-.6 1-.6 1h6.1v2h8v2h5.9l.6 1 .6 1h6.8l.6 1 .6 1h4.8l.6 1 .6 1h1.8c2.1 0 7.1 2.2 7.1 3.2v.8h10v2h6v2h8v2h8v2h8v2h3.9l1.3 1.2 1.3 1.3h3.5l3.5-.1 2.2 1.3c1.2.7 3.1 1.3 4.2 1.3h2l.6 1 .6 1h10.9v2h8v2h8v2h8v2h8v2h8v2h10v2h10v2h11.1l1.5 1.5 1.5 1.5 2.5-.6 2.4-.6.6 1.5.5 1.5 2.5-.3 2.4-.2 2.6 1.3 2.6 1.4h7.8v2h10v2h12v2h12v2h8v2h10v2h12v2h9.8l.4 1 .3 1 4.8.2 4.7.2v2.1h5.6l5.6-.1.5 1.3.5 1.3h9.8v2h12v2h16v2h10v2h10v2h14v2h11.8l.4 1 .3 1.1 4.5.2 4.5.1 1.4 1.3 1.3 1.4-13.3-.5-13.4-.6-.3-1-.4-1H1959v-2h-26v-2h-23.8l-.4-.9-.3-1-7.7-.2-7.8-.3v-2.2l-13.7-.3-13.8-.2-.9-1-1-.9H1851v-2h-16v-2h-14v-2h-16v-2h-12v-2.5l-7.7-.2-7.7-.3-1-1-1-1H1765v-2h-14v-2h-16v-2h-12v-2h-10v-2h-14v-2h-11.9l-1.3-1.3-1.3-1.2h-2c-1.1 0-2.9-.5-4-1.2l-1.9-1.3H1665v-2h-12v-2h-10v-2h-12v-2h-10v-2h-10v-2h-10v-2h-11.8l-.4-1-.3-1-5-.2-5-.1-1.3-1.1-1.4-1-4.1-.2-4.1-.2-.4-1.1-.4-1.1h-5.8v-2h-12v-2h-8v-2h-10v-2h-8v-2h-10v-2h-14v-2h-6v-2h-6v-2h-5.1l-1.4-1.4-1.3-1.3-3.8.2-3.8.3-1.4-1.5-1.5-1.4-2.4.6-2.3.5-.6-1.5-.6-1.5h-9.8v-2h-8v-2h-8v-2h-4.9l-.6-1-.6-1h-6.8l-.6-1-.6-1h-6.8l-.6-1-.6-1h-4.8l-.6-1-.6-1h-4.9v-2h-10v-2h-6v-2h-6v-2h-3.8l-.4-1.1-.4-1.1-4.7-.1-4.7-.1v-2.5l-2 .4-2 .4-1.3-1.2c-.7-.7-1.9-1.3-2.7-1.5-.8-.2-1.6-.8-1.8-1.3l-.4-.9h-5.7l-.6-1-.6-1h-6.8l-.6-1-.6-1h-6.8l-.6-1-.6-1h-4.8l-.6-1-.6-1h-4.9v-2h-4v-1.7l-7-.7-7-.7v-1.9h-8v-2h-4v-2h-6v-2h-6v-2h-4v-2h-6v-1.8l-3-.7-3-.7v-1.8h-6v-2h-6v-2h-6v-2h-4v-2h-6v-2h-6v-2h-4v-2h-6v-2h-6v-2h-4v-2h-4v-2h-6v-2h-4v-2h-6v-2h-6v-2h-4v-2h-6v-2h-4v-2h-4v-2h-4v-3h-4v-2h-6v-2h-5.6l-1.4-2-1.4-2h-4.7l-1.4-1.4-1.4-1.4.6-.6.6-.6h-8.3v-2h-4v-2h-4v-2h-4v-2h-4v-2h-6v-2h-3.6l-1.4-2-1.4-2h-5.6v-2h-5.6l-1.4-2-1.4-2h-3.6v-2h-4v-2h-6v-2h-4v-2h-4v-2h-4v-1.8l-3-.7-3-.7v-1.8h-3.6l-1.4-2-1.4-2h-2.7l-2.4-2.5c-1.4-1.3-2.5-2.7-2.5-3 0-.3 3.8-4.3 8.4-8.9l8.4-8.4.6.5.6.6v-2.3h3.5l1.3-2 1.2-2h1.3c.6 0 2.4-1.1 4-2.4l2.7-2.3v-4.3h-3.8l1.1-2.5c.7-1.4 1.5-2.5 2-2.5h.7v-4h4v-3.1l5-4.9 5-4.9v-2.6l2.7-2c3.9-2.9 8.3-7.6 8.3-8.9 0-.6 1.5-2.5 3.2-4.3l3.3-3.2h2l2.1-.1 1.4 2z"/><path d="M1086 1056v1h-5.1l-4.4 4.5-4.5 4.4v3.1h-2v18.8l2.2 4.1c1.2 2.3 2.5 4.1 3 4.1h.8v4h2v4h4v2h13.8l5.6-5.5 5.6-5.4v-3.1h2v-8h2v-6.8l-1.2-.5-1.3-.5 1.3-.1 1.2-.1v-5h-2v-4h-2v-1.6c0-1.9-2.4-4.4-4.2-4.4h-1.4l-1.4-2-1.4-2h-5.6v-2h-7v1zm10.5 11.2 3.5 3.3v3.5h2v7h-2v8h-2v3.1l-2.5 2.4-2.4 2.5h-5.2l-3.4-3.5-3.5-3.4v-3.1h-2v-16.1l3.3-3.4 3.2-3.4h3.7l3.7-.1 3.6 3.2zm374.5-9.2-1.4 2h-2.7l-2.4 2.5-2.5 2.4v2.7l-2 1.4-2 1.4v3.6h-2v3.6l-2 1.4-2 1.4v5.6h-2v8h-2v17h2v1.6c0 1.5 2.3 4.4 3.5 4.4.3 0 1.7-1.1 3-2.5l2.5-2.4V1089h2v-4h2v-5.6l2-1.4 2-1.4v-2.7l6-5.9 6-5.9v-6.1h-6.6l-1.4 2zm58.3.5-1.3 1.4v6.1h2v9h-2v8h-2v4h-2v3.6l-2 1.4-2 1.4v3.2l-2 1.4-2 1.4v2.8l-3 2.8-3 2.8v5.3l1.4 1.5c.8.8 1.9 1.4 2.5 1.4h1.1v-2h3.1l.6-1.8c.4-.9 2.4-3.4 4.5-5.4l3.8-3.6v-3.2h2v-4h2v-4h2v-4h2v-4h2v-10h2v-9h-2v-3.1l-2.5-2.4c-2.8-2.9-3.5-3-5.2-1zm-365 .2-2.3.4v6.8l5.7.7 5.7.7 1.3 1.3 1.3 1.3v16.1h-2v5h2.5l-1.5 1-1.5.9 1.3 1.3 1.2 1.2v9.3l2.5 1.3 2.5 1.3 2-1.8 2-1.8v-32.3l2.5-2.2 2.5-2.2h11v-4.1l-1.4-1.5c-.8-.8-2.2-1.4-3-1.4h-1.6v-2h-14.8l-.5 1.2-.5 1.3-.1-1.3-.1-1.2-6.2.1c-3.5.1-7.3.4-8.5.6zm51.7.3v1h-6v2h-3.1l-2.4 2.5-2.5 2.4v10.1h2v3.1l2.5 2.4 2.4 2.5h5.1v2h8v2h1.6c.8 0 2.2.6 3 1.4l1.4 1.5v3.2l-1.4 1.5c-.8.8-2.2 1.4-3 1.4h-1.6v2h-5v-2h-3.2l-2.8-3-2.8-3h-6.2v8.1l3.5 3.4 3.4 3.5h5.1v2h11v-2h3.6l1.4-2 1.4-2h3.6v-4h2v-12.1l-2.5-2.4-2.4-2.5h-5.1v-2h-6v-2h-6v-2h-4v-3h2v-4h3.8l.5-1.3.5-1.2.1 1.2.1 1.3h6v2h3.6l1.4 2 1.4 2h4.6v-8.1l-2.5-2.4-2.4-2.5h-3.1v-2h-8v-2h-3v1zm-96 5v5h-2v23h2v6h2v4h4v2h4v2h12.6l1.4-2 1.4-2h2.7l2.4-2.5 2.5-2.4v-7.1h2v-28.1l-1.4-1.5-1.5-1.4h-3.2l-1.5 1.4-1.4 1.5v17.1h-2v13.1l-2.5 2.4-2.4 2.5h-5.2l-3.4-3.5-3.5-3.4V1059h-7v5zm130-2v2h-2v2.8l1.3.5 1.2.5-1.2.1-1.3.1v3h2v27h-2v5h2v1.6c0 .8.6 2.2 1.4 3l1.5 1.4h3.2l1.5-1.4 1.4-1.5v-43.2l-1.4-1.5-1.5-1.4h-6.1v2zm413.3-.5c-.7.8-1.3 2.1-1.3 3v1.5h-4v4h-2v3.2l-3 2.8-3 2.8v3.2h-2v4h-2v6h-2v4h-2v22.1l1.4 1.5 1.5 1.4h3.2l1.5-1.4 1.4-1.5V1099h2v-8h2v-5.6l2-1.4 2-1.4v-2.7l6-5.9 6-5.9v-5.2l-1.4-1.5-1.5-1.4h-1.8l-1.8.1-1.2 1.4zM1274 1063v2h-2v40.3l2.8 2.3 2.7 2.4h16.4l.6-1 .6-1h3.9v-2h3.2l.5-2 .5-2h1.8v-4h2v-6h2v-15h-2v-4h-2v-3.1l-3.5-3.4-3.4-3.5h-7.1v-2h-17v2zm20.5 8.9 3 1.8.3 2.1.3 2.2h1.9v13h-2v4h-2v1.6c0 .8-.6 2.2-1.4 3l-1.5 1.4H1281v-31l5.3.1h5.2l3 1.8zm24.8-7.4-1.3 1.4v41.2l1.4 1.5 1.5 1.4h17.1v2h3v-2h3v2h3v-2h1.6c1.5 0 4.4-2.3 4.4-3.5 0-.4-.6-1.3-1.4-2.1l-1.5-1.4h-20.2l-1.5-1.4-1.4-1.5V1090h5.8l.5-1.3.5-1.2.1 1.2.1 1.3h7v-2h4v-4.1l-1.4-1.5-1.5-1.4h-10.2l-1.5-1.4-1.4-1.5v-5.2l1.4-1.5 1.5-1.4h12.1v2h3v-2h1.6c1.5 0 4.4-2.3 4.4-3.5 0-.4-.6-1.3-1.4-2.1l-1.5-1.4h-14.8l-14.8.1-1.2 1.4zm178 0c-.7.8-1.3 2.1-1.3 3v1.5h-2v1.6c0 2-2.4 4.4-4.4 4.4h-1.6v6.8l1.3.5 1.2.5-1.2.1-1.3.1v6h-2v4h-2v4h-2v6.1l-1-.6-1-.6v3.1h2v3h6.2l.5-2 .5-2h1.8v-6l2-1.2 2-1.3v-5.5l2-1.2 2-1.3v-5.5h5.1l1.5-1.4 1.4-1.5v-3.7l-2-1.4-2-1.4v-2.6h2v-7h-3.2l-3.3.1-1.2 1.4zm222.7 7.5v9h-2v7.6l-2 1.4-2 1.4v5.2l-2 1.4-2 1.4v2.8l-3 2.8-3 2.8v2.8l-2 1.4-2 1.4v2.6l.1 2.5 1.3 1.7c.7 1 1.8 1.8 2.5 1.8h1.1v-2h3l.9-2.3c.5-1.2 2.1-3.3 3.5-4.6l2.6-2.4v-2.7h2v-1.5c0-1.8 1.8-5.1 4.3-7.9l1.7-2v-4.6h2v-4h2v-4h2v-3h-2v-5h2v-3h-2v-7.1l-1.4-1.5-1.5-1.4h-4.1v9zm-153.7-2.5-2.3 2.4v11.1h-10v2h-4v4.1l1.4 1.5 1.5 1.4h11.1v10h2v1.6c0 .8.6 2.2 1.4 3l1.5 1.4h3.2l1.5-1.4 1.4-1.5v-7.9l-1.2-.5-1.3-.5 1.3-.1 1.2-.1v-4h8v-2.2l4 .7 4 .7v-4.3l-1.6-1.7-1.7-1.6-6.3-.4-6.4-.4v-10.9l-2.5-2.4c-2.9-3-3.4-3-6.2 0zm125.7.7v1.1l-.6-.6-.6-.6-1.4 1.4-1.4 1.4v5.1h-8v9h2v3h-2v6h-2v4h-2v4h-2v6.1l1.4 1.5 1.5 1.4h3.2l1.5-1.4c.8-.8 1.4-2.2 1.4-3v-1.6h2v-4h2v-4h2v-5.1l1.5-1.5c.8-.9 1.5-1.3 1.5-1 0 .3 1.6-1.1 3.5-3.1l3.5-3.7v-5.6h-2v-10h-5v1.2zm-262 .8v1h-13.1l-1.5 1.4c-.8.8-1.4 2.1-1.4 2.8v1.4l-2 1.4-2 1.4v5.6h-2v6h-2v5.6l-2 1.4-2 1.4v5.6h-2v6h-2v4.1l1.4 1.5 1.5 1.4h3.4l1.3-1.8c.7-.9 1.4-2.5 1.4-3.5v-1.8l1.4-1.5c.8-.8 2.2-1.4 3-1.4h1.6v-2h12v-2h3l5.5-5.5 5.5-5.5v-3h2v-8h2v-6.1l-3.5-3.4-3.4-3.5h-6.1v1zm2 13v5.1l-4.5 4.4-4.4 4.5h-8.1v-5h2v-5.6l2-1.4 2-1.4v-3.6h6v-2h5v5zm190-7v1h-5.1l-4.4 4.5-4.5 4.4v3.1h-2v4h-2v7h2v7.1l2.5 2.4 2.4 2.5h4.2l1.5 1.4c.8.8 1.4 1.9 1.4 2.5v1.1h-2v4.1l1.4 1.5c2.1 2 3.6 1.7 6.8-1.3l2.8-2.7v-3.7l2-2.1 2-2.2v-4.6h2v-6h2v-4h2v-3.6l2-1.4 2-1.4v-5.6h2v-6.1l-1.4-1.5-1.5-1.4H1622v1zm6 7v1l2.3.1 2.2.1-1.2.5-1.3.5v3.8h-2v5.6l-2 1.4-2 1.4v3.6h-4v2h-5v-11h2v-3.1l2.5-2.4 2.4-2.5h3.1v-2h3v1zm-7.7 230.5-4.3 4.5v2.6l-2 1.4-2 1.4v3.6h-2v4h-2v6h-2v6h-1.7l-.7 9.3-.7 9.2 1.6 3.3 1.6 3.2h3.9v-4h1.8l.7-11 .8-11h1.7v-2.3c0-2.6 2.1-7.7 3.3-7.7h.7v-3.6l2-1.4 2-1.4v-2.9l4-3.8 4-3.8v-6.1l-3.2.1h-3.3l-4.2 4.4zm55-3-1.3 1.4v6.1h2v5h-2v10h-2v4h-2v4h-2v3.6l-2 1.4-2 1.4v2.9l-2.7 2.3c-1.6 1.3-3.1 2.4-3.5 2.4h-.8v3.6l-2 1.4c-2.5 1.8-2.5 2.9-.2 4.6l1.7 1.3 2.3.1h2.3l1.5-1.4c.8-.8 1.4-2 1.4-2.6 0-.7 1.3-2.4 2.9-3.9l3-2.8 2.1-4.1c1.2-2.2 2.8-4.6 3.6-5.3.8-.6 1.4-1.7 1.4-2.4 0-.6.9-2 2-3l2-1.8v-4.7h2v-6h2v-14.1l-2.5-2.4-2.4-2.5h-1.8l-1.8.1-1.2 1.4zm-372 1-1.3 1.4v6.1h2v25h-2v3h2.2l-.7 6-.7 6h6.3l1.7-1.7 1.7-1.7.3-20.8.4-20.8h-2.2v-4h-3.2l-3.3.1-1.2 1.4zm73.8 1.4-1.4 1.8-1.8-.4-1.9-.5v6.2h-2v9h2v3.3l2.2 1.8 2.1 1.9h3.6l.6 1 .6 1h6.9v2h3.1l2.4 2.5c1.4 1.3 2.5 2.7 2.5 3 0 .3-1.1 1.7-2.5 3l-2.4 2.5h-9.2l-1.5-1.4c-.8-.8-1.4-2.2-1.4-3v-1.6h-3.3l-1.2-1.7-1.2-1.7-2.7 2.7c-3.2 3.2-3.2 3.2-.3 6.1 1.2 1.3 3.5 3.9 5.2 5.9l3 3.7h4.1l1.1 1.1 1.1 1.1.6-1.1.7-1.1h7.9v-2h3.1l2.7-2.7c1.5-1.5 3.3-3.8 3.9-5.1l1.3-2.4v-8.8h-2v-4h-3.6l-1.4-2-1.4-2h-5.6v-2h-7.1l-1.5-1.4-1.4-1.5v-3.2l1.4-1.5 1.5-1.4h8.1v2h3.6l1.4 2 1.4 2h3.9l1.3-1.8c.7-.9 1.4-2.3 1.4-3v-1.3l-3.5-3.4-3.4-3.5h-3.1v-2h-16.6l-1.3 1.9zm61.2.6-2.3 2.4v4.1h2v5h-1.9l-.3 14.5c-.2 8-.1 14.5.2 14.5.3 0 1.1 1.3 1.8 3l1.4 3h18.8v-2h3.6l1.4-2 1.4-2h3.3l1.4-1.8c.8-.9 2-2.7 2.7-3.9l1.2-2.3v-6h2v-11h-2v-6h-2v-3.1l-3.5-3.4-3.4-3.5h-5.1v-2l-9.2.1h-9.3l-2.2 2.4zm19.7 7.5v1h1.6c.8 0 2.2.6 3 1.4l1.4 1.5v9.1h2v3h-2v7.1l-3.5 3.4-3.4 3.5h-9.2l-1.6-1.6-1.7-1.6 1.2-1.9c.7-1 1.2-2.6 1.2-3.4v-1.5h-2v-18.1l1.3-1.4 1.2-1.4 5.3-.1h5.2v1zm-134 10.4v19.3l-.6 3.2-.6 3.1h6.3l1.3-1.3c.8-.7 1.7-2.3 2-3.5l.7-2.2h-2.1v-12.9l1-.6 1-.6.1-3.7.1-3.7.5 2c.3 1.1 1.4 2.7 2.4 3.6l1.9 1.6v3.3h2v4h2v4h2v4h2l.6 2.7.7 2.8 1.6 1.2 1.6 1.2 3.8.1h3.7v-4h2.2l-.5-2-.5-2h1.8v-34.1l-2.5-2.4-2.4-2.5h-4.1v25.1l-1.5 1.5-1.5 1.5v-3.7l-2-1.4-2-1.4v-3.6h-2v-4h-2v-4h-2v-3.1l-3.5-3.4-3.4-3.5h-8.1v19.4zm157.3-17.9-1.3 1.4v6.1h-2v13h2v11h-2.2l.4 5.4.5 5.5 1.2 1.5 1.3 1.6h30.6l.4-3.5.4-3.5h-20.7l-1.5-1.4-1.4-1.5v-5.1h-2.5l2.7-2.5 2.7-2.5h4.8l4.8-.1 1.8-1.3c2.1-1.6 2.1-2.3.3-4.2l-1.5-1.4h-10.2l-2.4-2.5-2.5-2.4v-3.7l1.2-1.2 1.2-1.2h13.6l2-1.3 2.1-1.2.8 1.3.8 1.4 2.2-1.3 2.1-1.4v-3.6l-1.4-1.5-1.5-1.4h-13.8l-13.8.1-1.2 1.4zm-65.5 21.2-.3 21.8 1.4 1.7 1.4 1.8h5.6l.7-8 .7-8 .8-.6c.5-.3.9-1.4.9-2.5v-1.9h-2.4l1.2-1.2 1.2-1.2V1320h-2v-6h-8.9l-.3 21.7zm230.5-19.2c-1.3 1.3-2.3 2.9-2.3 3.5 0 .6-1.1 2.2-2.5 3.5l-2.4 2.5h-5.1v9h2v5h-2v6h-2v4h-2v3.3l-1.7 1.2-1.7 1.3 1.6 1.6 1.7 1.6h6.1v-4h3v-4.6l3.4-6.8c3.5-6.9 5.7-9.7 8.9-10.9l1.7-.6v-6.1h-2v-3h2v-6.1l-1.4-1.5c-1.9-1.9-2.7-1.7-5.3 1.1zm-82 9-2.3 2.4v3.1h-2v6h-2v4h-2v4h-2v4h-2v6h-3v4h-2v4h-2v3.6l2.9 2.8 3 2.8 2.5-2.5 2.6-2.6v-4.2l1.4-1.5 1.5-1.4h9.1v-2h4v-2h3.9l.6-1c.3-.6 1.3-1 2-1h1.5l3.5-3.8 3.4-3.7.1-1.8v-1.7h2v-5.9l1-.6 1-.6v-7l-1.4-1.5c-.8-.8-2.2-1.4-3-1.4h-1.6v-3l-9.2.1h-9.3l-2.2 2.4zm16.3 5.9c.8.8 1.4 1.9 1.4 2.5v1.1h-2v6h-2v1.6c0 2-2.4 4.4-4.4 4.4h-1.6v2h-4v2h-3v-9h2v-1.5c0-1.6 1.8-5.1 3.7-7.2l1.2-1.3h5.1v-2h1.1c.6 0 1.7.6 2.5 1.4zM316 856v1h-22v6.8l20.5.4 20.4.3 1.3 1.3 1.2 1.2h3.6v-2h1.6c1.5 0 4.4-2.3 4.4-3.5 0-.4-.6-1.3-1.4-2.1l-1.5-1.4H337v-2h-5v2.1l-5.2-.7-5.3-.7-.3-.8-.4-.9H316v1zm48 1v1h-8v4.1l1.4 1.5 1.5 1.4H405v-2h4v-5h-6v-2h-19v2h-7v-2h-13v1zm57.3.5-1.3 1.4v4.1h4v2.3l7-.5 7-.5v1.7h7v-2h14v-4.1l-1.3-1.3-1.2-1.3-17-.6-17-.6-1.2 1.4zm71.9 57L492 916l-.7 22-.6 22h7.3v-6h2v-3h-2v-5h2v-3h-2.1l.7-15 .7-15h-2.4l-2.4.1-1.3 1.4zM491 980v5h-2v3h2v15h-2v5h2v9.1l1.4 1.5 1.5 1.4h3.3l.5-2 .5-2h1.8v-11h-2v-3h2v-2.8l-1.2-.5-1.3-.5 1.3-.1 1.2-.1v-6.8l-1.2-.5-1.3-.5 1.3-.1 1.2-.1v-3h-2v-12h-7v5zm-.4 54.6-.6 1.6v51.8h7v-4h2v-19h-2v-3h2v-3h-2v-13h2v-4.9c0-2.7-.3-5.6-.6-6.5l-.6-1.6h-6.6l-.6 1.6zm-.6 84.7c0 6.8-.3 17.9-.7 24.5l-.6 12.2h6.4l1.5-1.5 1.5-1.5.6-23 .6-23H490v12.3zm.3 55.2-1.3 1.4v9.1h-2v5h2v19h-2v3h2v13.1l1.4 1.5 1.5 1.4h3.2l1.5-1.4 1.4-1.5V1198h2v-3h-2v-3h2v-3h-2v-13.1l-1.4-1.5-1.5-1.4h-1.8l-1.8.1-1.2 1.4zm.7 69.5v1h-3v46.1l2.5 2.4c2.8 2.9 3.2 3 5.1 1.1l1.4-1.5v-9.1h2v-11h-2v-9h2v-3h-2v-9h2v-3h-1.7l-.6-3-.6-3H491v1zm-1.7 70.5-1.3 1.4v31.9l1.3.6 1.2.5-1.7 1.4-1.8 1.4v6.9l1.2 1.2 1.2 1.2h-1.2c-.7 0-1.2.3-1.2.7 0 1.3 4.7 6.3 5.9 6.3h1.1v-4h2v-4h2v-9h-1.5l.3-14.2.3-14.3 1-.3c.5-.2.9-1 .9-1.8v-1.4h-2v-1.6c0-.8-.6-2.2-1.4-3l-1.5-1.4h-1.8l-1.8.1-1.2 1.4zm-.3 69.5v3h-2v2.8l1.3.5 1.2.5-1.2.1-1.3.1v2.8l1.3.5 1.2.5-1.2.1-1.3.1v7h2v17h-2v3h2v7h-2v4.1l1.4 1.5 1.5 1.4h3.2l1.5-1.4 1.4-1.5V1381h-7v3zm0 65.9v5l-1.5 1.5-1.5 1.5v4.1h2v23h-2v14.1l1.4 1.5 1.5 1.4h1.6c.9 0 2.2-.6 3-1.3l1.3-1.3.3-26.1.4-26-1.2-1.2-1.2-1.1H489v4.9zm236-64.9v4h-2v2.8l1.3.5 1.2.5-1.2.1-1.3.1v7h2v28h7v-47h-7v4zm-.3 68.2c-.4 4.6-.7 16.5-.7 26.5v18.3h4.1l1.5-1.4c.8-.8 1.4-2.2 1.4-3v-1.6h2v-5h-2.3l.6-21 .5-21h-6.5l-.6 8.2zm-.7 58.8v3h-2v13h2v11h-2v3h2v9h-2v3h2.2l-.4 4.7-.3 4.8 3.1.3 3.2.3.7-3.8c.4-2.1 1.2-4.4 1.8-5.1l1.1-1.4-1.3-.8-1.3-.8 1.1-.6 1.1-.7v-5.9h-2v-7h2v-3h-2v-3h2v-17h-2v-6h-7v3zm.3 64.5-1.3 1.4v54.1h6.1l1.5-1.4 1.4-1.5v-19.9l-1.2-.5-1.3-.5 1.3-.1 1.2-.1v-24.8l-1.2-.5-1.3-.5 1.3-.1 1.2-.1v-1c0-1.3-4.6-6-5.7-6-.4.1-1.4.7-2 1.5zM487 1587v2h-2v3h2v39.1l1.4 1.5c.8.8 1.7 1.4 2.1 1.4 1.2 0 3.5-2.9 3.5-4.4v-1.6h2v-7h-2v-36h-7v2zm238 56.9v1.9l-.9.4-.9.3-.7 21.2-.7 21.3 1.5 1.5 1.6 1.5h4.1v-4h1.7l.8-21.1.7-21-1.8-2-1.7-1.9H725v1.9zm-236.7 3.6-1.3 1.4-.6 23-.7 23 1.6 1.5 1.6 1.6h4.1v-6h2v-12h-2.2l.7-17 .8-17h-2.4l-2.4.1-1.2 1.4zM165 143v1h-7.1l-2.4 2.5-2.5 2.4v5.1h-2v6h-2v4h-2v6h-2v4h-2v4h-2v13h4.1l1.5-1.4 1.4-1.5v-4.2l1.4-1.5c.8-.8 2.2-1.4 3-1.4h1.6v-2h8v-2h4v-2h3.1l4.4-4.5 4.5-4.4V163h2v-4h2v-12.1l-2.5-2.4-2.4-2.5H165v1zm8 11.5v5.5h-2v3.1l-3.5 3.4-3.4 3.5H156v-7h2v-4h2v-3.1l3.3-3.4 3.2-3.4h3.3l3.2-.1v5.5zm28 14.5v1h-12v3.6l-2 1.4-2 1.4v7.6h-2v6h-1.8l-.4 2.5-.5 2.5h3.1l3.1-.1 1.8-1.3 1.7-1.3V187h2v-5.1l2.5-2.4 2.4-2.5h3.1v-2h1.6c1.5 0 4.4-2.3 4.4-3.5 0-1-2.8-3.5-3.9-3.5H201v1zM62.3 724.5l-1.3 1.4v13l1 .6 1 .6v6.9h-2v6H48v-4h-2v-11h2v-1.1c0-.6-.6-1.7-1.4-2.5l-1.5-1.4h-5.2l-1.5 1.4-1.4 1.5V751h-2v4h-6.1l-1.5-1.4-1.4-1.5V747h-2v-11h2v-8.1l-1.4-1.5-1.5-1.4h-5.2l-1.5 1.4-1.4 1.5V758h2v3.3l1.8 1.3 1.7 1.3 11.8.1H44v-2.2l1.7 1.3 1.6 1.4.4-1.3.5-1.2h20.9l1.5-1.4 1.4-1.5v-33.2l-1.4-1.5-1.5-1.4h-2.8l-2.8.1-1.2 1.4zM25 778v1h-3.1l-3.4 3.5-3.5 3.4v7.2l-1-.6-1-.6v10.3l.1 10.3 2.4 2.7 2.4 2.8H21v2h7.1l-.6-1-.6-1H68v-1.8l2-.5 2-.5V809H50v-4h-2v-8.6l2.5-2.2L53 792h3v-2h4v-2h4v-2h6v-4h2v-5h-9v2h-4v2h-4v2H44.4l-1.4-2-1.4-2H38v-2H25v1zm8 9v1h4v21H26v-11.8l-1.2-.5-1.3-.4 1.3-2.2c.6-1.1 1.2-2.9 1.2-3.9v-1.8l1.2-1.2 1.2-1.2H33v1zm-13 43v1h-6v5.8l1.6.6c.9.3 5.6.6 10.5.6H35v-2.4l1.2 1.2 1.2 1.2h18.2l1.2 1.2 1.2 1.2v3.6h2v10.1l-2.5 2.4-2.4 2.5H20v2h-2.4c-1.3 0-3.1.3-4 .6l-1.6.6v2.8h2v1.1c0 .6.6 1.7 1.4 2.5l1.5 1.4H43v-2h18v-2h1.6c2 0 4.4-2.4 4.4-4.4V860h2v-4h2v-16l-5.5-5.5L60 829H20v1zm134.3 6.5-2.3 2.4v5.1h-2v4h-2v6h-2v3.6l-2 1.4-2 1.4v3.6h-2v3.6l-2 1.4-2 1.4v7.3l1.8 1.6 1.9 1.7h5.3v-2.3c0-1.3.6-3.5 1.3-5l1.2-2.7h3.5v-2h14v-2h3.1l4.4-4.5 4.5-4.4V855h2v-6h2v-13h-4v-2l-10.2.1h-10.3l-2.2 2.4zm17.7 10v3.5h-2v3.1l-2.5 2.4-2.4 2.5h-2.7l-1.4 2-1.4 2H155v-9h2v-4h2v-1.5c0-.9.6-2.2 1.3-3l1.2-1.4 5.3-.1h5.2v3.5zm14 16.5v1h-6v4h-2v3h2v6h1.6c1.5 0 4.4 2.3 4.4 3.5 0 .4-.7 1.3-1.5 2.1l-1.5 1.5V882h-4v-2h-4.1l-1.5 1.4c-1.9 2-1.9 2.2 2.1 6.1l3.4 3.5h8.1v-2h3.1l2.4-2.5 2.5-2.4v-7.3l-3.1-2.9-3.1-2.9H199v-7h-4v-2h-9v1zM50 880v1h-3.1l-3.4 3.5-3.5 3.4v3.1h-2v8h-2v5.1l-2.5 2.4c-1.3 1.4-2.7 2.5-3 2.5-.3 0-1.7-1.1-3-2.5l-2.5-2.4v-9.8l2.3-2.1 2.3-2.2H33v-9h-8.1l-3.4 3.5-3.5 3.4v3.1h-2v6h-2v5h2v3.9l2 3.6c1.1 2 2 4.2 2 4.9v1.4l3 1.4c1.7.7 3 1.6 3 2v.8h5v-2h5.6l1.4-2 1.4-2h2.5l1.5-3.2c.9-1.7 1.6-3.9 1.6-4.9v-1.8l1-.6 1-.6V896h2v-1.6c0-2 2.4-4.4 4.3-4.4h1.5l.5-1.3.5-1.2.1 1.2.1 1.3h1.6c2 0 4.4 2.4 4.4 4.4v1.6h2v3h-2v7.2l-4 3.8-4 3.8v6.2h7.6l3.7-3.6c2-2 3.7-4.2 3.7-4.8 0-.6.9-1.8 2-2.6l2-1.4v-17.7l-4.5-4.4-4.4-4.5H61v-2H50v1zm1.5 48-.6 1h-5l-3.4 3.5-3.5 3.4v5.1h-2v8h-2v6h-9v-12.3l4-3.8 4-3.8v-3.2l-1.4-1.5-1.5-1.4H25v2h-1.6c-1.9 0-4.4 2.4-4.4 4.2v1.4l-2 1.4-2 1.4V956h2v3.1l2.5 2.4 2.4 2.5h1.5c.8 0 1.8.4 2.1 1l.6 1h8.8l.6-1c.3-.6 1.3-1 2.1-1h1.5l2.4-2.5 2.5-2.4V956h2v-8h2v-7.1l1.4-1.5c.8-.8 2.2-1.4 3-1.4H54v-2h2.7l1.9 2.2c1 1.3 2.5 3.3 3.2 4.5L63 945v7.1l-5 4.9-5 4.9v3.3l2 .5 2 .5v1.8h4.6l1.4-2 1.4-2h1.4c1.8 0 4.2-2.5 4.2-4.4V958h2v-8h2v-9h-2v-5.1l-2.5-2.4-2.4-2.5H64v-2h-4.1l.6-1 .6-1h-9l-.6 1zm10.8 46.5-1.3 1.4v8.1h2v7h-2v12h-4v2h-6.1l-1.5-1.4c-.8-.8-1.4-2.2-1.4-3V999h-2v-8.9l1-.6c1.4-.9 1.2-3.4-.4-5.1l-1.5-1.4h-5.2l-1.5 1.4-1.4 1.5V997h-2v5.1l-1.4 1.5-1.5 1.4h-3.2l-1.5-1.4c-.8-.8-1.4-2.2-1.4-3V999h-2v-6.9l1-.6 1-.6v-13l-1.4-1.5-1.5-1.4h-5.2l-1.5 1.4-1.4 1.5v25.1h-2v5h2v3.3l2.8 2.3c2.9 2.6 4.7 3 5.7 1.4l.6-1h32.5l1.2-1.2 1.2-1.2v2.4h3.9l.6-1 .6-1h5l2.4-2.5c2.6-2.5 3.2-4.5 1.5-4.5h-1v-9h2v-4.8l-1.2-.5-1.3-.5 1.3-.1 1.2-.1v-5h-2v-9.1l-1.4-1.5-1.5-1.4h-2.8l-2.8.1-1.2 1.4zM27 1026v1h-3.2l-2.8 3.1c-1.5 1.7-3.3 3.7-3.9 4.5l-1.1 1.3v15.1h-2v3h2v11.1l1.4 1.5 1.5 1.4H43v-2h27.1l1.5-1.4 1.4-1.5v-3.2l-1.4-1.5-1.5-1.4H51.9l-1.5-1.4-1.4-1.5v-6.1h2v-6h4v-2h4v-2h4v-2h4v-2h4.2l.5-2 .5-2H74v-3h-4v-2h-3v2h-5.6l-1.4 2-1.4 2H53v2h-4.2l-2.8-3-2.8-3H40v-2H27v1zm7.5 9-.6 1H38v14.6l1.2 1.2 1.2 1.2H38v4H27v-6l-1.2-.1-1.3-.1 1.3-.5 1.2-.5v-2.8l-1.2-.1-1.3-.1 1.3-.5 1.2-.5v-9.8h4v-2h4.1l-.6 1zm-6.5 43v1h-3.1l-3.4 3.5-3.5 3.4v3.1h-2v15.8l-1.2.5-1.3.4 1.3 1.5 1.3 1.6-1.2.4-1.2.4 1.4 2.4c.8 1.4 2 3.3 2.8 4.2l1.4 1.8h14.6l.6-1 .6-1h35l2.4-2.5c1.4-1.3 2.5-2.7 2.5-3 0-.3-1.1-1.7-2.5-3-2.5-2.6-4.5-3.2-4.5-1.5v1H53v-20h-2v-3.1l-2.5-2.4-2.4-2.5H43v-2H28v1zm10.8 9.2 1.2 1.2v13.6h2v1.1c0 .6-.6 1.7-1.4 2.5l-1.5 1.4H27v-16.4l2.3-2.3 2.2-2.2h3.1l3-.1 1.2 1.2zM537.5 1778l-.6 1H533v8.1l-1-.6-1-.6v7.1h-2v6.1l1.3 1.3c.6.7 2.2 1.5 3.5 1.8l2.2.6v-2.8h2v-4h2v-6h2v-10.1l-1.4-1.5c-1.7-1.7-2.3-1.7-3.1-.4zM229 1799v1h-5.1l-2.2 2.3c-2.8 2.9-4.7 6.2-4.7 8.2v1.5h-2v19h2v4h2v5.1l1-.6 1-.6v3.7l1.2 1.2c.7.7 1.8 1.2 2.6 1.2.7 0 2 .6 2.7 1.4l1.4 1.3 5.9.2 6 .1 1.3-1.6c.7-.9 2.3-2 3.6-2.5l2.3-.9v-3h2v-4h2v-5.9l1-.6 1-.6V1814h-2v-5.1l-4.5-4.4-4.4-4.5H240v-2h-11v1zm11.1 10.2 2.9 1.3v3.5h2v16h-2v5.1l-2.5 2.4-2.4 2.5h-7.2l-2.4-2.5-2.5-2.4v-5.1h-2v-17.1l1 .6 1 .6v-4.2l1.2-1.3 1.2-1.2 4.4.2 4.4.3 2.9 1.3zm253.4-10.2c-.3.5-1.3 1-2.1 1h-1.5l-4.4 4.5-4.5 4.4v3.1h-2v8h2v4h4v2h4v2h12v5.1l-4.5 4.4-4.4 4.5H488v-2h-4v-1.6c0-.8-.6-2.2-1.4-3l-1.5-1.4h-5.2l-1.5 1.4-1.4 1.5v6.2l2.5 2.4 2.4 2.5h2.7l1.4 2 1.4 2h9.5l.6-1 .6-1h3.5l1.4-2 1.4-2h2.7l2.4-2.5 2.5-2.4v-3.1h2v-6h2v-7l-3.6-3.5-3.6-3.5H498v-2h-6v-1c0-.6.5-1 1-1h1v-1.6c0-.8.6-2.2 1.4-3l1.5-1.4h9.7l1.4 2 1.4 2h6.6v-9.8l-3-1.4c-1.6-.7-3-1.6-3-2v-.8h-15.9l-.6 1zm-52.5 2.1v1l-6.2-.1c-3.5-.1-7.1-.1-8-.1l-1.8.1v6.3l1.9 1.6 1.8 1.6H443v.8c0 1.2-4.7 5.7-6 5.7-.6 0-1.8.6-2.6 1.4l-1.4 1.5v4.1h2v2.6l3 .2 3 .2.6-1.3.5-1.4 2.5.5 2.4.4v1.8h1.6c2 0 4.4 2.4 4.4 4.4v1.6h-2v1.6c0 .8-.6 2.2-1.4 3l-1.5 1.4h-4.9l-.5 1.2-.5 1.3-.1-1.3-.1-1.2h-3.3l-1.6-1.9-1.7-1.9-3.9-.4-4-.3-.3 3.7-.3 3.8h2.1v5.1l1-.6 1-.6v3.3l1.6-.6 1.5-.6 1.5 1.5 1.5 1.5h10.8l3.3-1.8c1.8-1.1 5-3.5 7.1-5.5l3.7-3.7v-3h2v-6h-2v-6h-2v-1.6c0-2-2.4-4.4-4.4-4.4H454v-5.6l2-1.4 2-1.4v-6.7l-1.4-1.5-1.5-1.4H446v-2h-5v1.1zm252 1.9v1h-3.1l-2.4 2.5-2.5 2.4v11.1h9v-5.1l1.4-1.5 1.5-1.4h7.2l1.5 1.4c.8.8 1.4 2.2 1.4 3v1.6h-2v4h-4v2h-3.1l-4.4 4.5-4.5 4.4v3.1h-2v4h-2v6h2v4h4v2h23v-2h6.1l-.3-3.8-.3-3.7-9.4-.3-9.3-.3-1.5-1.4-1.4-1.5 3.5-3.5c1.9-1.9 4-3.5 4.7-3.5.6 0 2.4-1.4 3.9-3l2.8-3h3.2v-6h2v-10h-2v-1.6c0-2-2.4-4.4-4.4-4.4H710v-2h-17v1zm57.3 1.5c-.7.8-1.3 2.1-1.3 3v1.5h-2v4h-2v3.5l-2 1.3-2 1.2v6.1l-1-.6-1-.6v5.1h-.7c-1.1 0-3.3 5-3.3 7.1v1.8l-1 .6-1 .6v8l1.4 1.5 1.5 1.4h8.4l1.3 1.7 1.3 1.8.6-1.6.6-1.5 7.5.4 7.6.3 3.4-1.6 3.4-1.6v-4l-1.4-1.5-1.5-1.4h-20.2l-1.5-1.5-1.5-1.5h2.1v-4.9l1-.6 1-.6v-3.9h2v-3h2v-2.3c0-2.6 2.1-7.7 3.3-7.7h.7v-4h2v-5.1l-1.4-1.5-1.5-1.4h-1.8l-1.8.1-1.2 1.4zm1450 1-1.3 1.4v5.9l-2-.5-1.9-.5-3 2.3-3 2.4v2.7l-.1 2.8h6v2h4v5.1l1.4 1.5 1.5 1.4h4.1v-7.1l2.5-2.4 2.4-2.5h5.1v-4.1l-1.9-2-1.9-2.1-2.1.7-2.1.6v-3.1h-2v-3h-2v-3h-1.2c-.7.1-1.9.7-2.5 1.5zm-22.4 15.2c-.8 1.6-2.4 3.8-3.6 5l-2.2 2.3h-5.1v10h2v6h-2v4h-2v3.6l-2 1.4-2 1.4v9.6h8.2l.5-2 .5-2h1.8v-6h2v-4h2v-4h2v-4h2v-4h1.6c.8 0 2.2-.6 3-1.4l1.4-1.5V1818h-6.7l-1.4 2.7zm15.1 26.3v1h-4v4h-2v6h-2v6h-2v6h-2v12h4.2l2.8-3 2.8-3h7.2v-2h2.7l4.7-4.5 4.6-4.5v-5h2v-10h-1c-.5 0-1.7-.8-2.7-1.8l-1.8-1.8-6.7-.2-6.8-.3v1.1zm12 9.6v2.5l-1-.6-1-.6v3.1l-2.2 2.5-2.2 2.5h-6.6v-1c0-.6.5-1 1-1h1v-4h2v-4h6v-2h3v2.6zm-1679.7-3.5-1.1 1.1-28.5-.1-28.5-.2-.5 1.3-.5 1.3-.1-1.3-.1-1.2h-3v2.2l-22.9-.4-22.8-.3-1.2 1.3-1.2 1.2-1-.5-.9-.6v5.2l1.4 1.5 1.5 1.4h11l.5-.9.6-.9 3.5.1c1.9.1 3.5.3 3.5.6v.6l31.7-.3 31.8-.3 1-1 .9-.9H511v2h3v-2.2l12 .3 12 .4v-7.5l-2.7-.2c-1.6 0-3.8 0-5 .1l-2.3.2v-3.1h-.8c-.4 0-1.3.5-1.9 1.1zM685 1857v1h-10v8h30.8c16.9.1 39.6.3 50.5.7l19.8.5-.3-3.8-.3-3.9-15.5-.3-15.4-.3-.7-1.1-.7-1.1-1.8.8-1.9.8-11.5-.2-11.5-.3-1.4-1.1-1.4-1.2-.4 1.2-.5 1.3H688v-2h-3v1zm49.6 13-1.4 1.5-.7 4.2-.7 4.3H730v10h-2v11.7l-2 1.8-2 1.8v2.7h-3.5l-1.3 2-1.2 2h-6.1l-1.5-1.4-1.4-1.5v-9.1h2v-6h2v-11.8l.9-.4.9-.3.3-4.5.4-4.5-2.8-.3-2.8-.3-1.8 2c-1 1.2-2.3 2.1-3 2.1H704v11.9l-1 .6-1 .6v12.8l-1 .6-1 .6v12l3.5 3.4 3.4 3.5H717v-2h5.6l1.4-2 1.4-2h1.4c1.7 0 4.2-2.5 4.2-4.2v-1.4l2-1.4 2-1.4v-3.6h2v-10h2v-12h2v-5.3l1.8-1.3 1.7-1.3-1.6-2.7-1.7-2.7-2.6-.2-2.7-.1-1.3 1.6zm-246.4 1.6-1.3 1.5-.6 3.4-.6 3.5H484v12h-1.7l-.2 6.7-.1 6.8-1 .3-1 .4v2.9l-2.5 2.4-2.4 2.5H472v2h-4.1l-2.7-2.7-2.6-2.7 1.2-.4 1.2-.4v-9.8h2v-8h2v-16h-5.7l-1.4 1.7c-.8 1-2 2.8-2.6 4l-1.3 2.3v10h-2v20h-2v6h4l1.2 2 1.3 2h3.5v2h7v-2h4v-2h4v-2h3.1l2.4-2.5 2.5-2.4v-3.1h2v-4h2v-12h2v-10h1.8l.4-6.9.3-6.9-1.2-1.1c-.7-.6-2-1.1-3-1.1l-1.8.1-1.3 1.5zm821.1 37.9-1.3 1.4v54.2l1.4 1.5 1.5 1.4h3.9l1.4-3c.7-1.7 1.6-3 2-3h.8v-17.8l-1.2-.6-1.3-.6 1.3-.6 1.2-.6V1916h-2v-5.1l-1.4-1.5-1.5-1.4h-1.8l-1.8.1-1.2 1.4zm29.5.9-2.8 2.3v49.3h2v1.6c0 .8.6 2.2 1.4 3l1.5 1.4h4.1v-4h2v-28.1l1.5 1.5 1.5 1.5v5.1h2v6h2v4h2v6h2v5.1l1.4 1.5 1.5 1.4h3.2l1.5-1.4c.8-.8 1.4-2.2 1.4-3v-1.6h2v-6h2v-6h2v-6h1.9l.4-1.8.5-1.7.1 4.7.1 4.8h2v5h-2v5h2v5.7l1.9 1.7 1.8 1.7 2.7-1.2 2.6-1.2v-52.8l-1.4-1.5c-.8-.8-2.2-1.4-3-1.4h-1.6v-2h-5v4h-2v6h-2v4.9l-1 .6-1 .6v4l-1-.6-1-.6v7.1h-2v4h-2v2.8l-1.5.6-1.5.5v-5.8l-1-.6-1-.6v-3.9h-2v-6h-2v-4h-2v-6h-2v-3.1l-2.5-2.4-2.4-2.5h-4.6l-2.7 2.4zm-82.9.3-1 1.2-3.5-.6-3.4-.6v8.3h8v2h7.1l1.5 1.4 1.4 1.5v32.1l-1.2 2.1-1.3 2.2 1.3.4 1.2.5v5.3l3.2 1.4 3.2 1.4.4-1.1.4-1.2.9.6.9.5v-5.1h2v-41h3.1l.5-1.3.5-1.3 3.4.4 3.5.4v.9c0 1.4 2 1.1 3.6-.5l1.4-1.5v-7.1h-19.8l-.4-1.1-.3-1-7.9-.2-7.8-.2-.9 1.2zm147.4-.2-1.3 1.4v52.2l2.5 2.4 2.4 2.5h16.7l1.2-1.2 1.2-1.2v2.4h8.7l3.1-1.6 3.2-1.5v-8.9h-27.1l-1.5-1.4-1.4-1.5V1943h19.1l1.5-1.4 1.4-1.5v-4.2l-1.4-1.5c-.8-.8-2.2-1.4-3-1.4h-1.6v-2h-16v-10h23v2h3v-2h4v-10h-4v-2h-4.8l-.5 1.2-.5 1.3-.1-1.3-.1-1.2h-13.2l-13.3.1-1.2 1.4z"/></svg>