<svg version="1.0" xmlns="http://www.w3.org/2000/svg" viewBox="0 0 2548 1945"><path d="M203.3 4.5 202 5.9V53h-2v3h2v125h-2v6.8l1.3.5 1.2.5-1.2.1-1.3.1v3h2v9h-2v5h2v9h-2v3h2v7h-2v4.8l1.3.5 1.2.5-1.2.1-1.3.1v4.8l1.3.5 1.2.5-1.2.1-1.3.1v2.8l1.3.5 1.2.5-1.2.1-1.3.1v3h2v5h-2v5h2v3h-2v3h2v23h-2v11h2v3h-2v20.8l1.3.5 1.2.5-1.2.1-1.3.1v9h2v7h-2v24h2v3.8l-1.2.6-1.3.6 1.3.6 1.2.6V379h-2v3.8l1.3.6 1.2.6-1.2.6-1.3.6v15.6l1.3.6 1.2.6-1.2.6-1.3.6v9.8h2v8h-2v4h2v18h-2v20h2v4h-2v8h2v4h-2v6h2v4h-2v4h2v9.8l-1.2.6-1.3.6 1.3.6 1.2.6v7.6l-1.2.6-1.3.6 1.3.6 1.2.6V527h-2v4h2v6h-2v10h2v4h-2v159.8l-1.2.6-1.3.6 1.3.6 1.2.6v27.6l-1.2.6-1.3.6 1.3.6 1.2.6v7.8h-2v6h2v3.8l-1.2.6-1.3.6 1.3.6 1.2.6V775h-2v4h2v10h-2v24h2v6h-2v4h2v4h-2v35.8l1.3.6 1.2.6-1.2.6-1.3.6v57.6l-1.2.6-1.3.6 1.3.6 1.2.6V967h-2v7.8l1.3.6 1.2.6-1.2.6-1.3.6v29.8h2v6h-2v12h2v6h-2v9.8l1.3.6 1.2.6-1.3.6-1.2.6v13.8h2v20h-2v8h2v3.8l-1.2.6-1.3.6 1.3.6 1.2.6v3.8h-2v8h2v12h-2v21.8l1.3.6 1.2.6-1.2.6-1.3.6v15.8h2v4h-2v5.8l1.3.6 1.2.6-1.3.6-1.2.6v53.6l1.3.6 1.2.6-1.2.6-1.3.6v5.8h2v6h-2v4h2v29.8l-1.2.6-1.3.6 1.3.6 1.2.6v3.8h-2v4h2v11.8l-1.3.6-1.2.6 1.3.6 1.2.6v3.8h-2v8h2v31.8l-1.2.6-1.3.6 1.3.6 1.2.6v5.8h-2v18h2v4h-2v12h2v4h-2v12h2v8h-2v6h2v4h-2v49.8l1.3.6 1.2.6-1.3.6-1.2.6v43.8h2v4h-2v27.8l1.3.5 1.2.5-1.5 1.1-1.5 1.1 1.5 1.1 1.5 1.1-1.3.5-1.2.5v11.8h2v4h-2v6h2v8h-2v98h-2v34h2v40h2v4h43.8l.6 1.2.6 1.3.6-1.3.6-1.2h7.8v2h8v-2h4v2h132v2h4v-2h16v2h7.8l.6-1.3.6-1.2.6 1.2.6 1.3h141.6l.6 1.2.6 1.3.6-1.3.6-1.2h11.6l.6 1.2.6 1.3.6-1.3.6-1.2H598v2h5.8l.6-1.3.6-1.2.6 1.2.6 1.3H620v-2h4v2h37.8l.5-1.3.5-1.2 1.1 1.5 1.1 1.5 1-1.5 1-1.5 1.1 1.5 1.1 1.5.5-1.3.5-1.2h3.8v2h184v2h6v-2h5.8l.5 1.2.5 1.3 1.1-1.5 1.1-1.5 1.1 1.5 1.1 1.5.5-1.3.5-1.2h7.8v2h59.8l.6-1.3.6-1.2.6 1.2.6 1.3h39.6l.6-1.3.6-1.2.6 1.2.6 1.3h25.6l.6-1.3.6-1.2.6 1.2.6 1.3h11.8v-2h4v2h12v-2h4v2h12v-2h18v2h5.8l.6-1.3.6-1.2.6 1.2.6 1.3h11.6l.6-1.3.6-1.2.6 1.2.6 1.3h7.8v-2h4v2h32v-2h10v2h5.8l.6-1.3.6-1.2.6 1.2.6 1.3h39.6l.6-1.3.6-1.2.6 1.2.6 1.3h103.6l.6-1.3.6-1.2.6 1.2.6 1.3h69.6l.6 1.2.6 1.3.6-1.3.6-1.2h7.8v2h9.8l.5-1.3.5-1.2 1.1 1.5 1.1 1.5 1.1-1.5 1.1-1.5.5 1.2.5 1.3h7.6l.6-1.3.6-1.2.6 1.2.6 1.3h13.8v-2h4v2h8v-2h28v2h6v-2h6v2h7.8l.6-1.3.6-1.2.6 1.2.6 1.3h15.8v-2h6v2h7.8l.6-1.2.6-1.3.6 1.2.6 1.3H1998v2h40v-2h6v2h3.8l.6-1.3.6-1.2.6 1.2.6 1.3h13.6l.6-1.3.6-1.2.6 1.2.6 1.3h7.8v-2h12v2h8v-2h6v2h5.8l.5-1.3.5-1.2 1.2 1.5 1.2 1.5.5-1.3.5-1.2h5.6l.6 1.2.6 1.3.6-1.3.6-1.2h9.8v2h13.8l.6-1.3.6-1.2.6 1.2.6 1.3h9.8v-2h27.8l.6 1.2.6 1.3.6-1.3.6-1.2h3.8v2h3.8l.6-1.3.6-1.2.6 1.2.6 1.3h7.8v-2h27.8l.6 1.2.6 1.3.6-1.3.6-1.2h29.6l.5 1.2.5 1.3 1.2-1.5 1.2-1.5.5 1.2.5 1.3h5.6l.6-1.3.6-1.2.6 1.2.6 1.3h21.6l.6-1.3.6-1.2.6 1.2.6 1.3h35.8v-2h4v2h55.8l.6-1.3.6-1.2.6 1.2.6 1.3h79.8v-2h1.6c2 0 4.4-2.4 4.4-4.4v-1.6h2v-10h-2v-55.8l-1.2-.5-1.3-.5 1.5-1.2 1.5-1.2-1.2-.5-1.3-.5v-7.8h2v-6h-2v-5.8l1.2-.6 1.3-.6-1.2-.6-1.3-.6v-9.8h2v-4h-2v-8h2v-53.8l-1.2-.6-1.3-.6 1.3-.6 1.2-.6v-21.6l-1.2-.6-1.3-.6 1.3-.6 1.2-.6V1455h2v-6h-2v-40h2v-4h-2v-14h2v-3.8l-1.2-.6-1.3-.6 1.3-.6 1.2-.6v-3.8h-2v-56h2v-6h-2v-42h2v-3.8l-1.2-.6-1.3-.6 1.3-.6 1.2-.6V1259h-2v-4h2v-6h-2v-75.8l1.3-.6 1.2-.6-1.2-.6-1.3-.6v-97.6l1.3-.5 1.2-.5-1.5-1.2-1.5-1.2 1.3-.5 1.2-.5v-7.8h-2v-38h2v-5.8l-1.2-.6-1.3-.6 1.3-.6 1.2-.6v-5.6l-1.2-.6-1.3-.6 1.3-.6 1.2-.6V999h-2v-7.8l1.3-.6 1.2-.6-1.2-.6-1.3-.6v-9.6l1.3-.5 1.2-.5-1.5-1.2-1.5-1.2 1.3-.5 1.2-.5v-7.6l-1.2-.6-1.3-.6 1.3-.6 1.2-.6V961h-2v-4h2v-29.8l-1.2-.6-1.3-.6 1.3-.6 1.2-.6V911h-2v-8h2v-27.8l-1.2-.6-1.3-.6 1.2-.6 1.3-.6v-7.6l-1.2-.6-1.3-.6 1.3-.6 1.2-.6V811h2v-4h-2v-22h2v-6h-2v-5.8l1.3-.6 1.2-.6-1.2-.6-1.3-.6v-21.6l1.3-.6 1.2-.6-1.2-.6-1.3-.6V681h2v-3.8l-1.2-.6-1.3-.6 1.3-.6 1.2-.6V669h-2v-6h2v-6h-2v-4h2v-5.8l-1.2-.6-1.3-.6 1.3-.6 1.2-.6v-7.6l-1.2-.5-1.3-.5 1.5-1.1 1.5-1.1-1.5-1.1-1.5-1.1 1.3-.5 1.2-.5V355h2v-4h-2v-63h2v-3h-2v-13h2v-7h-2v-23h2v-3h-2v-21h2v-3h-2V110h2v-3h-2V88h2v-5h-2V62h2v-4.8l-1.2-.5-1.3-.5 1.3-.1 1.2-.1v-7h-2v-3h2v-9h-2V20h2V9.9l-2.7-2.7-2.7-2.6-.4 1.2-.4 1.2H2408V5h-10v2h-17.8l-.6-1.3-.6-1.2-.6 1.2-.6 1.3h-147.6l-.6-1.3-.6-1.2-.6 1.2-.6 1.3H2214V5h-9.8l-.5 1.2-.5 1.3L2202 6l-1.2-1.5-.5 1.2-.5 1.3h-19.6l-.5-1.3-.5-1.2L2178 6l-1.2 1.5-.5-1.3-.5-1.2H2160v2h-9.8l-.6-1.3-.6-1.2-.6 1.2-.6 1.3H2134V5h-6v2h-70V5h-4v2h-92V5h-38v2h-279.8l-.6-1.3-.6-1.2-.6 1.2-.6 1.3H1500v2h-4V7h-126v2h-4V7H730.2l-.5-1.3-.5-1.2L728 6l-1.2 1.5-.5-1.3-.5-1.2H716v2h-6V5h-3.8l-.6 1.2-.6 1.3-.6-1.3-.6-1.2h-5.6l-.6-1.3-.6-1.2-.6 1.2-.6 1.3H688v2h-6V5h-4v2h-8V5h-44v2h-4V5H392.2l-.6-1.3-.6-1.2-.6 1.2-.6 1.3H386V3h-4v2h-8V3h-20v2h-6V3h-3.8l-.6 1.2-.6 1.3-.6-1.3-.6-1.2H338v2h-3.8l-.6-1.3-.6-1.2-.6 1.2-.6 1.3H320V3h-4v2h-4V3h-5.8l-.6 1.2-.6 1.3-.6-1.3-.6-1.2h-61.6l-.6 1.2-.6 1.3-.6-1.3-.6-1.2h-17.6l-17.7.1-1.2 1.4zm123 14.7.5 1.3 1.1-1.5 1.1-1.5 1.1 1.5 1.1 1.5.5-1.3.5-1.2h3.6l.6 1.2.6 1.3.6-1.3.6-1.2h7.8v2h4v-2h36v2h11.8l.5-1.3.5-1.2 1.1 1.5 1.1 1.5 1.1-1.5 1.1-1.5.5 1.2.5 1.3h99.6l.6-1.3.6-1.2.6 1.2.6 1.3H704v2h37.8l.6-1.3.6-1.2.6 1.2.6 1.3h3.8v-2h6v2h7.8l.6-1.3.6-1.2.6 1.2.6 1.3H1574v2h6v-2h434v2h6v-2h4v2h24v-2h11.8l.6 1.2.6 1.3.6-1.3.6-1.2h7.6l.5 1.2.5 1.3 1.1-1.5 1.1-1.5 1.1 1.5 1.1 1.5.5-1.3.5-1.2h13.8v2h8v-2h3.8l.6 1.2.6 1.3.6-1.3.6-1.2h7.8v2h4v-2h15.8l.6 1.2.6 1.3.6-1.3.6-1.2h53.8v2h30v-2h10v2h9.8l.5-1.3.5-1.2 1.2 1.5 1.2 1.5.5-1.3.5-1.2h5.6l.6 1.2.6 1.3.6-1.3.6-1.2h5.8v2h10v-2h34v2h28v-2h6v2h3.8l.6-1.3.6-1.2.6 1.2.6 1.3h17.6l.5-1.3.5-1.2 1.2 1.5 1.2 1.5.5-1.3.5-1.2h13.6l.6 1.2.6 1.3.6-1.3.6-1.2h7.6l.6 1.2.6 1.3.6-1.3.6-1.2h5.6l.6 1.2.6 1.3.6-1.3.6-1.2h15.8v2h33.8l.6-1.3.6-1.2.6 1.2.6 1.3h13.8v-2h4v2h4v12h2v9h-2v5h2v48h2v25h-2v3h2v141h-2v13l1.3.1 1.2.1-1.2.5-1.3.5v2.8h2v161h-2v12h2v9.8l-1.2.6-1.3.6 1.3.6 1.2.6V483h-2v4h2v7.8l-1.2.6-1.3.6 1.3.6 1.2.6V549h-2v3.8l1.3.6 1.2.6-1.2.6-1.3.6v5.8h2v3.8l-1.2.6-1.3.6 1.3.6 1.2.6v5.8h-2v4h2v28h-2v8h2v8h-2v3.8l1.3.6 1.2.6-1.2.6-1.3.6v3.6l1.3.6 1.2.6-1.2.6-1.3.6v3.8h2v8h-2v6h2v18h-2v4h2v4h-2v114h-2v4h2v11.8l-1.2.6-1.3.6 1.3.6 1.2.6V855h-2v4h2v4h-2v4h2v25.8l-1.2.6-1.3.6 1.3.6 1.2.6v9.6l-1.2.6-1.3.6 1.3.6 1.2.6v9.6l-1.2.5-1.3.5 1.5 1.2 1.5 1.2-1.2.5-1.3.5v3.6l1.3.6 1.2.6-1.2.6-1.3.6v7.6l1.3.5 1.2.5-1.5 1.2-1.5 1.2 1.3.5 1.2.5V957h-2v8h2v8h-2v125.8l1.3.6 1.2.6-1.2.6-1.3.6v73.8h-2v4h2v6h-2v3.8l1.3.6 1.2.6-1.2.6-1.3.6v5.6l1.3.6 1.2.6-1.2.6-1.3.6v7.8h2v3.8l-1.2.6-1.3.6 1.3.6 1.2.6v3.8h-2v3.8l1.3.6 1.2.6-1.2.6-1.3.6v3.6l1.3.6 1.2.6-1.2.6-1.3.6v19.8h2v34h-2v24h2v6h-2v123.8l1.3.6 1.2.6-1.2.6-1.3.6v91.8h2v6h-2v4h2v4h-2v4h2v3.8l-1.3.6-1.2.6 1.3.6 1.2.6v3.8h-2v3.8l1.3.5 1.2.5-1.5 1.2-1.5 1.2 1.3.5 1.2.5v5.8h-2v60h-2v16h2v3.8l-1.2.5-1.3.5 1.5 1.2 1.5 1.2-1.2.5-1.3.5v5.6l1.3.5 1.2.5-1.5 1.2-1.5 1.2 1.3.5 1.2.5v7.8h-2v13.8l1.3.6 1.2.6-1.2.6-1.3.6v13.8h-2v4h2v5.8l-1.3.6-1.2.6 1.3.6 1.2.6v23.8h-2v1.6c0 .8-.6 2.2-1.4 3l-1.5 1.4H2354v2h-3.8l-.6-1.3-.6-1.2-.6 1.2-.6 1.3h-5.8v-2h-12v2h-26v-2h-6v2h-4v-2h-14v-2h-6v-2h-8v-2h-4v-2h-6v-2h-4v-2h-6v-2h-4v-2h-3.6l-1.4-2-1.4-2h-3.6v-2h-4v-2h-4v-2h-4v-2h-4v-2h-6v-2h-3.6l-1.4-2-1.4-2h-3.6v-2h-4v-2h-3.6l-1.4-2-1.4-2h-5.2l-1.4-2-1.4-2h-5.2l-1.4-2-1.4-2h-3.6v-2h-4v-2h-6v-2h-4v-2h-4v-2h-3.6l-1.4-2-1.4-2h-3.6v-2h-4v-2h-4v-2h-4v-2h-3.6l-1.4-2-1.4-2h-3.6v-2h-4v-2h-3.6l-1.4-2-1.4-2h-3.6v-2h-4v-2h-3.6l-1.4-2-1.4-2h-3.6v-2h-4v-2h-3.6l-1.4-2-1.4-2h-3.6v-2h-5.6l-1.4-2-1.4-2h-3.6v-2h-5.6l-1.4-2-1.4-2h-3.2l-1.4-2-1.4-2h-3.6v-2h-4v-2h-4v-2h-4v-2h-4v-2h-4v-2h-4v-2h-3.6l-1.4-2-1.4-2h-3.2l-1.4-2-1.4-2h-5.6v-2h-3.6l-1.4-2-1.4-2h-3.6v-2h-3.6l-1.4-2-1.4-2h-5.2l-1.4-2-1.4-2h-3.2l-1.4-2-1.4-2h-3.6v-2h-4v-2h-4v-2h-3.6l-1.4-2-1.4-2h-5.6v-2h-3.2l-2.8-3-2.8-3h-3.2v-2h-4v-2h-3.6l-1.4-2-1.4-2h-3.6v-2h-3.6l-1.4-2-1.4-2h-3.6v-2h-4v-2h-3.6l-1.4-2-1.4-2h-3.6v-2h-3.6l-1.4-2-1.4-2h-3.6v-2h-3.6l-1.4-2-1.4-2h-3.6v-2h-4v-2h-3.6l-1.4-2-1.4-2h-3.6v-2h-3.6l-1.4-2-1.4-2h-3.6v-2h-3.6l-1.4-2-1.4-2h-3.2l-1.4-2-1.4-2h-3.2l-1.4-2-1.4-2h-3.6v-2h-3.6l-1.4-2-1.4-2h-3.6v-2h-3.6l-1.4-2-1.4-2h-3.2l-1.4-2-1.4-2h-3.6v-2h-4v-2h-3.6l-1.4-2-1.4-2h-4.8l-2.8-3-2.8-3h-2.8l-1.4-2-1.4-2h-3.2l-1.4-2-1.4-2h-3.6v-2h-4v-2h-3.6l-1.4-2-1.4-2h-2.8l-2.8-3-2.8-3h-3.2v-2h-3.6l-1.4-2-1.4-2h-3.6v-2h-3.6l-1.4-2-1.4-2h-3.6v-2h-3.6l-1.4-2-1.4-2h-3.2l-1.4-2-1.4-2h-3.2l-1.4-2-1.4-2h-3.2l-1.4-2-1.4-2h-3.2l-1.4-2-1.4-2h-3.2l-1.4-2-1.4-2h-3.6v-2h-3.2l-2.8-3-2.8-3h-2.8l-1.4-2-1.4-2h-3.6v-2h-3.6l-1.4-2-1.4-2h-2.8l-2.8-3-2.8-3h-3.2v-2h-3.6l-1.4-2-1.4-2h-3.6v-2h-3.6l-1.4-2-1.4-2h-2.8l-2.8-3-2.8-3h-2.8l-1.4-2-1.4-2h-3.2l-1.4-2-1.4-2h-2.8l-2.8-3-2.8-3h-3.2v-2h-3.2l-2.8-3-2.8-3h-2.8l-1.4-2-1.4-2h-3.2l-1.4-2-1.4-2h-3.2l-1.4-2-1.4-2h-2.8l-2.8-3-2.8-3h-2.8l-1.4-2-1.4-2h-2.8l-2.8-3-2.8-3h-2.4l-2.8-3-2.8-3h-2.8l-1.4-2-1.4-2h-2.8l-2.8-3-2.8-3h-2.8l-1.4-2-1.4-2h-2.8l-2.8-3-2.8-3h-3.2v-2h-3.2l-3.8-4-3.8-4h-1.2c-.7 0-2.5-1.4-4-3l-2.8-3h-2.4l-2.8-3-2.8-3h-3.2v-2h-3.2l-2.8-3-2.8-3h-2.8l-1.4-2-1.4-2h-2.8l-3.8-4-3.8-4h-1.2c-.7 0-2.5-1.4-4-3-1.5-1.7-3.3-3-4-3h-1.1l-4.9-5-4.9-5h-1.1c-.7 0-2.5-1.4-4-3l-2.8-3h-2.4l-2.8-3c-1.5-1.7-3.3-3-4-3h-1.1l-4.9-5-4.9-5h-2.2l-4.9-5-4.9-5h-2.7l-1.4-2-1.4-2h-2.8l-2.8-3c-1.5-1.7-3.3-3-4-3h-1.2l-3.8-4-3.8-4h-1.2c-.7 0-2.5-1.4-4-3-1.5-1.7-3.3-3-4-3h-1.1l-5.9-6c-3.2-3.3-6.4-6-7-6h-1.1l-6.9-7-6.9-7h-1.1c-.6 0-2.9-1.8-5-4s-4.4-4-5-4h-1.1l-6.9-7-6.9-7h-1.1c-.6 0-3.8-2.7-7-6l-5.9-6h-3.1v-2h-1.6c-.8 0-2.2-.6-3-1.4-.8-.8-1.4-2.2-1.4-3v-1.6h-3.1l-6.9-7-6.9-7h-1.1c-.6 0-2.9-1.8-5-4s-4.4-4-5-4c-1.5 0-4-2.5-4-4s-2.5-4-4-4h-1.1l-13.9-14-13.9-14h-1.1c-.6 0-4.2-3.2-8-7l-6.9-7h-2.2l-6.9-7-6.9-7h-3.1v-1.6c0-1.8-2.3-4.4-4-4.4h-1.1l-9.9-10c-5.5-5.5-10.4-10-11-10-.6 0-4-2.9-7.5-6.5l-6.5-6.5v-2.8l-1.2-.4-1.2-.4 6.7-6.7 6.7-6.7h1.1c.6 0 2.4-1.4 3.9-3l2.8-3h3.2v-2h4v-2h3.1l2.4-2.5 2.5-2.4v-2.9l-1.2-.4-1.2-.4 8.7-8.7c4.8-4.8 9.1-8.7 9.7-8.7.6 0 6-5 12-11l10.9-11h1.1c1.7 0 4-2.6 4-4.4V911h3.1l12.9-13 12.9-13h1.1c.6 0 4.2-3.2 8-7l6.9-7h1.1c.6 0 3.3-2.3 6-5l4.9-5h9.1v-2h4v2h57.8l.6 1.2.6 1.3.6-1.3.6-1.2h5.8v-4h-14v-2h-52v-2h-4v2h-13.1l-7.9 8c-4.4 4.4-8.4 8-9 8h-1l-15 15-15 15h-1c-.6 0-5.5 4.5-11 10l-9.9 10h-3.1v4h-3.1l-11.9 12-11.9 12h-2.9l-.6 1.2-.6 1.3-.6-1.3-.6-1.2h-7.8v3.6l-2 1.4-2 1.4v4.7l-5 4.9c-2.7 2.7-5 5.4-5 6 0 .6-2 3.1-4.5 5.5l-4.4 4.5h-4.7l-1.4-2-1.4-2h-2.7l-2.4-2.5c-1.4-1.3-2.5-2.9-2.5-3.5 0-1.5-2.5-4-3.9-4h-1.1l-11.5-11.5L1106 944v-3h-3l-5.5-5.5-5.5-5.5v-3h-4v-1.6c0-1.8-2.3-4.4-4-4.4-1.7 0-4-2.6-4-4.4V915h-1.6c-1.8 0-4.4-2.3-4.4-4v-1.1l-12-11.9c-6.6-6.6-12-12.4-12-13 0-.6-6.7-7.8-15-16l-15-15v-1c0-.6-3.1-4.2-7-8-3.8-3.8-7-7.4-7-8v-1.1l-8-7.9-8-7.9V819c0-.6-2.7-3.8-6-7l-6-5.9V803h-4v-3.1l-7-6.9-7-6.9v-2.2l-7-6.9-7-6.9V769c0-.6-2.7-3.8-6-7l-6-5.9V753h-4v-3.2l-4-3.8c-2.2-2.1-4-4.4-4-5 0-1.7-2.6-4-4.4-4H916v-2h-9.1l-2.4 2.5-2.5 2.4v2.7l-2 1.4-2 1.4v3.6h-2v4h-2v3.2l-4 3.8-4 3.8v3.2h-2v3.2l-3 2.8-3 2.8v3.2h-2v3.2l-4 3.8-4 3.8v5.2h-2v3.6l-2 1.4-2 1.4v2.8l-4 3.8-4 3.8v3.2h-2v3.1l-2.5 2.4-2.4 2.5h-4.2l-1.5-1.4c-.8-.8-1.4-2-1.4-2.6 0-.6-1.8-2.9-4-5l-4-3.8V809c0-.7-1.4-2.5-3-4l-3-2.8v-2.4l-3-2.8-3-2.8v-2.4l-3-2.8c-1.7-1.5-3-3.3-3-4v-1.2l-4-3.8-4-3.8V775c0-.7-1.4-2.5-3-4l-3-2.8V765h-2v-4h-4v-3.2l-4-3.8-4-3.8V747h-2v-3.6l-2-1.4-2-1.4v-3.2l-2-1.4-2-1.4v-2.8l-4-3.8-4-3.8v-2.8l-2-1.4-2-1.4v-3.2l-2-1.4-2-1.4v-3.2l-2-1.4-2-1.4v-2.8l-3-2.8-3-2.8v-2.8l-2-1.4-2-1.4V689h-2v-3.6l-2-1.4-2-1.4V679h-2v-4h-4v-3.6l-2-1.4-2-1.4V665h-2v-3.2l-3-2.8-3-2.8V653h-2v-4h-2v-4h-2v-3.6l-2-1.4-2-1.4V635h-2v-3.6l-2-1.4-2-1.4v-3.2l-2-1.4-2-1.4v-5.4l-1.2-.4-1.2-.4 5.7-5.7c3.1-3.1 6.1-5.7 6.7-5.7.6 0 3.3-2.3 6-5l4.9-5h2.7l1.4-2 1.4-2h3.6v-10h4v-1.6c0-1.8 2.3-4.4 4-4.4 1.7 0 4-2.6 4-4.4V569h1.6c1.8 0 4.4-2.3 4.4-4 0-1.4 8.6-10 10-10 1.4 0 16-14.7 16-16 0-.6 1.6-2.6 3.5-4.5l3.4-3.5h3.1v-3l16-16c8.8-8.8 16-16.4 16-17 0-.6 3.4-4.4 7.5-8.5l7.5-7.5h21v-2h4v2h42v-2h4v-4h-16v-2h-4v2h-6v-2h-6v2h-12v-2h-8v2h-6v-2h-3.8l-.6 1.2-.6 1.3-.6-1.3-.6-1.2h-7.4l-1.4 2-1.4 2H827l-5.5 5.5c-3 3-5.5 5.9-5.5 6.5 0 .6-4.5 5.5-10 11l-10 9.9v1.1c0 1.5-2.5 4-3.9 4H791l-11.5 11.5c-6.3 6.3-11.5 11.9-11.5 12.5 0 .6-3.8 4.8-8.5 9.5L751 555h-3v4h-1.6c-1.8 0-4.4 2.3-4.4 3.9 0 .6-2.9 4.1-6.5 7.6L729 577h-6.1l-2.4 2.5-2.5 2.4v3.1h-2v3.6l-2 1.4-2 1.4v2.8l-3 2.8c-1.7 1.5-3 3.3-3 3.9 0 .7-1.6 2.7-3.5 4.6l-3.4 3.5H694v-3.6l-2-1.4-2-1.4v-3.2l-2-1.4-2-1.4V593h-2v-4h-2v-3.6l-2-1.4-2-1.4V579h-2v-4h-2v-4h-2v-3.6l-2-1.4-2-1.4V561h-2v-4h-2v-4h-2v-4h-2v-3.6l-2-1.4-2-1.4V539h-2v-4h-2v-4h-2v-3.6l-2-1.4-2-1.4V519h-2v-4h-2v-4h-2v-5.6l-2-1.4-2-1.4v-5.2l-2-1.4-2-1.4V491h-2v-4h-2v-4h-2v-6h-2v-4h-2v-4h-2v-4h-2v-6h-2v-4h-2v-4h-2v-4h-2v-4h-2v-4h-2v-6h-2v-6h-2v-4h-2v-4h-2v-8h-2v-4h-2v-4h-2v-6h-2v-4h-2v-4h-2v-6h-2v-4h-2v-6h-2v-6h-2v-4h-2v-6h-2v-6h-2v-7.6l-2-1.4-2-1.4V337h-2v-10h-2v-4h-2v-8h-2v-4h-2v-6h-2v-5.1l-1.4-1.5-1.5-1.4H546v2h-4v4h-2v6h-2v14h-2v8h-2v8h-2v8h-2v10h-2v12h-2v8h-2v4h-2v14h-2v8h-2v10h-2v8h-2v8h-2v10h-2v6h-2v10h-2v10h-2v4h-2v10h-2v10h-2v10h-2v4h-2v10h-2v8h-2v10h-2v6h-2v6h-2v10h-2v10h-2v8h-2v8h-2v10h-2v8h-2v8h-2v8h-2v8h-2v12h-2v8h-2v10h-2v8h-2v12h-2v8h-2v6h-2v8h-2v8h-2v10h-2v8h-2v12h-2v6h-2v8h-2v8h-2v12h-2v6h-2v8h-2v8h-2v10h-2v8h-2v10h-2v8h-2v8h-2v10h-2v6h-2v8h-2v10h-2v12h-2v6h-2v8h-2v6h-2v8h-2v6h-2v8h-2v10h-2v10h-2v8h-2v6h-2v10h-2v8h-2v6h-2v10h-2v8h-2v6h-2v10h-2v10h-2v10h-2v6h-2v10h-2v6h-2v8h-2v8h-2v8h-2v8h-2v10h-2v8h-2v10h-2v6h-2v10h-2v8h-2v10h-2v10h-2v8h-2v8h-2v8h-2v8h-2v12h-2v10h-2v8h-2v4h-2v14h-2v6h-2v12h-2v6h-2v6h-2v10h-2v10h-2v7.8l-1.2.5-1.3.5 1.5 1.2 1.5 1.2-1.3.5-1.2.5v3.8h-2v10h-2v6h-2v8h-2v8h-2v10h-2v8h-2v10h-2v6h-2v10h-2v10h-2v6h-2v10h-2v8h-2v8h-2v6h-2v10h-2v10h-2v6h-2v8h-2v12h-2v8h-2v8h-2v6h-2v14h-2v4h-2v6h-2v10h-2v10h-2v10h-2v6h-2v8h-2v12h-2v6h-2v8h-2v6h-2v8h-2v10h-2v10h-2v8h-2v8h-2v8h-2v10h-2v4h-2v10h-2v6h-2v8h-2v1.6c0 1.5-2.3 4.4-3.4 4.4h-.6v-55.8l-1.2-.5-1.3-.5 1.5-1.1 1.5-1.1-1.5-1-1.5-1 1.5-1 1.5-1-1.5-1.1-1.5-1.1 1.2-.5 1.3-.5v-5.8h-2v-12h2v-6h-2v-3.8l1.3-.5 1.2-.5-1.5-1.2-1.5-1.2 1.2-.5 1.3-.5v-9.6l-1.2-.5-1.3-.5 1.5-1.2 1.5-1.2-1.2-.5-1.3-.5v-3.8h2v-37.8l-1.2-.6-1.3-.6 1.2-.6 1.3-.6v-3.6l-1.2-.6-1.3-.6 1.2-.6 1.3-.6v-3.6l-1.2-.6-1.3-.6 1.2-.6 1.3-.6V1511h-2v-4h2v-219.8l1.2-.6 1.3-.6-1.2-.6-1.3-.6V1267h2v-4h-2v-11.8l1.3-.5 1.2-.5-1.5-1.1-1.5-1.1 1.5-1 1.5-1-1.5-1.1-1.5-1.1 1.2-.5 1.3-.5v-3.8h-2v-21.8l1.2-.5 1.3-.5-1.5-1.1-1.5-1.1 1.5-1.1 1.5-1.1-1.2-.5-1.3-.5V1191h2v-15.8l-1.2-.5-1.3-.5 1.5-1.1 1.5-1.1-1.5-1.1-1.5-1.1 1.2-.5 1.3-.5v-5.8h-2v-5.8l1.3-.6 1.2-.6-1.2-.6-1.3-.6v-9.8h2v-5.8l-1.3-.6-1.2-.6 1.2-.6 1.3-.6V1125h-2v-4h2v-8h-2v-4h2v-7.8l-1.2-.6-1.3-.6 1.2-.6 1.3-.6V1023h-2v-4h2v-4h-2v-4h2v-63.8l1.3-.6 1.2-.6-1.2-.6-1.3-.6V823.2l1.2-.5 1.3-.5-1.5-1.2-1.5-1.2 1.2-.5 1.3-.5V811h-2v-16h2v-19.8l-1.2-.6-1.3-.6 1.3-.6 1.2-.6V767h-2v-5.8l1.3-.5 1.2-.5-1.5-1.2-1.5-1.2 1.3-.5 1.2-.5V749h-2v-6h2v-43.8l-1.2-.6-1.3-.6 1.3-.6 1.2-.6V581.2l-1.2-.6-1.3-.6 1.3-.6 1.2-.6V559h-2v-8h2V270h2v-3h-2v-61h2v-3l-1.2-.1-1.3-.1 1.3-.5 1.2-.5V199l-1.2-.1-1.3-.1 1.3-.5 1.2-.5V193h-2v-39h2v-3h-2v-3h2v-3h-2v-3h2v-3h-2v-3h2V20h4v-2h105.8l.5 1.2zm230.3 324.2 1.4 1.5v5.7l2 1.4 2 1.4v5.6h2v4h2v6h2v6h2v4h2v6h2v6h2v4h2v6h2v4h2v6h2v6h2v4h2v4h2v4h2v4h2v6h2v6h2v3.6l2 1.4 2 1.4v5.6h2v4h2v4h2v4h2v6h2v4h2v4h2v4h2v5.6l2 1.4 2 1.4v5.6h2v4h2v4h2v6h2v4h2v4h2v4h2v4h2v4h2v3.6l2 1.4 2 1.4v5.6h2v4h2v4h2v3.6l2 1.4 2 1.4v5.6h2v3.2l3 2.8 3 2.8v3.2h2v4h2v4h2v4h2v3.6l2 1.4 2 1.4v3.6h2v3.6l2 1.4 2 1.4v3.2l2 1.4 2 1.4v3.6h2v4h2v3.6l2 1.4 2 1.4v3.6h2v3.6l2 1.4 2 1.4v3.2l2 1.4 2 1.4v3.2l2 1.4 2 1.4v3.6h2v3.6l2 1.4 2 1.4v3.6h2v3.6l2 1.4 2 1.4v3.2l2 1.4 2 1.4v3.2l2 1.4 2 1.4v3.2l2 1.4 2 1.4v3.6h2v3.2l3 2.8 3 2.8v2.4l3 2.8 3 2.8v2.8l2 1.4 2 1.4v3.6h2v3.2l4 3.8 4 3.8v3.2h2v3.1l5 4.9 5 4.9v1.1c0 .7 1.4 2.5 3 4l3 2.8v3.2h2v3.2l3 2.8 3 2.8v2.4l3 2.8 3 2.8v2.8l2 1.4 2 1.4v2.8l3 2.8 3 2.8v2.4l3 2.8c1.7 1.5 3 3.3 3 4v1.2l4 3.8 4 3.8v1.2c0 .7 1.4 2.5 3 4s3 3.3 3 4v1.1l5 4.9 5 4.9v3.1h2v3.6l2 1.4 2 1.4v7.6h-2v3.2l-3 2.8-3 2.8v2.4l-3 2.8-3 2.8v2.8l-2 1.4-2 1.4v3.6h-2v3.6l-2 1.4-2 1.4v2.8l-3 2.8-3 2.8v2.8l-2 1.4-2 1.4v3.2l-2 1.4-2 1.4v3.6h-2v3.2l-3 2.8-3 2.8v3.2h-2v3.6l-2 1.4-2 1.4v2.8l-4 3.8-4 3.8v3.2h-2v3.2l-3 2.8-3 2.8v2.8l-2 1.4-2 1.4v2.8l-3 2.8c-1.7 1.5-3 3.3-3 4v1.2l-4 3.8-4 3.8v2.8l-2 1.4-2 1.4v3.6h-2v3.2l-3 2.8-3 2.8v2.8l-2 1.4-2 1.4v3.2l-2 1.4-2 1.4v3.6h-2v3.2l-3 2.8-3 2.8v2.4l-3 2.8-3 2.8v3.2h-2v3.2l-3 2.8-3 2.8v3.2h-2v3.2l-4 3.8-4 3.8v3.2h-2v3.2l-3 2.8-3 2.8v2.8l-2 1.4-2 1.4v3.2l-2 1.4-2 1.4v2.8l-3 2.8-3 2.8v2.4l-3 2.8-3 2.8v2.4l-3 2.8-3 2.8v2.8l-2 1.4-2 1.4v3.2l-2 1.4-2 1.4v3.6h-2v3.6l-2 1.4-2 1.4v2.8l-3 2.8-3 2.8v2.8l-2 1.4-2 1.4v3.2l-2 1.4-2 1.4v3.6h-2v3.2l-3 2.8-3 2.8v2.8l-2 1.4-2 1.4v2.8l-3 2.8-3 2.8v3.2h-2v3.2l-3 2.8-3 2.8v2.4l-3 2.8-3 2.8v3.2h-2v3.2l-3 2.8-3 2.8v2.8l-2 1.4-2 1.4v2.8l-3 2.8-3 2.8v2.8l-2 1.4-2 1.4v3.2l-2 1.4-2 1.4v3.6h-2v3.2l-3 2.8-3 2.8v2.8l-2 1.4-2 1.4v3.2l-2 1.4-2 1.4v3.2l-2 1.4-2 1.4v2.7l-2.5 2.4-2.4 2.5H550v-4h-5.1l-1.5 1.4-1.4 1.5v19.1h-2v3.6l-2 1.4-2 1.4v3.2l-2 1.4-2 1.4v2.8l-3 2.8-3 2.8v2.8l-2 1.4-2 1.4v3.6h-2v3.2l-3 2.8-3 2.8v2.8l-2 1.4-2 1.4v3.2l-2 1.4-2 1.4v2.8l-3 2.8-3 2.8v3.2h-2v3.2l-4 3.8-4 3.8v1.2c0 .7-1.3 2.5-3 4l-3 2.8v2.4l-3 2.8-3 2.8v3.2h-2v4h-2v3.2l-3 2.8-3 2.8v2.4l-3 2.8-3 2.8v2.8l-2 1.4-2 1.4v2.8l-3 2.8-3 2.8v3.2h-2v3.2l-4 3.8-4 3.8v2.8l-2 1.4-2 1.4v3.2l-2 1.4-2 1.4v3.6h-2v3.6l-2 1.4-2 1.4v2.8l-3 2.8-3 2.8v3.2h-2v3.2l-3 2.8-3 2.8v2.4l-3 2.8-3 2.8v2.4l-3 2.8-3 2.8v3.2h-2v4h-2v3.2l-3 2.8-3 2.8v3.2h-2v3.2l-3 2.8c-1.6 1.5-3 3.3-3 4v1.2l-4 3.8-4 3.8v3.2h-2v3.2l-4 3.8-4 3.8v2.8l-2 1.4-2 1.4v2.8l-3 2.8-3 2.8v2.8l-2 1.4-2 1.4v3.2l-2 1.4-2 1.4v3.6h-2v3.2l-3 2.8-3 2.8v3.2h-2v3.2l-3 2.8-3 2.8v2.8l-2 1.4-2 1.4v3.6h-2v3.2l-3 2.8-3 2.8v2.4l-3 2.8-3 2.8v2.8l-2 1.4-2 1.4v2.8l-4 3.8-4 3.8v2.8l-2 1.4-2 1.4v3.6h-2v3.2l-3 2.8-3 2.8v2.8l-2 1.4-2 1.4v3.2l-2 1.4-2 1.4v2.8l-3 2.8-3 2.8v2.8l-2 1.4-2 1.4v2.8l-3 2.8-3 2.8v3.2h-2v3.6l-2 1.4-2 1.4v3.6h-2v3.2l-3 2.8c-1.6 1.5-3 3.3-3 4v1.2l-4 3.8-4 3.8v2.8l-2 1.4-2 1.4v3.2l-2 1.4-2 1.4v3.6h-2v3.2l-4 3.8c-2.2 2.1-4 4.3-4 5 0 1.1-6.4 8-7.5 8-.3 0-.5-2.3-.5-5v-5h2v-10h2v-8h2v-4h2v-16h2v-6h2v-4h2v-8h2v-8h2v-8h2v-10h2v-6h2v-8h2v-10h2v-6h2v-10h2v-8h2v-10h2v-8h2v-8h2v-8h2v-10h2v-8h2v-8h2v-8h2v-8h2v-8h2v-8h2v-8h2v-12h2v-8h2v-8h2v-10h2v-6h2v-8h2v-4h2v-3.8l-1.2-.6-1.3-.6 1.3-.6 1.2-.6v-5.8h2v-8h2v-10h2v-4h2v-12h2v-8h2v-6h2v-12h2v-8h2v-8h2v-6h2v-10h2v-12h2v-6h2v-8h2v-8h2v-10h2v-4h2v-12h2v-10h2v-8h2v-10h2v-6h2v-12h2v-4h2v-3.8l-1.2-.6-1.3-.6 1.3-.6 1.2-.6v-5.8h2v-8h2v-8h2v-4h2v-12h2v-8h2v-3.8l1.3-.5 1.2-.5-1.5-1.2-1.5-1.2 1.3-.5 1.2-.5v-9.8h2v-6h2v-12h2v-8h2v-6h2v-8h2v-10h2v-10h2v-8h2v-6h2v-10h2v-6h2v-12h2v-6h2v-6h2v-12h2v-8h2v-10h2v-6h2v-10h2v-6h2v-6h2v-10h2v-8h2v-8h2v-8h2v-10h2v-6h2v-10h2v-8h2v-8h2v-8h2v-10h2v-8h2v-6h2v-12h2v-8h2v-6h2v-8h2v-10h2v-8h2v-12h2v-7.6l2-1.4 2-1.4V781h2v-10h2v-8h2v-8h2v-8h2v-12h2v-6h2v-8h2v-10h2v-6h2v-12h2v-8h2v-6h2v-8h2v-12h2v-4h2v-10h2v-8h2v-6h2v-8h2v-10h2v-8h2v-6h2v-9.8l1.3-.5 1.2-.5-1.5-1.2-1.5-1.2 1.3-.5 1.2-.5V577h2v-6h2v-10h2v-3.8l1.3-.5 1.2-.5-1.5-1.2-1.5-1.2 1.3-.5 1.2-.5V537h2v-8h2v-6h2v-8h2v-8h2v-10h2v-8h2v-12h2v-8h2v-6h2v-10h2v-10h2v-8h2v-8h2v-10h2v-8h2v-8h2v-8h2v-12h2v-6h2v-8h2v-8h2v-10h4v4h2v4h1.6c.8 0 2.2-.6 3-1.4l1.4-1.5V342h.6c.3 0 1.2.6 2 1.4zm368.9 422.1c3.6 3.5 6.5 6.9 6.5 7.5 0 .6 3.6 4.6 8 9l8 7.9v3.1h3.1l2.4 2.5c1.4 1.3 2.5 2.9 2.5 3.5 0 .6 2.3 3.3 5 6 2.8 2.7 5 5.4 5 6 0 .6 1.6 2.6 3.5 4.5l3.4 3.5h3.1v3.1l5 4.9 5 4.9v1.1c0 1.7 2.6 4 4.4 4h1.6v3.6l2 1.4 2 1.4v2.7l13 12.9 13 12.9v1.1c0 .6 2.3 3.3 5 6 2.8 2.7 5 5.4 5 6 0 .6 1.1 2.2 2.5 3.5l2.4 2.5h3.1v3.1l14 13.9 14 13.9v1.1c0 1.5 2.5 4 4 4 1.4 0 8 6.6 8 8 0 .6 1.6 2.6 3.5 4.5l3.4 3.5h3.1v4h4v4h1.6c1.8 0 4.4 2.3 4.4 4 0 .6 1.6 2.6 3.5 4.5l3.4 3.5h3.1v3l17.5 17.5 17.5 17.5h3v3.1l4.5 4.4c2.4 2.5 4.9 4.5 5.5 4.5.6 0 6 4.9 12 11l10.9 11h3.1v4h3.1l8.9 9 8.9 9h3.1v3.1l3.5 3.4c1.9 1.9 3.9 3.5 4.5 3.5.6 0 4.2 3.1 8 7l6.9 7h1.1c.6 0 3.8 2.7 7 6s6.4 6 7 6h1.1l9.9 10 9.9 10h2.7l1.4 2 1.4 2h2.7l8.9 9 8.9 9h1.1c.7 0 2.9 1.8 5 4s4.4 4 5 4h1.1l6.9 7 6.9 7h1.1c.6 0 3.3 2.2 6 5 2.7 2.7 5.4 5 6 5h1.1l5.9 6 5.9 6h2.2l5.9 6 5.9 6h1.1c.6 0 2.9 1.8 5 4l3.8 4h2.8l1.4 2 1.4 2h2.7l4.9 5 4.9 5h1.1c.7 0 2.5 1.3 4 3 1.5 1.6 3.3 3 4 3h1.2l3.8 4 3.8 4h2.4l3.8 4 3.8 4h3.2v2h3.1l5.9 6 5.9 6h1.1c.6 0 2.9 1.8 5 4l3.8 4h1.2c.7 0 2.5 1.3 4 3l2.8 3h2.4l2.8 3 2.8 3h2.8l1.4 2 1.4 2h2.7l4.9 5 4.9 5h4.2l5.9 6 5.9 6h4.3l2.8 3 2.8 3h3.2v2h1.6c2 0 4.4 2.4 4.4 4.4v1.6h5.2l2.8 3c1.5 1.6 3.3 3 4 3h1.2l3.8 4 3.8 4h2.8l1.4 2 1.4 2h3.6v2h3.2l2.8 3c1.5 1.6 3.3 3 4 3h1.2l3.8 4 3.8 4h2.8l1.4 2 1.4 2h2.8l2.8 3 2.8 3h3.2v2h3.6l1.4 2 1.4 2h3.2l1.4 2 1.4 2h3.2l1.4 2 1.4 2h2.8l3.8 4 3.8 4h2.8l1.4 2 1.4 2h3.6v2h3.2l2.8 3 2.8 3h2.8l1.4 2 1.4 2h2.8l2.8 3 2.8 3h3.2v2h3.6l1.4 2 1.4 2h3.2l1.4 2 1.4 2h3.6v2h3.2l3.8 4 3.8 4h2.8l1.4 2 1.4 2h3.6v2h4v2h3.2l2.8 3 2.8 3h3.2v2h3.6l1.4 2 1.4 2h3.6v2h3.2l2.8 3 2.8 3h2.8l1.4 2 1.4 2h3.2l1.4 2 1.4 2h3.6v2h3.6l1.4 2 1.4 2h3.2l1.4 2 1.4 2h3.2l1.4 2 1.4 2h3.6v2h3.6l1.4 2 1.4 2h3.2l1.4 2 1.4 2h3.6v2h4v2h3.6l1.4 2 1.4 2h2.8l2.8 3 2.8 3h4.4l2.8 3 2.8 3h3.2v2h4v2h3.2l3.8 4 3.8 4h3.2v2h4v2h4v2h3.6l1.4 2 1.4 2h3.2l1.4 2 1.4 2h3.2l1.4 2 1.4 2h3.6v2h4v2h4v2h3.6l1.4 2 1.4 2h3.2l1.4 2 1.4 2h3.2l1.4 2 1.4 2h3.6v2h4v2h3.6l1.4 2 1.4 2h3.6v2h4v2h3.6l1.4 2 1.4 2h5.2l1.4 2 1.4 2h3.2l1.4 2 1.4 2h3.2l1.4 2 1.4 2h3.6v2h4v2h4v2h4v2h4v4h5.6l1.4 2 1.4 2h3.6v2h4v2h4v2h3.6l1.4 2 1.4 2h3.6v2h4v2h3.6l1.4 2 1.4 2h3.6v2h4v2h4v2h3.6l1.4 2 1.4 2h3.6v2h3.6l1.4 2 1.4 2h5.2l1.4 2 1.4 2h3.6v2h3.6l1.4 2 1.4 2h5.2l1.4 2 1.4 2h5.2l1.4 2 1.4 2h3.6v2h5.6l1.4 2 1.4 2h3.6v2h4v2h4v2h4v2h4v2h3.6l1.4 2 1.4 2h3.6v2h4v2h3.6l1.4 2 1.4 2h5.2l1.4 2 1.4 2h3.6v2h4v2h6v2h3.6l1.4 2 1.4 2h3.6v2h3.2l2.8 3 2.8 3h3.2v2h5.2l2.8 3 2.8 3h4.8l1.4 2 1.4 2h3.2l1.4 2 1.4 2h3.6v2h6v2h4v2h3.6l1.4 2 1.4 2h3.2l1.4 2 1.4 2h5.6v2h1.6c1.5 0 4.4 2.3 4.4 3.4 0 .3-.9.6-2 .6h-2v-2h-6v-2h-6v-2h-6v-2h-4v-2h-6v-2h-4v-2h-4v-2h-8v-2h-5.6l-1.4-2-1.4-2h-5.6v-2h-4v-2h-6v-2h-6v-2h-4v-2h-6v-2h-4v-2h-4v-2h-6v-2h-4v-2h-4v-2h-6v-2h-4v-2h-6v-2h-6v-2h-4v-2h-4v-2h-6v-2h-4v-2h-6v-2h-4v-2h-4v-2h-4v-2h-6v-2h-4v-2h-4v-2h-4v-2h-6v-2h-6v-2h-4v-2h-4v-2h-4v-2h-6v-2h-6v-2h-4v-2h-4v-2h-4v-2h-6v-2h-4v-2h-4v-2h-4v-2h-6v-2h-4v-2h-4v-2h-4v-2h-4v-2h-6v-2h-4v-2h-4v-2h-4v-2h-4v-2h-4v-2h-6v-2h-3.6l-1.4-2-1.4-2h-3.6v-2h-6v-2h-6v-2h-4v-2h-4v-2h-4v-2h-4v-2h-6v-2h-4v-2h-4v-2h-4v-2h-4v-2h-3.6l-1.4-2-1.4-2h-5.6v-2h-4v-2h-4v-2h-3.6l-1.4-2-1.4-2h-3.6v-2h-4v-2h-4v-2h-4v-2h-4v-2h-4v-2h-4v-2h-4v-2h-6v-2h-3.6l-1.4-2-1.4-2h-3.6v-2h-4v-2h-4v-2h-4v-2h-4v-2h-4v-2h-4v-2h-4v-2h-4v-2h-4v-2h-3.6l-1.4-2-1.4-2h-3.6v-2h-4v-2h-4v-2h-3.6l-1.4-2-1.4-2h-3.6v-2h-4v-2h-6v-2h-4v-2h-3.6l-1.4-2-1.4-2h-3.6v-2h-5.6l-1.4-2-1.4-2h-3.6v-2h-3.6l-1.4-2-1.4-2h-5.2l-1.4-2-1.4-2h-3.6v-2h-4v-2h-3.6l-1.4-2-1.4-2h-3.6v-2h-3.6l-1.4-2-1.4-2h-3.6v-2h-5.6l-1.4-2-1.4-2h-3.2l-1.4-2-1.4-2h-3.6v-2h-4v-2h-4v-2h-3.6l-1.4-2-1.4-2h-2.8l-2.8-3-2.8-3h-3.2v-2h-5.6l-1.4-2-1.4-2h-3.6v-2h-4v-2h-3.2l-2.8-3-2.8-3h-3.2v-2h-4v-2h-4v-2h-3.2l-2.8-3-2.8-3h-3.2v-2h-4v-2h-3.6l-1.4-2-1.4-2h-3.6v-2h-3.6l-1.4-2-1.4-2h-3.6v-2h-3.6l-1.4-2-1.4-2h-3.2l-1.4-2-1.4-2h-3.6v-2h-3.6l-1.4-2-1.4-2h-3.2l-1.4-2-1.4-2h-3.2l-1.4-2-1.4-2h-3.2l-1.4-2-1.4-2h-3.6v-2h-3.6l-1.4-2-1.4-2h-3.2l-1.4-2-1.4-2h-3.2l-1.4-2-1.4-2h-3.2l-1.4-2-1.4-2h-3.6v-2h-3.6l-1.4-2-1.4-2h-3.6v-2h-3.2l-2.8-3-2.8-3h-2.8l-1.4-2-1.4-2h-3.6v-2h-3.2l-2.8-3-2.8-3h-3.2v-2h-3.2l-2.8-3-2.8-3h-2.8l-1.4-2-1.4-2h-3.6v-2h-3.2l-2.8-3-2.8-3h-2.8l-1.4-2-1.4-2h-2.8l-2.8-3-2.8-3h-2.4l-2.8-3-2.8-3h-2.8l-1.4-2-1.4-2h-3.2l-1.4-2-1.4-2h-2.8l-2.8-3-2.8-3h-2.8l-1.4-2-1.4-2h-2.8l-2.8-3-2.8-3h-2.8l-1.4-2-1.4-2h-2.8l-2.8-3c-1.5-1.7-3.3-3-4-3h-1.2l-3.8-4-3.8-4h-2.8l-1.4-2-1.4-2h-3.2l-1.4-2-1.4-2h-2.8l-2.8-3c-1.5-1.7-3.3-3-4-3h-1.1l-4.9-5-4.9-5h-1.1c-.7 0-2.5-1.4-4-3l-2.8-3h-2.4l-2.8-3c-1.5-1.7-3.3-3-4-3h-1.2l-3.8-4-3.8-4h-2.4l-3.8-4c-2.1-2.2-4.4-4-5-4h-1.1l-4.9-5-4.9-5h-2.2l-4.9-5-4.9-5h-2.2l-4.9-5-4.9-5h-1.1c-.7 0-2.5-1.4-4-3-1.5-1.7-3.3-3-4-3h-1.2l-3.8-4c-2.1-2.2-4.4-4-5-4h-1.1l-6.9-7-6.9-7h-1.1c-.6 0-2.9-1.8-5-4s-4.4-4-5-4h-1.1l-5.9-6-5.9-6h-3.1v-3.1l-2.5-2.4c-1.3-1.4-2.9-2.5-3.5-2.5h-1.1l-7.9-8-7.9-8h-1.1c-1.7 0-4-2.6-4-4.4v-1.6h-4v-1.6c0-1.8-2.3-4.4-4-4.4h-1.1l-5.9-6c-3.2-3.3-6.4-6-7-6h-1l-19-19-19-19h-1c-1.4 0-8-6.6-8-8 0-1.4-4.6-6-6-6-.5 0-7.1-6.1-14.5-13.5L986 984v-3h-1.6c-1.8 0-4.4-2.3-4.4-4 0-.6-2.5-3.5-5.5-6.5L969 965h-3v-1.6c0-2-2.4-4.4-4.4-4.4H960v-3.1L949 945l-11-10.9V933c0-.6-2.7-3.8-6-7l-6-5.9V919c0-.6-2.2-3.3-5-6l-5-4.9V903h-2v-21.8l1.3-.6 1.2-.6-1.2-.6-1.3-.6V867h-5.1l-1.5 1.4-1.4 1.5V887h2v4h-2v2c0 1.1-.2 2-.5 2-1 0-17.5-17-17.5-18 0-.6-2.7-3.8-6-7l-6-5.9V863c0-.6-2.2-3.3-5-6l-5-4.9v-2.2l-5-4.9-5-4.9v-2.9l-1.2-.6-1.3-.6 1.3-.6 1.2-.6v-3.4l2-1.4 2-1.4v-3.2l2-1.4 2-1.4v-3.2l2-1.4 2-1.4v-2.8l3-2.8 3-2.8v-2.8l2-1.4 2-1.4v-2.8l3-2.8 3-2.8v-2.8l2-1.4 2-1.4V785h2v-4h2v-3.2l4-3.8 4-3.8V767h2v-3.1l1.5-1.5 1.5-1.5 1.5 1.5 1.5 1.5V783h2v6h1.6c.8 0 2.2-.6 3-1.4l1.4-1.5V779h2v-3.8l-1.2-.6-1.3-.6 1.3-.6 1.2-.6v-3.6l-1.2-.6-1.3-.6 1.3-.6 1.2-.6v-3.6l-1.2-.4-1.2-.4 1.4-1.7c.8-.9 1.6-1.6 1.8-1.7.1 0 3.2 2.9 6.7 6.5zM848 850v1h3.1l2.4 2.5c1.4 1.3 2.5 2.9 2.5 3.5 0 .7 1.8 2.9 4 5s4 4.4 4 5v1.1l5 4.9 5 4.9v3.1h4v3.2l4 3.8c2.2 2.1 4 4.4 4 5v1.1l5 4.9 5 4.9v1.1c0 1.7 2.6 4 4.4 4h1.6v3.1l6 5.9c3.3 3.2 6 6.4 6 7v1.1l10 9.9 10 9.9v3.1h4v3.1l9 8.9 9 8.9v1.1c0 1.5 2.5 4 4 4 1.4 0 6 4.6 6 6 0 .6 1.1 2.2 2.5 3.5l2.4 2.5h3.1v4h3.1l2.4 2.5c1.4 1.3 2.5 2.9 2.5 3.5 0 1.4 6.6 8 8 8 1.5 0 4 2.5 4 4 0 1.4 4.6 6 6 6h1.1l11.9 12 11.9 12h3.1v3l17.5 17.5 17.5 17.5h1c.6 0 4.2 3.1 8 7l6.9 7h3.1v4h3.1l9.9 10 9.9 10h1.1c.6 0 4.6 3.6 9 8l7.9 8h1.1c.7 0 2.9 1.8 5 4l3.8 4h1.2c.7 0 2.5 1.3 4 3 1.5 1.6 3.3 3 4 3h1.1l5.9 6 5.9 6h2.2l5.9 6 5.9 6h1.1c.6 0 3.3 2.2 6 5l4.9 5h1.1c.6 0 2.9 1.8 5 4l3.8 4h1.2c.7 0 2.5 1.3 4 3l2.8 3h3.2v1.6c0 1.9 2.4 4.4 4.2 4.4h1.4l1.4 2 1.4 2h2.8l3.8 4 3.8 4h2.8l1.4 2 1.4 2h2.7l5.9 6 5.9 6h1.1c.7 0 2.5 1.3 4 3l2.8 3h3.2v2h3.1l4.9 5 4.9 5h1.1c.7 0 2.5 1.3 4 3l2.8 3h2.8l1.4 2 1.4 2h2.8l2.8 3 2.8 3h2.8l1.4 2 1.4 2h2.8l2.8 3 2.8 3h2.8l1.4 2 1.4 2h2.8l2.8 3 2.8 3h2.8l1.4 2 1.4 2h2.8l2.8 3 2.8 3h2.8l1.4 2 1.4 2h2.8l3.8 4 3.8 4h2.8l1.4 2 1.4 2h3.6v2h3.2l2.8 3 2.8 3h3.2v2h3.2l2.8 3 2.8 3h3.2v2h3.2l2.8 3 2.8 3h2.8l1.4 2 1.4 2h3.2l1.4 2 1.4 2h3.6v2h3.6l1.4 2 1.4 2h2.8l2.8 3 2.8 3h3.2v2h3.6l1.4 2 1.4 2h3.2l1.4 2 1.4 2h3.6v2h3.6l1.4 2 1.4 2h3.2l1.4 2 1.4 2h3.6v2h3.2l2.8 3 2.8 3h3.2v2h3.2l2.8 3 2.8 3h3.2v2h3.6l1.4 2 1.4 2h3.6v2h3.6l1.4 2 1.4 2h3.6v2h3.6l1.4 2 1.4 2h3.6v2h3.6l1.4 2 1.4 2h3.6v2h3.6l1.4 2 1.4 2h3.2l1.4 2 1.4 2h3.2l1.4 2 1.4 2h5.2l1.4 2 1.4 2h3.2l1.4 2 1.4 2h3.6v2h3.6l1.4 2 1.4 2h3.6v2h4v2h3.6l1.4 2 1.4 2h3.2l1.4 2 1.4 2h3.6v2h4v2h3.6l1.4 2 1.4 2h3.6v2h4v2h3.6l1.4 2 1.4 2h3.6v2h4v2h3.6l1.4 2 1.4 2h3.6v2h3.6l1.4 2 1.4 2h3.6v2h4v2h4v2h3.6l1.4 2 1.4 2h5.2l1.4 2 1.4 2h3.2l1.4 2 1.4 2h3.6v2h5.6l1.4 2 1.4 2h5.2l1.4 2 1.4 2h3.6v2h4v2h4v2h4v2h3.6l1.4 2 1.4 2h5.2l1.4 2 1.4 2h3.6v2h4v2h4v2h3.6l1.4 2 1.4 2h5.6v2h4v2h4v2h3.6l1.4 2 1.4 2h5.6v2h4v2h3.6l1.4 2 1.4 2h3.6v2h6v2h4v2h4v2h4v2h4v2h4v2h4v2h3.6l1.4 2 1.4 2h3.6v2h4v2h4v2h4v2h6v2h4v2h4v2h3.6l1.4 2 1.4 2h5.2l1.4 2 1.4 2h5.6v2h5.6l1.4 2 1.4 2h3.6v2h4v2h6v2h4v2h4v2h5.6l1.4 2 1.4 2h5.6v2h4v2h4v2h4v2h4v2h4v2h4v2h6v2h6v2h4v2h4v2h4v2h5.6l1.4 2 1.4 2h5.6v2h5.6l1.4 2 1.4 2h3.6v2h6v2h4v2h6v2h6v2h4v2h4v2h6v2h4v2h5.6l1.4 2 1.4 2h5.6v2h4v2h6v2h6v2h4v2h4v2h6v2h4v2h6v2h4v2h4v2h6v2h4v2h4v2h6v2h6v2h6v2h4v2h4v2h4v2h6v2h4v2h4v2h6v2h4v2h4v2h6v2h6v2h6v2h7.6l1.4 2 1.4 2h3.6v2h6v2h4v2h8v2h3.6l1.4 2 1.4 2h1.4c1.3 0 4.2 2.3 4.2 3.4v.6h-111.8l-.6 1.2-.6 1.3-.6-1.3-.6-1.2h-59.6l-.6 1.3-.6 1.2-.6-1.3-.6-1.2h-3.6l-.6 1.2-.6 1.3-.6-1.3-.6-1.2h-7.8v2h-4v-2h-249.8l-.6-1.3-.6-1.2-.6 1.2-.6 1.3h-43.6l-.6-1.3-.6-1.2-.6 1.2-.6 1.3h-51.6l-.6-1.3-.6-1.2-.6 1.2-.6 1.3h-5.6l-.6-1.3-.6-1.2-.6 1.2-.6 1.3h-7.6l-.6-1.3-.6-1.2-.6 1.2-.6 1.3h-3.8v-2h-4v2h-54v-2h-3.8l-.6 1.2-.6 1.3-.6-1.3-.6-1.2h-3.8v2h-13.8l-.6-1.3-.6-1.2-.6 1.2-.6 1.3h-3.8v-2h-6v2h-3.8l-.6-1.3-.6-1.2-.6 1.2-.6 1.3H1524v-2h-3.8l-.6 1.2-.6 1.3-.6-1.3-.6-1.2h-3.8v2h-4v-2h-13.8l-.6 1.2-.6 1.3-.6-1.3-.6-1.2H1342v-2h-4v2h-132v-2h-4v2h-3.8l-.6-1.3-.6-1.2-.6 1.2-.6 1.3h-7.6l-.6-1.3-.6-1.2-.6 1.2-.6 1.3H1156v-2h-5.8l-.6 1.2-.6 1.3-.6-1.3-.6-1.2h-3.8v2h-24v-2H962.2l-.6-1.3-.6-1.2-.6 1.2-.6 1.3H842.2l-.6-1.3-.6-1.2-.6 1.2-.6 1.3h-13.6l-.5-1.3-.5-1.2-1.2 1.5-1.2 1.5-.5-1.3-.5-1.2H818v2h-17.8l-.6-1.3-.6-1.2-.6 1.2-.6 1.3H786v-2h-48v2h-6v-2h-12v2h-10v-2h-81.8l-.6-1.3-.6-1.2-.6 1.2-.6 1.3H618v-2h-6v2h-34v-2h-5.8l-.6 1.2-.6 1.3-.6-1.3-.6-1.2H564v2h-6v-2h-10v-41.1l-1.4-1.5-1.5-1.4h-4.2l-1.5 1.4-1.4 1.5v37.1h-2v4h-3.8l-.6 1.2-.6 1.3-.6-1.3-.6-1.2h-7.6l-.6 1.2-.6 1.3-.6-1.3-.6-1.2H504v2h-6v-2h-4v2h-10v-2h-6v2h-8v-2H230.9l-1.5-1.4c-2.1-2.1-1.7-3.5 1.6-6.6l3-2.8v-2.4l3-2.8 3-2.8v-2.4l3-2.8 3-2.8v-2.8l2-1.4 2-1.4v-2.8l3-2.8 3-2.8v-2.4l3-2.8 3-2.8v-2.4l3-2.8 3-2.8v-2.8l2-1.4 2-1.4v-3.6h2v-3.6l2-1.4 2-1.4v-3.2l2-1.4 2-1.4v-3.2l2-1.4 2-1.4v-3.2l2-1.4 2-1.4v-2.8l3-2.8 3-2.8v-2.8l2-1.4 2-1.4v-2.8l3-2.8 3-2.8v-2.8l2-1.4 2-1.4v-2.8l3-2.8 3-2.8v-3.2h2v-3.1l6-5.9 6-5.9v-4.7l2-1.4 2-1.4v-3.2l2-1.4 2-1.4v-2.8l3-2.8 3-2.8v-3.2h2v-3.6l2-1.4 2-1.4v-2.8l3-2.8 3-2.8v-2.4l3-2.8 3-2.8v-2.8l2-1.4 2-1.4v-3.6h2v-3.2l3-2.8 3-2.8v-3.2h2v-3.2l3-2.8 3-2.8v-2.8l2-1.4 2-1.4v-2.8l3-2.8 3-2.8v-2.4l3-2.8 3-2.8v-3.2h2v-3.6l2-1.4 2-1.4v-2.8l3-2.8 3-2.8v-2.8l2-1.4 2-1.4v-2.8l3-2.8 3-2.8v-3.2h2v-3.6l2-1.4 2-1.4v-2.8l3-2.8c1.7-1.5 3-3.3 3-4v-1.2l4-3.8 4-3.8v-3.2h2v-4h2v-3.2l3-2.8 3-2.8v-2.8l2-1.4 2-1.4v-3.6h2v-3.2l3-2.8 3-2.8v-2.8l2-1.4 2-1.4v-3.6h4v-5.2l3-2.8 3-2.8v-2.8l2-1.4 2-1.4v-3.2l2-1.4 2-1.4v-2.8l3-2.8 3-2.8v-3.2h2v-3.2l4-3.8 4-3.8v-1.2c0-.7 1.4-2.5 3-4l3-2.8v-2.4l3-2.8 3-2.8v-3.2h2v-4h2v-3.2l3-2.8 3-2.8v-2.8l2-1.4 2-1.4v-3.2l2-1.4 2-1.4v-2.8l3-2.8 3-2.8v-3.2h6v2h6v-4h2v-7.8l-1.2-.6-1.3-.6 1.3-.6 1.2-.6v-5.8h2v-3.6l2-1.4 2-1.4v-3.2l2-1.4 2-1.4v-3.2l2-1.4 2-1.4v-3.2l2-1.4 2-1.4v-3.2l2-1.4 2-1.4v-3.2l2-1.4 2-1.4v-2.8l3-2.8 3-2.8v-3.2h2v-3.6l2-1.4 2-1.4v-2.7l5-4.9 5-4.9v-4.3l3-2.8 3-2.8v-2.8l2-1.4 2-1.4v-3.2l2-1.4 2-1.4v-2.8l3-2.8 3-2.8v-3.2h2v-3.6l2-1.4 2-1.4v-2.8l3-2.8 3-2.8v-3.2h2v-3.2l3-2.8c1.7-1.5 3-3.3 3-4v-1.2l4-3.8 4-3.8v-3.2h2v-3.6l2-1.4 2-1.4v-3.6h2v-3.2l3-2.8 3-2.8v-2.8l2-1.4 2-1.4v-2.8l3-2.8 3-2.8v-2.4l3-2.8 3-2.8v-2.8l2-1.4 2-1.4v-2.8l4-3.8 4-3.8v-2.8l2-1.4 2-1.4v-3.6h2v-3.6l2-1.4 2-1.4v-3.2l2-1.4 2-1.4v-2.8l4-3.8 4-3.8v-2.8l2-1.4 2-1.4v-3.2l2-1.4 2-1.4v-3.2l2-1.4 2-1.4v-2.8l3-2.8 3-2.8v-2.4l3-2.8 3-2.8v-3.2h2v-3.2l3-2.8 3-2.8V997h2v-4h2v-3.2l4-3.8 4-3.8v-2.8l2-1.4 2-1.4v-3.2l2-1.4 2-1.4v-2.8l3-2.8 3-2.8v-2.8l2-1.4 2-1.4v-3.2l2-1.4 2-1.4v-2.8l3-2.8 3-2.8v-2.8l2-1.4 2-1.4v-2.8l3-2.8 3-2.8V925h2v-3.6l2-1.4 2-1.4v-2.8l3-2.8 3-2.8v-2.4l3-2.8 3-2.8v-2.8l2-1.4 2-1.4v-4.8l4-3.8 4-3.8v-2.8l2-1.4 2-1.4V875h2v-3.2l3-2.8 3-2.8V863h2v-3.2l3-2.8c1.7-1.5 3-3.3 3-3.9 0-.7.6-1.8 1.3-2.6l1.2-1.4 1.8-.1h1.7v1zm-640 710c0 .5-.4 1-1 1-.5 0-1-.5-1-1 0-.6.5-1 1-1 .6 0 1 .4 1 1z"/><path d="m1571 414.7-1.4 1.7 1.2.4 1.2.4v3.8h2v3.6l2 1.4 2 1.4v5.6h2v6h2v6h2v8h2v8h2v21.8l-1.2.6-1.3.6 1.3.6 1.2.6v7.8h-2v8h-2v6h-2v8h-2v8h-2v4h-2v3.6l-2 1.4-2 1.4v3.2l-2 1.4-2 1.4v3.2l-2 1.4-2 1.4v1.4c0 .7.7 2 1.5 2.8l1.5 1.5 3.5-3.5c1.9-1.9 3.5-4 3.5-4.7 0-.6 1.4-2.4 3-3.9l3-2.8v-2.8l2-1.4 2-1.4V527h2v-4h2v-4h2v-4h2v-6h2v-8h2v-8h2v-32h-2v-10h-2v-6h-2v-4h-2v-6h-2v-4h-2v-4h-2v-3.2l-3-2.8-3-2.8V415h-4v-1c0-1.5-1.3-1.2-3 .7zm303.3 8.9-6.3 6.4v3h-2v3.6l-2 1.4-2 1.4v3.6h-2v4h-2v4h-2v4h-2v10h-2v7.8l-1.2.6-1.3.6 1.3.6 1.2.6v3.8h-2v17.8l1.3.6 1.2.6-1.2.6-1.3.6v3.8h2v8h2v6h2v6h2v4h2v4h2v4h2v3.6l2 1.4 2 1.4v3.2l2 1.4 2 1.4v3.6h6v-4h-2v-4h-2v-4h-2v-3.6l-2-1.4-2-1.4V525h-2v-4h-2v-8h-2v-9.8l-1.2-.5-1.3-.5 1.5-1.2 1.5-1.2-1.2-.5-1.3-.5V469h2v-10h2v-4h2v-4h2v-8h2v-3.6l2-1.4 2-1.4V433h2v-3.6l2-1.4 2-1.4v-3.2l2-1.4 2-1.4V417l-1.7.1-1.8.1-6.2 6.4zm-532-2.1c-1.3 1.3-2.3 3-2.3 3.7v1.4l-2 1.4-2 1.4v3.2l-2 1.4-2 1.4v5.6h-2v6h-2v4h-2v12h-2v15.8l-1.2.5-1.3.5 1.5 1.2 1.5 1.2-1.2.5-1.3.5v5.8h2v10h2v6h2v8h2v6h2v5.6l2 1.4 2 1.4v3.6h2v3.2l3 2.8c1.7 1.5 3 3.3 3 4 0 1.6 2.6 4 4.4 4h1.6v-6h-2v-4h-2v-4h-2v-4h-2v-4h-2v-6h-2v-6h-2v-10h-2v-3.8l1.3-.6 1.2-.6-1.2-.6-1.3-.6V459h2v-10h2v-6h2v-4h2v-4h2v-7.6l2-1.4 2-1.4V421h1c.6 0 1-.5 1-1v-1l-2.7.1h-2.8l-2.2 2.4zm706 2-2.3 2.4v3.1h-2v4h-2v4h-2v6h-2v6h-2v6h-2v4h-2v6h2v4h29.1l2.5-2.5 2.5-2.5-1.5-1.5-1.5-1.5h-7.1v-2h-4v2h-6v-2h-6v-4h2v-4h2v-6h2v-6h2v-4h2v-4h2v-10l-1.7.1h-1.8l-2.2 2.4zM1502 425v2h-2v6h-2v4h-2v8h-2v6h-2v6h-2v6h-2v6h5.8l.6 1.2.6 1.3.6-1.3.6-1.2h22.9l1.5-1.4 1.4-1.5V461h-21.1l-1.7-1.7-1.7-1.6 1.3-.5 1.2-.4V453h2v-8h2v-6h2v-8h2v-8h-6v2zm613 5.7-1.4 1.7 1.2.4 1.2.4v3.8h2v4h2v4h2v6h2v8h2v5.8l1.3.5 1.2.5-1.5 1.2-1.5 1.2 1.3.5 1.2.5v13.6l1.3.6 1.2.6-1.2.6-1.3.6v5.8h2v4h-2v12h-2v12h-2v6h-2v4h-2v4h-2v5.6l-2 1.4-2 1.4v3.6h-2v4h5.1l3.4-3.5 3.5-3.4V539h2v-3.6l2-1.4 2-1.4V527h2v-6h2v-4h2v-8h2v-12h2v-20h-2v-3.8l1.3-.6 1.2-.6-1.2-.6-1.3-.6V461h-2v-4h-2v-6h-2v-4h-2v-4h-2v-4h-2v-3.1l-3.5-3.4-3.4-3.5h-1.3c-.7.1-2 .8-2.8 1.7zM950 448v1h-6v2h-3.1l-3.4 3.5-3.5 3.4v3.1h-2v7.8l-1.2.5-1.3.5 1.5 1.1 1.5 1.1-1.5 1.1-1.5 1.1 1.3.5 1.2.5v7.8h2v4h2v3.1l2.5 2.4 2.4 2.5h3.1v2h5.8l.6 1.2.6 1.3.6-1.3.6-1.2h5.4l1.4-2 1.4-2h1.4c1.8 0 4.2-2.5 4.2-4.4V487h2v-4h2v-4h2v-14h-2v-5l-5.5-5.5-5.5-5.5h-7v-1c0-.6-.4-1-1-1-.5 0-1 .4-1 1zm6 10v1h4v4h2v6h2v6h-2v6h-2v3.1l-2.5 2.4-2.4 2.5h-8.2l-2.4-2.5-2.5-2.4V481h-2v-18h2v-1.5c0-.9.6-2.2 1.3-3l1.2-1.4 5.8-.1h5.7v1zm124-10v1h-7.1l-3.4 3.5-3.5 3.4v3.1h-2v4h2v8h4v2h4v2h8v2h5.1l1.5 1.4 1.4 1.5v4.2l-2.5 2.4-2.4 2.5h-8.3l-2.8-3-2.8-3h-3l-.4-1.2-.5-1.3-1.6 1.7-1.7 1.7v3.1h2v1.6c0 .8.6 2.2 1.4 3 .8.8 2.2 1.4 3 1.4h1.6v2h4v2h10v-2h4v-2h3.1l2.4-2.5 2.5-2.4V483h2v-4h-2v-3.1l-2.5-2.4-2.4-2.5h-3.1v-2h-4v-2h-6v-2h-1.6c-1.8 0-4.4-2.3-4.4-4 0-.6.6-1.8 1.4-2.6l1.5-1.4h10.3l2.8 3c3.1 3.3 4.5 3.7 6.6 1.6l1.4-1.5v-4.2l-2.5-2.4-2.4-2.5h-3.1v-2h-4v-2h-6v1zm66 0v1h-1.6c-.8 0-2.2.6-3 1.4l-1.4 1.5V491h2v4h4v2h14v-2h3.1l4.4-4.5 4.5-4.4V483h2v-6h2v-14h-2v-4h-2v-1.6c0-.8-.6-2.2-1.4-3-.8-.8-2.2-1.4-3-1.4h-1.6v-2h-4v-2h-12v-2h-4v1zm6 8v1h10v2h4v7.8l1.3.6 1.2.6-1.2.6-1.3.6v3.8h2v4h-2v3.6l-2 1.4-2 1.4v3.6h-6v2h-5.1l-1.5-1.4-1.4-1.5v-28.2l1.3-1.4c1.4-1.7 2.7-1.9 2.7-.5zm36-8v1h-4v24h-2v12h2v7.1l1.4 1.5 1.5 1.4h20.9l.6 1.2.6 1.3.6-1.3.6-1.2h1.5c1.9 0 4.3-2.4 4.3-4.4V489h-4v-2h-19.1l-1.5-1.4-1.4-1.5V475h15.1l1.5-1.4c.8-.8 1.4-2 1.4-2.6 0-.6-.6-1.8-1.4-2.6l-1.5-1.4h-12.2l-1.5-1.4c-.8-.8-1.4-2.2-1.4-3V461h2v-1.6c0-.8.6-2.2 1.4-3l1.5-1.4h13.1v2h4v-2h4v-6h-17.8l-.6-1.3-.6-1.2-.6 1.2-.6 1.3h-3.8v-2h-4v1zm-208 2v1h-4v30h2v7.1l3.5 3.4 3.4 3.5h3.1v2h12v-2h3.1l2.4-2.5 2.5-2.4V485h2v-4h2v-27.1l-1.4-1.5-1.5-1.4h-4.2l-1.5 1.4-1.4 1.5v9.1h2v12h-2v8h-2v1.6c0 .8-.6 2.2-1.4 3l-1.5 1.4H990v-2h-4v-4h-2v-31.1l-1.4-1.5c-1.7-1.6-2.6-1.8-2.6-.4zm43.3.5c-1.7 1.8-1.6 3.3.1 5.1l1.5 1.4h10.2l1.5 1.4 1.4 1.5v14.9l-1.2.6-1.3.6 1.3.6 1.2.6V495h5.1l1.5-1.4 1.4-1.5v-16.9l-1.2-.5-1.3-.5 1.5-1.2 1.5-1.2-1.2-.5-1.3-.5V467h2v-10h14v-8h-27.8l-.6 1.2-.6 1.3-.6-1.3-.6-1.2h-2.6l-2.7.1-1.2 1.4zm92.7 22.1v21.5l1.4 1.5c.8.8 2.2 1.4 3 1.4h1.6v-4h2v-39.1l-1.4-1.5-1.5-1.4h-5.1v21.6z"/><path d="m1359.3 452.5-1.3 1.4v4.2l-1.4 1.5c-.8.8-2 1.4-2.6 1.4-.6 0-1.8.6-2.6 1.4l-1.4 1.5v5.1h2v6h-2v6h-2v4h-2v6h-2v4h3.8l.4 1.2.5 1.3 1.6-1.7 1.7-1.7V491h2v-5.6l2-1.4 2-1.4V475h2v-6h5.1l1.5-1.4c.8-.8 1.4-2.1 1.4-2.8v-1.4l-2-1.4-2-1.4V457h2v-6h-2.7l-2.8.1-1.2 1.4zM1748 456v1h-6v2h-4v3.2l-4 3.8-4 3.8v3.2h-2v4h-2v4h-2v14h2v5.1l1.4 1.5c.8.8 2.2 1.4 3 1.4h1.6v2h10v-2h3.6l1.4-2 1.4-2h2.7l2.4-2.5 2.5-2.4V487h-6v3.1l-2.5 2.4-2.4 2.5h-3.1v2h-7.1l-1.5-1.4-1.4-1.5V481h2v-3.6l2-1.4 2-1.4v-3.2l2-1.4 2-1.4V465h6v-2h5.2l2.8 3 2.8 3h7.2v-7.1l-3.5-3.4-3.4-3.5H1748v1zm147.3 2.5c-.7.8-1.3 2.1-1.3 3v1.5h-2v4h-8v6h2v8h-2v8h-2v4h-2v8h3.1l2.4-2.5 2.5-2.4V491h2v-6h2v-4h2v-3.1l2.5-2.4 2.4-2.5h3.1v-5.3l-2.2-2-2.3-2 1.3-.4 1.2-.5V457h-1.7l-1.8.1-1.2 1.4zm-240 2-1.3 1.4v7.1h-2v1.6c0 .8-.6 2.2-1.4 3l-1.5 1.4h-7.1v2h-4v1.6c0 .8.6 2.2 1.4 3l1.5 1.4h11.1v4h2v10h5.1l1.5-1.4 1.4-1.5v-10.2l1.4-1.5 1.5-1.4h13.1v-1.6c0-.8-.6-2.2-1.4-3l-1.5-1.4H1662v-4h-2v-12h-1.7l-1.8.1-1.2 1.4zM1286 466v1h-4v4h-2v8h-2v4h-2v6h-2v4h-2v6h-2v6h-2v8h8v-6h2v-4h4v-2h9l6.5-6.5 6.5-6.5v-2.6l2-1.4 2-1.4v-7.4l1.3-.6 1.2-.6-1.2-.6-1.3-.6V469h-2v-4h-20v1zm14 11v4h-2v4h-2v1.6c0 .8-.6 2.2-1.4 3-.8.8-2.2 1.4-3 1.4h-1.6v2h-5.1l-1.7-1.7-1.7-1.6 1.3-.5 1.2-.4V485h2v-6h2v-1.5c0-.9.6-2.2 1.3-3l1.2-1.4 4.8-.1h4.7v4zm526-11v1h-8v2h-3.1l-4.4 4.5-4.5 4.4v3.1h-2v6h-2v6h2v5.1l2.5 2.4 2.4 2.5h7.1v12h5.1l1.5-1.4 1.4-1.5V507h2v-6h2v-6h2v-4h2v-4h2v-6h2v-4h2v-4h2v-1.6c0-.8-.6-2.2-1.4-3l-1.5-1.4h-9.1v-1c0-.6-.4-1-1-1-.5 0-1 .4-1 1zm.6 10.4c.8.8 1.4 2.1 1.4 2.8v1.4l-2 1.4-2 1.4v5.6h-2v3.1l-1.6 1.6-1.6 1.6-1-1.4-1-1.4-.5 1.2-.5 1.3h-1.5c-1.9 0-4.3-2.4-4.3-4.4V489h2v-5l4.3-4.5 4.2-4.4h2.3l2.3-.1 1.5 1.4zM1396 474v1h-5.1l-1.5 1.4c-.8.8-1.4 2.2-1.4 3v1.6h6v2h4v-2h27.1l1.5-1.4c.8-.8 1.4-2.2 1.4-3V475h-9.8l-.6-1.3-.6-1.2-.6 1.2-.6 1.3h-9.6l-.5-1.3-.5-1.2-1.2 1.5-1.2 1.5-.5-1.3-.5-1.2h-5.8v1zm562 2v1h-26v3.1l2.5 2.4 2.4 2.5h15.1v-2h20v-6h-8v-2h-6v1zm-472 2v1h-37.1l-1.5 1.4c-.8.8-1.4 2.2-1.4 3v1.6h4v2h4v-2h6v2h22v-2h3.8l.6 1.2.6 1.3.6-1.3.6-1.2h5.8v2h11.8l.6-1.3.6-1.2.6 1.2.6 1.3h3.8v-2h5.8l.5 1.2.5 1.3 1.1-1.5 1.1-1.5 1.1 1.5 1.1 1.5.5-1.3.5-1.2h27.6l.6 1.2.6 1.3.6-1.3.6-1.2h8.9l1.5-1.5 1.5-1.5-1.5-1.5-1.5-1.5h-14.9l-.6-1.3-.6-1.2-.6 1.2-.6 1.3H1488v-1c0-.6-.4-1-1-1-.5 0-1 .4-1 1zm303.3.5-1.3 1.4v5.1h-8v2h-6v2h-3.1l-2.4 2.5-2.5 2.4v3.1h-2v13.1l1.4 1.5 1.5 1.4h4.9l.6 1.2.6 1.3.6-1.3.6-1.2h6.9l2.4-2.5 2.5-2.4V505h2v-6h2v-6h2v-4h2v-7.8l1.2-.4 1.3-.5-1.7-1.6c-2-2-3.9-2.1-5.5-.2zM1782 496v3h-2v4h-2v4h-5.1l-1.5-1.4c-.8-.8-1.4-2.2-1.4-3V501h2v-3.1l2.3-2.4 2.2-2.4h2.8l2.7-.1v3zm304-18v1h-85.1l-1.5 1.4c-.8.8-1.4 2.2-1.4 3v1.6h3.8l.5 1.2.5 1.3 1.1-1.5 1.1-1.5 1 1.5 1 1.5 1-1.5 1-1.5 1 1.5 1 1.5 1.1-1.5 1.1-1.5.5 1.2.5 1.3h19.8v-2h6v2h10v-2h58v-1.6c0-.8-.6-2.2-1.4-3l-1.5-1.4H2092v-2h-6v1zm-66 14v1h-4v2h-6v4h-2v7.1l1.5 1.5 1.5 1.5 1.5-1.5c.8-.8 1.5-2 1.5-2.6 0-1.6 2.6-4 4.3-4h1.5l.6-1.3.6-1.2.6 1.2.6 1.3h4.9l1.5 1.4 1.4 1.5v5.1h-4v4h-3.6l-1.4 2-1.4 2h-2.7l-4.4 4.5-4.5 4.4V537h4v2h27.1l1.5-1.5 1.5-1.5-1.5-1.5-1.5-1.5H2028v-2h-10v-3.1l4.5-4.4 4.4-4.5h3.1v-2h1.6c.8 0 2.2-.6 3-1.4.8-.8 1.4-2.2 1.4-3V511h2v-3.8l1.3-.6 1.2-.6-1.2-.6-1.3-.6v-4.9l-2.5-2.4-2.4-2.5h-3.1v-2h-8v-1c0-.6-.4-1-1-1-.5 0-1 .4-1 1zm68.3 3.5-2.3 2.4v3.1h-2v8h-2v8h-2v4h-2v5.1l-3.5 3.4-3.4 3.5h-3.1v2h-8v-14h2v-4h2v-10h2v-4h2v-1.6c0-.8-.6-2.2-1.4-3l-1.5-1.4h-4.2l-2.4 2.5-2.5 2.4v2.9l1.3.6 1.2.6-1.2.6-1.3.6v7.8h-2v4h-2v10h-2v6h2v3.1l2.5 2.4 2.4 2.5h14.3l2.8-3c1.5-1.7 3.3-3 4-3 1.6 0 4-2.6 4-4.4V531h2v-4h2v-4h2v-10h2v-6h2v-6h2v-5.1l-1.4-1.5c-1.8-1.7-1.6-1.8-4.3 1.1zM1467 497l-1.4 2h-1.4c-1.8 0-4.2 2.5-4.2 4.4v1.6h-2v5.1l1.4 1.5 1.5 1.4h5.1v-4h2v-4h4v-2h4v2h1.6c1.8 0 4.4 2.3 4.4 4 0 1.4-6.6 8-8 8-.6 0-4 2.9-7.5 6.5l-6.5 6.5v5h-2v3.1l2.5 2.4 2.4 2.5h26.2l1.5-1.4c.8-.8 1.4-2.2 1.4-3V537h-6v-2h-9.8l-.6 1.2-.6 1.3-.6-1.3-.6-1.2h-5.8v-3.1l2.5-2.4 2.4-2.5h2.7l1.4-2 1.4-2h3.2l1.4-2 1.4-2h1.4c.7 0 2-.6 2.8-1.4l1.4-1.5v-12.2l-3.5-3.4-3.4-3.5h-5.1v-2h-9.6l-1.4 2zm70.3 1.5-1.3 1.4v7.1h-2v8h-2v10h-2v4h-2v4h-3.2l-2.8 3-2.8 3h-5.2v-2h-4v-8h2v-4h2v-8h2v-6h2v-9.1l-1.4-1.5c-.8-.8-2-1.4-2.6-1.4-1.7 0-4 2.6-4 4.4v1.6h-2v6h-2v8h-2v10h-2v8h2v5.1l2.5 2.4 2.4 2.5h13.1v-2h3l5.5-5.5 5.5-5.5v-3h2v-8h2v-8h2v-6h2v-6h2v-1.6c0-.8-.6-2.2-1.4-3l-1.5-1.4h-2.3l-2.3.1-1.2 1.4zM1984 821v2h2v3.6l2 1.4 2 1.4v3.6h2v6h2v4h2v4h2v6h2v6h2v10h2v8h-2v6h2v16h-2v12h-2v6h-2v6h-2v7.6l-2 1.4-2 1.4v3.6h-2v4h-2v3.6l-2 1.4-2 1.4v3.4l-1.2.4-1.3.5 1.9 1.9 1.9 1.9.5-1.3.4-1.2h3.8v-3.6l2-1.4 2-1.4v-2.8l3-2.8 3-2.8V935h2v-4h2v-4h2v-4h2v-6h2v-8h2v-6h2v-38h-2v-6h-2v-6h-2v-4h-2v-4h-2v-4h-2v-4h-2v-3.6l-2-1.4-2-1.4v-2.7l-4.5-4.4-4.4-4.5h-3.1v2zm-58.7 3.5c-.7.8-1.3 2.1-1.3 3v1.5h-2v4h-2v4h-2v6h-2v6h-2v6h-2v4h-2v5.8l-1.2.6-1.3.6 1.3.6 1.2.6v3.8h16v-2h11.8l.4 1.2.4 1.2 2.8-2.7 2.7-2.7-2.5-2.5-2.5-2.5h-9.1v2h-9.1l-1.5-1.4c-.8-.8-1.4-2.2-1.4-3V857h4v-6h2v-6h2v-5.6l2-1.4 2-1.4V833h2v-7.1l-1.4-1.5c-1.8-1.8-3.7-1.7-5.3.1zm-175 5-4.3 4.5v3h-2v4h-2v4h-2v5.6l-2 1.4-2 1.4v6.9l-2.2 2-2.3 2 1.3.4 1.2.5v7.8h-2v26h2v10h2v6h2v4h2v4h2v4h2v3.6l2 1.4 2 1.4v2.7l3.5 3.4 3.4 3.5h3.1v-4h-2v-4h-2v-3.6l-2-1.4-2-1.4V921h-2v-6h-2v-8h-2v-8h-2v-4h2v-4h-2v-22h2v-8h2v-10h2v-4h2v-6h2v-4h2v-5.3l2.1-1.8 2.1-1.8-1.5-1.6c-.9-.8-1.7-1.5-1.9-1.4-.2 0-2.2 2-4.5 4.4zm27 19-1.3 1.4v5.1h-2v1.6c0 1.8-2.3 4.4-4 4.4-1.5 0-4 2.5-4 4.1 0 .6 1 2.1 2.3 3.2l2.2 2-1.2.4-1.3.5v5.8h-2v4h-2v6h-2v6h8v-4h2v-6h2v-6h2v-4h2v-1.6c0-1.8 2.3-4.4 4-4.4 1.5 0 4-2.5 4-4.1 0-.6-1-2.1-2.2-3.2l-2.3-2 1.3-.4 1.2-.5v-6.9l-1.4-1.5c-1.8-1.8-3.7-1.7-5.3.1zM1480 850v1h-5.1l-2.4 2.5-2.5 2.4v3.1h-2v6h2v4h2v4h4v2h10v2h5.1l1.5 1.4 1.4 1.5v6.2l-2.5 2.4-2.4 2.5h-8.3l-3.8-4c-2.1-2.2-4.4-4-5-4-1.7 0-4 2.6-4 4.4v1.6h2v4h3.6l1.4 2 1.4 2h5.6v2h4v-2h6v-2h3.1l3.4-3.5 3.5-3.4v-12.2l-2.5-2.4-2.4-2.5h-3.1v-2h-8v-2h-8v-4h-2v-4h4v-2h9.2l3.8 4c4.2 4.3 5.4 4.8 7.6 2.6 2.2-2.2 1.8-3.3-3.1-8.1l-4.4-4.5h-3.1v-2h-10v1zm63.3.5-1.3 1.4v40.2l2.5 2.4 2.4 2.5h15.1v-2h4v-2h1.6c1.9 0 4.4-2.4 4.4-4.2v-1.4l2-1.4 2-1.4V877h2v-12h-2v-4h-2v-3.1l-3.5-3.4-3.4-3.5h-9.1v-2h-6.7l-6.8.1-1.2 1.4zm18.7 7.5v1h4v4h2v4h2v10h-2v7.1l-2.5 2.4-2.4 2.5H1550v-29.1l1.3-1.4 1.2-1.4 4.8-.1h4.7v1zm29.3-7.5-1.3 1.4V895h4v2h5.8l.6-1.3.6-1.2.6 1.2.6 1.3h5.6l.5-1.3.5-1.2 1.2 1.5 1.2 1.5.5-1.3.5-1.2h9.8v-6h-23.1l-1.5-1.4-1.4-1.5V881h2v-1.6c0-.8.6-2.2 1.4-3l1.5-1.4h6.9l.6 1.2.6 1.3.6-1.3.6-1.2h3.8v-6h-8v-2h-8v-4h-2v-1.6c0-.8.6-2.2 1.4-3l1.5-1.4h20.2l1.5-1.4c.8-.8 1.4-2 1.4-2.6 0-.6-.6-1.8-1.4-2.6l-1.5-1.4h-13.3l-13.3.1-1.2 1.4zM1400 854v3h2v40h8v-43.1l-1.4-1.5-1.5-1.4h-7.1v3zm25.3-1.5-1.3 1.4v14.9l-1.2.5-1.3.5 1.5 1.2 1.5 1.2-1.2.5-1.3.5V885h2v12h5.1l1.5-1.4 1.4-1.5V871h.6c1.1 0 3.4 2.9 3.4 4.4v1.6h2v4h2v3.6l2 1.4 2 1.4v3.2l2 1.4 2 1.4v1.4c0 1.6 2.4 4.2 4 4.2.6 0 2.2-1.1 3.5-2.5l2.5-2.4v-28.9l1.3-.6 1.2-.6-1.2-.6-1.3-.6v-6.9l-1.4-1.5-1.5-1.4h-5.1v26h-4v-4h-2v-4h-2v-4h-2v-4h-2v-4h-2v-4h-3.6l-1.4-2-1.4-2h-1.6c-.8.1-2.1.7-2.7 1.5zM1516 874v23h5.1l1.5-1.4 1.4-1.5v-40.2l-1.4-1.5-1.5-1.4h-5.1v23zm188-12v1h-8v4h-2v4h-2v4h-2v5.6l-2 1.4-2 1.4v5.6h-2v6h-2v6h-2v8h3.8l.4 1.2.5 1.3 1.6-1.7 1.7-1.7V903h2v-4h12v-2h3.1l3.4-3.5c1.9-1.9 3.5-3.9 3.5-4.6 0-.6 1.4-2.4 3-3.9l3-2.8V875h2v-8h-2v-4h-4v-2h-10v1zm6.8 10.7 1.7 1.6-1.3.5-1.2.4v5.4l-2 1.4-2 1.4v3.6h-4v2h-8v-1c0-.6.5-1 1-1h1v-8h2v-3.1l2.3-2.4 2.2-2.4h3.3l3.3-.1 1.7 1.7zm129.2-.7v1h-29.1l-1.5 1.4c-.8.8-1.4 2-1.4 2.6 0 .6.6 1.8 1.4 2.6l1.5 1.4h11.1v-2h6v2h6v-2h9.1l1.5-1.4c.8-.8 1.4-2.2 1.4-3V873h-4v-1c0-.6-.4-1-1-1-.5 0-1 .4-1 1zm39.3 6.5c-.7.8-1.3 2.1-1.3 3v1.5h4v2h24v-2h6v2h12v-2h14v2h4v-2h34v-1.6c0-.8-.6-2.2-1.4-3l-1.5-1.4h-46.3l-46.3.1-1.2 1.4zM1892 892v1h-4v2h-4v3.3l-2.2 2-2.3 2 1.3.4 1.2.5v3.8h3.6l1.4-2 1.4-2h3.6v-4h7.1l2.4 2.5c1.4 1.3 2.5 2.9 2.5 3.5 0 .6-2 3.1-4.5 5.5l-4.4 4.5h-2.7l-1.4 2-1.4 2h-1.4c-1.7 0-4.2 2.5-4.2 4.2v1.4l-2 1.4-2 1.4v9.6h4v2h27.1l1.5-1.4c.8-.8 1.4-2.2 1.4-3V933h-6v-2h-11.8l-.6 1.2-.6 1.3-.6-1.3-.6-1.2h-3.8v-3.1l3.5-3.4 3.4-3.5h3.1v-2h3.1l3.4-3.5 3.5-3.4V909h2v-8h-2v-1.6c0-.8-.6-2.2-1.4-3-.8-.8-2.2-1.4-3-1.4h-1.6v-2h-8v-2h-4v1zm66 1v2h-2v4h-2v10h-2v4h-2v6h-2v7.1l-2.5 2.4-2.4 2.5h-3.1v2h-10v-14h2v-6h2v-8h2v-4h2v-5.1l-1.4-1.5-1.5-1.4h-5.1v4h-2v4h-2v10h-2v6h-2v10h-2v4h2v5.1l2.5 2.4 2.4 2.5h3.1v2h8v-2h4v-2h4v-2h4v-3.6l2-1.4 2-1.4V927h2v-4h2v-8h2v-8h2v-6h2v-10h-6v2zM549.3 372.5l-1.3 1.4V387h-2v11.8l1.3.6 1.2.6-1.2.6-1.3.6v3.8h2v6h5.1l1.5-1.4 1.4-1.5V403h-2v-5.8l1.3-.6 1.2-.6-1.2-.6-1.3-.6v-20.9l-1.4-1.5c-1.7-1.7-1.8-1.7-3.3.1zm.7 59.5v1h-4v47.1l1.4 1.5 1.5 1.4h5.1v-49.1l-1.4-1.5c-1.7-1.6-2.6-1.8-2.6-.4zm0 68v1h-4v37.8l-1.2.6-1.3.6 1.3.6 1.2.6v6.9l1.5 1.5 1.5 1.5 2.5-2.5 2.5-2.5v-44.2l-1.4-1.5c-1.7-1.6-2.6-1.8-2.6-.4zm-4.7 70.5-1.3 1.4v46.2l1.4 1.5 1.5 1.4h5.1v-6h2v-9.8l-1.2-.5-1.3-.5 1.5-1.2 1.5-1.2-1.2-.5-1.3-.5v-28.9l-1.4-1.5c-1.8-1.8-3.7-1.7-5.3.1zm0 72-1.3 1.4V697h5.1l1.5-1.4 1.4-1.5v-50.2l-1.4-1.5c-1.8-1.8-3.7-1.7-5.3.1zm-1.3 83.2-2.4 2.7 1.2.4 1.2.4v5.8h-2v14h2v10h-2v4h2v5.1l1.4 1.5c.8.8 2 1.4 2.6 1.4.6 0 1.8-.6 2.6-1.4l1.4-1.5V757h2v-6h-2v-3.8l-1.2-.6-1.3-.6 1.3-.6 1.2-.6v-16.9l-2.5-2.4c-1.3-1.4-2.5-2.5-2.7-2.4-.2 0-1.4 1.2-2.8 2.6zm-.7 72.8-1.3 1.4v7.1h2v5.8l-1.2.6-1.3.6 1.3.6 1.2.6v7.8h-2v4h2v6h-2v4h2v4h-2v1.6c0 .8.6 2.2 1.4 3l1.5 1.4h4.2l1.5-1.4 1.4-1.5v-44.2l-1.4-1.5-1.5-1.4h-2.3l-2.3.1-1.2 1.4zm0 74-1.3 1.4v40.2l1.4 1.5 1.5 1.4h5.1v-4h2v-4h-2v-17.8l1.3-.6 1.2-.6-1.2-.6-1.3-.6v-14.9l-1.4-1.5c-1.8-1.8-3.7-1.7-5.3.1zm0 70-1.3 1.4v54.2l1.4 1.5 1.5 1.4h5.1v-43.8l1.3-.6 1.2-.6-1.2-.6-1.3-.6V949h2v-3.1l-2.5-2.4-2.4-2.5h-1.3c-.7.1-1.9.7-2.5 1.5zm-2 84-1.3 1.4v37.1h2v5.1l1.7 1.7 1.6 1.7.5-1.3.4-1.2h3.8v-12h-2v-8h2v-4h-2v-8h2v-9.1l-2.5-2.4-2.4-2.5h-1.3c-.7.1-1.9.7-2.5 1.5zm0 70-1.3 1.4v43.1h2v1.6c0 1.8 2.3 4.4 4 4.4.6 0 1.8-.6 2.6-1.4l1.4-1.5v-16.9l-1.2-.5-1.3-.5 1.5-1.2 1.5-1.2-1.2-.5-1.3-.5v-24.9l-1.4-1.5c-1.8-1.8-3.7-1.7-5.3.1zm1 79-2.3 2.4v12.9l1.3.6 1.2.6-1.2.6-1.3.6v9.8h2v18h5.1l1.5-1.4 1.4-1.5v-8.9l-1.2-.5-1.3-.5 1.5-1.1 1.5-1.1-1.5-1.1-1.5-1.1 1.3-.5 1.2-.5v-9.8h-2v-10h2v-5.1l-2.5-2.4c-1.3-1.4-2.5-2.5-2.7-2.4-.2 0-1.3 1.1-2.5 2.4zM908 820v17h-2v6h2v5.1l1.4 1.5c.8.8 2.2 1.4 3 1.4h1.6v-4h2v-41.1l-1.4-1.5-1.5-1.4H908v17zm0 113v2h-2v11.8l1.3.6 1.2.6-1.2.6-1.3.6v38.9l1.4 1.5c2.1 2 3.3 1.8 6.4-1.3l2.6-2.7-1.2-.4-1.2-.4V977h2v-4h-2v-13.8l1.3-.6 1.2-.6-1.2-.6-1.3-.6v-17.6l1.3-.6 1.2-.6-1.2-.6-1.3-.6V931h-6v2zm-2.7 81.5-1.3 1.4v50.2l1.4 1.5 1.5 1.4h5.1v-8h2v-12h-2v-8h2v-6h-2v-12h2v-7.1l-1.4-1.5-1.5-1.4h-2.3l-2.3.1-1.2 1.4zm0 74-1.3 1.4v55.1h2v3.1l1.5 1.5 1.5 1.5 1.5-1.5c.8-.8 1.5-2.1 1.5-2.9v-1.5l1.3-.6 1.2-.6-1.2-.6-1.3-.6v-15.6l1.3-.5 1.2-.5-1.5-1.2-1.5-1.2 1.3-.5 1.2-.5V1109h-2v-3.8l1.3-.5 1.2-.5-1.5-1.1-1.5-1.1 1.5-1.1 1.5-1.1-1.2-.5-1.3-.5v-5.6l1.2-.4 1.2-.4-2.6-2.7-2.7-2.7h-1.3c-.7.1-1.9.7-2.5 1.5zm2 88-1.3 1.4v9.1h-2v8h2v20h-2v10h2v1.6c0 1.8 2.3 4.4 4 4.4.6 0 1.8-.6 2.6-1.4l1.4-1.5V1175h-2.7l-2.8.1-1.2 1.4zm0 74c-.7.8-1.3 2.1-1.3 3v1.5h-2v4h2v4h-2v56h8v-4h2v-25.8l-1.2-.6-1.3-.6 1.3-.6 1.2-.6v-29.6l1.2-.4 1.2-.4-3.7-3.7c-4.1-4.2-3.8-4.1-5.4-2.2zM546 1320v1h-4v43.1l1.4 1.5c.8.8 2.2 1.4 3 1.4h1.6v-4h2v-41.1l-1.4-1.5c-1.7-1.6-2.6-1.8-2.6-.4zm359.3 18.5-1.3 1.4v63.1h3.8l.4 1.2.4 1.2 2.7-2.6 2.7-2.7V1383h-2v-6h2v-4h-2v-34h-4v-1c0-1.4-1.3-1.2-2.7.5zM542 1403v8h-2v6h2v20h8v-39.1l-1.4-1.5-1.5-1.4H542v8zm363.3 27.5c-.7.8-1.3 2.1-1.3 3v1.5h-2v25.8l1.3.6 1.2.6-1.2.6-1.3.6v17.8h2v4h-2v6h2v11.1l1.4 1.5c.8.8 2 1.4 2.6 1.4 1.7 0 4-2.6 4-4.4v-1.6h2v-6h-2v-59.1l-2.5-2.4c-2.8-2.9-2.6-2.8-4.2-1zm-364 30c-.7.8-1.3 2.1-1.3 2.9v1.4l-1.2.6-1.3.6 1.3.6 1.2.6v27.8h-2v4h2v7.1l1.4 1.5c.8.8 2 1.4 2.6 1.4.6 0 1.8-.6 2.6-1.4l1.4-1.5V1461h-4v-1c0-1.4-1.3-1.2-2.7.5zm362 70-1.3 1.4v35.1h2v4h-2v11.1l2.7 2.7 2.7 2.6.4-1.2.4-1.2h3.8v-52h-2v-4h-2.7l-2.8.1-1.2 1.4zm-362 2-1.3 1.4v54.2l1.4 1.5c.8.8 2 1.4 2.6 1.4.6 0 1.8-.6 2.6-1.4l1.4-1.5V1577h2v-16h-2v-12h2v-6h-2v-3.8l1.3-.6 1.2-.6-1.2-.6-1.3-.6v-5.8h-2.7l-2.8.1-1.2 1.4zm362 76-1.3 1.4v26.9l-1.2.6-1.3.6 1.3.6 1.2.6v3.6l-1.2.6-1.3.6 1.3.6 1.2.6v8.9l2.5 2.5 2.5 2.5 1.5-1.5 1.5-1.5v-6.9l1.3-.6 1.2-.6-1.2-.6-1.3-.6V1611h2v-4h-3.7l-3.8.1-1.2 1.4zM540 1619v2h-2v10h2v8h-2v28h2v4h3.1l2.4-2.5 2.5-2.4v-26.9l1.3-.6 1.2-.6-1.2-.6-1.3-.6v-3.8h2v-4h-2v-12h-8v2zm361.3 57.5-1.3 1.4v6.9l1.3.6 1.2.6-1.2.6-1.3.6v35.8h2v4h5.1l1.5-1.4 1.4-1.5v-46.2l-1.4-1.5-1.5-1.4h-2.3l-2.3.1-1.2 1.4zm-894-966L6 711.9v16.9l-1.2.5-1.3.5L5 731l1.5 1.2-1.2.5-1.3.5v5.8h2v5.1l2.5 2.4 2.4 2.5H16v-2h42v-2h4v-36h-8v27.1l-1.4 1.5-1.5 1.4H38.9l-1.5-1.4-1.4-1.5V719h-5.1l-1.5 1.4-1.4 1.5v5.1h-2v12h-9.1l-1.5-1.4-1.4-1.5V715h2v-1.6c0-.8-.6-2.2-1.4-3l-1.5-1.4h-2.3l-2.3.1-1.2 1.4zM18 764v1h-3.1l-3.4 3.5-3.5 3.4v7.1H6v18h2v1.6c0 .8.6 2.2 1.4 3l1.5 1.4h50.2l1.5-1.4 1.4-1.5V795H40v-13.1l1.4-1.5c.8-.8 2.2-1.4 3-1.4H46v-2h4v-2h4v-2h4v-2h3.1l1.5-1.5 1.5-1.5-1.5-1.5-1.5-1.5h-8.7l-1.4 2-1.4 2H46v2h-7.2l-2.8-3-2.8-3H30v-2H18v1zm10.6 8.4 1.4 1.5v18.2l-1.4 1.5-1.5 1.4H20v-2h-4v-.9c0-.5.6-1.2 1.3-1.5l1.2-.6-1.2-.6-1.3-.6v-12.9l2.3-2.4 2.2-2.4h3.3l3.3-.1 1.5 1.4zM24 816v1H8.9l-1.5 1.4c-.8.8-1.4 2.2-1.4 3v1.6h4v2h14v-2h16v2h7.1l2.4 2.5 2.5 2.4v3.1h2v4h-2v6h-2v4H10v2H6v6h46v-2h3.1l3.4-3.5 3.5-3.4V839h2v-8h-2v-3l-5.5-5.5L51 817h-5v-2H24v1zm18 52v1h-3.1l-3.4 3.5-3.5 3.4v3.1h-2v8h-2v5.1l-2.5 2.4c-1.3 1.4-2.9 2.5-3.5 2.5-.6 0-2.2-1.1-3.5-2.5l-2.5-2.4V881h2v-4h3.1l2.5-2.5 2.5-2.5-1.5-1.5-1.5-1.5H16v2h-1.6c-2 0-4.4 2.4-4.4 4.4v1.6H8v4H6v10h2v5.1l3.5 3.4 3.4 3.5H18v2h9.1l4.4-4.5 4.5-4.4V893h2v-8h2v-5.1l1.4-1.5c.8-.8 2.2-1.4 3-1.4H46v-2h3.1l2.4 2.5 2.5 2.4v3.1h2v6h-2v5.1l-2.5 2.4-2.4 2.5H46v5.1l1.4 1.5c.8.8 2.1 1.4 2.8 1.4h1.4l1.4-2 1.4-2h2.7l2.4-2.5 2.5-2.4V895h2v-16h-2v-3.1l-3.5-3.4-3.4-3.5H52v-2H42v1zm-28.7 54.6L8 928v5H6v8h2v6h2v1.6c0 1.9 2.4 4.4 4.2 4.4h1.4l1.4 2 1.4 2H22v-2h5.1l4.4-4.5 4.5-4.4V943h2v-10h2v-3.1l2.7-2.7 2.7-2.6.4 1.2.4 1.2h4.9l1.5 1.4 1.4 1.5v7.1h2v4h-2v3.2l-4 3.8c-4.4 4.3-4.8 5.4-2.3 7.8l1.6 1.7.5-1.3.4-1.2H54v-2h3.1l2.4-2.5 2.5-2.4V943h2v-14h-2v-3.1l-4.5-4.4-4.4-4.5H40.9l-4.4 4.5-4.5 4.4v3.1h-2v10h-2v3.1l-2.5 2.4c-1.3 1.4-2.9 2.5-3.5 2.5-.6 0-2.2-1.1-3.5-2.5l-2.5-2.4v-2.9l1.3-.6 1.2-.6-1.2-.6-1.3-.6V933h2v-3.2l4.1-3.9 4-3.9-2.5-2.5-2.5-2.5-1.3.1h-1.3l-5.2 5.5zM54 967.7l-2.4 2.7 1.2.4 1.2.4V991h-2v6H38v-10h-2v-5.8l1.2-.4 1.2-.4-2.9-2.9-2.9-2.9-.4 1.2-.4 1.2H28v15.1l-2.5 2.4-2.4 2.5h-6.2l-1.5-1.4-1.4-1.5V979h2v-9.1l-1.4-1.5-1.5-1.4H8.9l-1.5 1.4-1.4 1.5v9.1H4v8h2v8H4v4h2v1.6c0 .8.6 2.2 1.4 3l1.5 1.4h50.2l2.4-2.5 2.5-2.4V993h-2v-19.8l1.3-.6 1.2-.6-1.2-.6-1.3-.6v-1.5c0-1.8-2.4-4.3-4.2-4.2h-1.3l-2.5 2.6zM18 1018v1h-4v2h-4v3.6l-2 1.4-2 1.4v26.7l1.4 1.5 1.5 1.4h50.2l2.5-2.5 2.5-2.5-1.5-1.5-1.5-1.5H40.9l-1.5-1.4-1.4-1.5v-4.9l1.3-.5 1.2-.5-1.4-1-1.4-1 3.6-3.6 3.6-3.6H50v-2h4v-2h4v-2h4v-5.1l-1.7-1.7-1.6-1.7-.5 1.3-.4 1.2H54v2h-6v2h-4v2h-8v-4h-3.6l-1.4-2-1.4-2H18v1zm9.5 9.5 2.5 2.4v15.1h-2v4H16v-21.1l1.3-1.4 1.2-1.4 3.3-.1h3.3l2.4 2.5zM18 1068v1h-3.1l-3.4 3.5-3.5 3.4v3.1H6v23.1l2.5 2.4 2.4 2.5H14v-2h5.8l.6 1.2.6 1.3.6-1.3.6-1.2H36v2h3.8l.6-1.3.6-1.2.6 1.2.6 1.3H48v-2h11.1l1.5-1.4 1.4-1.5v-5.1H40v-22h-2v-4h-3.6l-1.4-2-1.4-2H18v1zm11.5 9.5 2.5 2.4v4.9l-1.2.5-1.3.5 1.5 1.2 1.5 1.2-1.2.5-1.3.5v5.8h1c.6 0 1 .4 1 1v1H16v-10h-2v-4h2v-5.1l1.3-1.4 1.2-1.4 4.3-.1h4.3l2.4 2.5zM2516 1308v1h8v-2h-8v1zM870 1770v1h-3.1l-3.4 3.5-3.5 3.4v6.2l1.7 1.7 1.6 1.7.5-1.3.4-1.2h3.8v-6h4v-2h6v2h1.6c1.8 0 4.4 2.3 4.4 4 0 1.4-6.6 8-8.1 8-.6 0-2.4 1.3-3.9 3l-2.8 3H866v3.6l-2 1.4-2 1.4v3.6h-2v5.1l2.5 2.4 2.4 2.5h10.9l.6 1.2.6 1.3.6-1.3.6-1.2h12.9l1.5-1.4c.8-.8 1.4-2 1.4-2.6 0-.6-.6-1.8-1.4-2.6l-1.5-1.4H870v-3.1l3.5-3.4 3.4-3.5h3.1v-2h3.1l4.4-4.5 4.5-4.4v-10.2l-3.5-3.4-3.4-3.5H882v-2h-12v1zm54 0v1h-4v4h-2v6h-2v4h-2v4h-2v6h-2v4h-2v4h-2v4h-2v7.1l1.4 1.5 1.5 1.4h28.2l1.5-1.4 1.4-1.5v-5.1h-18v-2h-4v-4h2v-6h2v-6h2v-4h2v-6h2v-4h2v-5.1l-1.4-1.5c-1.7-1.6-2.6-1.8-2.6-.4zm-384 3v2h-2v8h-2v4h-2v6h-2v4h-2v6h-2v6h-2v8h30v-2h4v-6h-22v-10h2v-4h2v-6h2v-6h2v-6h2v-6h-8v2zm-332 11v1h-8v2h-1.6c-1.9 0-4.4 2.4-4.4 4.2v1.4l-2 1.4-2 1.4v17.6h2v8h2v3.1l2.5 2.4 2.4 2.5h3.1v2h12v-2h3.1l3.4-3.5 3.5-3.4v-5.1h2v-6h2v-10h-2v-7.1l-3.5-3.4-3.4-3.5H216v-2h-6v-1c0-.6-.4-1-1-1-.5 0-1 .4-1 1zm6.5 8.5 3.5 3.4v3.1h2v17.1l-4.5 4.4-4.4 4.5h-6.2l-2.4-2.5-2.5-2.4v-3.1h-2v-8h-2v-8h2v-5.1l2.5-2.4 2.4-2.5h5.1v-2h3.1l3.4 3.5zm2251.8 3-2.3 2.4v3.1h-2v6h-2v4h-2v6h-2v4h-2v6h-2v6h-2v3.8l-1.2.4-1.2.4 2.6 2.7 2.7 2.7h25.1v-2h1.6c2 0 4.4-2.4 4.4-4.4v-1.6h-3.8l-.5-1.3-.5-1.2-1.2 1.5-1.2 1.5-.5-1.3-.5-1.2H2462v-8h2v-4h2v-6h2v-6h2v-4h2v-9.1l-1.4-1.5c-1.8-1.7-1.6-1.8-4.3 1.1zm-161 5-1.3 1.4v7.1h-5.1l-1.5 1.4c-.8.8-1.4 2.2-1.4 3v1.6h8v7.1l1.4 1.5c.8.8 2 1.4 2.6 1.4.6 0 1.8-.6 2.6-1.4l1.4-1.5v-7.1h7.1l1.5-1.5 1.5-1.5-1.5-1.5-1.5-1.5h-7.1v-6h-2v-4h-1.7l-1.8.1-1.2 1.4zM2282 1823v2h-2v4h-2v4h-5.1l-1.5 1.4c-.8.8-1.4 2.1-1.4 2.8v1.4l2 1.4 2 1.4v3.6h-2v4h-2v6h-2v6h-2v4h8v-6h2v-6h2v-6h2v-3.2l4-3.8 4-3.8v-5.2h-2v-5.8l1.2-.4 1.3-.5-1.7-1.6-1.7-1.7h-3.1v2zm-1784 5v3h85.1l1.5-1.5 1.5-1.5-1.5-1.5-1.5-1.5H498v3zm333.2.6-1.3 1.4 1.5 1.5 1.5 1.5h68.9l.6 1.2.6 1.3.6-1.3.6-1.2H918v2h4v-2h41.1l1.5-1.5 1.5-1.5-1.5-1.5-1.5-1.5h-65.3l-65.3.1-1.3 1.5zM2362 1834v3h-2v7.1l-1.4 1.5-1.5 1.4h-8.2l-1.5 1.4c-.8.8-1.4 2.2-1.4 3v1.6h4v2h10v8h2v1.6c0 2 2.4 4.4 4.4 4.4h1.6v-10h2v-4h6v-2h10v-1.6c0-.8-.6-2.2-1.4-3l-1.5-1.4h-8.9l-.6-1.3-.6-1.2-.6 1.2c-.3.7-1 1.3-1.5 1.3h-.9v-9.8l-1.2-.5-1.3-.5 1.4-1 1.4-1-1.6-1.6-1.6-1.6h-5.1v3zm-1807.7 3.5-2.3 2.4v11.1h-2v8h-2v8h-2v3.6l-2 1.4-2 1.4v3.6h-4v2h-7.1l-1.5-1.4-1.4-1.5v-7.1h2v-8h2v-8h2v-6h2v-5.1l-1.4-1.5c-2-2-3.3-1.8-6.1 1.1l-2.5 2.4v5.1h-2v12h-2v6h-2v3.8l1.3.6 1.2.6-1.2.6-1.3.6v6.9l3.5 3.4 3.4 3.5H540v-2h3.1l4.4-4.5 4.5-4.4v-3.1h2v-6h2v-10h2v-6h2v-13.1l-1.4-1.5c-1.8-1.7-1.6-1.8-4.3 1.1zm362 6-2.3 2.4v9.1h-2v6h-2v8h-2v5.6l-2 1.4-2 1.4v3.6h-4v2h-4v2h-4v-2h-4v-8h2v-8h2v-10h2v-7.8l1.2-.4 1.3-.5-1.7-1.6c-.9-.9-2.2-1.7-2.8-1.7-1.7 0-4 2.6-4 4.4v1.6h-2v6h-2v8h-2v8h-2v11.6l2 1.4 2 1.4v3.6h6v2h4v-2h8v-2h3.1l3.4-3.5 3.5-3.4v-3.1h2v-6h2v-6h2v-10h2v-4h2v-9.1l-1.4-1.5c-1.8-1.7-1.6-1.8-4.3 1.1zM2298 1845v2h-2v8h-2v8h-2v4h-2v12h1.6c.8 0 2.2-.6 3-1.4l1.4-1.5v-5.1h8v-2h5.1l3.4-3.5 3.5-3.4v-3.1h2v-13.1l-1.4-1.5-1.5-1.4H2298v2zm14 7.8v3.8l-2 1.4-2 1.4v3.6h-6v-9.1l1.4-1.5 1.5-1.4h5.1v-1c0-.6.5-1 1-1h1v3.8zm102-.8v3h7.8l.6 1.2.6 1.3.6-1.3.6-1.2h3.8v2h84v1c0 .5-.4 1-1 1h-1v6h-2v10h-2v6h-2v8h-2v3.1l-3.5 3.4-3.4 3.5h-3.1v2h-5.1l-2.4-2.5-2.5-2.4v-5.1h2v-8h2v-6h2v-8h2v-8h-5.1l-1.5 1.4c-.8.8-1.4 2.2-1.4 3v1.6h-2v10h-2v4h-2v8h-2v8h2v4h2v1.6c0 2 2.4 4.4 4.4 4.4h1.6v2h8v-2h6v-2h3.1l2.4-2.5 2.5-2.4v-2.7l2-1.4 2-1.4v-5.6h2v-6h2v-8h2v-8h2v-8h-1c-.5 0-1-.5-1-1v-1h25.1l1.5-1.5 1.5-1.5-1.5-1.5-1.5-1.5h-3.1v-2h-6v2h-4v-2h-114v3z"/><path d="m2433 1863-1.4 2h-1.4c-.7 0-2 .6-2.8 1.4l-1.4 1.5v6.9l-1.2.4-1.3.5 1.7 1.6 1.7 1.7h4.2l1.5-1.4 1.4-1.5v-5.1h4v-2h4v2h3.1l1.7 1.7 1.7 1.6-1.3.5-1.2.4v2.9l-4.5 4.4c-2.4 2.5-4.9 4.5-5.5 4.5-.6 0-2.6 1.6-4.5 3.5l-3.5 3.4v3.1h-2v3.8l-1.2.6-1.3.6 1.3.6 1.2.6v1.5c0 .8.6 2.1 1.4 2.9l1.5 1.4h26.2l1.5-1.4c.8-.8 1.4-2.2 1.4-3v-1.6h-4v-2h-20v-3.1l2.5-2.4 2.4-2.5h2.7l1.4-2 1.4-2h3.6v-2h3.1l2.4-2.5 2.5-2.4V1869h-2v-4h-4v-2h-4v-2h-11.6l-1.4 2zm-1153.7 23.5-1.3 1.4v26.9l1.3.6 1.2.6-1.2.6-1.3.6v20.9l1.4 1.5 1.5 1.4h4.2l1.5-1.4 1.4-1.5v-48.2l-2.5-2.4-2.4-2.5h-1.3c-.7.1-1.9.7-2.5 1.5zm24.7.5v2h-2v14h2v3.8l-1.2.6-1.3.6 1.3.6 1.2.6v15.8h-2v6h2v10h7.1l1.7-1.7 1.7-1.6-1.3-.5-1.2-.4V1909h.5c.3 0 1.7 1.1 3 2.5l2.5 2.4v5.1h2v6h2v4h2v12h7.1l1.5-1.4 1.4-1.5v-7.1h2v-8h2v-6h2v-4h2v4h2v23.1l1.4 1.5c1.8 1.8 3.4 1.8 5.2 0l1.4-1.5v-44.9l1.3-.6 1.2-.6-1.2-.6-1.3-.6v-1.5c0-1.9-2.4-4.3-4.3-4.3h-1.5l-.6-1.3-.6-1.2-.6 1.2-.6 1.3h-3.8v8h-2v4h-2v8h-2v4h-2v4h-2v4h-4v-4h-2v-6h-2v-6h-2v-6h-2v-6h-2v-1.6c0-.8-.6-2.2-1.4-3l-1.5-1.4h-9.1v2zm63.3-.5-1.3 1.4v8.9l-1.2.6-1.3.6 1.3.6 1.2.6v39.8h2v4h14v-2h21.1l1.5-1.4c.8-.8 1.4-2 1.4-2.6 0-.6-.6-1.8-1.4-2.6l-1.5-1.4h-6.9l-.6 1.2-.6 1.3-.6-1.3-.6-1.2h-14.9l-1.5-1.4-1.4-1.5v-5.1h-2v-4h2v-4h4v-2h8v2h5.1l1.5-1.4c.8-.8 1.4-2 1.4-2.6 0-.6-.6-1.8-1.4-2.6l-1.5-1.4h-7.1v-2h-10v-3.8l-1.2-.6-1.3-.6 1.3-.6 1.2-.6v-5.8h9.8l.6-1.3.6-1.2.6 1.2.6 1.3h15.8v-5.1l-1.4-1.5-1.5-1.4H1390v-2h-10.7l-10.8.1-1.2 1.4zM1234 1888v1h-10v1.6c0 .8.6 2.2 1.4 3l1.5 1.4h9.1v2h4v14h2v11.8l-1.2.5-1.3.5 1.5 1.2 1.5 1.2-1.2.5-1.3.5v9.8h2v6h8v-46h15.1l1.5-1.4 1.4-1.5v-5.1h-4v-2h-6v2h-15.8l-.6-1.3-.6-1.2-.6 1.2-.6 1.3h-3.8v-1c0-.6-.4-1-1-1-.5 0-1 .4-1 1z"/></svg>