<svg version="1.0" xmlns="http://www.w3.org/2000/svg" viewBox="0 0 1600 900" width="1600" height="900" stroke="#000" stroke-width="1" fill="none">
<defs>
<style>
#fig1-02 text {
	font: 38.75px "Routed Gothic", Arial, sans-serif;
	text-transform: uppercase;
	word-spacing: 0.2ch;
	fill: #000;
	stroke: #000;
	stroke-width: 0.5;
}
#fig1-02 symbol {transform-origin: 0% 0%;}
</style>
<symbol id="arrowhead" viewBox="0 0 35 12" height="10" width="30" preserveAspectRatio="none" >
	<path d="M 0,6
	l 2,-3.5 
	a 3 3 -100 0 1 3,-2
	a 20 2.5 10 0 0 29,5
	a 1 1 0 0 1 0,1
	a 20 2.5 -10 0 0 -29,5
	a 3 3 100 0 1 -3,-2
	l -2,-3.5 
	" fill="#000" stroke="#000" stroke-width="1" stroke-linejoin="round" />
</symbol>
</defs>
	<circle cx="800" cy="422" r="415" stroke-width="7" />
	<g stroke-width="3.5">
		<g transform="translate(480,158) rotate(-141)">
			<path d="M 0,0 h 90" />
			<use href="#arrowhead" x="85" y="-5" />
		</g>
		<g transform="translate(1120,158) rotate(-41)">
			<path d="M 0,0 h 90" />
			<use href="#arrowhead" x="85" y="-5" />
		</g>
		<g transform="translate(480,688) rotate(141)">
			<path d="M 0,0 h 90" />
			<use href="#arrowhead" x="85" y="-5" />
		</g>
		<g transform="translate(1120,688) rotate(41)">
			<path d="M 0,0 h 90" />
			<use href="#arrowhead" x="85" y="-5" />
		</g>
	</g>
	<g>
		<text x="800" y="432" text-anchor="middle">Nuclear explosion</text>
		<text x="260" y="56" text-anchor="middle">Blast and shock</text>
		<text x="1330" y="56" text-anchor="middle">Thermal radiation</text>
		<text x="210" y="810" text-anchor="middle">Initial <tspan dy="50" dx="-290">nuclear radiation</tspan></text>
		<text x="1340" y="810" text-anchor="middle">Residual <tspan dy="50" dx="-310">nuclear radiation</tspan></text>
	</g>
	
</svg>