<svg version="1.0" xmlns="http://www.w3.org/2000/svg" viewBox="0 0 800 1000" width="800" height="1000" >
<defs>
<style>
svg {
	fill: none;
	stroke: #000;
	stroke-width: 1.25;
}
#chart {
	translate: 86px 14px;
}
#chart rect {
	stroke-width: 3;
}
#data {
	stroke-width: 3.5;
}
text {
	fill: #000;
	stroke-width: 0;
	font: 20px "Routed Gothic", Arial, sans-serif;
	text-transform: uppercase;
	word-spacing: 0.2ch;
}
text.vertical {
	transform-origin: 25px 470px;
	rotate: -90deg;
}
#labels text {
	font-size: 20px;
}
#labels .sub text {
	transform: translate(2px,-2px);
	font-size: 14px;
}
#y-axis {
	translate: 0 7px;
}
#y-axis tspan {
	font-size: 60%;
	font-weight: bold;
}

</style>
</defs>
<g id="chart">
	<g class="y-axis">
		<path d="M 0,305 h 700" />
		<path d="M 0,608 h 700" />
		<g class="ticks">
			<path d="M 0,13   h 15 m 685,0 h -15" />
			<path d="M 0,28  h 15 m 685,0 h -15" />
			<path d="M 0,47  h 15 m 685,0 h -15" />
			<path d="M 0,67  h 15 m 685,0 h -15" />
			<path d="M 0,91  h 15 m 685,0 h -15" />
			<path d="M 0,121 h 15 m 685,0 h -15" />
			<path d="M 0,159 h 15 m 685,0 h -15" />
			<path d="M 0,213 h 15 m 685,0 h -15" />

			<path d="M 0,318 h 15 m 685,0 h -15" />
			<path d="M 0,333 h 15 m 685,0 h -15" />
			<path d="M 0,351 h 15 m 685,0 h -15" />
			<path d="M 0,371 h 15 m 685,0 h -15" />
			<path d="M 0,395 h 15 m 685,0 h -15" />
			<path d="M 0,425 h 15 m 685,0 h -15" />
			<path d="M 0,464 h 15 m 685,0 h -15" />
			<path d="M 0,516 h 15 m 685,0 h -15" />

			<path d="M 0,622 h 15 m 685,0 h -15" />
			<path d="M 0,637 h 15 m 685,0 h -15" />
			<path d="M 0,655 h 15 m 685,0 h -15" />
			<path d="M 0,675 h 15 m 685,0 h -15" />
			<path d="M 0,700 h 15 m 685,0 h -15" />
			<path d="M 0,729 h 15 m 685,0 h -15" />
			<path d="M 0,767 h 15 m 685,0 h -15" />
			<path d="M 0,820 h 15 m 685,0 h -15" />
		</g>
	</g>
	<g class="x-axis">
		<path d="M 304,0 v 912" />
		<path d="M 607,0 v 912" />
		<g class="ticks">
			<path d="M 91,0  v 15 m 0,897 v -15" />
			<path d="M 145,0 v 15 m 0,897 v -15" />
			<path d="M 183,0 v 15 m 0,897 v -15" />
			<path d="M 213,0 v 15 m 0,897 v -15" />
			<path d="M 237,0 v 15 m 0,897 v -15" />
			<path d="M 257,0 v 15 m 0,897 v -15" />
			<path d="M 275,0 v 15 m 0,897 v -15" />
			<path d="M 291,0 v 15 m 0,897 v -15" />

			<path d="M 396,0 v 15 m 0,897 v -15" />
			<path d="M 450,0 v 15 m 0,897 v -15" />
			<path d="M 488,0 v 15 m 0,897 v -15" />
			<path d="M 518,0 v 15 m 0,897 v -15" />
			<path d="M 542,0 v 15 m 0,897 v -15" />
			<path d="M 562,0 v 15 m 0,897 v -15" />
			<path d="M 580,0 v 15 m 0,897 v -15" />
			<path d="M 595,0 v 15 m 0,897 v -15" />
		</g>
	</g>
	<g id="labels">
		<g id="y-axis">
			<text x="-9" y="5"   text-anchor="end">10<tspan dx="-1" dy="-15">23</tspan></text>
			<text x="-9" y="305" text-anchor="end">10<tspan dx="-1" dy="-15">22</tspan></text>
			<text x="-9" y="608" text-anchor="end">10<tspan dx="-1" dy="-15">21</tspan></text>
			<text x="-9" y="912" text-anchor="end">10<tspan dx="-1" dy="-15">20</tspan></text>
			<g class="sub">
				<text x="-9" y="91"  text-anchor="end">5</text>
				<text x="-9" y="213" text-anchor="end">2</text>
				<text x="-9" y="395" text-anchor="end">5</text>
				<text x="-9" y="516" text-anchor="end">2</text>
				<text x="-9" y="700" text-anchor="end">5</text>
				<text x="-9" y="820" text-anchor="end">2</text>
			</g>
		</g>
		<g id="x-axis">
			<text x="0"   y="937" text-anchor="middle">0.1</text>
			<text x="91"  y="937" text-anchor="middle">0.2</text>
			<text x="213" y="937" text-anchor="middle">0.5</text>
			<text x="305" y="937" text-anchor="middle">1</text>
			<text x="396" y="937" text-anchor="middle">2</text>
			<text x="542" y="937" text-anchor="middle">5</text>
			<text x="607" y="937" text-anchor="middle">10</text>
			<text x="700" y="937" text-anchor="middle">20</text>
		</g>
	</g>
	<path id="data" d="M 0,127 h 320 v 56 h 100 v 138 h 71 v 143 h 59 v 114 h 33 v 73 h 24 v 262" />
	<rect x="0" y="0" width="700" height="912" />
</g>
<g>
	<text x="25" y="470" text-anchor="middle" class="vertical">Spectrum (neutrons/KT)</text>
	<text x="440" y="995" text-anchor="middle">Energy Interval (MeV)</text>
</g>


</svg>