<svg version="1.0" xmlns="http://www.w3.org/2000/svg" viewBox="0 0 2821 1254"><path d="M388 27.5V37h2.3l-.7 39.9-.7 40 1.3 2.2 1.3 2.2-1.2.4-1.3.5v100.6l1.3.5 1.2.5-1.2.1-1.3.1v16.8l1.3.5 1.2.5-1.2.1-1.3.1v2.8l1.1.4 1.1.4-.7 5.2-.7 5.2H388v5.6l1.2 1.2 1.2 1.2H388v17.9l1.1.7 1.1.6-1.3.9-1.4.8 1.3 1.3 1.2 1.2V304h-2v5h2v13h-2v28.8l1.3.5 1.2.5-1.2.1-1.3.1v10.8l1.3.5 1.2.5-1.2.1-1.3.1v13h2v16.1l-2.5 2.4-2.4 2.5H338v1.9l-5.4-.6-5.5-.6-1.5 1.6-1.6 1.6v4.1h8v1.5l23-.3 23-.4v2.2h4.8l.5-1.3.5-1.2.1 1.2.1 1.3h1.6c1.5 0 4.4 2.3 4.4 3.5 0 .4-.7 1.4-1.6 2.2l-1.5 1.6 1.2.8 1.2.7-.6 112.7-.6 112.7 1.2 2 1.2 2.1-1.2.4-1.3.5V659h2v9h-2v11h2v7h-2v3h2v5h-2v9h2v3h-2v33h2.5l-1.2.8-1.2.7-.7 5.3-.7 5.2h2.3v7h-2v13.9l1 .6 1 .6V784h-2v5h2v27h-2v3h2v17h-2v3h2v9h-2v11h2v5h-2v3h2v10h-2v5.8l1.3.6 1.2.6-1.2.6-1.3.6V905h1.5l-.4 15.8-.3 15.7-1.2.7-1.1.7 1.3 2.1 1.2 2v59h-2v27.1l-1.4 1.5-1.5 1.4H362v1.9l-68-.6-68-.6v2.3h-3v-2h-3v2h-4.8l-.4-.9-.3-.9-50.2-.6-50.3-.7v2.1H99.1l-.6-1-.6-1H94v2h-9.1l-1.5 1.4-1.4 1.5v8.2l2.5 2.4 2.4 2.5H104v2h3v-2l108.5.7 108.5.6 2.6-1.3 2.5-1.4.8 1.3.9 1.3 9.3.2 9.4.2 1.2-.9 1.2-.8 20.8.1 20.7.1.8 1.2.7 1.2 1.3-1.3 1.2-1.2H427v-2.1l42 .3 42 .3v-1.7l1.4 1.1 1.4 1.2 1.3-.3c.8-.2 2-.9 2.7-1.5 1.8-1.7 3.1-1.6 3.8.2l.6 1.5h4.8v-2h22.8l.5 1.2.4 1.3 1.4-1.3 1.3-1.2H594v2h3v-2h5v2h7v-2h13v2h2.8l.5-1.3.5-1.2.1 1.2.1 1.3h4.8l.5-1.3.5-1.2.1 1.2.1 1.3h3.9l.6-1 .6-1h6.9v2h3v-2h3v2h9v-2.5l.8 1.3.8 1.3 3.2.4 3.2.4v-2.4l50.1.3 50.2.3 1.5 1.5 1.4 1.5-.4 14.7-.4 14.7-1.5 2.2-1.4 2.3 1.3 2 1.2 2v25h-2v6h2v4h-2v6h2v3.9l-1 .6-1 .6v18.9h-23v-2h-8v-2h-6v-2h-8.1l-1.5 1.4c-.8.8-1.4 2-1.4 2.6 0 .6-.6 1.8-1.4 2.6l-1.5 1.4h-4.9l-.5 1.2-.5 1.3-.1-1.3-.1-1.2h-45v2.1l-2.2-.2c-1.3-.1-3.1-.1-4-.1l-1.8.2v5h6v2.6l7.8-.1h7.7l1.2-.8 1.2-.7.4.8.5.7 6.8.3 6.7.3.8-1.3.9-1.3v2.5h19.1l1.5 1.4 1.4 1.5v4.2l1.4 1.5 1.5 1.4h8.1v-2h4v-2h10v-2h12v-2h11v3.8l1.3.6 1.2.6-1.3.6-1.2.6v7.8h2v4h-2v7.8l1.3.6 1.2.6-1.3.6-1.2.6v39.8h2.2l-.4 3-.5 3h4.7v-2h3v-3.9l1-.6 1-.6v-11.8l-1-.6-1-.6V1205h2l-.1-6-.1-6H776v-20h2v-25.8l-1.2-.6-1.3-.6 1.3-.6 1.2-.6v-7.6l-1.2-.6-1.3-.6 1.2-.6 1.3-.6v-3.8h-2v-34h2v-6h-2v-6h1.8l.4-6 .3-6H777v-9.9l1.1-.6 1-.7-.2-5.6c-.1-3.2-.1-6.6 0-7.6l.1-1.9 45.8.6c25.1.4 60.4.7 78.5.7H936v6h1.8l-.5 43-.6 43h2.3v16h-2v36h-2v4h2v4h-2v16h2v8h-2v4h2v8h2v4h6.9l.1-33.6v-33.6l1.5-1.4 1.4-1.4H969v2h5.8l.4.9.3.9 9.6.3 9.7.3 1.6-1.6 1.6-1.7v-3l13 .5 13 .6v-2.2h19.1l2.4-2.5 2.5-2.4v-3.1h-4v-2h-7v2h-36.2l-2.8-3-2.8-3h-5.1l-1.5-1.5-1.5-1.5-1.5 1.5-1.4 1.5-3.4-.3-3.3-.3-5 1.8-5 1.8H959v2h-10.8l-1.2-1.5-1.3-1.5.5-52 .5-51.9 1.6-1.5 1.6-1.6H967v-2.5l.8 1.1.7 1.2 22.2.5 22.2.5.5-1.2.4-1.1.1 1.2.1 1.3h29.9l.7-1.1.7-1.1.6 1 .7 1.1 62.8.2 62.9.1.8-1.3.9-1.4v3.2l5.9.2 6 .1.7-1.1.7-1.1.7 1.3.8 1.3 1.6-1.3 1.6-1.3v2.2h3v-2h19v2h3v-2h26.8l.5 1.2.5 1.3 1.3-1.3 1.3-1.2h52.6v2h3v-2.1l35.3.5c19.3.3 85 .8 146 1.2l110.7.6v-2.2h7v2h5v-2h5v2h3v-2l64.3.6 64.2.7.3.8.4.9h8.8v-2.2l69.8.6c38.3.3 114.8.9 170 1.2l100.2.6v-2.7l.8 1.1.7 1.1 42.6.6 42.6.6 1.2-1.2 1.1-1.1v2.4h62.8l.5-1.3.5-1.2.1 1.2.1 1.3h13v-2h3v2h20.8l.5-1.3.5-1.2.1 1.2.1 1.3h2.8l.5-1.3.5-1.2.1 1.2.1 1.3h17v-2h4.9l1.3 1.3 1.3 1.4 1.9-.3c1.1-.1 2.2-.7 2.5-1.2l.6-.9h3.3l3.2.1v2.4l22.5.1 22.5.2v-2.1h5v2h7.9l.6-1 .6-1h8.9v2h3v-2.5l.9 1.4.9 1.5 1.6-1.3 1.6-1.3v2.2h11.9l.6-1 .6-1h6.9v2h11v-2h3v2h3.9l.6-1 .6-1h4.9v2h10.8l.5-1.3.5-1.2.1 1.2.1 1.3h5v-2h7v2h3v-1.7l13.2.2 13.2.1.4 1.2.4 1.2h4.8v-2h44.8l.5 1.2.4 1.3 1.4-1.3 1.3-1.2h34.6v2h3v-1.9l107 .6 107 .6v-2.4l1 .6 1 .6v-4.1h2v-11.8l-3.1-.4-3.1-.5-.4 1.2-.5 1.1-3.4.1-3.4.1-.4-1.2-.5-1.2-15.1-.2-15.1-.3v2.1h-4.9l-.6-1-.6-1h-5.9v2h-5v-2h-15v2h-15v-2h-10v-4h-2v-38h-2v-23.8l-1.2-.6-1.3-.6 1.3-.6 1.2-.6V963h-2v-22h-2v-18h-2.2l.7-7 .7-7h-2.2v-14.9l-1-.6-1-.6V880h-2v-10h-2v-12h-2v-8h-2v-10h-2v-10h-2v-8h-2v-8h-2v-6h-2v-8h-2v-8h-2v-10h-2v-6h-2v-8h-2v-4h-2v-8h-2.2l.4-3 .5-3h-1.7v-6h-2v-6h-2v-6h-2v-6h-2v-6h-2v-6h-2v-6h-2v-4h-2v-6h-2v-6h-2v-5.9l-1-.6-1-.6V681h-2v-5.6l-2-1.4-2-1.4v-7.2l-2-1.4-2-1.4V657h-2v-4h-2v-4h-2v-6h-2v-4h-2v-6h-2v-4h-2v-4h-2v-4h-2v-4h-2v-4h-2v-4h-2v-6h-2v-3.6l-2-1.4-2-1.4V593h-2v-4h-2.2l.5-2 .5-2h-1.8v-3.6l-2-1.4-2-1.4V575h-2v-4h-2v-4h-2v-4h-2v-3.6l-2-1.4-2-1.4V553h-2v-4h-2v-3.6l-2-1.4-2-1.4v-3.2l-2-1.4-2-1.4V533h-2v-4h-2v-3.6l-2-1.4-2-1.4v-2.8l-3-2.8-3-2.8V511h-2v-3.6l-2-1.4-2-1.4v-3.2l-2-1.4-2-1.4v-3.2l-2-1.4-2-1.4V489h-2v-3.6l-2-1.4-2-1.4v-2.8l-3-2.8-3-2.8v-2.4l-3-2.8-3-2.8v-2.4l-3-2.8-3-2.8v-2.4l-3-2.8c-1.7-1.5-3-3.3-3-4v-1.2l-4-3.8-4-3.8v-2.8l-2-1.4-2-1.4V431h-4v-3.1l-3.5-3.5-3.5-3.5v-2.8l-5.7-6.2c-3.2-3.3-7.7-8.1-10-10.5-2.4-2.4-4.3-4.8-4.3-5.4 0-.6-3.6-4.6-8-9s-8-8.4-8-9v-1.1l-11-10.9-11-10.9V354c0-.6-1.1-2.2-2.5-3.5l-2.4-2.5h-3.1v-3.1l-4.5-4.4c-2.4-2.5-4.9-4.5-5.5-4.5-.6 0-5.5-4.5-11-10l-9.9-10h-1.1c-.6 0-4.6-3.6-9-8l-7.9-8h-1.2c-.6 0-2.4-1.4-3.9-3-1.5-1.7-3.3-3-3.9-3h-1.2l-6.9-7-6.9-7h-1.2c-.6 0-2.4-1.4-3.9-3l-2.8-3h-2.4l-2.8-3-2.8-3h-2.4l-2.8-3c-1.5-1.7-3.3-3-3.9-3-.6 0-4.1-2.9-7.8-6.5-3.8-3.6-7.2-6.5-7.6-6.5-.5 0-2.2-1.4-3.7-3l-2.8-3h-3.2v-2h-3.6l-1.4-2-1.4-2h-3.2l-1.4-2-1.4-2h-2.8l-2.8-3-2.8-3h-2.8l-1.4-2-1.4-2h-3.2l-1.4-2-1.4-2h-3.6v-2h-4v-2h-3.6l-1.4-2-1.4-2h-3.6v-2h-3.6l-1.4-2-1.4-2h-3.6v-2h-4v-2h-3.6l-1.4-2-1.4-2h-3.6v-2h-3.6l-1.4-2-1.4-2h-3.2l-1.4-2-1.4-2h-3.6v-2h-4v-2h-6v-2h-4v-2h-4v-2h-3.6l-1.4-2-1.4-2h-5.2l-1.4-2-1.4-2h-3.6v-2h-5.6l-1.4-2-1.4-2h-5.2l-1.4-2-1.4-2h-5.6v-1.1c0-.6-.6-1.7-1.4-2.5l-1.5-1.4h-5.1v-2h-4v-2h-6v-2h-3.6l-1.4-2-1.4-2h-7.6v-2h-4v-2h-6v-2h-4v-2h-6v-2h-4v-2h-6v-2h-4v-2h-6v-2h-6v-2h-6v-2h-6v-2h-6v-2h-4v-2h-8v-2h-8v-2h-4v-2h-6v-2h-6v-2h-8v-2h-8v-2h-6v-2h-7.1l-1.5-1.5-1.5-1.5h-5.9v-2h-10v-2h-8v-2h-8.9l-.6-1-.6-1h-4.9v-2h-10v-2h-10v-2h-12v-2h-12v-2h-18v-2h-10v-2h-20v-2h-16v-1.7l-11.7-.5-11.7-.6-.4-1.1-.4-1.1H1783v-2h-65v2h-46v2h-18v1.5l-10-.3-10-.3V73h-20v2h-12v2h-14v2h-12v2h-10v2h-14v2h-8v2h-6v2h-9.9l-.6 1-.6 1h-9.9v2h-8v2h-6v2h-8v1.7l-7 .7-7 .7v1.9h-8v2h-6v2h-8v2h-4v2h-8v2h-6v2h-6v2h-6v2h-6v2h-4v2h-4v2h-6v2h-6v2h-6v2h-4v2h-6v2h-4v2h-4v2h-6v2h-4v2h-4v2h-6v2h-4v2h-6v2h-3.6l-1.4 2-1.4 2h-5.6v2h-4v2h-4v2h-4v2.1l-2-.6-2-.6v2.1h-4v2h-4v2h-4v2h-4v2h-4v2h-3.6l-1.4 2-1.4 2h-3.6v2h-6v2h-4v2h-3.6l-1.4 2-1.4 2h-3.6v2h-3.6l-1.4 2-1.4 2h-3.6v2h-4v2h-4v2h-3.6l-1.4 2-1.4 2h-3.6v2h-3.6l-1.4 2-1.4 2h-3.2l-1.4 2-1.4 2h-3.2l-1.4 2-1.4 2h-3.2l-1.4 2-1.4 2h-3.2l-1.4 2-1.4 2h-3.6v2h-3.2l-2.8 3-2.8 3h-2.8l-1.4 2-1.4 2h-3.2l-1.4 2-1.4 2h-3.2l-1.4 2-1.4 2h-3.2l-1.4 2-1.4 2h-3.2l-1.4 2c-.8 1.1-1.9 2-2.5 2-.6 0-1.7.9-2.5 2l-1.4 2h-2.9l-1.6 1.8c-.9 1.1-3.3 2.7-5.3 3.7l-3.8 1.7v1.8h-3.2l-3.8 4c-2.1 2.2-4.4 4-5 4h-1.1l-4.9 5c-2.7 2.7-5.4 5-6 5h-1.1l-8.9 9-8.9 9h-1.1c-.6 0-3.8 2.7-7 6s-6.4 6-7 6h-1.1l-9.9 10-9.9 10h-3.1v3.1l-2.5 2.4c-1.3 1.4-2.9 2.5-3.5 2.5-1.4 0-12 10.6-12 12 0 .6-2 3.1-4.5 5.5l-4.4 4.5h-3.1v3.1l-11 10.9-11 10.9v1.1c0 .6-3.1 4.2-7 8s-7 7.4-7 8v1.1l-11.5 11.5c-6.3 6.4-11.5 12-11.5 12.5 0 .6-2.7 3.7-6 6.9l-6 5.9v4.3l-4 3.8-4 3.8v1.2c0 .7-1.3 2.5-3 4l-3 2.8v2.4l-3 2.8c-1.6 1.5-3 3.3-3 4v1.2l-4 3.8-4 3.8v3.2h-2v4h-2v3.2l-3 2.8-3 2.8v2.8l-2 1.4-2 1.4v3.6h-4v7.2l-3 2.8-3 2.8v2.8l-2 1.4-2 1.4v3.6h-2v3.6l-2 1.4-2 1.4v3.6h-2v4h-2v3.6l-2 1.4-2 1.4v3.2l-2 1.4-2 1.4v3.6h-2v3.6l-2 1.4-2 1.4v3.6h-2v4h-2v4h-2v3.8l-1.5.6-1.5.5v3.1h-2v3.6l-2 1.4-2 1.4v3.6h-2v4h-2v4h-2v5.6l-2 1.4-2 1.4v5.6h-2v4h-2v4h-2v4h-2v4h-2v4h-2v4h-2v4h-2v4h-2v6h-2v4h-2v4h-2v6h-2v6h-2v4h-2v6h-2v6h-2v6h-2v3h-2v4h-2v8h-2v4h-2v6h-2v6h-2v4h-2v6h-2v4h-2v3.3l-1.7 1.4-1.8 1.4 1.3.5 1.2.6v2.8h-2v6h-2v6h-2v8h-2v6h-2v8h-2v8h-2v10h-2v10h-2v10h-2v6h-2v8h-2v10h-2v10h-2v14h-2v9h-2v12h-2v9.8l-1.1.4-1.1.4-.5 12.7-.6 12.8-.8.5-.9.5v10.8l-1 .6-1 .6V961h-2v6h2v3.9l-1 .6-1 .6v52.9h-2v4h-10v2h-7v-2h-5v2h-3v-2h-21v2h-11v-2h-19v2h-6.8l-.4-1-.3-.9-13.8-.2-13.8-.2-1.1 1.1-1.2 1.2-1.7-1.6-1.7-1.6-2.1 1.2-2.1 1.1v-1.6l-3.5-.2-3.5-.3v2h-10.9l-.6-1-.6-1H618v2h-3v-2h-3v2h-23v-2h-22v-2h-3v2.1l-35.6-.2-35.6-.1-.9 1.3-.9 1.4v-3.1l-7.7.1-7.8.1-1.8.8-1.7.8-1.4-1.1-1.4-1.2-.7 1.1-.6 1H463v-2h-9v2h-19v-2h-5v2h-22.1l-1.6-1.6-1.6-1.6.7-98.9.7-98.9H404v-5h2v-11h-2v-17h2v-3h-2v-11h2v-3h-2v-27h2v-1.5c0-.8-.3-1.5-.7-1.5h-.8l.3-25.2.4-25.3 1.1-1.3 1.1-1.4-1.3-.7-1.2-.8.8-140.5.8-140.5 1.4-1.6 1.3-1.7h8.7l.6-1 .6-1H436v2h4.8l.5-1.3.5-1.2.1 1.2.1 1.3h9l2.1-1.2 2.2-1.3.4 1.2.5 1.3H475v-2.2l14.2.4 14.1.3.5 1.2.4 1.3h18.9l-.6-1-.6-1h2.1v2h18.8l.5-1.3.5-1.2.1 1.2.1 1.3h28v2.4c0 1.3.3 3.1.6 4l.6 1.6h8.8v-2h19.1l-.6-1-.6-1h9.1v-2h12v-2h19.8l.5-1.3.5-1.2.1 1.2.1 1.3h7v-1.8l2-.5 2-.5v-3.3l-2.5-2.4-2.4-2.5H643v-2h-20v-2h-18v-2h-18v-2h-7v2h-5.2l-2.8 3-2.8 3H565v-2h-3v2.3l-40-.5-39.9-.5-.5 1.1-.4 1.1-.1-1.3-.1-1.2h-71.1l-1.5-1.4-1.4-1.5v-60.9l-1.2-.5-1.3-.5 1.3-.1 1.2-.1v-9h-2.5l1.2-.8 1.2-.7.3-39.3.3-39.2h-1.9l1.2-1.2 1.2-1.2V236h-2.1l.3-81 .3-81-1-.4-1-.4 1.3-.1 1.2-.1V62.2l-1.2-.5-1.3-.4 1.3-2.2c.6-1.1 1.2-2.7 1.2-3.5v-1.4l-1.2-.5-1.3-.4 1.3-2.2L407 49v-5h-2v-6.9l1-.6 1-.6V20h-12v-2h-7v9.5zM1756 80v1h45.8l.5 1.2.5 1.3 1.3-1.3 1.3-1.2h6.4l.4 1.1.4 1.1 10.7.5 10.7.6V86h18v2h18v2h8v2h14.9l.6 1 .6 1h10.8l.6 1 .6 1h8.8l.6 1 .6 1h6.9v2h9.9l.6 1 .6 1h10.8l.6 1 .6 1h4.8l.6 1 .6 1h8.8l.6 1 .6 1h6.8l.6 1 .6 1h8.7l.4.7c.2.5 1.8 1.6 3.6 2.5l3.4 1.8h6.8v2h8v2h7.9l.6 1 .6 1h4.8l.6 1 .6 1h4.8l.6 1 .6 1h4.9v2h6.6l2.7 1.2c1.5.7 2.7 1.6 2.7 2v.8h8v2h4v2h6v2h6v2h6v2h4v2h6v2h7.6l1.4 2 1.4 2h5.6v2h6v2h4v2h6v2h4v2h4v2h5.6l1.4 2 1.4 2h3.6v2h6v2h6v2h4v3h1.5c1.9 0 5.5 2 7.6 4.2l1.6 1.8h4.1l4.4 2.2c2.3 1.3 5 3.1 5.9 4l1.6 1.8h3.3v2h5l2.3 1.2c1.2.7 2.9 2.1 3.8 3l1.6 1.8h3.3v2h4v2h4v2h4v2h4v2h3.6l1.4 2 1.4 2h3.2l1.4 2 1.4 2h3.6v2h4v2h3.6l1.4 2 1.4 2h3.6v2h3.6l1.4 2 1.4 2h3.2l1.4 2 1.4 2h3.6v2h4v2h3.2l2.8 3 2.8 3h2.8l1.4 2 1.4 2h3.2l1.4 2 1.4 2h2.8l2.8 3 2.8 3h2.7l1.3 2 1.2 2h3v.9c0 .5 1.5 1.6 3.3 2.4 1.8.9 4.3 2.7 5.6 4.1 1.4 1.4 2.9 2.6 3.4 2.6 1.2 0 5.7 4.8 5.7 6.1v.9h3.8l2.5 3 2.6 3h3.1v4h3.5l2.8 3 2.9 3h2.5l5.7 6 5.7 6h1.2c.7 0 2.5 1.3 4 3 1.6 1.6 3.4 3 4 3h1.1l9.7 10 9.8 10h2.2l8.9 9 8.9 9h3.1v3.1l4.5 4.4c2.4 2.5 4.9 4.5 5.5 4.5 1.4 0 8 6.6 8 8 0 .6 5.4 6.4 12 13l12 11.9v1.1c0 .6 2.7 3.8 6 7l6 5.9v1.1c0 1.7 2.6 4 4.4 4h1.6v3.2l2.8 2.6 2.9 2.7-.4 1.1-.3 1 6.4 6.6 6.5 6.6-.6.6-.6.6h2.3v2.8l5.8 5.8c5.7 5.9 8.2 9.4 8.2 11.5 0 .6 1.2 2 2.6 3.1l2.5 2.1.9 2.3 1 2.4h3v3.2l2.4 1.9 2.5 1.9 1.5 3.2c.9 1.7 1.6 3.6 1.6 4.2 0 .6 1.4 2.2 3 3.5l3 2.3v3.1l1.8 1.6c.9.9 2.3 2.8 3.1 4.3.8 1.6 1.8 2.8 2.3 2.8h.8v3.6l2 1.4 2 1.4v3.6h2v4h2v3.2l3 2.8 3 2.8v2.8l2 1.4 2 1.4v3.6h2v3.6l2 1.4 2 1.4v3.6h2v4h2v3.6l2 1.4 2 1.4v3.6h2v3.6l2 1.4 2 1.4v3.6h2v3.6l2 1.4 2 1.4v3.2l2 1.4 2 1.4v5.2l1.9 1.3 1.8 1.4-.4 1.8-.5 1.9h2.2v4h2v4.6l1.8 2c2.4 2.8 4.2 6.1 4.2 7.9v1.5h2v4h2v4h2v4h2v4h2v4h2v4h2v4h2v6h2v4h2v4h2v4h2v6h2v5.6l2 1.4 2 1.4v5.6h2v4h2v6h2v4h2v6h2v6h2v6h2v4h2v8h2v4h2v5.9l1 .6 1 .6v7.9h2v4.6l2.1 2.3 2.1 2.3-.6 2.8-.5 2.9.9.3.9.3.3 3.3.2 3.2h1.6v6.9l1 .6 1 .6v5.9h.8c.4 0 1.3 1.2 2 2.7l1.2 2.7v7.5l1 .6 1 .6v6.8l1 .6 1 .6v4.8l1 .6 1 .6v8.8l1 .6 1 .6v4.8l1 .6 1 .6v6.8l1 .6 1 .6v9.9h2v10h2v12h2v10h2v12h2v12h2v12h2.2l-.4 7-.4 7h1.6v20h2v24h2v22.9l1 .6 1 .6v5.9h-2v4h2v4h-2v6h2v22h-2v1.6c0 .8-.6 2.2-1.4 3l-1.5 1.4H2656l-.1 1.2-.1 1.3-.5-1.3-.5-1.2H2640v2h-4.1l-.4-1.3-.5-1.2-9.5-.2-9.5-.1v1.8h-14.9l-.6-1-.6-1H2586v2h-19v-2h-3v2h-13v-2h-9v2h-41v-2h-3v2h-9v-2h-7v2.1l-5.5-.2-5.5-.2v-2.7l-1.2.2c-.7.2-1.8.9-2.4 1.7l-1.1 1.5-3.7-1.8-3.6-1.7-1.4 1.3-1.3 1.4-4.2-.3-4.3-.2-1.5-1.3-1.6-1.3-.5 1.3-.4 1.3-72.5-.1-72.4-.1-1.4 1.1-1.4 1.2-1.6-1.6-1.6-1.5-62.4-.1H2168v2h-4.8l-.4-1.1-.4-1.1-63.2-.6-63.2-.5v2.3h-3v-2h-47v2h-3v-2h-2.8l-.4 1.1-.4 1.2-1.4-1.4-1.5-1.4-11.2-.3-11.3-.3v2.3l-1.4-1.1-1.4-1.2-.7 1.1-.6 1H1929v-2h-7v2h-4.9l-.6-1-.6-1h-3.9v2h-7v-2h-2.8l-.5 1.2-.4 1.3-2.4-1.4-2.3-1.4-.4 1.2-.4 1.1H1855v-2h-3v2h-11v-2h-3v2h-3v-2h-3v2h-18.1l-2.9-1.5-3-1.6v2.9l-9-.3-9.1-.3-1.6-1.4-1.6-1.3-.4 1.2-.5 1.3h-6.4l-1.3-1.3-1.4-1.2-.4 1.2-.5 1.3h-22.7l-.6-1-.6-1h-4.9v-4h-2v-8h2v-10h2v-18h2v-8h2v-6h-2v-4h-6v-3.8l-1-.4-1-.3 1-138 1-138-1-.3c-.6-.2-1-1-1-1.8V689h2v-13l-1.2-.1-1.3-.1 1.3-.5 1.2-.5v-85.9l-1.4-1.5-1.5-1.4h-4.9l-.4-1.1-.4-1.2-2.2 1.4-2.2 1.4v11.1l1.2 1.2 1.2 1.2h-2.4v3.9l1 .6 1 .6v4.9h-2v7h2v5h-2v5h2v5h-2v3h2v14h2v7h-2v13h2v11h-2v25h2v3h-2v9h2v3h-2v3h2v5h-2v7h2v3h-2v5h2v3h-1.8l-.4 2.5-.5 2.5h1.7v2.8l-1.1.4-1.2.4 1.4 2.3 1.4 2.4-1.2.4-1.3.5v3.7l1 .6 1 .6v4.9h-2v7h2v5h-2v3h2v5h-2v5h2v5h-2v9l1.3.1 1.2.1-1.2.5-1.3.5v8.8h2v15h-2v3h2v3h-2v5h2.3l-.5 44-.6 43.9 1.2.6 1.1.5-1.2.6-1.3.6v20.7l1 .6 1 .6v3.9h-2v12h-5.1l-1.5 1.4-1.4 1.5v9.1h2v6h2v11.8l1.3.6 1.2.6-1.2.6-1.3.6v3.8h2v9.1l-1.4 1.5c-2 1.9-2.4 1.8-5.6-1.6l-2.8-3h-7.2v-2h-3.2l-2.8-3-2.8-3h-2.4l-2.8-3-2.8-3h-3.2v-2h-3.2l-2.8-3-2.8-3h-3.2v-2h-3.6l-1.4-2-1.4-2h-3.2l-1.4-2-1.4-2h-2.8l-2.8-3-2.8-3h-2.8l-1.4-2-1.4-2h-2.5l-4.6-4.5-4.5-4.6-.8.5-.8.5-1.8-2.4-1.9-2.5-.9.6-.9.6-2.5-2.9c-1.3-1.5-2.4-3.2-2.4-3.7v-.8l-2 .5-2 .5v-.9c0-.6-1.1-2.1-2.5-3.4l-2.4-2.5h-3.1v-2h-3.6l-1.4-2-1.4-2h-3.6v-2h-3.2l-2.8-3-2.8-3h-2.8l-1.4-2-1.4-2h-3.2l-1.4-2-1.4-2h-3.6v-2h-3.2l-2.8-3-2.8-3h-2.8l-1.4-2-1.4-2h-3.6v-2h-4v-.8c0-.5-.8-1.9-1.9-3l-1.8-2.2h-2.9l-1.4-2-1.4-2h-3.3l-1.8-2c-1-1.1-2.3-2-3-2-.7 0-2-.9-3-2s-2.2-2-2.7-2-1.8-.9-3-2-2.8-2-3.5-2h-1.3v-2h-3.6l-1.4-2-1.4-2h-3.6v-2l-2.7-.6-2.8-.7-1.6-1.9c-.9-1-2.2-1.8-2.9-1.8h-1.2l-2.8-3-2.8-3h-2.4l-2.8-3-2.8-3h-3.2v-2h-3.1l-3.4-3.3c-5-4.7-6.3-5.7-7.6-5.7-.6 0-2.4-1.4-3.9-3l-2.8-3h-3.2v-2h-3.6l-1.4-2-1.4-2h-2.8l-3.8-4-3.8-4h-3.2v-2h-4v-2h-3.2l-2.8-3c-1.5-1.7-3.3-3-4-3h-1.2l-3.8-4-3.8-4h-3.2v-2h-3.6l-1.4-2-1.4-2h-3.6v-2h-3.6l-1.4-2-1.4-2h-3.2l-1.4-2-1.4-2h-2.8l-2.8-3-2.8-3h-2.8l-1.4-2-1.4-2h-3.2l-1.4-2-1.4-2h-3.2l-1.4-2-1.4-2h-2.8l-2.8-3-2.8-3h-2.4l-2.8-3-2.8-3h-3.2v-2h-3.2l-2.8-3-2.8-3h-4.4l-2.8-3-2.8-3h-2.4l-2.8-3c-1.5-1.6-3.3-3-4-3-.6 0-1.8-.6-2.5-1.4l-1.4-1.4.6-.6.6-.6h-4.1l-.6-1.5-.5-1.5h-2.9l-2.5-3-2.6-3h-2.7l-1.4-2-1.4-2h-3.2l-1.4-2-1.4-2h-2.8l-2.8-3-2.8-3h-2.8l-1.4-2-1.4-2h-3.6v-2h-3.2l-2.8-3-2.8-3h-3.2v-2h-3.6l-1.4-2-1.4-2h-3.2l-1.4-2-1.4-2h-2.8l-2.8-3-2.8-3h-3.2v-2h-3.6l-1.4-2-1.4-2h-2.8l-2.8-3-2.8-3h-2.8l-1.4-2-1.4-2h-3.2l-1.4-2-1.4-2h-2.8l-2.8-3-2.8-3h-3.2v-2h-3.6l-1.4-2-1.4-2h-2.8l-2.8-3-2.8-3h-3.2v-2h-3.6l-1.4-2-1.4-2h-2.8l-2.8-3-2.8-3h-3.2v-2h-3.2l-2.8-3-2.8-3h-3.2v-2h-1.5c-1.7 0-2.8-.8-8-5.8l-3.4-3.2h-2.7l-1.4-2-1.4-2h-2.8l-2.8-3-2.8-3h-3.2v-2h-3.2l-2.8-3-2.8-3h-3.2v-2h-3.2l-2.8-3-2.8-3h-2.8l-1.4-2-1.4-2h-2.8l-2.8-3-2.8-3h-2.8l-1.4-2-1.4-2h-3.2l-1.4-2c-.8-1.1-1.9-2-2.5-2-.6 0-1.7-.9-2.5-2l-1.4-2h-3.2l-1.4-2-1.4-2h-2.8l-2.8-3-2.8-3h-3.2v-2h-3.6l-1.4-2-1.4-2h-3.2l-1.4-2-1.4-2h-2.8l-2.8-3-2.8-3h-2.4l-2.8-3-2.8-3h-2.8l-1.4-2-1.4-2h-3.2l-1.4-2-1.4-2h-3.6v-2h-3.2l-2.8-3-2.8-3h-3.2v-2h-3.6l-1.4-2-1.4-2h-3.1l-3-3.5c-1.6-1.9-3.4-3.5-4-3.5-.6 0-1.7-.9-2.5-2l-1.4-2h-3.2l-1.4-2-1.4-2h-3.2l-1.4-2-1.4-2h-3.2l-1.4-2-1.4-2h-3.2l-1.4-2-1.4-2h-1.4c-1.8 0-4.2-2.5-4.2-4.4V491l-1.2-.1-1.3-.1 1.3-.5 1.2-.5V486h2v-4h2v-3.1l5-4.9 5-4.9V466h2v-3.2l3-2.8c1.7-1.5 3-3.3 3-4v-1.2l4-3.8 4-3.8v-2.8l2-1.4 2-1.4V438h1c1.1 0 11-10.1 11-11.3 0-1.4 2.8-3.7 4.4-3.7h1.6v-3.3l2.8-2.3c1.5-1.3 3-2.4 3.5-2.4h.7v-3.6l5-4.7 5-4.7v-2.5l9-8.8c5-4.8 9-9.3 9-9.9v-1l26.5-26.4c14.6-14.5 27-26.4 27.6-26.4.6 0 3.7-2.7 6.9-6s6.4-6 7-6h1.1l7.9-8 7.9-8h1.1c.7 0 2.9-1.8 5-4s4.4-4 5-4h1.1l5.9-6c3.2-3.3 6.4-6 7-6 1 0 2.1-.8 5.5-3.8.7-.6 1.8-1.2 2.2-1.2.5 0 2.2-1.4 3.8-3 1.6-1.7 3.4-3 4-3 .7 0 2.6-1.4 4.3-3 1.8-1.7 3.7-3 4.3-3 .6 0 2.4-1.4 3.9-3 1.5-1.7 3.3-3 3.9-3 .7 0 2.1-.9 3.3-2l2.2-2h3.7l-.6-1-.6-1h2.6l1.3-2 1.2-2h4v-2h1.3c.6 0 2.6-1.4 4.4-3 1.8-1.7 3.6-3 4.1-3 .5 0 1.7-.9 2.7-2 1-1.1 2.3-2 3-2 .7 0 2-.9 3-2l1.8-2h3l1.6-1.8c1.9-2 5.6-4.2 7.2-4.2.6 0 1.9-.8 2.8-1.8 2.1-2.2 5.7-4.2 7.6-4.2h1.5v-2h1.3c.7 0 2.3-.9 3.5-2 1.2-1.1 2.6-2 3.3-2 .6 0 2.4-1.4 3.9-3l2.8-3h3.2v-2h4v-2h4v-2h4v-2h4v-2h3.6l1.4-2 1.4-2h3.6v-2h4v-2h4v-2h4v-2h3.6l1.4-2 1.4-2h3.6v-2h4v-1.7l5-.7 5-.7v-.7c0-.8 4.8-3.2 6.5-3.2.5 0 1.6-.9 2.3-2l1.2-2h3.9l3.6-2 3.6-2h4.9v-2h4v-2h4v-2h4v-2h4v-2h6v-2h6v-2h3.6l1.4-2 1.4-1.9 1.5 1.2 1.4 1.2.4-1.3.5-1.2h3.8v-2h6v-2h4v-2h4v-2h6v-2h6v-2h4v-2h6v-2h4v-2h6v-2h8v-2h6v-2h8v-2h6v-2h8v-2h6v-1.8l6.5-.7 6.5-.7.6-.9.5-.9h9.9v-2h4.9l.6-1 .6-1h3.9v-2h12v-2h8v-2h6v-2h16v-2h10v-2h6l.1-1.3.1-1.2.5 1.2.5 1.3h2.8v-2h10v-2h12v-2h15v-2h20.6l1.1-1.1 1.1-1.1 7.1.4 7.1.3V83h19.9l.6-1 .6-1h54.9l-.6 14.2-.7 14.3-.9.3-.8.4V124h-2v5h2v3.6l2 1.4 2 1.4v3.6h2v11h-2v19h2v17h-2v33h2v5h-2v7h2v3h-2v5h2v7h-2v3h2v4.8l-1.5.6-1.5.5v7l1 .6 1 .6V278h-2v7.9l1 .6 1 .6v4.9h-2v3h2v51h-2v7l1.3.1 1.2.1-1.2.5-1.3.5v4.8l1.3.1 1.2.1-1.2.5-1.3.5v2.8h2v9h-2v9h2v17h-2v3h2.3l-.7 15.1-.7 15.2 1.7 1.8 1.7 1.9h1.4c.8 0 2.1-.6 2.9-1.4l1.4-1.5v-4.9l.9-.4.9-.3.7-7.3.7-7.2h-2.2v-8.6l1.3-1.3 1.2-1.3-1.2-.5-1.3-.5V369h2v-5l-1.2-.1-1.3-.1 1.3-.5 1.2-.5V356h-2v-3h2v-9l-1.2-.1-1.3-.1 1.3-.5 1.2-.5V340h-2v-5h2v-9h-2v-21h2v-3h-2v-19h2v-3h-2v-5h2v-1.5c0-.8-.3-1.5-.7-1.5h-.8l.4-68.2.3-68.3 1.9-1.6 1.9-1.6V129h2v-3h-2v-8h-2v-4h-2v-9.8c0-5.3.3-12.7.7-16.5l.6-6.7h5.7v-2h7v1zM955 503v1h3.6l1.4 2 1.4 2h2.8l2.8 3 2.8 3h3.2v2h3.2l2.8 3 2.8 3h2.8l1.4 2 1.4 2h3.6v2h2.7l2.3 2.5c1.3 1.4 2.7 2.5 3.2 2.5s2.3 1.3 4.1 3c1.8 1.6 3.8 3 4.4 3h1.3l1.2 2 1.3 2h2.7l3.9 4 4 4h2.9v2h3.6l1.4 2 1.4 2h3.2l1.4 2 1.4 2h3.2l1.4 2 1.4 2h3.2l1.4 2 1.4 2h3.2l1.4 2 1.4 2h2.8l2.8 3 2.8 3h3.2v2h3.6l1.4 2c.8 1.1 2 2 2.6 2h1.2l2.3 3 2.4 3h3.5v2h3.8l1.2 1.5c.7.9 3.2 2.5 5.4 3.5l4.1 1.9 2.4 2.6c1.3 1.4 2.8 2.5 3.5 2.5.6 0 1.8.9 2.6 2l1.4 2h2.9l2.9 3 2.8 3h2.6l1.4 2 1.4 2h3.2l1.4 2 1.4 2h3.2l1.4 2 1.4 2h2.8l2.8 3 2.8 3h2.8l1.4 2 1.4 2h3.2l1.4 2 1.4 2h3.4l.6 1.5.5 1.5h1.1c.6 0 2.5 1.3 4.3 3 1.8 1.6 3.7 3 4.3 3 .6 0 1.9.9 2.9 2s2.4 2 3 2h1.3l2.3 3 2.4 3h1.3c1.7 0 5.3 2.1 7.3 4.2l1.6 1.8h2.9l1.4 2 1.4 2h3.2l1.4 2 1.4 2h3.2l1.4 2 1.4 2h3.2l1.4 2 1.4 2h2.8l2.8 3 2.8 3h3.2v2h3.6l1.4 2 1.4 2h2.8l2.8 3 2.8 3h2.4l2.8 3 2.8 3h2.8l1.4 2 1.4 2h3.6v2h3.6l1.4 2 1.4 2h2.8l2.8 3 2.8 3h3.2v2h3.2l2.8 3 2.8 3h2.8l1.4 2 1.4 2h3.2l1.4 2 1.4 2h3.2l1.4 2 1.4 2h3.2l1.4 2 1.4 2h3.1l1.3 2 1.2 2h1.4c.8 0 1.6.4 1.8.9.2.4 2.2 2 4.6 3.5l4.2 2.6v2h4.2l.5 2 .5 2h3.8l1.2 2 1.3 2h3l2.8 3 2.9 3h2.8v1.8l5.4 2.6c3 1.5 5.9 3.3 6.6 4.1.7.8 1.8 1.5 2.4 1.5.6 0 1.8.9 2.6 2l1.4 2h3.1l2.8 3c1.6 1.6 3.4 3 4.1 3h1.2l1.4 2 1.4 2h3.6v.8c0 .5 1.2 1.5 2.8 2.3 1.5.8 3.4 2.2 4.3 3.1l1.6 1.8h2.9l1.4 2 1.4 2h3.2l1.4 2 1.4 2h2.8l2.8 3 2.8 3h2.8l1.4 2 1.4 2h3.2l1.4 2 1.4 2h2.8l2.8 3 2.8 3h3.2v2h3.2l2.8 3 2.8 3h2.8l1.4 2 1.4 2h2.8l2.8 3 2.8 3h3.2v2h3.2l2.8 3 2.8 3h3.2v2h3.6l1.4 2 1.4 2h3.3l1.2 2.4 1.3 2.4 2.7 1.3c1.4.8 3.5 2.2 4.5 3.1 1.1 1 2.4 1.8 2.9 1.8.6 0 2.2 1.3 3.7 2.9l2.8 2.8 2.6.7 2.6.6v3h4v5.6l-2 1.4-2 1.4v2.7l-5 4.9-5 4.9v2.6l-2.5 1.9c-1.4 1-2.5 2.3-2.5 2.8 0 .6-2.2 3.5-5 6.5l-5 5.5v3.9l2 2.1 2 2.2v9.6h-2v4.9l-1 .6-1 .6v4l-1-.6-1-.6v6l-1 .6-1 .6v5.9h-2v6.1l-1-.6-1-.6V988h-2v10h-2v29h-1.9l-.3 2.1-.3 2.1-32.7-.1-32.8-.2v2.3l-1.6-1.3-1.6-1.3-.9 1.5-.9 1.4v-2.5h-55v2h-4.8l-.4-1-.3-.9-16.9-.3-16.8-.4-.4 1.1-.4 1h-5.9l-1.2-1.2-1.3-1.3h-3.6v2h-5v-2h-11v2.3l-96.2-.6-96.3-.7-.3-1-.4-1h-2.8v2.3l-62.2-.5-62.2-.5-.4-1.1-.4-1.2H952v2.2l-1.5-1.2-1.5-1.2V1016h-2v-36h2v-4h-2v-38h2v-4h-2v-6h2v-4h-2v-8h2l-.7-8.9-.6-8.8 1.2-.7 1.1-.7V888h-2V749h-2v-3h3v-51l-1.2-.1-1.3-.1 1.3-.5 1.2-.5V691l-1.2-.1-1.3-.1 1.3-.5 1.2-.5V663l-1.2-.1-1.3-.1 1.3-.5 1.2-.5V639h-2v-7h2v-5h-2.3l.8-42.2.7-42.2 1.9-1.7 1.9-1.6v-3.9l-2-1.4-2-1.4V506h2v-4h5v1zm-16 26.4v4.6h2v3h-2v3h2v13h-2v3h2v3h-2v1.4c0 .8.4 1.6.8 1.8l.8.3-.9 146.4-.9 146.4 1.4.8 1.3.9H939v5l1.3.1 1.2.1-1.2.5-1.3.5v4.8h2v3h-2v5h2v6h-2v4h2v8h-2v4h2v11.8l-1.5.6-1.5.5v15.7l1.2 1.2 1.2 1.2-1.2 1.2-1.2 1.2V966h2v4h-2v55.1l-1.4 1.5c-.8.8-2.2 1.4-3 1.4H932v2.3l-74-.5-74-.5-1.5-1.3-1.5-1.2V985h2v-4h-2v-6h2v-28h2v-20h2v-15.8l1.5-.6 1.5-.5v-15l1-.6 1-.6V883h2v-14h2v-6h2v-12h2v-8h2v-10h2v-8h2v-8h2v-8h2v-8h2v-8h2v-8h2v-8h2v-6h2v-8h2v-6h2v-6h2v-5.8l1.5-.6 1.5-.5v-5l1-.6 1-.6V732h2v-4h2v-9h2v-4.1l2-2.1 2-2.2V706h2v-8h2v-4h2v-4.9l2-3.6c1.1-2 2-4.2 2-5 0-.8.9-3 2-5l2-3.6V668h2v-4h2v-4h2v-4h2v-2.3c0-2.6 2.1-7.7 3.3-7.7h.7v-6h2v-4h2v-4h2v-4h2v-4h2v-5.6l2-1.4 2-1.4V610h2v-4h2v-3.6l2-1.4 2-1.4V596h2v-4h2v-4h2v-4h2v-2.7l2.5-1.9 2.5-1.9v-3.1l2-1.4 2-1.4v-1.2c0-1.5 4.2-9.8 5.3-10.2.4-.2.7-1.1.7-1.9v-1.6l3-2.9 3-2.8v-3h2v-4l2-1.2 2-1.3V538h2v-3.6l2-1.4 2-1.4v-2.7l3.3-3.2 3.2-3.3 1.3 1.2 1.2 1.3v4.5zM1532 900l1.4 2h3.2l1.4 2 1.4 2h3.6v2h3.6l1.4 2 1.4 2h3.1l2 3 2 3h3.1l1.4 2 1.4 2h3.4l1.2 1.5c.7.9 3.2 2.4 5.4 3.5l4.1 1.8 2.4 2.6 2.4 2.6h2.7v2h3.1l2.1 2 2.2 2h3.9l3.9 4 4 4h2.4l1.4 2 1.4 2h3.2l1.4 2 1.4 2h2.8l2.8 3 2.8 3h2.8l1.4 2 1.4 2h2.8l2.8 3 2.8 3h2.4l2.8 3c1.5 1.6 3.3 3 3.9 3 .7 0 2.3 1 3.6 2.2 4 3.8 5.5 4.9 5.5 4.2 0-.4.8.3 1.9 1.4 1 1.2 2.4 2.2 3 2.2h1.2l.5 1.5.6 1.5h3.7l2.1 2.2 2 2.2.6-.7.7-.6 1.9 2.4 1.9 2.5h2.7l2.3 3 2.4 3h3.5v.8c0 .5 1.2 1.5 2.8 2.3 1.5.8 3.4 2.2 4.3 3.1l1.6 1.8h2.9l1.4 2 1.4 2h2.7l5.9 6 5.9 6h1.5c2 0 2 .7.2 2.6l-1.5 1.4H1693v-2h-7v1.9l-77.6-.6-77.6-.6-.9 1.4-.9 1.4v-2.5h-45.1l-.5-1.5-.6-1.5-.9.6-.9.5V1009h2v-12h2v-18.1l1 .6 1 .6v-4l1-.6 1-.6v-8l1 .6 1 .6V960h2v-7h2v-4.9l1-.6 1-.6v-3.7l1.8-.8c.9-.4 3-.7 4.6-.6l2.9.1 1.3-1.4c.8-.7 1.4-1.7 1.4-2.2 0-1.5 2.5-6.3 3.3-6.3h.7v-12h2v-4h2v-3.8l1.5-.6 1.5-.5v-1.8c0-1 1-3.9 2.3-6.5l2.2-4.8h6.1l1.4 2z"/><path d="M1767 489v1h-1.6c-.8 0-2.2.6-3 1.4l-1.4 1.5v7.1h-2v8h-2v4h-4v2h-16.1l-1.5-1.4c-.8-.8-1.4-1.9-1.4-2.5V509h2v-8h2v-9h-6.1l-1.5 1.4c-.8.8-1.4 2.2-1.4 3v1.6h-2v6h-2v6h-2v6h-2v4h-2v4h-2v4h-2v4h-2v8h-2v8.1l1.4 1.5 1.5 1.4h3.4l1.3-1.8c.7-.9 1.4-2.4 1.4-3.3 0-2 2.3-6.9 3.3-6.9.4 0 .7-.7.7-1.5 0-2 1.9-5.3 4.7-8.2l2.2-2.3h7.1v-2h13v3h-2v6h-2v4h-2v11h8.1l1.5-1.4 1.4-1.5V541h2v-4h2v-6h2v-4h2v-6h2v-6h2v-6h2v-4h2v-4h2v-8.1l-2.5-2.4c-2.5-2.6-4.5-3.2-4.5-1.5zm-340.5 454c-1.6 1-3.5 1.9-4.2 1.9-.6.1-2.7 1.7-4.7 3.6l-3.6 3.5v3h-2v4h-2v14h2v5.1l3.5 3.4 3.4 3.5h12.1v-2h4v-2h7v2h4v2h5v-2h6v-8h-10v-1c0-.6.5-1 1-1h1v-4h2v-3.2l3-2.8 3-2.8V953h2.1l-.3-4.8-.3-4.7h-6l-.3 3.5-.3 3.5-1 .9c-.5.6-.9 2-.9 3.2v2.2l-1.5 1.2-1.5 1.2V949h-2v-1.6c0-2-2.4-4.4-4.4-4.4h-1.6v-2l-4.7.1h-4.8l-3 1.9zm10.1 7.4 1.4 1.5V973h-3.6l-1.4 2-1.4 2h-7.7l-1.5-1.4c-.8-.8-1.4-2.2-1.4-3V971h-2v-8h2v-5.6l2-1.4 2-1.4v-1.4c0-.7.6-1.9 1.3-2.7l1.2-1.4 3.8-.1h3.8l1.5 1.4zM14 261v1H8.7l-1.8 2.2-1.9 2.1.3 30.5.2 30.5 1.3.5 1.2.4v2.8h37v-2h3.1l3.4-3.5 3.5-3.4V319h2v-17h-2v-4h-2v-9h2v-13h-2v-3.6l-2-1.4-2-1.4v-1.4c0-.7-.6-2-1.4-2.8l-1.5-1.4H41v-2h-8v-2h-3v2H19v-2h-5v1zm23.8 11.6 3.2 1.5 1.7 3.6 1.7 3.7-1.2.4-1.2.4v2.9l-2.5 2.4-2.4 2.5H19.9l-1.5-1.4-1.4-1.5V273h6v-2h11.7l3.1 1.6zM36 302v1h5.4l2.3 2.2 2.3 2.1v6.7h-2v1.6c0 .8-.6 2.2-1.4 3l-1.5 1.4H36v2H19.9l-1.5-1.4-1.4-1.5v-15.7l1.2-1.2 1.2-1.2H36v1zm33.3-40.5-1.3 1.4v8.9l-1.2.5-1.3.4 1.3 1.4 1.2 1.3v4.4l-1.2.5-1.3.4 1.3 1.4 1.2 1.3v44.7l1.4 1.5 1.5 1.4H80v2h3v-2h11v2h5v-2h5v2h3v-2h10v-8.1l-1.4-1.5c-.8-.8-1.9-1.4-2.5-1.4H112v2H93v-2H79v-57.1l-1.4-1.5-1.5-1.4h-2.8l-2.8.1-1.2 1.4zm78 0-1.3 1.4v5.1h-2v8h-2v4h-2v8h-2v6h-2v4h-2v8h-2v4h-2v4h-2v8h-2v3h2v1.6c0 .8.6 2.2 1.4 3l1.5 1.4h3.2l2.4-2.5 2.5-2.4v-6.2l1.4-1.5 1.5-1.4h9.1v-2h7v2h10v4h2v3.9l1 .6c.6.3 1 1.3 1 2.2v1.6l1.8 1.3 1.7 1.3 2.2.1h2.2l1.5-3.2 1.6-3.1V321h-2v-4h-2v-8h-2v-6h-2v-6h-2v-6h-2v-7h-2v-6h-2v-6h-2v-4h-2v-3.1l-2.5-2.4-2.4-2.5h-4.8l-4.8.1-1.2 1.4zm9.3 20.9 1.4 1.5v5.1h2v6h2v8.1l-1.4 1.5-1.5 1.4h-11.2l-1.5-1.4-1.4-1.5V299h2v-6h2v-6h2v-1.5c0-1.7 2-4.4 3.3-4.5.5 0 1.5.6 2.3 1.4zm93.7-18.9-2.3 2.4v5.2l1.4 1.5 1.5 1.4h16.7l2.2 2.5 2.2 2.5v24h-2v2.8l1.3.5 1.2.5-1.2.1-1.3.1v5h2v7h-2v7h2v1.6c0 .8.6 2.2 1.4 3l1.5 1.4h5.2l1.5-1.4 1.4-1.5V284h2v-5h-2v-1.1c0-1.6 2.6-3.9 4.4-3.9h1.6v-2h4.9l.6 1 .6 1h7l2.4-2.5c1.4-1.3 2.5-2.7 2.5-3 0-.3-1.1-1.7-2.5-3l-2.4-2.5H257v-2l-2.2.1h-2.3l-2.2 2.4zm-42.3.5v1h-5.1l-3.4 3.5-3.5 3.4v3.1h-2v9.9l1 .6 1 .6v3.9h2v3l2.5 1 2.6 1 .5 1.5.6 1.5h3.8v2h6v2h9l2.2 1.2c4 2.3 6.8 6.3 6.8 9.8v2h-2v3.1l-2.5 2.4-2.4 2.5h-15.2l-2.4-2.5-2.5-2.4v-4.2l-1.4-1.5-1.5-1.4h-5.2l-1.5 1.4-1.4 1.5v6.1h2v2.5l5.4 5.8 5.4 5.7H227v-2h4v-2h3.1l3.4-3.5 3.5-3.4V320h2v-15h-2v-3.1l-3.5-3.4-3.4-3.5H231v-2h-6v-2h-8v-2h-5.1l-2.4-2.5-2.5-2.4v-7.2l1.4-1.5 1.5-1.4h8.9l.4-1.2.4-1.2 3.5 1.6c3.4 1.7 6.9 5 6.9 6.7 0 .4.8 1.5 1.8 2.4l1.9 1.7h4.4l2.4-2.5c3-2.9 3.1-3.6.5-5.5l-2-1.4v-2.7l-2.5-2.4-2.4-2.5H231v-2h-4v-2h-19v1zM54.3 376.5c-2.4 2.6-3 4.5-1.3 4.5h1v5h-2v6h-2v6h-2v6h-2v5.1l-1.2 1.3-1.2 1.3-1.3-1.3-1.3-1.3V400h-2v-4h-2v-10h-2v-6h-2v-4H22v5.9l1 .6 1 .6v7.9h2v6h2v4.9l1 .6 1 .6v7.9h2.1l-.6 4.4-.7 4.4 1.1.6 1.1.7v6.8l1 .6 1 .6v6.5l.9 1c.5.5 1.1 2 1.3 3.4l.3 2.5 2.5.3c1.4.2 3 .8 3.7 1.4l1.2 1 2.6-2.6 2.5-2.5V435h2v-2.8l-1.2-.5-1.3-.5 1.3-.1 1.2-.1v-6h2v-8h2l.6-4 .7-4H60v4h2l-.6 2.4-.6 2.4 1.1.6 1.1.7v1.9c0 1.1.9 3.5 2 5.5l2 3.6v5.8l1 .6 1 .6v5.2l1.8 1.3c.9.7 2.3 1.4 3 1.4h1.3l2.4-2.5 2.5-2.4V431h2v-8h2v-9.1l1.5-.5 1.5-.6v-5.7l1-.6 1-.6v-6.8l1-.6 1-.6v-10.8l1-.6 1-.6V381h1c1.7 0 1.1-2-1.5-4.5l-2.4-2.5H84v4h-2v10h-2v8h-2v6h-2v8h-1.1c-.6 0-1.7-.6-2.5-1.4l-1.4-1.5V400h-2v-8h-2v-10h-2v-1.6c0-2-2.4-4.4-4.4-4.4H59v-2l-1.2.1c-.7 0-2.3 1.1-3.5 2.4zm66 0-2.3 2.4v5.1h-2v4h-2v6h-2v8h-2v6h-2v5.8l-1.5.6-1.5.5v4.7l-2 1.4-2 1.4v7.6h-2v6h-2v1.7c0 1 .7 2.6 1.4 3.5l1.3 1.8h7.4l1.5-1.4 1.4-1.5v-4.2l2.5-2.4 2.4-2.5h3.1v-2h8.9l.6 1 .6 1h8l1.2 1.2c.7.7 2.3 3.4 3.6 6l2.4 4.8h7.8l1.5-1.4 1.4-1.5V434h-2v-4h-2v-8h-2v-6h-2.2l.5-1.5.6-1.4-.9-.6-1-.6V406h-2v-8h-2v-6h-2v-6h-2v-5.1l-3.5-3.4-3.4-3.5-3.8.1h-3.8l-2.2 2.4zm9.7 23.9v2.6h2v6h2v2.2c0 1.3-.3 3.3-.6 4.5l-.6 2.3H118v-1.8c0-.9.7-3 1.5-4.6.8-1.5 1.5-3.4 1.5-4 0-1.1 3.3-8.3 5.3-11.4l.8-1.2 1.5 1.4 1.4 1.5v2.5zm33.3-24.9-1.3 1.4v6.1h2v4h2v6h2v8h2v5.9l1 .6 1 .6v3.9h2.2l-.6 2.5-.6 2.5h2v1.5c0 2.4 2.4 9.5 3.2 9.5h.8v4.9l1 .6 1 .6v4.9l3.6 3.5 3.6 3.5h3.1l2.3-2.8c1.3-1.5 2.4-3.3 2.4-4V438h2v-6h2v-4h2v-6h2v-5.1l1.3-1.4c.6-.8 1.8-2.1 2.5-2.9l1.2-1.5v-6l2-3.6c1.1-2 2-4.2 2-5.1v-1.5l2-2.1 2-2.2v-6.5l1-.6c.6-.3 1-1.3 1-2.1v-1.5l-2.5-2.4-2.4-2.5h-5.2l-1.5 1.4-1.4 1.5v7.1h-2v6h-2v4h-2v6h-2v6h-2v4h-2v3.8l-2.8 3-2.7 2.9-1.3-1.3c-.6-.7-1.2-2-1.2-2.9V415h-1.8l.5-2 .5-2H183v-6h-2v-6h-2v-6h-2v-6h-2v-4h-2v-4h-.8c-.5 0-1.5-1.1-2.2-2.5l-1.3-2.5h-2.1l-2.1.1-1.2 1.4zm69.1 1.9-2.1 2.2-.7 28.6-.7 28.6 1.1.7 1 .6v5.9h3.9l.6 1 .6 1H270v-2h7.1l1.5-1.4 1.4-1.5v-3.2l-1.4-1.5-1.5-1.4H270v-2h-3v2h-5v-2h-5v2h-3v-2h-3v2h-6.1l-1.5-1.4-1.4-1.5V427h-2.5l1.2-.8 1.2-.7.3-5.5.3-5.5 11.9-.3 11.8-.3 1.4-1.4 1.4-1.4v-5.2l-1.4-1.5-1.5-1.4H253v-2h-2.8l-.5 1.2-.5 1.3-.1-1.3-.1-1.2h-5.1l-1.5-1.4-1.4-1.5v-9.7l1.2-1.2 1.2-1.2h28.4l.5 1.2.5 1.3 1.3-1.3 1.3-1.2h3.6v-8.1l-1.4-1.5-1.5-1.4-20.8.1h-20.8l-2.1 2.3zM893 454v1h-1.6c-.8 0-2.2.6-3 1.4l-1.4 1.5v3.4l1.8 1.3 1.7 1.3 2.8.1h2.8l1.4 1.3 1.3 1.4-1.9 1.4-1.9 1.3v2.6l-5.5 5.5c-3 3-5.9 5.5-6.5 5.5-1.7 0-4 2.6-4 4.4v1.6h-4v6.1l2.5 2.4 2.4 2.5h4.1v-2h23.1l1.5-1.4 1.4-1.5v-5.2l-1.4-1.5-1.5-1.4H894l6.5-6.5c3.5-3.6 7-6.5 7.6-6.5.6 0 2.8-1.8 4.9-4 2.1-2.2 4.3-4 5-4 .6 0 2.2-1.1 3.5-2.5l2.5-2.4v-3.2l-2.5-2.4-2.4-2.5H893v1zm-746 33v1h-6v2h-4v3.2l-3 2.8-3 2.8v3.2h-2v6h-2v4h-2v3h2v3h-2v11h2v8h2v4h2v4h2v6h3.2l2.8 3 2.8 3h3.2v2h4v2h11.9l.6-1 .6-1h3.9v-1.8l2.3-.7c1.2-.4 2.8-.6 3.5-.5l1.4.1 2.4-2.8c1.3-1.5 2.4-3.4 2.4-4.1V548h2v-3.9l1-.6 1-.6V536h2v-9.6l1.3-1.3 1.2-1.4-1.3-.4-1.3-.5 1.3-1.6 1.3-1.5-1.2-.4-1.3-.5V511h-2v-4h-2v-4h-2v-3.2l-4-3.6c-6.1-5.7-6.8-6.2-8.5-6.2H164v-2h-8v-2h-9v1zm19.5 16.5 4.5 4.4v8.1h2v15h-2v6.1l-1-.6-1-.6v4.1h-2v3.1l-2.5 2.4-2.4 2.5H157v2h-3v-2h-4v-2h-3.1l-2.4-2.5-2.5-2.4V536h-2v-8h-2v-15h2v-6h2v-3.1l2.3-2.4 2.2-2.4h7.8l7.8-.1 4.4 4.5zm69.8-15-1.3 1.4v8.1h2v5h-2v3h2v7h-2v16h-3v-4h-2v-4h-2v-4h-2v-3.6l-2-1.4-2-1.4V507h-2v-3.6l-2-1.4-2-1.4V497h-2v-3.1l-2.5-2.4-2.4-2.5h-9.2l-2.4 2.5-2.5 2.4v4.7l1.2 1.2 1.2 1.2H195v9.9l1 .6 1 .6v6.9h-2v3h2v3h-2v7h2v13h-2v5h2v5.1l1.4 1.5 1.5 1.4h7l1.5-3.2 1.6-3.1V541h-2v-27h1.1c1.5 0 3.9 2.6 3.9 4.2v1.4l2 1.4 2 1.4v3.6h2v4h2v4h2v4h2v4h2v4h2v4h2v3.1l2.5 2.4 2.4 2.5h4.3l4.3-.1 1.8-1.3 1.7-1.3v-5.2l1-.6 1-.6V529h-2v-3h2v-3h-2v-31.1l-2.5-2.4-2.4-2.5h-2.8l-2.8.1-1.2 1.4zm28.7-.5v1h-8v9h4v2h7v-2h3v2h1.6c.8 0 2.2.6 3 1.4l1.4 1.5V516h2v5h-2v5h2v5h-2v2.8l1.3.5 1.2.5-1.2.1-1.3.1v5h2v3h-2v10.1l2.5 2.4 2.4 2.5h5.4l1.3-1.8 1.3-1.7.1-2.2v-2.2l1-.6 1-.6V543h-2v-13h2v-5h-2v-20.1l1.4-1.5 1.5-1.4h6.9l.5-1.3.5-1.2.1 1.2.1 1.3h3v-2h6v-4h2v-4.1l-1.4-1.5c-.8-.8-2.2-1.4-3-1.4H306v-2h-13v2h-5v-2h-5v2h-13v-2h-5v1zM7.3 492.5 5 494.9v22.7l1.2 1.3 1.3 1.4-1.2-.7-1.3-.7v35l1 .6 1 .6v3.9h7.7l1.6-1.8 1.7-1.9V529h10.6l1.2-1.2 1.2-1.2v2.4h10.1l2.4-2.8c2.8-3.1 3.1-4.8 1.1-6.8l-1.5-1.4H32v-2h-5v2h-5v-2h-3.1l-1.5-1.5-1.5-1.5H18v-3h-2v-6.6l1.2-1.2 1.2-1.2h32.7l2.4-2.5c3.1-3 3.1-3 0-6l-2.4-2.5-20.8.1H9.5l-2.2 2.4zm60 0-2.3 2.4v61.2l2.5 2.4 2.4 2.5h4.8l1.6-1.8 1.7-1.9V546h-2v-6.9l1-.6 1-.6V534h-2.1l1.5-1.5 1.5-1.5h13.2l1.5 1.4c.8.8 1.4 2.2 1.4 3v1.6h2v4h2v6h2v3.6l2 1.4 2 1.4v1.4c0 .7.6 2 1.4 2.8l1.5 1.4h8.1v-9h-2v-4h-2v-4h-2v-6h-2v-8.2l3-2.8 3-2.8V519h2v-4h2v-10.6l-2-1.4-2-1.4v-1.4c0-1.7-2.5-4.2-4.2-4.2h-1.4l-1.4-2-1.4-2H100v-2l-15.2.1H69.5l-2.2 2.4zm34.2 12 3.5 3.4v5.2l-3.5 3.4-3.4 3.5H82v-2h-1.6c-.8 0-2.2-.6-3-1.4l-1.4-1.5v-11.2l1.3-1.4 1.2-1.4 9.8-.1h9.8l3.4 3.5zM887 1123l-2.5 2.9-1.7.1H881v4h-4v1.6c0 2-2.4 4.4-4.4 4.4H871v4h-4v2.1l-3.5-3.5-3.5-3.5v-4.2l-3.5-3.4-3.4-3.5h-5.2l-1.5 1.4-1.4 1.5v4l1 .6 1 .6v4.8l1 .6 1 .6v5.7l1 .4 1 .3.1 5.2.2 5.3-3.2 2.9c-1.7 1.6-3.1 3.4-3.1 4.1v1.2l-4 3.8c-2.2 2.1-4 4.3-4 4.9 0 .6-2.4 3.6-5.4 6.5l-5.4 5.5-.6-.6-.6-.6v3.4l-1-.6-1-.6v4.1h2v4l.8.1c.4.1 2.4.3 4.5.4l3.7.4v-2.8l2-.6 2-.6v-2.4l3-2 3-2 1.3-2.8 1.2-2.7h2.3l3.8-4c2.1-2.2 4.2-4 4.7-4 1.8 0 5.7 5.8 5.7 8.5v1.5h2v6h2v4h3.8l3.7-.1 1.8-1.3 1.7-1.3v-5.3h-2v-4h-2v-6h-2v-10h-2v-5.6l4-3.5 4-3.4v-2.5l5.5-5.5 5.5-5.5h3v-4h4v-6h2v-4h-4v-2h-2.2l-2.3.1-2.5 2.9z"/></svg>