<svg version="1.0" xmlns="http://www.w3.org/2000/svg" viewBox="0 0 1086 1539"><path d="M159.5 12.2c-2.6 1.4-4.5 3.8-4.5 5.7v1.6l4 1.9 4 1.9.5-.5c.7-.7.9-4 .7-8.6L164 11h-1.2c-.7 0-2.2.6-3.3 1.2zm-20.2 5.3-1.9 1.4-1.3 4.1-1.2 4.1 2.1 4.4 2.1 4.4 2.1.6 2 .7 3.3-.6 3.3-.7 1.6-3.3c.9-1.9 1.6-4.4 1.6-5.6 0-2.5-2.3-7.2-4.4-9l-1.6-1.3-2.8-.3-2.9-.3-2 1.4zm7.5 4.7 1.2 1.2v7.3l-2.5 1.1-2.4 1.1-1.6-2.2-1.5-2.1v-5.2l1.2-1.2c.7-.7 1.9-1.2 2.8-1.2.9 0 2.1.5 2.8 1.2zm-70-4c-.9.7-1.9 2.3-2.3 3.6l-.6 2.2 1.6.6 1.6.7 1.5-2.2 1.5-2.1H84v2.7l-4.1 2.9-4.1 2.8-1 2.5-.9 2.6 2 1.6 2 1.7 4.8-.5c2.6-.3 5.2-.9 5.7-1.3l.8-.8-.6-1-.6-1-4-.7-4-.7 4.5-3.4 4.5-3.5v-1.3c0-.7-.9-2.5-2.1-4l-2-2.6h-6.5l-1.6 1.2zm38.2-.4c0 .5-1.4 1.9-3.1 3.1l-3.1 2.3-2.2-2.1-2.2-2.1H100v.8c0 .5 1.1 2.2 2.4 3.7l2.5 2.9-.6 1c-.4.6-1.5 1.7-2.5 2.4l-1.8 1.3V35h3.4l2.6-2.5 2.7-2.6 2.5 2.1 2.6 2h4.2v-1.2c0-.7-1.2-2.5-2.7-4l-2.7-2.8 2.8-2.9 2.9-3-.6-1.5c-.7-1.7-2.7-2.2-2.7-.8zm14.4.5c-.3.8-.4 5.2-.2 9.8l.3 8.4h3l.3-9.8.3-9.7h-3.2l-.5 1.3zm409.5 1.2c-.4.4-208.4 1.9-215.1 1.6-1-.1-2.8-.1-4 0-1.3 0-32.9-.1-70.3-.2l-68-.2-1.2 1.4-1.1 1.4-.3 62c-.2 34.1-.4 62.3-.6 62.7-.5 1.1-1.5 242.6-1.9 481.3-.2 116.6-.4 214.9-.5 218.5-.1 3.6-.1 34.6-.1 69v146.5c0 28.6-.1 120.5-.2 204.2 0 83.7.1 152.3.4 152.6 1.1 1 206.7 1.9 525.5 2.4 184.8.3 338.7.4 342 .3l6-.1.8-.8.8-.8-.3-12.7c-.2-6.9-.1-12.6.2-12.6.3 0 .5-93.5.5-207.8.1-114.2.5-269.1 1-344.2.4-75.1.9-233.9 1-353 .1-119.1.5-273.5 1-343.1l.7-126.7-2.2-.7-2.2-.7H935.7c-63.4.1-169.6.1-236.2.1-66.5.1-129.8-.1-140.6-.4-10.7-.3-19.8-.3-20 0zm28.5 8.3c1.6.1 3.1.4 3.4.6.2.2.4 4 .5 8.3l.2 7.8h4l.3-8.2.3-8.3 2.2-.6c1.3-.3 4.8-.4 7.8-.2l5.4.3.3 5.5c.1 3 .4 6.5.7 7.7l.5 2.3h3V29.5l.8-1 .7-1.1 6.4-.3 6.4-.2.8 1.3.9 1.3V117h-22.2c-12.3 0-26.7-.3-32-.7l-9.8-.6V71.4l.1-44.3 7.2-.3 7.2-.3 1 .6c.6.3 2.3.6 3.9.7zm121.3-1.2 2.2.6.3 7.7.3 7.6h4l.5-8 .5-8 24 .4c13.2.1 24.3.5 24.7.7l.7.5.1 43.9v43.9l-1.7.4c-1 .3-29.8.5-64 .5H618l-.5-.8c-.3-.5-.8-19.5-1.2-42.3l-.6-41.5.7-2.6.6-2.6 29.3-.3c16-.1 31.7-.3 34.7-.5 3-.1 6.5.1 7.7.4zm-437.9 8.8.3 7.7 2.2-.3 2.2-.3.3-7.2.3-7.3 2.6-.6 2.6-.7 22.4.6c12.4.4 22.8.9 23.1 1.1l.7.4.3 44.5.3 44.5-1.3.4c-.7.2-28.4.2-61.4 0l-60.2-.4.2-23.2.1-23.1h20v-4l-10.3-.3-10.4-.3.6-19.2c.2-10.6.5-19.3.5-19.4.1-.3 39.5-.8 53.6-.7l11 .1.3 7.7zM385 34.2c.3 3.6.8 7 1.2 7.3l.7.7 1.5-.5 1.5-.6.3-6.8.3-6.8 23.8.1c13.1.1 24 .4 24.2.6.3.3.8 75.8.6 86.3l-.1 3-63.5.3-63.5.2V96.3c0-12-.1-32.2-.3-44.8l-.2-23 21-.5c11.6-.3 28-.5 36.5-.5h15.5l.5 6.7zm130 .9V42h3.9l.3-7.3.3-7.2 11.6-.3 11.6-.2.6 24.7c.4 13.7.7 33.5.7 44.1V115l-2.3.9-2.4.9-27.4.2c-15.1 0-36.5.3-47.6.6l-20.2.5-.3-15.8c-.2-8.7-.3-28.9-.3-44.8v-29l18.7-.3 18.7-.2-.2 7.2-.2 7.3 2.3.3 2.2.3v-15l14.3-.3c7.8-.2 14.5-.2 15 0l.7.3v7zm310.2.1.3 8.3h3.9v-8l.1-8h50l.6 6.5.6 6.5-.1 37.3-.1 37.3-1.4.9-1.5.8-63-.4c-34.6-.3-63.1-.6-63.3-.7-.1-.2-.5-17.4-.8-38.3l-.5-37.9.6-6.3.7-6.2h73.6l.3 8.2zm97-.5.3 7.8h4l.3-7.8.3-7.8 13.7.3 13.7.3.3 7.7.3 7.8h3.9v-6.4c0-3.5.3-7.1.6-8l.6-1.6h8.2c4.4 0 9.8.3 11.9.6l3.7.7-.2 44-.3 44-39-.2c-21.4 0-43.6-.1-49.2-.1H885V28.3l.7-.6.6-.7h35.6l.3 7.7zm85.6.6.3 7.8 2.2-.3 2.2-.3.3-7.3.3-7.2 1.7-.1c.9 0 2.8-.2 4.2-.4 1.4-.2 3.7-.1 5.3.1l2.7.6v17l-4.2 8.1c-2.3 4.5-6 11.6-8.3 15.7-4.7 8.4-15.4 28.8-21 39.7l-3.7 7.3H988V72.2c0-24.1.2-44.1.4-44.3.3-.2 4.7-.4 9.8-.4h9.3l.3 7.8zm27.2-6.1c-.1.7-.7 2.4-1.5 3.8l-1.4 2.5-.1-1.5c0-.8.3-2.5.6-3.8l.6-2.2h1.8v1.2zm11.4-.4c.3.5.6 8.8.8 18.4l.3 17.7-.6.5c-.3.4-2.8.7-5.5.7-2.7.1-6.1.3-7.6.6l-2.8.5V70h16l.1.7c0 .5.2 10.6.3 22.6l.3 21.7-1.1.8-1.1.9-24.3.2-24.3.2.7-2.8c.4-1.5 1-3 1.4-3.3.4-.3 3.5-5.9 7-12.5 9.3-17.9 15.2-28.9 16-30 1-1.4 7.3-13 14.3-26.5 7.3-14.1 8.5-15.7 10.1-13.2zm-67 92c.6.3 1.8.7 2.6.7h1.5l.3 1.8.4 1.8-3 6.2c-1.6 3.4-3.5 6.9-4.3 7.7-.8.8-2.1 3.1-2.9 5-.8 1.9-2.9 5.6-4.8 8.2l-3.4 4.8h1.7l-1 .8c-.5.4-1.8 2.3-2.8 4.3l-1.9 3.6-30.1.6c-16.6.3-34 .4-38.7.3l-8.5-.1.4-22c.2-12.1.6-22.2.8-22.5.3-.3 17-.7 37.1-1 20.2-.3 40.9-.6 46.1-.7l9.4-.2 1.1.7zM745 122.5l1.1.7-.5 19.2-.5 19.2-1.1 2.8-1 2.8-36.8-.3c-20.2-.2-48.4-.2-62.6 0l-25.9.2-.9-.9-.8-.8.6-21.7.7-21.6 10.6-.3c5.8-.2 34.3-.2 63.3-.1l52.7.1 1.1.7zm114.5-.6 20.9.6v39l-.7 2.6-.7 2.6-64.5-.1-64.6-.1.6-21.5c.4-11.8.8-22.1 1-22.8l.4-1.2 43.3.1c23.8.1 52.7.5 64.3.8zm185 0 3 .6.3 3.2.3 3.2-1.1 2.1-1.1 2h-12l.3 1.7.3 1.8 6.5.5 6.5.5v12l-6.5.3-6.4.3-1.3 1.1c-.7.6-1.3 1.4-1.3 1.9v.9h15.1l-.3 6.2-.3 6.3h-59l.2-16 .3-16 1.1-4.3c.7-2.3 1.5-4.2 1.9-4.2.4 0 1.2-1.1 1.8-2.5l1.2-2.5 23.7.1 23.8.1 3 .7zm-748.1 1.5 11.1.1-.3 21-.2 20.9-.8.8-.8.8-59.7.3-59.8.4-.4-.7c-.3-.4-.6-2.9-.9-5.6l-.4-4.9 1-1.3 1-1.2H204v-3l-1.7-.1c-1-.1-3.4-.2-5.3-.3-1.9-.1-5.4-.3-7.7-.4l-4.3-.2.1-3.3c0-1.7.4-4.1.8-5.2l.8-2 7.7-.1 7.7-.1 1.2-1.2 1.1-1.1-1.1-1.1-1.1-1.1h-16l-.6-4.5-.6-4.6 1.1-1.3 1.1-1.4 46.7-.2c25.6-.2 47.7-.1 49 .1 1.3.2 7.4.4 13.5.5zm142.3-.1.8.9-.1 13.1c0 7.3-.2 16.7-.4 21l-.4 7.7-1.1 1-1.2 1-9.4-.5c-5.2-.3-33.1-.5-62.1-.5l-52.8.1v-1.3c0-.7-.2-4.8-.3-9.1-.1-4.3-.1-8 .2-8.2.2-.2.4-6 .5-12.7l.1-12.3 24.5-.5c13.5-.3 41.7-.5 62.7-.5h38.1l.9.8zm104.9 20.4c-.3 11.9-.8 21.8-.9 21.9-.7.7-28.6 1.3-61.8 1.5l-36.2.1-.7-1.2-.8-1.3.2-9.6c.2-5.3.3-14.6.4-20.8l.2-11.2 4.8-.4c2.6-.2 25.1-.4 50.1-.5l45.4-.2-.7 21.7zm68.5-12.9c.1 8.6 0 14.8-.6 26.7-.2 3.3-.4 6.8-.4 7.9l-.1 1.9-31-.5-31-.4-.6-.7-.7-.7v-7.7c.1-22 .3-28.6.8-31.6l.6-3.3 31.5-.2 31.4-.2.1 8.8zm371.5 19.4c-.3 5.1-.5 11-.6 13.1v3.9l-6.6-.6c-3.7-.3-6.8-.7-7.1-.9-.4-.5 4.5-10 8.2-15.7 1.2-1.9 2.9-4.7 3.9-6.3.9-1.5 1.9-2.7 2.2-2.7h.6l-.6 9.2zM723 171.3l21.5.2.3 37.7.2 37.8-3.7.1c-12.9.2-123.5 0-123.8-.3-.3-.3-.8-70.5-.6-74.5l.1-1.3 37.8-.3c20.7-.2 39.7-.2 42.2 0s14.2.5 26 .6zm258.3.4 1.7.4V247l-1.7.2c-1 0-2.5 0-3.3-.1-.8-.1-12.6-.1-26.2-.1-13.7 0-24.8-.2-24.8-.4 0-.6 14.3-28.4 18-35.1 1.5-2.8 6.8-12.9 11.8-22.5l9-17.5 4.4-.6c4.1-.5 7.1-.3 11.1.8zm-675.4.8 1 1 .1 36c.1 19.8.1 36.7.1 37.5l-.1 1.5-61 .1-61 .2v-28.7l8.8-.3 8.7-.3.3-2.3.3-2.2H185v-21.2l8.8.4 8.7.3.3-2.3.3-2.2H185l-.1-4.8c-.1-6.2.2-12.5.7-13.3l.4-.7 59.4.2 59.5.1 1 1zm132.4-.5c.5.5 1 40.4.8 64.6l-.1 11-42.7.3c-23.6.1-52 .3-63.3.4l-20.5.2-.3-37.5c-.1-20.6 0-38.1.3-38.8l.5-1.3 62.4.3c34.3.2 62.7.5 62.9.8zm104.1-.1.6.9.1 36.6V246l-.6 1-.6 1H444l-.2-31.3c-.1-17.1-.1-34.1-.1-37.7v-6.5l36.9-.5c20.3-.3 42.4-.6 49.1-.8l12.2-.2.5.9zm68.6.7 1 1-.2 37-.3 36.9h-30.8c-17 0-31.3-.2-31.7-.5l-.9-.6-.1-36.9c-.1-20.4-.1-37.3-.1-37.6l.1-.6 31 .2 31.1.2.9.9zm268.6-.7c.1.1.2 16.7.3 37.1l.1 36.9-1.7.9-1.8.9-22.5-.2c-12.4-.2-40.8-.3-63.2-.4H750v-74.8l.8-.8.7-.7 64 .5c35.2.3 64.1.6 64.1.6zm78.4-.4c0 .8-5.3 11.4-9.9 20-3.5 6.4-18.5 35.2-24.8 47.5l-3.8 7.5h-35l-.3-36.4c-.2-20-.1-37 .2-37.6l.4-1.2 36.6-.2 36.6-.2v.6zm87.9 1.4 1.1 2V189l-2.7.1c-10.1.3-12.3.5-12.9 1.1l-.6.7.5 1.6.6 1.5h15.1v21h-13.5l-1.4.9-1.4.9.6 1.6.6 1.6h15.2l-.3 13.2-.3 13.3-28.3.5-28.4.5-.8-.5-.8-.5-.2-35.5c-.1-19.5-.1-36.4-.1-37.5l.1-2 28.4-.3 28.5-.3 1 2zm-66.2 78.3 3.3 1.2.1 15.1c0 8.2.1 16.7.3 18.7l.3 3.8h-1.8l.3 27.2.3 27.3-2.7.3-2.8.3v-2.2l-.7.4c-.5.3-21.2.8-46 1.2l-45.3.6-1-2.6-1-2.6v-11.8l6.1-11.8c9.4-18.2 14.1-26.8 15-27.3.4-.3 1.8-2.8 3.1-5.5 1.3-2.8 3.1-6.1 4-7.5.8-1.4 3.9-7 6.7-12.5 2.9-5.4 5.7-10.5 6.3-11.2l1-1.3 22.2-.3c12.1-.1 23.6-.3 25.5-.5l3.5-.2 3.3 1.2zm-416.5.9 1.8 1v-2.2l1 .6 1.1.7 22.4-.1 22.3-.2.5 1.3c.2.7.2 21.3 0 45.8l-.5 44.5-.6.7-.7.6-24 .3-24 .3-7.2-.9-7.3-.8-.1-6.1c-.2-11.3-.3-51-.1-67.9l.2-16.8 1.9-.7c1.1-.4 4.1-.8 6.7-.9l4.8-.2 1.8 1zm180.9.4.9.6-.3 45.5-.2 45.4-2 .1c-1.1.1-29.6.3-63.2.4l-61.3.3-.5-.8c-.3-.4-.4-13.1-.4-28.1 0-15.1 0-35.6-.1-45.6l-.1-18.2 10.8-.4c5.9-.1 34.3-.2 63.1 0l52.3.3 1 .5zm134.8.1 1.4.4-.7 34.7-.8 34.7-5.7 11.1-5.8 11-58.4-.4c-32.1-.2-58.7-.6-59.1-.8l-.8-.4.1-24.7c.1-13.6.5-33.9.8-45.2l.6-20.5 32.5-.5c35-.5 93.6-.2 95.9.6zm36.6-.6.6 1-1.9 3.3c-1.1 1.7-5.2 9.5-9 17.2-3.9 7.7-8 15.1-9.1 16.4-1.9 2.2-2.3 3-2 4.7 0 .4-.4 1-.9 1.3-.6.3-2.6 3.7-4.6 7.6-1.9 3.8-4 7.7-4.6 8.5l-1 1.5.6-30 .6-30 1.6-1.3 1.6-1.2h27.5l.6 1zm131 16.5v17l-7.7.5-7.6.5-.7.7-.7.7.7 1 .6 1.1h6.4c3.5 0 6.9.2 7.7.5l1.3.5-.2 26.2c-.2 14.4-.4 26.2-.5 26.4-.2.1-13.4.4-29.3.5l-29 .2.2-45.8.3-45.9 1.2-.8 1.3-.8 28 .3 28 .2v17zm-742-15.3 3 .3-.3 46c-.2 25.3-.4 46.1-.5 46.2-.6.5-121.6.6-121.8.1 0-.2-.3-12.5-.6-27.5l-.6-27.2 9.9-.3 9.9-.3v-3l-9-.5-9-.5-.3-16.7-.2-16.6 1.7-.4c2.2-.4 113.6-.1 117.8.4zm134.1 0 .7.7v16.8c.1 9.3 0 29.8-.1 45.8l-.2 29-63.6.3-63.5.3.3-46.3.3-46.3 19-.5c10.5-.3 38.7-.5 62.7-.5h43.6l.8.7zm104.8 18.3c-.1 10.4-.2 30.7-.2 45.1l-.1 26.1-1.3 1-1.3 1.1-48 .3-48 .4-.2-46.3-.1-46.2 23.6-.3c13.1-.1 35.4-.2 49.7-.2h26l-.1 19zM879 343.1l-1.1 1.9h-1.4c-1.9 0-1.9-.2.2-4.5l1.7-3.6.8 2.1.8 2.1-1 2zm-136 6.4c.4.3 1 1.8 1.3 3.5l.6 3-.1 36.7c0 20.3-.2 38.8-.2 41.3l-.2 4.5-.9 1.4-.8 1.4-32.1-.6c-17.7-.4-45.8-.7-62.6-.7h-30.5l-.2-45.5-.3-45.5 19.8-.2c25.6-.4 105.3.2 106.2.7zm116.2-.5h5.7l-7.5 14.7c-4.1 8.1-7.9 15.2-8.3 15.8-.4.5-3.5 6.2-6.7 12.5s-6.7 12.4-7.6 13.4l-1.8 2v3.5l-1 .6c-.6.4-2 2.8-3.2 5.3-1.2 2.6-3.6 6.9-5.4 9.7-1.7 2.7-3.4 5.9-3.8 7-.4 1.1-1.5 3-2.4 4.1l-1.8 2.1-30.7.7-30.7.6-2.3-.6-2.4-.5-.2-41.7-.1-41.7.6-3.7.6-3.8 35.6-.3c19.7-.2 42.9-.2 51.7 0 8.8.1 18.6.3 21.7.3zm118.6-.5 4.9.6v43.4c.1 33.5 0 40.3-.6 45.7l-.1 1.3h-98.3v-89.9l2.2-.6c1.2-.3 21.3-.7 44.6-.9l42.4-.3 4.9.7zm67.7.7c.3.3.6 7.6.7 16.2l.1 15.7-.9.9-.9.9-7.5.3-7.5.3v3l8.5.5 8.5.5-.1 25.3-.1 25.4-1.4.9-1.4.9h-56l.3-39.3c.1-21.5.3-42 .2-45.4v-6.2l3.3-.4c1.7-.3 14.6-.4 28.4-.3l25.3.2.5.6zM438 350.6l1 1 .3 44.1.2 44.1-.6.7-.7.6-63.1.2-63.1.3-.1-3.6c-.1-1.9-.2-5.8-.1-8.5 0-2.8.1-21.5.2-41.8 0-20.2.2-36.8.3-36.9.4-.4 74.6-1.3 100-1.2l24.8.1.9.9zm104.5-.4.7.7.2 43.5.1 43.5-1 1-1 1-47 .9c-25.9.4-47.7.6-48.6.4l-1.7-.4-.3-2.6c-.2-1.5-.2-21.9-.1-45.4l.4-42.8 35.1-.2c19.4-.2 41.3-.3 48.9-.3h13.6l.7.7zm68.9-.3c.7 1 .7 72.3.1 82-.3 4.1-.8 7.7-1.1 8l-.6.6-26.1.1c-14.4 0-28.5-.1-31.4-.3l-5.1-.5.2-9.1c.2-5.1.4-25.5.4-45.3l.2-36.2 31.5-.1 31.4-.1.5.9zm267.8 2.3c.5 2.7.4 63.8 0 82.5l-.1 5.3-9.8.2c-5.4.1-17.6.1-27.2 0l-17.3-.1-.6-.6-.6-.5 3.3-6.3c3.4-6.7 8.4-15 13.7-23.4 1.9-2.9 3.4-5.7 3.4-6.3 0-1.1 4.1-9.3 5.1-10 .3-.3 2.2-3.7 4-7.5 1.9-3.9 3.6-7.2 3.9-7.5.3-.3 2-3.7 3.9-7.5 1.9-3.9 5.2-10.3 7.4-14.3l3.9-7.2h6.5l.5 3.2zm-572.8-1.1.6.6.3 44.6.2 44.5-.5.6c-.6.5-2.5.6-50 .7-18.4 0-42.3.1-53 .2l-19.5.2.1-12c.1-6.6.2-18.6.3-26.7l.1-14.7 8.3-.3 8.2-.3.3-2.3.3-2.2h-17l-.3-15.4c-.2-8.4-.1-16.1 0-17l.4-1.8 60.3.4 60.3.3.6.6zm505.1 93.7 1.2.7-2.7 5.5c-6.2 12.2-9.2 18-14.9 28.5l-6 11-19.5.3-19.6.2-.5-2.2-.6-2.3.3-20.5.3-20.5 22-.5c12.1-.3 25.8-.6 30.4-.7l8.4-.2 1.2.7zm66.7 1.6.8 1.1v43.4l-2.1.6-2.1.7-38.9-.7c-21.4-.4-38.9-1-38.9-1.2 0-.3 2.1-4.4 4.6-9.1 2.6-4.8 7.8-14.8 11.7-22.2 3.9-7.4 7.5-13.8 8.1-14.2l1.1-.7 27.5.6 27.5.6.7 1.1zM981 445l1.5.9.3 22.3.4 22.3-43.9.2c-24.1.2-45.8.5-48.3.8l-4.5.5-1.4-.9-1.4-.9-.1-22.4-.1-22.3 6.5-.5c3.6-.3 25.2-.7 48-.8l41.5-.2 1.5 1zm63.8-.2 1.2.2v10h-12.5l-1.4.9-1.4.9.6 1.6.6 1.6h14.1v10.8l-4 .7-4 .7-2.8-.7-2.9-.6-1.3 1.6-1.3 1.6.9.9.9.9 7 .3 7 .3v14h-58l-.3-22.7-.2-22.7 9.7-.3c10.4-.3 46-.3 48.1 0zm-502 23.4.2 22.8-32.7.1c-18.1.1-40 .3-48.8.5l-16 .2-.7-1.1-.8-1.2V446l25.8-.2c14.1-.2 36.3-.3 49.2-.3h23.5l.3 22.7zm68-21.9 1 1.2.1 21.7.2 21.6-6.3.4c-6.8.4-48 .1-53.8-.4l-3.5-.3-.5-17.5c-.3-9.6-.4-19.8-.2-22.7l.3-5.2h30.8l30.9-.1 1 1.3zm133.3-.8s.3 10.2.6 22.6l.5 22.7-3.6.4c-4.8.5-121.7-.1-123.3-.7l-1.3-.4v-43.8l.7-.7.7-.7 62.8.3c34.5.1 62.8.2 62.9.3zm-438.2 2 1.1.6v43.4l-61.5.2-61.6.3.3-7.3.3-7.2 8.9-.5 8.9-.5.4-1.1.4-1.2-5.5-.6-5.6-.7-1 .6-1 .6-3-.6-3-.7V461h17.8l1.2-1.5 1.2-1.4-.7-1.1-.6-1H184v-9l34.3-.2c18.8-.2 46-.2 60.4-.2l26.2.2 1 .7zm132.4-.5c.3.3.7 10.1.9 21.8l.5 21.3-1 .6-.9.6-62.7-.1-62.6-.1v-43.6l3-.7 3-.6 59.7.1c32.8.1 59.8.4 60.1.7zm541.9 48.5 2.7.7.3 32.7c.2 17.9.1 34.3-.2 36.3l-.5 3.8-47.8.5-47.8.6-2-.6-2.1-.7.7-2.5.6-2.5-.1-33.8v-33.7l7.2-.6c4-.3 18.8-.6 32.8-.7 14-.1 25.6-.3 25.8-.5.2-.1 6.5-.2 14 0l13.7.2 2.7.8zm-674 1.3 1.3 1.3.3 31.7.3 31.7-.8 3.9-.9 4-61.8.1-61.8.1.6-5c.3-2.8.6-9 .6-13.9V542h18.9l.7-1.1.6-1.1-1.1-1.1-1.2-1.2-9-.4-9-.3.3-10.6.3-10.5 8 .2 8 .2 1.8-.6 1.7-.7V512h-17.6l-1.2-1.2-1.2-1.2v-13.5l6.8-.4c3.7-.1 30.9-.3 60.4-.2h53.7l1.3 1.3zm126.3-.9 7 .6.2 10c.1 9.9.4 56.3.4 57.7-.2 1.8-.3 2.4-1.1 3.8l-.8 1.5H312.9l-.2-36.5-.2-36.5 36-.5c52.3-.7 76.1-.8 84-.1zm109.1-.2 1.2.8.4 34 .5 34-1 2.1-.9 2.2-4.2.5c-2.2.2-24.1.4-48.5.3l-44.4-.1.1-32c.1-17.6.1-34.1.2-36.7v-4.7l13.3-.3c7.2-.2 28.7-.4 47.7-.6l34.5-.2 1.1.7zm69.7.3c.3.3.7 15.7.8 34.2l.3 33.7-.6.7-.7.6.5 1.2.5 1.3-1.5 1.2-1.4 1.2-30.2-.4-30.2-.3-.9-1.5-.9-1.4.7-2 .7-2-.2-32.9c-.1-18 0-33.1.2-33.5l.5-.7h31c17 .1 31.2.3 31.4.6zm133.3.3c.2.1.6 15.7.9 34.5l.7 34.3-1.7 2.5-1.7 2.6-39.6-.6c-21.9-.3-50-.6-62.7-.6h-23l-.2-35.7-.2-35.7 1.2-1.4 1.2-1.5 62.4.6c34.3.4 62.5.8 62.7 1zm36.2-.3h5.4l-2 3.2c-1.1 1.8-5.2 9.6-9.2 17.3-4 7.7-7.7 14.4-8.1 14.9-.5.6-.9 1.5-.9 2.2 0 .7-1.9 4.5-4.3 8.6-2.3 4-5.8 10.4-7.7 14.1-1.9 3.7-3.6 6.4-3.7 6-.1-.4-.3-15.5-.5-33.5l-.4-32.7 11-.4c6.1-.2 12-.2 13.1 0 1.1.1 4.4.3 7.3.3zm58.9.1 1.3 1.1 19-.3 19-.4.1 31.5c.2 30.6.1 35.3-.5 39.5l-.3 2h-62.1c-34.2 0-62.2-.2-62.2-.5s1.5-2.8 3.3-5.5c1.9-2.8 4.7-7.7 6.4-11 1.7-3.3 5-9.4 7.2-13.5 2.3-4.1 4.9-8.9 5.7-10.5.8-1.7 2.9-5.7 4.7-9 1.8-3.3 5.3-9.8 7.7-14.4l4.4-8.3 2.1-.8 2-.8 20.4-.1h20.5l1.3 1zm205.8 6.4v7l-8.7.3-8.8.3v3.8l8.8.3 8.7.3.9 5.8.9 5.7-.9 4.8-.9 4.7-6 .3c-3.3.1-7 .4-8.2.7l-2.3.5v3h16.8l.6 1.6.6 1.6v23.3l-.8 1.2-.7 1.1-29 .7-29 .8.1-36.4c0-20 .1-37 .2-37.7l.2-1.2 28.8.2 28.7.3v7zM423 574c1.5.5 5.1.6 5.5.1l.4-.7 5.3.6 5.3.5.3 46.2.3 46.3-1.3.1c-3.3.3-124.3-.3-124.7-.7-.4-.3-.6-14.4-1.2-63.4l-.3-26.5.6-1 .6-1 42.9-.4c23.5-.1 42.9-.3 43-.4.2-.3 22.7 0 23.3.3zm119.1.7.8.8.2 45.2c.2 24.9.1 45.4-.1 45.7-.4.3-96.9 1.5-97 1.2-.1-.1-.3-21.1-.7-46.8l-.6-46.8 36.4-.2c20-.2 41.8-.2 48.3-.1l12 .3.7.7zm68.8-.1.9.9.6 46.2.5 46.3h-24.3c-13.4 0-27.7-.3-31.8-.6l-7.6-.7-.2-9.6c-.6-27.7-1.1-81.4-.7-82.4l.4-1.2 30.7.1 30.7.1.8.9zm131.9-.1c.3.2-2.2 5.3-5.3 11.2-3.2 5.9-8.7 16.4-12.3 23.3-3.5 6.9-8.3 15.6-10.5 19.5-4.5 7.6-11.8 21-14.5 26.5-.9 1.9-2 3.7-2.3 4-.4.3-2 3.2-3.7 6.5-2.4 4.9-11.4 21.5-21.8 40.5-1 1.9-2.2 3.6-2.6 3.8-.5.2-.8 1.2-.8 2.2v1.8l-.9.4c-.9.3-5.9 9.7-18.6 34.5l-7.8 15.3h-24.6l-.3-28.8-.3-28.7.6-3.1.6-3.2-.6-1-.6-1 .3-13.1.3-13.1h26l-.3-1.8-.3-1.7-12.7-.3-12.6-.3-.1-46.8-.2-46.9 1.3-.5 1.3-.5 61.5.4c33.8.3 61.6.7 61.8.9zm118.8-.7 17.1.2-.1 47.2-.1 47.3H750.7l-.3-1c-.1-.6-.5-21-.8-45.6l-.6-44.5 1.2-1.7 1.3-1.6 6.5-.3c7.8-.4 79.6-.4 103.6 0zm120.4 1.1.8 1.5.1 46.9.1 46.9-8.2-.6-8.3-.6h-40.8l-40.7.1-.5-1.3c-.2-.7-.6-21.7-.8-46.5l-.3-45.3.6-1 .6-1 19.4-.2c10.7-.2 32.5-.3 48.3-.3h28.8l.9 1.4zm62.8-1.1 1.2.8-.2 19-.3 18.9-8 .5-8 .5-.3 1.7-.3 1.8h14.9l1.1 1.3 1.1 1.4-.1 24v24.1l-1.2 1-1.2 1-27.3.1-27.2.2-.5-1.3c-.3-.7-.6-22.2-.7-47.8l-.3-46.5 7-.6c3.9-.3 16.5-.6 28-.7l21-.2 1.3.8zM299 574.9l8.5.6.3 45.5.2 45.5-61.5-.1c-33.8 0-61.7-.3-62-.5-.2-.3-.5-10.9-.7-23.7l-.2-23.2.9-.9 1-.9 4.5-.3c2.5-.2 5 0 5.5.3l1 .6 3.3-.5 3.2-.5v-3l-4 .4-4 .4v-1.5l-5.7-.3-5.7-.3-.3-18c-.2-9.9-.1-18.6.2-19.3l.5-1.3 53.2.2c29.3.2 57.1.5 61.8.8zm445.9 52.5.2 40.4-1.6.6-1.7.6h-20.4c-11.2 0-20.4-.2-20.4-.5 0-.9 2.5-6.1 4.6-9.5 1.1-1.9 4.7-8.5 7.9-14.5 3.1-6.1 6.1-11.5 6.5-12 .4-.6 2.8-4.8 5.2-9.5 2.5-4.7 5.8-11 7.5-14 1.6-3 4.9-9.2 7.2-13.8 2.4-4.5 4.5-8.2 4.6-8.2.2 0 .4 18.2.4 40.4zm-447.8 44.4 10.6.3.1 46.2v46.2l-62.4.2-62.4.2v-51.7l1.6-.6c.9-.3 5.1-.6 9.5-.6h7.9v-4h-19.3l.7-4.6c.3-2.6.6-10.9.6-18.6V671l51.3.2c28.1.1 56 .4 61.8.6zm102.7 1.3c.2.5 1 .9 1.7.9h1.3l.4-1.2.5-1.3 16.5.1 16.6.2 1.8 1 1.7 1-.1 45.3c-.1 24.9-.4 45.4-.5 45.6-.5.4-8.1.4-74.2.1l-52-.3-.1-41c0-22.6.2-43.4.4-46.2l.5-5.3 22.1-.3c12.1-.1 31.3-.1 42.6.1l20.5.3.3 1zm161.7-1.1c.6.1 12.3.3 26 .3l25 .2-.4 45.5c-.2 25-.6 45.7-.8 46-.3.3-14.1.5-30.8.5h-30.3l-.9-.8-.8-.9v-32.1c0-17.7.1-38.1.3-45.4l.3-13.2 2.2-.3c2.2-.3 8.3-.2 10.2.2zm-17.8 45.8.1 45.2-.8.5c-.5.3-22.8.8-49.6 1.1l-48.7.6.6-45.6.6-45.7.6-1 .6-.9 48.2.2 48.2.3.2 45.3zM723 673h21.9l-.4 45-.4 45-.7 1.1-.7 1.1-46.6-.7c-25.6-.4-46.8-.9-47-1-.1-.2 1.6-3.9 3.9-8.2 2.4-4.3 6.7-12.3 9.6-17.8 12.9-24.3 18-33.6 19.7-35.5.9-1.1 1.7-2.5 1.7-3.1 0-.6.8-2.3 1.9-3.7 1-1.5 4.2-7.4 7-13l5.2-10.4 1.5.6 1.6.6H723zm148.5.4c2.8.3 5.6.5 6.2.6h1.3l-.5 44.7c-.3 24.5-.6 44.8-.8 44.9-.2.3-34.8.3-46.7.1-2.5-.1-21.8.1-43 .2l-38.5.3.2-44.7c.1-24.7.4-45.3.6-46l.5-1.1 57.8.3c31.9.1 60.2.5 62.9.7zm110.3.9 1.2.8-.5 35.7-.5 35.7.8 5.5.8 5.5-.6 2.8-.5 2.8-49.5.2-49.5.2v-32c0-17.6.1-37.7.3-44.7l.3-12.7 2.7-.3c1.5-.2 23.2-.3 48.2-.3h45.5l1.3.8zm64 15.4.3 15.1-1.6 1.6-1.6 1.6h-12.4l-1.5 1-1.5.9 1 1 1 1 7.5.3 7.5.3v51l-28.8.3-28.8.2.3-30.2c.1-16.7.4-36.9.6-45.1l.3-14.7 28.7.2 28.7.3.3 15.2zM722 769.4l20.5-.2 1 .8 1 .8.3 22.1.3 22.1-12.3.1c-47.7.4-109.4.5-110 .2l-.7-.4 7.1-13.7c3.8-7.5 9.3-17.9 12-22.9l5-9.3 25.6-.2 25.7-.3 2 .6 2 .6 20.5-.3zm155.3.5.8.8.2 21.6.2 21.5-.8.9-.9.8-63.1-.3c-34.8-.2-63.4-.5-63.6-.8-.2-.2-.6-9.1-.8-19.6l-.4-19.3.6-3.2.6-3.3 21.2-.2c11.7-.2 40.1-.2 63.2 0l42 .3.8.8zm104.4-.6.8.9v44.1l-1.7 1-1.7 1.1-2.3-1.2-2.4-1.3-12.9.5c-7.2.3-27.1.6-44.4.6l-31.4.1-1-1-1.1-1.1v-21.7l-.1-21.8 32-.5c17.6-.3 39.5-.5 48.7-.5h16.6l.9.8zm63.1 5-.3 5.2-6.8.3-6.8.3.3 1.7.3 1.7 2 .1c1.1.1 4.1.2 6.8.3l4.7.1v12l-3.2.1c-1.8.1-5 0-7.1-.1l-3.7-.2-.6 1.7-.7 1.7 1.4.9 1.4.9h12.4l.3 3.2c.2 1.8.1 5-.1 7l-.3 3.8-17.7.1c-9.7.1-22.2.2-27.9.4l-10.2.3-.7-1.1-.6-1.1-.3-22.3-.3-22.3 22.7-.2c12.5-.2 25.5-.1 29 0l6.3.4-.3 5.1zm-604.9-3.8c.3.3.5 10.5.5 22.7l.1 22.2-63-.3c-34.6-.1-63.2-.4-63.6-.7l-.7-.4.2-21.8.2-21.7 40-.6c40.9-.6 85.4-.3 86.3.6zm103.9 20.9.2 22-.9.9-.9.9-47.6.5-47.6.6-.6-1.8-.7-1.8-.1-21.1-.1-21 2.3-.6 2.3-.5h93.4l.3 21.9zm68.4-10.5c.1 6.4.2 16.8.2 23.1l.1 11.5-28 .1c-15.4.1-29.7-.1-31.7-.4l-3.8-.4v-45.3l31.5-.1H612l.2 11.5zm25.1-10.2c-.4 1-2 4.2-3.5 7-1.6 2.9-5.8 10.8-9.3 17.5l-6.5 12.3-.1-8.5c-.1-4.7-.3-12.8-.4-18-.1-5.2 0-10.1.3-10.8l.4-1.2h19.7l-.6 1.7zM308 774.4c.1 2.2.3 11.8.5 21.1l.4 17.1-.9 1.4-.8 1.3-12.4.1c-6.7.1-34.5 0-61.5-.2L184 815v-14h18.9l.7-1.1.6-1.1-.8-.8-.9-.8-8.8-.5c-4.8-.2-9-.7-9.3-1-.3-.3-.6-2.7-.7-5.4l-.2-4.8 9.5-.5 9.5-.5v-4l-9.2-.3-9.1-.3-.6-1.4-.5-1.4.6-3.6.6-3.6 61.8.2 61.9.2v4.1zm-9.9 45.4 10.6.1-.1 38-.1 38-3.5.4c-1.9.3-7.8.3-13 .1-5.2-.2-31.8-.5-59-.6l-49.5-.3-.3-15.3-.3-15.2 1.3-.1c.7 0 4.9-.1 9.3-.2l8-.2.3-1.8.3-1.7h-7.3c-4 0-8.3-.3-9.5-.6l-2.3-.6v-19l9.1.3 9.2.4 1-1.7c.6-.9.9-1.9.6-2.2-.4-.5-9.4-1.3-16.1-1.5l-2.8-.1v-15.9l14.8-.3c12.9-.3 69.4-.2 99.3 0zm141.6.5.9.6-.1 36.9-.2 36.8-.6 1-.6 1-9.8-.2c-5.4-.1-31.6-.2-58.2-.3h-48.5l-.8.6-.9.5-3.4-.6-3.3-.7-.6-2.2c-.5-2.1-.6-44.8-.2-63l.3-8.8.9-.9 1-1 35.4-.3c45.6-.3 87.6 0 88.7.6zm103.9 37.4v38.2l-30 .3c-16.6.2-38.6.1-49.1-.2l-19-.5V866c0-16.2.2-33.1.5-37.5l.5-8 7.5-.5c4.1-.3 26-.5 48.5-.5h41l.1 38.2zm67.2-37.2c.5.5-9.7 19.5-12.4 23.1-1.2 1.6-5.7 9.7-10 18-4.2 8.2-8.3 15.6-9.1 16.5-.7.8-1.3 2-1.3 2.6 0 .5-1.9 4.4-4.2 8.7l-4.2 7.7-10.1-.7-10-.7-.8-1.1-.8-1.1.5-36.2c.2-20 .7-36.7 1-37.1l.5-.8 30.3.4c16.7.2 30.4.6 30.6.7zm91.7-.5c.6.2 10.2.3 21.5.4l20.5.1-.3 37.5-.4 37.5-.7.8-.7.7-62.2-.7-62.1-.6-.7-4.6-.7-4.6.6-31.5.6-31.5.6-1.7.7-1.8 17.1-.2c18.4-.3 64.5-.1 66.2.2zm175.4.6.6.6-.2 14.6c-.1 8.1-.2 24.9-.2 37.3v22.6l-2.8.6-2.8.5-60.8-.4c-33.5-.2-61.3-.6-61.7-.9l-.8-.5-.1-16.3c0-8.9.2-25.8.5-37.4l.6-21.3 20.7-.2c11.3-.2 39.9-.2 63.5 0l43 .2.5.6zm98.8-1 6.2.6-.5 35.2c-.2 19.3-.4 36.4-.4 38.1v3l-48.3-.2c-26.5-.1-48.8-.2-49.5-.2l-1.3-.1.5-32.8c.3-18 .7-35 .8-37.7l.3-5 3.5-.5c1.9-.3 21.3-.7 43-.8l39.5-.2 6.2.6zm68.3 8.9v8.5l-3.7.1c-2.1.1-5.4.2-7.3.3l-3.5.1-.3 2.2-.3 2.3h15l.6 1 .6 1h-1.8l.3 6.2c.2 3.5.1 7.5-.2 9l-.5 2.7-7.7.3-7.7.3-.3 1.6-.3 1.6 7.4.5c4 .3 7.9.8 8.5 1.2l1.2.7V896l-7.7.1c-34.8.6-47 .7-48.5.2l-1.8-.4v-20.7c0-11.4.3-28.5.7-38l.6-17.2h56.7v8.5zm-432.8 36.2c-.2 17-.5 30.9-.6 31-.1.1-7.7.4-16.9.8l-16.7.6v-.6c0-1.7 29-54.8 30.4-55.7l1.1-.8h-1.6l2.1-3c1.2-1.7 2.2-3 2.3-3 .2 0 .1 13.8-.1 30.7zM294 900.5c8 .4 14.6.8 14.6.9.1 0 .4 16.3.7 36.1l.6 36-.6 8.5-.6 8.5H183.5l.4-25c.2-13.8.6-25.2.8-25.5.3-.3 4.4-.5 9.1-.5h8.6l.4-1.8.3-1.7H184l-.1-.8c-.1-.4-.2-8.5-.4-17.9l-.3-17.3 41.7-.2c46.7-.3 48.9-.3 69.1.7zm145.4 1.5 1.5 1.5v39c-.1 21.4-.2 41.2-.2 44l-.2 5-12.5-.1c-6.9-.1-35.4-.2-63.3-.3l-50.8-.1.3-10.8c.2-5.9.1-26-.1-44.7l-.4-34 10.4-.5c5.7-.3 33.7-.5 62.1-.5h51.7l1.5 1.5zm104.7 11.2c.1 7.3.1 17.2.1 22l-.2 8.7-7.6 14.8c-4.3 8.1-8.9 16.6-10.3 18.8-1.4 2.2-3.4 5.6-4.4 7.5-1.1 1.9-2.6 4.3-3.5 5.3l-1.5 1.7-35.1-.2-35-.3-.3-45.2-.3-45.2 1.7-.3c.9-.2 23-.5 49-.6l47.3-.4.1 13.4zm18.6-12.6 5.2.7-2.5 3.8c-1.3 2.1-2.4 4.3-2.4 4.8s-.6 1.4-1.4 2l-1.5 1.2-.6 3-.7 2.9h-.8c-.4 0-2 2.6-3.6 5.7-1.5 3.2-3.4 6.4-4.1 7.1l-1.3 1.3-.1-7.8c-.2-11.4-.2-17.3-.1-21.6l.2-3.7h4.3c2.3 0 6.5.3 9.4.6zm181.4 1.6.8 1.3-.2 43-.2 43-.8 1.2-.7 1.1-62.5.1H618v-2.7c-.1-1.5-.1-21.8-.2-45.2l-.1-42.5 8.4-.5c4.6-.3 32.9-.4 62.8-.3l54.4.2.8 1.3zm133.7-.7c.3.2.5 20 .6 43.9l.1 43.5-1.5 1.5-1.5 1.5-17-.1c-9.3-.1-37.7-.2-63-.3h-46v-89.7c0-1.2 127.1-1.5 128.3-.3zm103.8-.2.8.8.3 42.2c.1 23.2 0 43.3-.3 44.7l-.5 2.5-49.5.3-49.4.3-.1-.8c0-.4-.2-2.6-.3-4.8l-.4-4 .6-1 .7-1-.3-36.8-.3-36.7.6-3 .6-2.9 6.2-.3c3.4-.2 25.2-.3 48.4-.3h42.1l.8.8zm-369.4 4.9c.2 2.9.4 23.2.4 45l-.1 39.6-.6.6-.5.6-30.5.2-30.4.2-1.2-.7-1.1-.7.5-21.3.5-21.2 6.1-11c6.6-12 8-14.5 12.3-22 1.6-2.8 4-7.2 5.4-9.8l2.5-4.7h36.3l.4 5.2zm432.6 12.5.2 17.3-1.7.1c-1 .1-2.7.3-3.8.4-1.1.1-3.9.2-6.2.3l-4.3.2v4h14.9l.7 1.1.6 1.1-.2 19.1c-.2 10.6-.4 20.8-.6 22.7-.1 1.9-.3 4.3-.3 5.2l-.1 1.8h-57.5l.3-44.2c.2-24.4.5-44.9.7-45.6l.4-1.2 28.3.2 28.3.3.3 17.2zM544.3 983l-.8 8.5-7.4.3c-4.1.2-8 .1-8.8-.2l-1.4-.6 2.7-5.2c1.5-2.9 3-5.5 3.5-5.8.9-.6 3.6-5.4 9.1-16l3.3-6.5.3 8.5.3 8.5-.8 8.5zm-254 12.7 18.7.6v92.2H183.5l-.3-26.2-.2-26.2 8.7-.3 8.8-.3.3-2.3.3-2.2H183v-36h44.3c24.3 0 52.6.3 63 .7zm150.2.5c.2.2.7 21.1 1.1 46.3l.7 46h-63.9l-63.9-.1-.3-46.2-.2-46.2 42.2-.2c49.5-.3 83.8-.2 84.3.4zm103.2.2c.2.2.6 20.4 1 45l.6 44.6-1.2 1.4-1.2 1.4-34 .1-33.9.1v-.5c0-1 20.1-40.4 22-43 .4-.6 4.2-7.8 8.5-16 4.3-8.3 10-19.1 12.7-24.2l4.9-9.2 3.2-.3c3.6-.4 16.9.1 17.4.6zm43.3-.4h25.5v92.5l-31.2.1-31.3.1-.2-3.6c-.4-8-.5-14.1-.7-50.5l-.2-37.9 1.3-.9 1.3-.9 5 .5c2.8.3 16.5.6 30.5.6zm-72 .5c0 .2-1.8 3.7-4 7.7s-7.9 14.9-12.6 24.3c-4.7 9.3-8.9 17.4-9.4 18-.7.9-7.3 13.4-17.8 33.8l-4.5 8.8-10.1-.3-10.1-.3-.3-46.3-.2-46.2h34.5c19 0 34.5.2 34.5.5zm228.7.8.7 1.2.4 44.4.4 44.3-1.2.8-1.3.8H619.2l-.5-2.7c-.3-1.4-.6-22.3-.7-46.3l-.1-43.8h125l.8 1.3zm133.4.4.8.8.4 44.3.4 44.3-1.1.7-1.1.7H750l-.1-10c0-5.5-.3-25.7-.5-45l-.5-34.9.6-1.4.5-1.4 63.2.5 63.1.6.8.8zm103.8-.2.9 1 .4 44.7c.1 24.5.1 44.9-.2 45.1-.6.6-6 1-7.5.7-.5-.2-21.2-.3-46-.4l-45-.1-.1-3c-.2-4.7-.6-83.7-.5-86.2l.1-2.3 26.3-.2c14.4-.2 36.2-.3 48.4-.3h22.2l1 1zm62.5.4c.5.8 1 28.6.7 34.3l-.1 1.8h-6.4c-3.5 0-7.1.3-8 .6l-1.6.6v2.8l2.3.5c1.2.3 4.9.6 8.2.7l6 .3.3 23.9.2 24-.7.7-.8.8-27.7.3-27.6.3-.9-.8-.8-.9-.3-44.1c-.1-24.2 0-44.7.2-45.4l.5-1.3h56l.5.9zm-734.8 97.2 1.7 1.4-.8 21.5c-.4 11.8-.9 21.7-1.1 21.9-.2.3-6.2.5-13.2.4-7 0-35-.1-62.3-.1l-49.7-.2-.7-6.6-.7-6.6.9-.9.8-.8 8-.3 8-.3v-3l-7.7-.5-7.7-.5-.9-1-.9-1 .6-5 .6-5 9-.5 9-.5.3-1.8.3-1.7-3.8-.2c-2.1-.1-4.9-.1-6.3 0-1.4.1-4 0-5.7-.3l-3.3-.6v-8.9l21.8-.2c11.9-.2 39.8-.3 61.9-.2l40.2.1 1.7 1.4zm132.8-1 .6.5v14.5c0 7.9-.2 17.5-.4 21.3l-.5 6.9-1.6 1.6-1.6 1.6-61.7-.3c-33.9-.2-61.9-.6-62.2-.8-.4-.5-.4-5.6 0-32.4.1-5.2.3-10.3.6-11.2l.5-1.8 16.7-.2c9.2-.2 37.5-.3 62.9-.3h46.1l.6.6zm121.6-.4v.8h49.5l-.3 22.4c-.1 12.4-.4 22.6-.5 22.7-.2.2-13.3.4-29.2.5l-29 .3-2.4-.8-2.3-.8.7-22.1.8-22.2.7-.5c.5-.3 3.3-.6 6.4-.8l5.6-.3v.8zm180.9.8 1.4.5-.7 22.2c-.4 12.2-1 22.6-1.2 23l-.5.8-27.2-.4c-15-.2-43.1-.4-62.6-.5l-35.4-.1.6-17.8c.4-9.7.7-20.1.7-22.9v-5.3l16.8-.2c25.3-.4 106.5.1 108.1.7zm134.1 0 .8.5-.4 21.6-.3 21.6-1.1 1.3-1.1 1.3-62.5-.3-62.4-.4-1.2-.7-1.1-.7.6-16.1c.4-8.9.7-18.9.7-22.3v-6.2l8.8-.4c12.5-.5 118.2.2 119.2.8zm103.5.5 1.8 1.5-.7 21.4c-.4 11.9-.8 21.7-1 21.8-.2.2-22.2.5-49 .6l-48.7.3-.7-1-.7-1.1.2-19c.1-10.5.5-20.5.8-22.2l.6-3.3 28.2-.2c15.5-.2 37-.3 47.8-.3h19.6l1.8 1.5zm-517.5-.5c0 .8-11.3 22-13.7 25.5-1.2 1.9-2.3 4-2.3 4.7v1.3h-1.9l.4-14.8c.3-8.1.5-15.3.5-16v-1.2h8.5c4.7 0 8.5.2 8.5.5zm80.6 22.2c-.4 12.6-.8 22.9-.9 23-.1.1-21.9.4-48.5.7l-48.2.6v-1c0-1.5 8.8-17.8 11.6-21.6 1.3-1.7 2.6-4.3 3-5.8.3-1.4.9-2.6 1.3-2.6.3 0 1.7-2.4 3.1-5.3 1.3-2.8 3.3-6.4 4.4-8l2-2.7h72.9l-.7 22.7zm498.2-22.1 2.3.7-.3 4.6-.3 4.6-7.5.5-7.5.5-.3 1.7-.3 1.7 7.8.3 7.8.3.3 3.9c.2 2.2.1 5-.2 6.3l-.6 2.3h-14.8l-.5 1.4-.6 1.4.6.6c.4.3 3.2.6 6.4.6 3.1 0 6.4.3 7.3.6l1.6.6v12.8l-7.2.1c-4 0-16.9.1-28.6.3l-21.3.2-.5-.8-.6-.9.8-22.4.7-22.5h53.2l2.3.6zM308 1145l1 .6.3 37.9.2 38-62.9-.2c-34.5-.1-63-.4-63.2-.6-.2-.2-.5-7.1-.6-15.3l-.3-14.9 8.3-.1h8.2l1.3-1.3 1.2-1.2-1.5-.9-1.5-1h-15.4l-.3-1.6c-.2-.9-.2-5.6 0-10.5l.3-8.9h20l-.3-1.8-.3-1.7-9-.3-9-.3-.8-.8-.8-.8-.1-6.5-.1-6.5.7-1.2.8-1.3 61.4.3 61.4.3 1 .6zm127.5.2.7.7-6.3 11.8c-3.4 6.5-8.2 15.6-10.6 20.2-2.4 4.7-4.7 8.9-5.2 9.5-.5.6-4.3 7.8-8.5 16.1l-7.7 15-1.8 1.5-1.8 1.5h-78.8l-.7-14c-.4-7.7-.6-24.8-.5-38l.2-24 4-.6 4-.6 56.2.1 56.1.1.7.7zm107.1-.5 1.1.8.7 37.2.7 37.1-.8.5c-.4.3-22.4.7-48.8.8l-48 .4-.8-37.3-.9-37.3.5-1.4.6-1.3 47.3-.1 47.3-.1 1.1.7zm69.4 1c.3.3.7 17.3.8 37.9l.4 37.4-15.4.2c-20.6.3-46.8.1-47.3-.3-.3-.4-.9-64.4-.6-72.4l.1-4.1 30.8.4c16.9.2 30.9.6 31.2.9zm131.6-.5c.2.3.7 17.2 1 37.5l.6 37-1 .7-1.1.6H619.6l-.8-1.3-.8-1.2.1-36.7.1-36.7 7.2-.3c11.6-.5 117.6-.1 118.2.4zm133.3.3 1.1.6v73.9l-5.2.1c-2.9.1-31.7.2-64 .3l-58.7.2-.4-2.1c-.2-1.1-.5-17.9-.6-37.3l-.1-35.2 2.2-.9 2.3-.9 61.2.3 61.2.3 1 .7zm98.4-1 6.7.7-.2 37.7-.3 37.6-3.7.3-3.8.3v-1.6l-45.5.3-45.5.3v-75l4.3-.3c2.3-.2 21.6-.5 42.8-.6l38.5-.4 6.7.7zm68.7 4.5c.3 1.9.4 5.6.2 8.2l-.4 4.7-8.1.3-8.2.3v4l8.1.3 8.2.3.4 7.2c.2 3.9.2 8.4 0 9.9l-.4 2.8h-5.3c-2.9 0-6.7.3-8.4.6l-3.2.7.3 1.6.3 1.6 8.5.5 8.5.5.3 13.1.4 13.2-1 .6-.9.6h-27.8c-15.2.1-27.9 0-28.1-.2-.3-.3-.8-72-.5-74.1l.1-.7 28.2.2 28.3.3.5 3.5zm-602 36c.1 19 .2 35.1.1 35.9l-.1 1.4-17.7-.6c-9.8-.4-18.4-.7-19-.7h-1.2l4.1-7.8c2.2-4.2 6-11.3 8.3-15.7 4.1-8 5.4-10.5 7.7-14.8 2-3.8 8.3-15.8 12.8-24.5 2.4-4.5 4.5-8.1 4.6-7.9.2.1.3 15.8.4 34.7zm539.8 83.5c.1 24.2 0 45.3-.3 47l-.5 3-48.7-.2-48.8-.1-.7-12.9-.7-12.8.6-31c.3-17.1.6-32.2.6-33.7v-2.8l20.1-.2c11.1-.2 33.2-.3 49.1-.3h29l.3 44zm62.7-26.2v17.8l-1.5.9-1.5 1h-16.7l.4 1.2.5 1.3 7.9.8c4.3.5 8.5 1.1 9.2 1.3l1.2.3v51.1l-6.7.1c-3.8.1-16.5.2-28.4.2l-21.7.2-.6-14-.6-14 .5-19c.2-10.5.4-25.1.4-32.7v-13.6l1.8-.4c1-.2 14-.3 28.8-.3h27v17.8zm-752.2-16.1 16.8.1.7 1.1.7 1.1-.3 43.9-.3 44-.6.9-.6 1-24.6-.8c-13.5-.5-25.3-.8-26.1-.8-.8.1-17.9.2-37.9.3l-36.3.2-.9-.9-.9-.9.2-26 .3-25.9h18l.3-2.3.3-2.2h-19.3l.6-3.1c.3-1.7.6-9.2.6-16.5V1226l20.3-.2c11.1-.2 31.9-.2 46.2 0 14.3.2 33.6.4 42.8.4zm101.7-.7c0 1.3-14.6 28.4-16.6 30.8-1.3 1.6-2.4 3.2-2.4 3.6 0 .4-3.2 6.5-7.1 13.7-3.9 7.1-10.2 19.2-14.1 26.9-3.8 7.7-7.6 14.7-8.4 15.4l-1.4 1.5-13.9.4-13.9.3-.6-1-.7-1-.2-32.8c-.2-18-.1-38.2.2-44.8l.6-12 21.5-.5c33-.8 57-1.1 57-.5zm47.9 1.9 1.4 1.1-.7 20c-.3 11-.6 31.1-.6 44.6l.1 24.5-42.8-.3c-23.5-.1-43.6-.3-44.5-.3h-1.7l5.3-10.3c6.5-12.6 14-26.9 19.1-36.2 2.1-3.9 4.4-8.1 5.1-9.5.8-1.4 1.4-3.1 1.4-3.8v-1.2h1.9l3.5-6.9c6.2-12.4 11.9-22.6 13-23.4l1.1-.8 18.5.7 18.5.6 1.4 1.2zm170.9-1c.1.2.2 7 .1 15.2v45.7l.1 30.9-30.9-.4-30.9-.3-.9-.8-.8-.9.1-44.5.1-44.5 1.1-.7 1.1-.7 30.3.4c16.7.2 30.4.5 30.6.6zm131.7 45.6v46.5l-25-.1c-13.7 0-42.1-.2-63-.5l-38-.4-.1-45-.2-45 1-1.3 1.1-1.2 62.1.3 62.1.3v46.4zm133.1-10.7c-.4 19.9-.6 41-.6 46.8v10.6l-63.2-.3-63.3-.3-.7-8.8-.7-8.8.5-36.9c.2-20.3.7-37.3 1-37.7l.5-.9 63.5.1h63.5l-.5 36.2zm-332.5-26.6c.1 4.9 0 9.2-.1 9.8-.2.5-.2 17-.1 36.6l.1 35.6-7.7.6-7.8.6-41-.2-41-.2-.5-30-.5-30 .8-1.2.8-1.1-.4-13.4c-.2-7.4-.1-14 .1-14.6l.4-1.2H545l.1 8.7zM294 1321.8l15.5.7.6 28 .7 28-1 4-.9 4-2.9 4c-1.6 2.2-5.4 8.6-8.5 14.2l-5.7 10.3-1.1.1c-.7 0-2.8.2-4.7.3-1.9.1-3.9 0-4.4-.2-.5-.3-6.6-.6-13.5-.6l-12.6-.1-.3-8.3-.3-8.3-2.2.3-2.2.3v14.4l-1.1 1.1-1 1-33.4-.2-33.3-.3.2-10c0-5.5.1-17.3.1-26.3l-.1-16.2H200v-4h-14.5l-1.5-1-1.5-.9v-33.6l5-.6c7.3-.7 88.3-.8 106.5-.1zm48 .6c0 .3-2.6 5.2-10.3 19.6-2.8 5.2-7.7 14.4-10.9 20.5l-5.8 11V1322h13.5c7.4 0 13.5.2 13.5.4zm99.5.7c.2.3.5 21.1.7 46.4l.3 46-12.5-.1c-6.9 0-18.9-.1-26.7-.2l-14.3-.2v-15h-3.9l-.3 7.2-.3 7.3-33 .5-33 .5-2.4-.8-2.4-.8.5-12.3.5-12.3 4.4-8.9c2.5-4.9 7.8-15 11.9-22.4 10.6-19.3 11.4-20.7 15.5-28.9l3.8-7.4 45.4.5c24.9.3 45.5.7 45.8.9zm102.5-.1 1.5.9v89.9l-.6.6c-.3.4-5.5.9-11.4 1.1l-10.9.5-1.8-.6-1.8-.5v-14.8l-1.1-.6-1-.7-.7.6c-.3.4-.9 4.1-1.2 8.4l-.5 7.7h-32l-.5-7.5-.5-7.5h-3l-.5 7.5-.5 7.5-15.2.3-15.3.3-.2-8.3c-.1-4.6-.2-9.9-.1-11.8.1-1.9.2-19.1.2-38.2V1323l16.3-.2c9-.2 30.5-.4 47.8-.5l31.5-.2 1.5.9zm68.6.4c.1 0 .3 15.6.6 34.6l.5 34.5-.6 11.5-.6 11.5-8.2.3-8.2.3-.3-8.8-.3-8.8h-4l-.1 1.2c-.1.7-.2 4.7-.3 8.8l-.1 7.5h-18l-.2-5.3v-6.7c.1-.8-.1-2.5-.3-3.8l-.6-2.3-1.7.3-1.7.3-.1 1.3c-.1.6-.2 4.6-.3 8.8l-.1 7.6-8.7-.7c-4.9-.4-8.9-.8-9-.9-.5-.5-.7-21.2-.5-56.7l.2-35.6 31.3.4c17.1.3 31.3.6 31.3.7zm131.7.5.8.8.2 44.4.2 44.4-.8 1.2-.8 1.3h-46.4l-2.2-.6-2.3-.6v-17.6l-1.7.2-1.8.3-.3 8.6-.3 8.7h-8.7c-4.8.1-20.5.1-35 .2l-26.2.1-.7-.7-.7-.7.3-45.2.3-45.2 1.1-.8 1.2-.8 61.5.6 61.5.6.8.8zm132.6-.1.6 1v90l-.7.8-.8.7-21.2-.1c-11.7 0-22.4-.3-23.8-.5-1.4-.2-3.2-.5-4.1-.5l-1.6-.2-.7-9-.8-9h-.6c-.4 0-1.2.4-1.8.8l-1.1.7-.2 8-.2 7.9-1.2.8-1.2.8h-68.8l.6-17.8c.4-9.7.7-30.6.7-46.4v-28.7l4.8-.3c2.6-.2 31-.3 63.1-.2l58.4.3.6.9zm101.4-.1 3.7.6.1 27.1c.1 14.9 0 32.5-.1 39.1-.1 6.6-.3 15-.3 18.7l-.1 6.7-2.8.6-2.8.6-2.2-.7-2.3-.7-8-.1-8-.1-.3-9-.3-9-.9-.9-1-1-1.1 1.1-1.1 1.1-.3 5.3c-.1 3-.3 7.1-.4 9.1l-.1 3.8h-28v-17.9l-1.1-.6-1-.7-.7.7-.7.7-.5 8.6-.5 8.7-17.9.3-17.9.2.6-15.7c.4-8.7.7-29.6.7-46.5V1323l42.8-.3c42.1-.3 45.1-.2 52.5 1zm65.9 11.5c.2 6.8.1 15-.2 18.3l-.5 6-8.8.3-8.8.3.3 1.7.3 1.7 8.8.3 8.8.3-.3 18.2c-.1 10-.4 21.7-.6 25.9l-.4 7.8H1029v-18h-.9c-.5 0-1.3.6-1.8 1.2l-1 1.3-.2 7-.2 7-1.3 1-1.3 1-7.6-.3-7.7-.4v-16.9l-1.5-.6c-.9-.3-1.8-.3-2-.1-.3.3-.6 4.3-.7 9.1l-.2 8.5-2.1.4c-1.2.3-4.9.3-8.2 0l-6.1-.4.4-38.2c.3-20.9.5-41.6.4-45.8v-7.7l7.3-.3c3.9-.2 16.7-.4 28.4-.6l21.2-.3.3 12.3zm-734.1 71-.2 8.3-.7.7-.7.7-4.2-.6-4.2-.6 4.7-8.7c2.6-4.9 4.9-8.6 5.1-8.4.2.2.3 4.1.2 8.6z"/><path d="m232.5 407-.7 1.2 1 1 1 1 1.8-.4 1.9-.3v-3l-2.2-.3-2.1-.3-.7 1.1zm472.8 178.7-1.3.5v1.4c0 .7.7 3.2 1.6 5.4l1.6 4h4.8v-2l2.5-1 2.5-1v-1.2c0-.7-.6-2-1.3-2.9l-1.2-1.6-2.5-.5c-1.4-.3-3.2-.8-4-1.1l-1.5-.5-1.2.5zm-9.1 15.5-1.2 1.2v5.6l2 2 1.9 1.9 2.7.7 2.7.7 1.6-1 1.6-1 .3-2.9.3-3-2.3-2.1-2.3-2.1-3-.6-3-.7-1.3 1.3zm7.8 6c0 .4-.5 1-1.2 1.4l-1.1.7-1.3-1.8-1.3-1.8.5-.8.5-.9 1.9 1.3c1.1.6 2 1.5 2 1.9zm3-5.7c0 .8.2 1.5.4 1.5s1.1.3 2 .6l1.6.6V600h-4v1.5zm-12 12c0 .8.9 2.9 2 4.7 1.1 1.8 2 3.7 2 4.2v.8l-2.5-1.6c-1.3-.9-3.1-1.6-4-1.6H691v1.8c0 1 .7 2.7 1.5 3.8.8 1 1.5 2.4 1.5 3.1v1.2l-2.7-1.4-2.8-1.5-1.5 1.6-1.5 1.5 2.2 1.7c1.2.9 3.8 2.8 5.8 4.2 2.1 1.4 4.5 3.2 5.4 4.1l1.8 1.6h3.3v-5.6l-.9-.5c-.5-.3-1.1-1.5-1.4-2.7l-.6-2.1 2 2.1 2 2.1h3l.5-1.4.5-1.4-4.7-8.8c-5.5-10.4-6.2-11.4-8-11.4H695v1.5zm-18.4 34.6-2.6 2v2.4c0 1.3.5 3.6 1.2 5l1.2 2.7 3.8 1.9 3.7 1.9h6.8l2.1-2.3 2.2-2.3v-2.1c0-1.2-.4-3.3-.9-4.6l-1-2.4-3.4-2.2-3.4-2.1h-7l-2.7 2.1zm11.2 4.5 2.3 1.6-.3 2.1-.3 2.2-3.7.3-3.7.3-1.6-2.5-1.7-2.6.6-1.5.5-1.5h5.7l2.2 1.6zm-19.2 10.8-2.6 2.5v5.9l5.1 4.1 5.2 4.1h4.9l2.9-2.9 2.9-2.9V669l-2-2-2-2h-1.7c-.9 0-2.4-.6-3.2-1.4-.9-.8-2.8-1.7-4.3-2.1l-2.7-.7-2.5 2.6zm4.1 6.3-1.7 1.7v-2c0-1.1.3-2.4.7-2.8l.7-.6 1 1 1 1-1.7 1.7zm8.9 1.4.6 1.1-1.6 1.6-1.6 1.6-1.2-1.2-1.1-1.1 1.3-1.6c1.5-1.8 2.6-1.9 3.6-.4zm-20.9 6.6c-1.4 1.4-.5 2.3 6.8 6.3l7.5 4.1 1.8-.3 1.7-.3v-2.8l-7-3.8c-6.9-3.7-9.5-4.5-10.8-3.2zm-6.3 15.8-.6 1.5 1.2 1.5 1.1 1.4-2.8 1.5c-1.5.8-3.6 2.4-4.5 3.5L647 705v1.8c0 .9.7 2.5 1.5 3.6l1.4 1.9 1.6-.7 1.6-.6.5 1.5.6 1.5h5l-.7-2.9-.6-2.8 2.8-1.8c1.5-1 3.3-2.6 4-3.4l1.2-1.6.1-2.3v-2.3l-3.4-1.4c-1.9-.8-3.7-1.9-4.1-2.5-.3-.5-1.3-1-2.1-1h-1.5l-.5 1.5zm4.1 9.1c-1.6 1.3-3.8 3.2-4.7 4.1l-1.8 1.6v-3.4l3.4-1.4 3.4-1.4.6-1.7.6-1.7.8.7.7.8-3 2.4zm-21.8 13.8-.5 1.4 2.9 2.8c3.3 3.2 3.4 3.4 1.5 5.9l-1.4 2-2.1-1.9-2-1.8-1.6.5c-.8.4-1.5 1-1.5 1.5s3 3.9 6.8 7.6l6.7 6.6h4.5v-3.1l-3-2.6-3-2.5v-1.6c0-1 .5-2.4 1-3.2l.9-1.4 2.4 2.2 2.3 2.2h3.4v-1.1c0-2.6-12.9-14.9-15.6-14.9h-1.2l-.5 1.4zM403 943.5v1.5h2v-3h-2v1.5zM157.6 105.9l-2.8 2.9.4 1.9.3 1.8 2.3.3 2.3.4.6 1.4.5 1.4h2.6l1.7-2.6 1.6-2.5-.9-1.2c-.6-.7-1.2-2.3-1.4-3.7l-.3-2.5-2-.3-2-.3-2.9 3zm-16.5 5.5-2.5 1.4-.7 1.8c-.4 1.1-.8 3.9-.8 6.2l-.1 4.4 1.7 2.9 1.7 2.9h8.1l2.4-1.9 2.4-1.8.4-5 .5-5-3.7-3.6-3.8-3.7h-1.6c-.9.1-2.7.7-4 1.4zm7.3 6.8 1 2.8-1 2.7-.9 2.8-2.3.3-2.2.3-1-2.6c-.5-1.4-1-3.6-1-4.9v-2.2l1.2-1.2 1.3-1.3 2 .3 2 .3.9 2.7zm-18-5.9c-.3.8-.4 5.1-.2 9.8l.3 8.4 1.8.3 1.7.3V111h-3.1l-.5 1.3zm25.1 51.7-.6 1 .6 1 .6 1h4.1l-.7 2.2c-.4 1.3-.8 4.1-.9 6.3l-.1 4 1.7.3 1.6.3.7-4.1.7-4.1 2.5-3 2.5-2.9-1.2-1.5-1.2-1.5h-9.7l-.6 1zm4.2 82.8-3.7 3.8v1.5c0 .8.5 2 1.2 2.7l1.2 1.2h4.6v4h4v-1.8c0-1 .5-2.3 1.1-2.9l1.2-1.2-.8-1.8c-.4-1-.7-2.8-.6-4.1l.3-2.3-1.2-1.5c-.7-.7-1.8-1.4-2.4-1.4h-1.2l-3.7 3.8zm-1.9 94.3-1.8 1v4.9h.8c.4 0 1.8-.7 3-1.6l2.3-1.6.6.6.5.5-3.7 3.5-3.7 3.5.4 2.3.3 2.3h11v-4l-3 .3-3 .3 3.3-3.3 3.2-3.4v-3.1l-1.8-1.6-1.9-1.7h-2.4c-1.3 0-3.2.5-4.1 1.1zm-2.3 87.9-.6.9.7 2.6.7 2.7 2.1.8 2.1.9h-2.7l-2.8.1v3l2.5 1.2 2.5 1.1 2.6-1.2 2.6-1.2-.6-5.1c-.4-2.9-.9-5.5-1.2-6l-.5-.8h-6.8l-.6 1zm-16.7 10.2-3 3.2.5 4.4.5 4.4 1.9 2.7 2 2.6 4.5.3 4.4.3 1.8-2 1.8-1.9.5-4 .5-4-1.8-3.1-1.8-3.1-3.2-1.5c-1.8-.8-3.7-1.5-4.4-1.5h-1.2l-3 3.2zm7.6 2.4 1.5.6.7 3.3.6 3.3-1.1 2.1-1.2 2.1h-3.6l-1.1-2.5c-.7-1.4-1.2-3.6-1.2-4.8v-2.3l1.2-1.2c1.4-1.4 2-1.4 4.2-.6zm-16.7-4-.7.7v17.5l1.7.6 1.6.7.9-.9.9-.9-.3-8.9-.3-8.9-1.5-.3c-.9-.1-1.9 0-2.3.4zm28.1 51.1-2.8.4v2.9h5.1l-.8 2.2c-.4 1.3-.8 4.1-.8 6.3v4h3l.3-3 .4-2.9 2.9-3.4c1.6-1.8 2.9-3.7 2.9-4.3v-.9l-2.6-1c-1.4-.6-3.1-.9-3.7-.9-.7.1-2.4.4-3.9.6zM28.4 548.5c-1.7.8-3.6 2.1-4.4 3l-1.3 1.6 1 1 1.1 1.1 5.2-2.3 5.3-2.3 6.5 1.7 6.6 1.7.9-.9 1-1-.6-1.4-.5-1.4-4.6-1.2-4.5-1.1-4.3.1-4.3.1-3.1 1.3zm7.4 15-2.6 2.5-.6 3-.5 3H29v-4.9l.9-.5c.5-.3 1.1-1.5 1.4-2.6l.5-2H28l-2.1 2.1-2.1 2.1.5 4 .5 3.9 1.2 1.4 1.2 1.5h5.4l2-1.5 2.1-1.4.7-3.2c.3-1.8 1.1-3.8 1.7-4.6l1.2-1.3 1.3 1.1 1.4 1.1v4.1l-1.6 1.8-1.6 1.8.5 1.6c.8 2 2 1.9 4.7-.3l2.2-1.8.5-4.4.5-4.5-2.2-2.3-2.1-2.2h-5.6l-2.5 2.5zm122 3.5-3.7 3-.6 2.1-.7 2 1.2 1.4 1.2 1.5h5l.5 2 .5 2h2.7l1.7-3.5 1.6-3.5-1.2-1.5-1.2-1.5.5-2.2.6-2.2-1.1-1.3c-1.6-1.9-3-1.6-7 1.7zM27.5 580.9l-3 .6.3.8c.1.4.2 1.1.2 1.7v.9l6.8.3 6.7.3-5.8 3c-3.2 1.6-6.5 3.8-7.4 4.7l-1.5 1.7.5 1.6.6 1.5H47v-3.9l-6.7-.3-6.8-.3 5.9-3.5c3.2-1.9 6.4-4.2 6.9-5.1l1-1.6-.6-1.7-.6-1.6-7.8.1c-4.3.1-9.1.4-10.8.8zm1.9 21.1c-1.2.5-2.9 1.9-3.8 3.2l-1.6 2.2v4.8l1.7 2.9 1.7 2.9 3.6 1c1.9.5 4.6 1 5.9 1h2.3l3.9-2.2 3.9-2.1 1-3.2 1.1-3.2-1.1-2.5-1.2-2.5-2.8-1.6-2.8-1.7-4.9.1h-4.8l-2.1.9zm12.8 4.6.8.5v5.8l-1.9 1.1-2 1h-6.8l-1.7-1.9-1.8-2 .4-1.8.3-1.7 2.5-1.3 2.5-1.3 3.5.6c1.9.3 3.8.8 4.2 1zm-17.1 15.6-.8 2.3.2 3.2c.1 1.8.2 4.9.3 6.8l.2 3.5h4.1l.5-2.9.6-2.9 8.9-.7 8.9-.7V627h-7.9c-4.4 0-8.6-.3-9.5-.6l-1.6-.6V620h-3l-.9 2.2zm7.2 17.9-3.2.9-2 2.6-2.1 2.7v4.8l1.5 2.8 1.4 2.9 5 1.2 4.9 1.2 4.5-2 4.5-2 1.1-2c1.4-2.7 1.4-5.5-.1-8.7l-1.1-2.5-5-1.5c-2.8-.8-5.3-1.5-5.6-1.4-.3 0-2 .5-3.8 1zm9.5 5.5c2.8 1.9 2.8 3.2 0 6.1l-2.1 2.3h-6.6l-1.5-1.6-1.6-1.5v-3.7l1.3-1c1.2-1 4-1.9 6.7-2.1.9 0 2.6.6 3.8 1.5zm2.5 14.6-.8 1.3-.1 4.5v4.5l-8.6.5-8.6.5-.7.7-.7.7.5 1.6.6 1.5h20l1.6-1.6 1.6-1.6-.3-6.7-.3-6.6-1.7-.3-1.6-.3-.9 1.3zm112.5-.1-1.8 1v4.9h1.4c.8 0 1.8-.5 2.1-1 .3-.6 1.4-1 2.3-1h1.6l-3.8 3.5-3.8 3.4.4 2.3.3 2.2 3.5.8 3.5.7 2.3-.6 2.3-.5-.3-1.7-.3-1.6-3.5-.5-3.5-.5 3.3-2 3.3-2 .6-2.4.6-2.4-2.3-1.9-2.2-1.8h-2.2c-1.1 0-2.9.5-3.8 1.1zM29.5 681.9l-4 .6v3l11-.4c6.1-.1 11.2-.5 11.4-.7.2-.2.1-1-.2-1.9l-.6-1.5-6.8.1c-3.7.1-8.6.5-10.8.8zm-4.2 9.7-.6 1.5 4.4 4.5 4.3 4.4h-6.2l-1.2 1.5-1.2 1.4.7 1.1.6 1h18.4l1.4-.9 1.4-.9-.6-1.6-.6-1.6H38v-.8c0-.9 5.5-5.2 6.6-5.2 1 0 3.3-3.3 3.4-4.8V690h-1.5c-.8 0-3.8 1.4-6.6 3.1l-5 3.2-3.3-3.2c-1.7-1.7-3.8-3.1-4.4-3.1h-1.3l-.6 1.6zM23.5 717l-.7 1.2 2.3 1.6c3.2 2.3 5.6 3 10.9 3l4.5.1 4.5-1.7 4.5-1.8.3-1.8.4-1.8-3.9.7c-5.6 1-13.2 1.1-17.9.2l-4.2-.8-.7 1.1zm7 24.9c-1.1.5-2.8 1.8-3.8 2.9l-1.8 2 .3 5.3.3 5.4h21.9l.7-2.8.8-2.8-.6-3.6-.6-3.5-3.1-1.9-3.1-1.9-4.5.1c-2.5 0-5.4.4-6.5.8zm11 5.4 2.6 2.2-.6 1.6-.6 1.7-4.5.5c-2.5.2-5.4.2-6.5 0l-1.9-.5v-5.5l2.3-1.1c1.2-.6 3.2-1.1 4.4-1.1l2.2-.1 2.6 2.3zm114.2 5.4c-.4.3-.7 1.5-.7 2.5v1.8h3.3l-1.6 1.8-1.7 1.9v4.4l1.5.5 1.5.6 3.5-.6 3.5-.7v-3l-2.2-.9-2.3-.9h1.2l1.2-.1 1.1-2 1.1-2.1-.6-1.9-.6-2h-3.8c-2.1 0-4.1.3-4.4.7zm-16.1 9.5-2.6 2.3-.2 2c0 1.1 0 3.6.1 5.5l.1 3.5 1.8 2.3 1.8 2.3 3.7.8 3.6.9 1.4-1.2c.8-.6 2.1-2.2 3.1-3.6l1.6-2.4V766l-2-2c-2.2-2.2-6.1-4-8.5-4-.8 0-2.5 1-3.9 2.2zm7.7 3.8 1.7 2v2.6c0 1.4-.5 3.4-1 4.5l-1.1 1.9h-1.1c-.6 0-1.9-1-2.9-2.2l-1.9-2.1v-5.6l1.6-1.5c2-2.1 2.6-2 4.7.4zm-103.8-3.8c-.2.7-.3 2.2-.3 3.3.1 1.1.1 3.2 0 4.7L43 773H27.2l-1.2 1.5-1.2 1.4.7 1.1.7 1.1 9.7-.2 9.8-.1 1.1-.7 1-.6.2-6c.2-3.3.2-6.8.2-7.8L48 761h-4.1l-.4 1.2zM129 770v9.1l1.5.6 1.6.5.6-.6c.8-.7 1.2-13.4.6-16.4l-.5-2.2H129v9zM25.7 781.7l-.7.6V797l2.6.6 2.6.7 8.6-.7 8.6-.6.8-1.3.8-1.2-.2-6.5-.3-6.5-2.2-.3-2.2-.3-.3 5.8-.3 5.8-2.2.3-2.3.3v-2.8c0-1.5-.4-3.4-.9-4.2l-.9-1.4-1.6.6-1.6.6v2c0 1.1-.3 2.6-.6 3.5l-.6 1.6H30l-.2-1.8c0-.9 0-2.7.1-3.9l.2-2.3-1.1-2c-1.1-2.1-2.2-2.5-3.3-1.3zm2.6 21.1-2.3.3v4l10.8-.3 10.7-.3v-4H39c-4.7 0-9.5.1-10.7.3zm-2.3 9.6v1.4l3.1 2.7 3.2 2.6-3.2 3.3c-1.7 1.7-3.1 3.7-3.1 4.4v1.2h3.1l5.2-3.5 5.2-3.5h7.3l.6-1.7.7-1.6-1.3-.9-1.3-.8h-9.1l-3.4-2.5-3.4-2.5H26v1.4zm132.8-.7-3.8.4v3.9h5.2l-.7 2.2c-.4 1.3-.9 3.5-1.2 5l-.5 2.8.6 1.5.5 1.5 1.5-.6 1.4-.5 1.1-4.3 1-4.2 2.1-1.9 2-1.8V813l-2.6-1c-1.4-.6-2.6-.9-2.7-.8-.1.1-1.9.3-3.9.5zM34 845.9l-7.5.6v3l6.5.5 6.5.5-5.5 2.9c-3 1.5-6.3 3.5-7.2 4.4l-1.8 1.5v3.7h23v-3.9l-6.6-.3-6.6-.3 6.6-3.8 6.6-3.9v-3.7l-1.9-1.1c-1.1-.5-2.6-.9-3.3-.8-.7.1-4.7.4-8.8.7zm-1 20c-5.2 1.3-8 4.6-8 9.4v2.4l2.1 2.6 2 2.7 3.9 1.1 3.9 1.2 4.6-1.7 4.5-1.8 1.5-2.1 1.5-2.1v-6.3l-2.5-2.5-2.5-2.6-3.1-.6c-3.5-.7-4.3-.6-7.9.3zm10.6 7.8.7 2.5-1.7 1.6-1.7 1.7h-9L31 878l-1-1.5.2-2.5.3-2.5 3.5-1.1 3.4-1.1 2.8.9 2.8 1 .6 2.5zm-15.3 14-2.3.4v4l10.8-.3 10.7-.3.3-2.3.3-2.2-8.8.1c-4.8.1-9.8.4-11 .6zm129.1 7-3.4 3.7v4.4l1.6.6c.9.3 2.4.6 3.5.6h1.9v3h4v-1.2c0-.6.8-2 1.7-3.1l1.8-1.9-1.8-1.3-1.7-1.2.1-1.9c.1-1.1.1-2.7.1-3.7l-.2-1.7h-4.2l-3.4 3.7zm-130.3 4.9c-2.4 3-2.5 3.9-1 8.2l1 3 3 1.2 2.9 1.2 2.5-1.6 2.4-1.6 1.1-3.9 1-3.9 1.4-.5 1.4-.6.6.6c.3.4.6 1.6.6 2.8v2.1l-1.5 2c-1.9 2.5-1.8 3.1.1 3.8l1.5.6 1.8-1 1.8-.9 1.3-3 1.2-3.1-.6-2.4c-.3-1.4-1.3-3.2-2.2-4l-1.5-1.6h-6.5l-1.7 1.2-1.6 1.3-1.3 4-1.3 4-1-.1c-.5-.1-1.4-.8-1.9-1.7l-1-1.6 1.7-1.9 1.7-1.9V897h-3.9l-2 2.6zm6.3 16.3c-4.4 1.1-5.4 1.9-7 5.8l-1.5 3.5 1.8 3.6 1.8 3.7 3.8 1.4 3.8 1.4 4.7-1.4 4.7-1.5 2.2-3.3c1.3-1.9 2.3-4 2.3-4.8V923l-3.2-3.5-3.3-3.4-3.5-.5-3.5-.5-3.1.8zM43 922l2 2-.9 1.9c-.6 1-1.7 2.3-2.5 3l-1.5 1.3-4.1-.7-4-.7-1-1.9-1.1-1.9 1.1-1.9c1.2-2.3 2.5-2.9 6.8-3l3.2-.1 2 2zm1.6 12.6c-.3.9-.6 3.6-.6 6v4.4H28.5l-1.4.9-1.4.9.7 1.7.6 1.7 10.3-.6 10.2-.7 1.3-1.7 1.4-1.7-.6-5.4c-.7-6.1-1.2-7.1-3.1-7.1h-1.3l-.6 1.6zM28 953l-2 2v9.5l.9 1.4.9 1.5 8.4.3c4.6.2 9.3.1 10.6-.2l2.2-.5v-2.8l-3.7-.9-3.8-.9-.3-3.4-.3-3.5-2.1-2.3-2.1-2.2H30l-2 2zm8 7.1v2.8l-1.1.7-1.1.6-2.1-2-2-2.1 1.7-2.6 1.7-2.6 1.5 1.2 1.4 1.1v2.9zm-9.4 11.8-.6.9.5 1.5c.4.8 1.7 2 3.1 2.7l2.4 1.3v2.2l-3.4 2.3-3.5 2.4.6 1.4.5 1.4h3.2l3.9-2.7 3.9-2.7 1.6 1.2c.9.7 2.5 1.5 3.5 1.8.9.4 1.7 1 1.7 1.5v.9h4v-4.1l-3-1.7-3-1.7.3-1c.2-.6 1.4-1.5 2.7-2.2 2.5-1.2 4-3.1 4-5.1V971h-1.3c-.7 0-2.9 1.1-4.9 2.5l-3.7 2.5H35v-1.9l-3-1.6c-3.3-1.7-4.7-1.9-5.4-.6zm129.6 13.7-2.2 1.5v3.7l1.5.6 1.6.6.5-1.5.6-1.5h2.8v1c0 .5-.4 1-.9 1-.4 0-2 1.1-3.5 2.5l-2.6 2.4v4.9l1.6.6c.9.3 3 .6 4.9.6h3.3l1.2-1.5 1.2-1.4-.7-1.1-.6-1h-2.7l-2.7-.1 2.8-2.2 2.7-2.3v-5.3l-2.2-1.5c-1.2-.9-2.7-1.6-3.3-1.6-.6 0-2.1.7-3.3 1.6zm-111.5 4-.7.7v10.7h-4.9l-.3-3.3-.3-3.2h-3.9l-1 3.3-.9 3.3-1.6-.3-1.6-.3-.3-5.3-.3-5.3-1.7.3-1.7.3v15l10.4.3 10.3.3 1.4-1.2 1.5-1.2-.3-7.1-.3-7.1-1.5-.3c-.9-.1-1.9 0-2.3.4zm85 93.1-.7.6v17.8l1.6.6 1.6.6.9-1.4.9-1.4v-7.2c0-3.9-.3-7.8-.6-8.7l-.6-1.6h-1.2c-.7 0-1.6.3-1.9.7zm9.3 2-2 2.6v7.8l1.5 2.9 1.5 2.9 1.9 1.1 2 1h6l2-2.9 2.1-2.9v-9.1l-2.2-2.5-2.3-2.5-4.2-.5-4.2-.5-2.1 2.6zm8.2 3c.8 1 1.8 3 2.1 4.4l.6 2.5-1.5 2.2-1.5 2.2h-2.6l-1.1-2.3c-.6-1.2-1.4-3.2-1.7-4.5l-.7-2.3 1.8-2c2.1-2.3 2.7-2.4 4.6-.2zm6.4 47.2-.6.9.6 1.6.6 1.6h1.9c2.3 0 2.3-.1.4 4.3-.8 2-1.5 4.6-1.5 5.7v2h3.9l1.1-4 1.1-4 2.6-2.4 2.6-2.4-.6-1.5-.5-1.4-3.2-.7c-1.8-.3-4.3-.6-5.6-.6h-2.3l-.5.9zm.7 84-3.3 4v4.1h2.3c2.7 0 4.1 1 5 3.2l.6 1.8h2.9l1.2-3.5 1.2-3.6-1-1.2-1-1.2-.4-3.5-.3-3.5-2-.3-2-.2-3.2 3.9zm1.5 93.2-1.8 1v4.9h2.9l1-1.7.9-1.8.8.8.8.7-3.2 3.3-3.2 3.3v4.3l1.8.5c.9.2 3.5.4 5.7.3l4-.2v-3l-3.5-.5-3.5-.5 3.3-2.3 3.2-2.3v-5.8l-1.9-1.1c-2.5-1.3-5.1-1.2-7.3.1zm-10.1 98.6-.7.6v7.1c0 3.9.3 8.1.6 9.2l.6 2.2 1.7-.5 1.8-.5-.1-8.1-.2-8.2-.7-1.3c-.9-1.3-2-1.6-3-.5zm176.3 19c-.8.3-2.3 1.2-3.2 2.1l-1.8 1.5v3.8l1.6.6 1.7.6 1.6-2.2 1.7-2.2 1.8.7 1.8.7-4.7 4.3-4.6 4.3.3 2.8.3 2.8 6.8.3 6.7.3v-4.1h-4.7l-4.8-.1 4.3-3.7 4.2-3.7v-5.2l-1.7-1.5c-1-.9-2.7-1.8-3.8-2.1l-2-.5-1.5.5zm553.8 4.4-4.9 5 .3 2.2.3 2.2 2 .3c1.1.1 3 .5 4.1.7l2.2.5.5 2.1.6 2.1 1.8-.4 1.8-.3.4-2 .3-2 1.7-1.1 1.6-1.2-1.8-1.9-1.7-2v-9.3h-4.4l-4.8 5.1zm-578.3-2.9c-1.1.6-2.6 1.8-3.2 2.6l-1.3 1.6v10.3l2.5 2.7 2.4 2.6h2.6c1.5 0 3.5-.5 4.7-1.1l2-1.1 1.4-3.3 1.4-3.4v-5.9l-3.5-3.1-3.6-3.1h-1.7c-.9 0-2.6.6-3.7 1.2zm7.6 6.9 1.1 2.1-1.2 2.8-1.2 2.9-1.6.6-1.7.6-1.7-2.1-1.8-2.2v-6.7l1.7-1 1.7-.9 1.8.9c1 .5 2.3 1.9 2.9 3zm122-5.5-3.1 2.6v9.1l2.1 3.3 2.1 3.4h3.6c4.7 0 5.8-.8 7.7-5.3 1.9-4.6 1.9-6.1 0-10.2l-1.6-3.2-2.5-1.2c-3.6-1.6-4.9-1.4-8.3 1.5zm7.9 4.3c.5 1.1 1 3.1 1 4.5v2.5l-1.6 1.6-1.6 1.6-1.2-.4c-.6-.2-1.7-1.5-2.3-2.9l-1.3-2.6.6-3.1.7-3.1h4.6l1.1 1.9zm16.6-1.8-4.6 5.1v4.7l4.2.3 4.2.3.6 2.5.6 2.5 1.7.3 1.7.3v-5.2l1.5-.5 1.5-.6v-3.6l-1.4-.5-1.4-.6.5-4.1.6-4.2-1.4-.9c-.8-.5-1.9-.9-2.6-.9h-1.1l-4.6 5.1zm78.1-2.1-2.7 3.2v3.2c0 1.8.5 4.7 1.1 6.5l1.1 3.1 1.8 1c2.1 1.1 6.1 1.3 8.5.4l1.6-.6 1.4-2.9 1.5-2.8v-8l-2.2-2.6-2.3-2.6-3.6-.5-3.5-.6-2.7 3.2zm8.2 3.4 1.2 1.5-.3 3.7-.3 3.7-1.7 1.1-1.8 1.1-1.5-1.6-1.6-1.6-.1-3.1-.1-3.1 1.3-1.6c1.6-1.9 3.4-1.9 4.9-.1zm13.8-4.9c-.4.9-.7 2.1-.7 2.6v.9h6.9l.7 1.1.7 1.1-1 .7c-.5.3-1.5 2.7-2.3 5.3l-1.3 4.8 1.3 1.5c.7.8 1.9 1.5 2.6 1.5h1.4v-6l2.8-4.2c1.5-2.2 3.1-4.7 3.7-5.4l1-1.4-1.5-1.4-1.5-1.5-6.1-.6-6.1-.7-.6 1.7zm62.9.1c-.3.9-.6 4.8-.6 8.7v7.2l.9 1.4.9 1.4 1.6-.6 1.6-.6.1-4.8c.1-2.6.2-6.4.3-8.3.1-1.9 0-4.1-.2-4.8l-.4-1.2h-3.6l-.6 1.6zm128.1.4-2.7 2.1v4l1.6.6 1.7.6 1.7-2.3 1.7-2.3 1.8 1 1.7 1-3.3 2.3c-1.9 1.3-4 3-4.6 3.8l-1.3 1.6v6.7l6.8-.3 6.7-.3v-3l-4.2-.3-4.3-.3v-.8c0-.4 1.8-1.7 4-3l4-2.2v-7.7l-1.3-1.1c-.8-.6-2.7-1.4-4.3-1.7l-2.9-.6-2.8 2.2zm235.4-1.1-1.4.9.6 1.6.6 1.6h7l-1.9 4.2c-2 4.5-2.4 7.5-1.4 10.2l.6 1.6h2.8l.6-2.8c.3-1.5 1-4.1 1.5-5.9l1-3.1 1.5-1.3c.8-.7 1.9-2 2.5-3l.9-1.8-.6-1.5-.6-1.6h-12.3l-1.4.9zm72.2.1-2.2.9-1 2-1.1 2v9.9l2.6 3.1 2.6 3.1h5.4l2.6-2.8 2.5-2.7.6-3.8.6-3.7-1.1-3.1-1-3-2.9-1.4c-3.2-1.7-4.4-1.8-7.6-.5zm6.1 6.2c.9 1.2 1.6 3 1.6 3.9v1.7l-1.9 2.3-1.9 2.4-2.1-1.9-2.1-1.9v-6.3l1.2-1.2c.7-.7 1.8-1.2 2.4-1.2h1.3l1.5 2.2zm-889.9-5.2c-1.1.4-2.8 1.7-3.9 2.9l-1.9 2 .5 5.6.5 5.5 1.8 2 1.8 2h7.6l2-2.6 2.1-2.7v-9.6l-2.2-2.5-2.3-2.4-2-.5-2-.6-2 .9zm4.7 5.7 1.8 1.6v5.6l-1.6 1.5c-.8.9-2.2 1.6-3 1.6H167l-1-2.6c-.6-1.4-1-3.5-1-4.8v-2.2l1.2-1.2c1.6-1.6 2.8-1.5 5 .5zm867.6-3.5c-.3 1.8-.6 5.8-.7 8.8l-.1 5.5.9 1.4.9 1.4 1.6-.6 1.7-.7-.3-9.2-.3-9.3-1.6-.3-1.7-.3-.4 3.3zm-847.1-1.5c-.3.4-.5 5-.6 10l-.2 9.3h4.1l.5-2.3c.3-1.2.5-5.6.3-9.7l-.3-7.5-1.7-.3-1.6-.3-.5.8zm118.5 15 .3 1.8 1.8.3 1.7.3v-4.1h-4.1l.3 1.7zm131.1-.1-.6 1.5 1.1 1.1 1 1 1.1-.6 1.1-.7v-3.9h-3.1l-.6 1.6zm103.9.6.3 2.3h3l.3-2.3.3-2.2h-4.2l.3 2.2zm-365.8.3-.7 1.6 1.1 1.1 1.1 1.1 1.6-.7 1.6-.6-.3-1.7-.3-1.8-1.8-.3-1.7-.3-.6 1.6zm411.9 41.2-1.8 2.7.1 7.1v7l1.7 3.2 1.8 3.3h2.7l.4-1.2.4-1.2-1.4-4-1.4-4.1.1-4.2v-4.2l1.2-1.9 1.2-1.9-.6-1.7c-.9-2.3-2.4-2-4.4 1.1zm-230.1-.1-2.2 1.5-1.6 3.1-1.6 3.1.7 4.5.7 4.5 2.8 2.9 2.8 2.8h5.8l2.1-1.5 2.1-1.5.7-3 .6-3-.6-1.9-.6-1.9-2.6-.5c-1.5-.3-3.3-.3-4 0l-1.3.5v3.6l2.1.5 2.1.6-.4 1.3-.5 1.3-2 .3-2.1.3-1.6-2.3-1.6-2.2v-6.5l1.6-1.5c2-2 3.3-2 5.5 0l1.8 1.6 1.6-.5 1.5-.6v-3.1l-3.2-2c-4-2.4-5.7-2.5-8.6-.4zm40-.9-4.3.4.3 2.2.3 2.2 2.7.3 2.7.3.6 6.7c.3 3.7.7 7.6.8 8.7l.2 2h3l.3-8.8.3-8.7h1.9c1 0 2.5-.3 3.4-.6l1.6-.6v-2.6l-3.1-1.1c-1.8-.6-3.9-1-4.8-.9-.9.1-3.5.3-5.9.5zm79.7-.1-1.7.5-.3 2.7c-.2 1.5-.3 6.4-.1 10.9l.4 8.3h13.6l1.3-1.6 1.3-1.6-.1-4.1c-.1-2.3-.2-5.8-.2-7.7v-3.5l-1.4-1.9-1.4-1.9-4.9-.3c-2.7-.1-5.6-.1-6.5.2zm9.1 6.9v1.5h-1.2c-.7 0-2.3-.3-3.5-.6l-2.3-.6v-2.7l1.8-.4 1.7-.4 1.8.9 1.7.9v1.4zm0 6.5 1.5.9-1.1 1.8-1.1 1.8-3.2.3-3.1.3v-4.9l1.3-.5c2-.9 4.1-.7 5.7.3zm33-13.1-2.5.7-.5 8.4-.6 8.5.8 2.2.8 2.3h2.8l.6-2.3c.3-1.2.6-3.2.6-4.5v-2.2h3.9l2.2 4.5 2.3 4.5h3.6v-1.2c0-.6-.5-2.7-1.2-4.5l-1.2-3.3 1.6-2.8 1.6-2.7-.5-2.8-.5-2.8-1.7-.8c-.9-.5-3.4-1.1-5.6-1.4l-4-.5-2.5.7zm9.5 5.1.7 1.1-1.2 1.4-1.2 1.5H525v-5h6.9l.6 1zm10.1-3.9-2.6 2v4.5l1.3 1.7 1.2 1.6 4 1.3 4 1.3.3 1.8.3 1.7-1.7.7-1.7.6-3.4-1.8-3.4-1.8-1.1 1.1-1.1 1.1 1.6 2.4 1.6 2.4 4.2.6 4.3.6 1.8-1 1.8-1 1.5-3 1.6-3-.6-1.9-.6-2H553v-1.6l-3.7-1-3.6-.9-.5-1.2-.4-1.3 1.7-.6 1.6-.7 2.4 1.3 2.4 1.3 1.6-.6 1.5-.7-1.2-2-1.3-2-2.9-1c-4.1-1.4-5-1.3-8 1.1zm15.4-.1c0 .8.4 2 .8 2.6l.7 1.2 2.5.3 2.5.4.5 8.2.5 8.1.7.7.7.7 1.6-.5 1.5-.6v-17.2l3-.6 3.1-.6-.3-1.6-.3-1.6-8.8-.5-8.7-.5v1.5zm62.4-.6-.6 1.5.4 9.5.3 9.4.7.8.8.7 1.5-1.3 1.5-1.2v-7.8h7l.1 2.2c.1 1.3.2 2.7.4 3.3.1.5.3 1.6.3 2.2l.2 1.3h3.8l.4-1.8c.2-.9.1-5.8-.2-10.7l-.5-9h-3l-.3 3.5-.4 3.5-1.1.7c-.7.4-2.4.8-3.9.8H625l-.4-2.3c-.3-1.2-.7-3.1-.8-4.1l-.3-1.9-1.2-.5-1.3-.4-.6 1.6zm24.1 0-3 1.3-1.3 2.7-1.2 2.7v5.9l1.6 3.8 1.5 3.9 2.5 1.2c3.1 1.4 4.7 1.4 7.7 0l2.4-1.1 1.7-3.4 1.6-3.5v-8.2l-3.6-3.3-3.5-3.4h-1.7c-.9.1-3.1.7-4.7 1.4zm7.3 4.8 1.2 1.2v8.5l-1.6 1.5c-2 2.1-3.7 2-5.7-.2l-1.7-1.8-.6-3.2-.7-3.3 1.8-1.9 1.8-2h4.3l1.2 1.2zm163.4-5.2-2.3 1 .3 10.2.3 10.3h4l.5-4 .5-4 3.3-.5 3.3-.5-.1-.8v-2.7h-7.1l.3-2.3.3-2.2h9.3l.7-.7.7-.6-.7-2.1-.6-2.1-5.2.1h-5.2l-2.3.9zm-486.1.9-1.4.9.7 9.8.8 9.9 1 1.2 1 1.3h12.3l1.4-.9 1.4-.9-.6-1.6-.6-1.6H333v-5h2.4c1.3 0 3.1-.3 4-.6l1.6-.6v-3.7l-3.7-.3-3.8-.3-.3-1.8-.3-1.7h9.6l1.4-.9 1.4-.9-.6-1.6-.6-1.6h-13.6l-1.4.9zm48.6-.3-.7.7v8.8c0 4.8.3 9.4.6 10.3l.6 1.6h3.7l.3-4.3.3-4.2h7l.5 3.9.5 3.9 1.1.4 1.1.4.9-1.3.9-1.3-.3-9.3-.3-9.3-1.6-.6-1.5-.6-.9 1.4c-.5.8-.9 2.7-.9 4.2v2.8l-3.7-.3-3.8-.3-.5-3.4-.5-3.4-1.1-.4c-.5-.2-1.3 0-1.7.3zm53.2 2.5-2.9 3.1v7.9l1.4 3.4 1.5 3.5 3.5 1.6 3.5 1.7 3-1.2 3-1.3 1.5-3.3 1.6-3.3v-9.3l-3.2-3-3.2-2.9h-6.8l-2.9 3.1zm11.5 6.2.9 2.5-1.2 3.1-1.3 3-2.1.7-2.1.7-1.8-2.3-1.8-2.2v-6.8l2.1-2.1 2-2 2.2 1.4 2.2 1.4.9 2.6zm7.3-8.6-.7.6v20.7h3.9l.3-4.7.3-4.7 3.5-.1h3.5l.3-1.7.3-1.7-2.8-.6c-1.5-.4-3.4-.8-4-1.1l-1.3-.3v-3l5.2-.3 5.3-.3.3-1.8.3-1.7h-13.8l-.6.7zm49.3 8.3v9l2 2 2 2h8.9l2-2.6 2.1-2.7v-6.8c0-3.7-.3-7.4-.6-8.3l-.6-1.6H511v14.9l-1.6 1.5c-.8.9-2.2 1.6-2.9 1.6h-1.4l-1.1-1.9-1-2V1489h-4v9zm101.4-7.9-.6 1.1.8.8c.5.5 2 1 3.4 1.2l2.5.3.5 8.5.5 8.5h4l.3-8.8.3-8.7h5.9v-4h-16.9l-.7 1.1zm61.3-.3c-.3.4-.5 3.9-.6 7.7v7.1l1.9 3.2 2 3.2h8.7l2.1-2.3 2.2-2.3v-16.5l-1.5-.6-1.6-.5-.6.6c-.3.3-.7 3.8-.7 7.8l-.1 7.3-.8 1.2-.8 1.3H667l-.4-2.3c-.3-1.2-.8-5.2-1.1-9l-.7-6.7h-1.3c-.8 0-1.6.3-1.8.8zm22.5.8-2.2 1.5v5.8l1.6 1.6 1.6 1.6 2.9.6 2.9.5 1.1 1.4 1.1 1.3-.7 1.1-.6 1h-5.8l-.9-1.7-1-1.6-1.6.6-1.6.6v2.8l2.1 1.9 2.1 1.9h8.6l2.1-1.9 2.1-1.9v-1.8c0-1-.5-2.9-1.1-4.2l-1.1-2.4-4.2-1.3c-2.2-.8-4.5-1.6-4.9-2l-.8-.7 1.5-1.2 1.5-1.3 3.5 1.3c4.1 1.5 4.7 1.2 4-1.8l-.6-2.1-2.1-.6c-1.2-.3-3.3-.6-4.7-.6h-2.6l-2.2 1.6zm21.4-.8c-.3.5-1.9 4.6-3.6 9.3l-3.1 8.4.6 2.2.5 2.3h1c.5 0 1.5-.9 2.3-2l1.4-2.1 3.7-.1 3.7-.1 1.5 2.1 1.5 2.2h2.9v-5.3l-2.6-7.6c-1.4-4.2-3.1-8.2-3.6-8.9l-1-1.2h-4.7l-.5.8zm5.4 11.4v1.8h-5v-1.5c0-.8.6-2.4 1.3-3.5l1.2-2 1.3 1.7c.6.9 1.2 2.5 1.2 3.5zm9.7-11.5-.7.6v19.5l1.5 1.2 1.5 1.3.8-.7c.4-.4.9-3.3 1.2-6.4l.5-5.7 3.6 6 3.5 6 1.8.3 1.9.4.8-1.4.9-1.3v-17l-.9-1.4-.9-1.4-1.5.6-1.6.6-.3 5.8-.3 5.8-2.7-5.1c-3.9-7.4-6.9-9.9-9.1-7.7zm21.9.8-.6 1.7v17.4l1.2 1.2 1.2 1.2h8.5l2.6-2.3 2.6-2.2.6-6.1.5-6-2.4-2.9-2.5-2.8-5.5-.5-5.5-.4-.7 1.7zm11.4 5.4c.5 1.1 1 3.2 1 4.6 0 1.4-.5 3.5-1 4.6l-1.1 1.9h-5.7l-.4-5.8c-.2-3.1-.3-6-.1-6.5l.4-.7h5.8l1.1 1.9zm9.6-4.8-2.6 2v4.5l1.3 1.7 1.2 1.7 4 1.3 4 1.4.3 2.1.3 2-1.8.4-1.8.5-3.2-1.9-3.3-1.9-1 .6c-1.6 1-1.2 2.4 1.5 5l2.4 2.5h3c1.7 0 4.1-.5 5.5-1.1l2.4-1.1.6-2.2c.3-1.1.6-3.1.6-4.2v-2.2l-1.5-1.2c-.8-.7-3.2-1.8-5.2-2.5l-3.7-1.3-.4-1.1-.4-1.1 1.7-.7 1.8-.6 1.8 1.1c1 .7 2.6 1.2 3.4 1.2h1.5v-3.9l-3-1.6c-1.6-.8-3.8-1.5-4.8-1.5h-1.9l-2.7 2.1zm32.7.3-3.1 2.6-.7 4-.7 4 2.2 4.5 2.2 4.5 2.3.6c1.2.3 3.7.4 5.5.2l3.3-.3 2.1-2.8 2.1-2.8V1495l-2.6-2.5-2.5-2.6-3.5-.5-3.5-.6-3.1 2.6zm8.9 4.3 1.8 1.6v7l-1.7 1.9-1.6 1.8h-3.5l-1.1-1.4c-.7-.8-1.5-3-1.8-5l-.6-3.6 1.8-2 1.8-2h1.5c.9 0 2.4.7 3.4 1.7zm39.9-5-2.2 1.8.3 9.5.3 9.5h4l.3-4.2.3-4.2 3.7-.3 3.7-.3.3-1.7.3-1.7-3.8-.3-3.8-.3v-4l3.5-.1c1.9 0 4.3-.1 5.3-.2l1.7-.2v-3.8l-1.6-.6c-.9-.3-3.5-.6-5.9-.6h-4.3l-2.1 1.7zm17.9.8-1 2.6v7.2c0 4 .3 8.2.6 9.5l.7 2.3 7.6-.3 7.6-.3v-4l-5.7-.3-5.8-.3v-4.8l3.7-.3 3.8-.3.3-1.8.3-1.7h-7.2l-.6-1.6-.6-1.6 1.4-.9 1.4-.9 3 .5 3 .5 1.3-.8 1.4-.9-.4-1.9-.3-1.9-6.8-.3-6.7-.3-1 2.6zm19.1-1.6-1.5.9-.1 9.4-.2 9.3.9 1.7.9 1.8h14.8l.6-1 .7-1.1-1.2-1.4-1.2-1.5H885v-4h5.6l1.9-1.3 1.8-1.4-.7-1.1-.7-1.2h-5.5l-1.2-1.2c-.7-.7-1.2-1.6-1.2-2v-.8h9.5l1.3-.9 1.4-.8-.4-1.9-.3-1.9-6.5-.3-6.5-.2-1.4.9zm41.9 1.4v2.3l1.2 1.2 1.3 1.3-.3 5.7c-.1 3.1-.3 7.5-.5 9.7l-.2 4h2.8l1.4-4 1.4-4-.3-7.8-.3-7.9-2-1.4c-1-.8-2.5-1.4-3.2-1.4H924v2.3zm-606.1-.6c-.1.5-.2 2.1-.3 3.8l-.1 3h-7l-.5-3-.5-3-1.8-.3-1.7-.3v21.2l2.3-.3 2.2-.3-.3-4.3-.3-4.2h8.1v2.6c0 1.4.5 3.4 1 4.4l1 1.9 1.5-.5 1.5-.6v-8.2c0-4.4-.3-9.1-.6-10.4l-.6-2.2h-1.9c-1.1 0-2 .3-2 .7zm30.9 1.6c-.3 1.3-.3 6.3 0 11l.5 8.7h3.7v-22h-3.8l-.4 2.3zm550.9-1.6c-.4.3-.7 1.4-.7 2.4v1.8l2.8.3 2.7.3.3 6.5c.1 3.6.4 7.5.7 8.7l.5 2.3h4v-18h7.1l-.3-1.7-.3-1.7-2.5-.7c-1.4-.4-5-.7-8.1-.8l-5.6-.1-.6.7z"/></svg>