<svg version="1.0" xmlns="http://www.w3.org/2000/svg" viewBox="0 0 1000 780" width="1000" height="780" >
<defs>
<style>
svg {
	fill: none;
	stroke: #000;
	stroke-width: 1;
}
#bars {
	fill: hsla(0deg,0%,99.5%,1);
	stroke-width: 1.25;
}
text {
	fill: #000;
	stroke: #000;
	stroke-width: 0;
	font: 29.5px "Routed Gothic", Arial, sans-serif;
	text-transform: uppercase;
	word-spacing: 0.2ch;
}
text.vertical {
	transform-origin: 35px 365px;
	rotate: -90deg;
}
#labels text {
	font-size: 24px;
}
#y-axis {
	translate: 0 7px;
}
</style>
</defs>
	<g id="chart">
		<rect x="100" y="13" width="890" height="695" />
		<path d="M 100,154 h 888 " />
		<path d="M 100,292 h 888 " />
		<path d="M 100,430 h 888 " />
		<path d="M 100,568 h 888 " />
	</g>
	<g>
		<text x="35" y="365" text-anchor="middle" class="vertical">Percentage of gamma-ray photons</text>
		<text x="550" y="775" text-anchor="middle">Gamma - ray energy (MeV)</text>
	</g>
	<g id="labels">
		<g id="y-axis">
			<text x="92" y="13" text-anchor="end">100</text>
			<text x="92" y="154" text-anchor="end">80</text>
			<text x="92" y="292" text-anchor="end">60</text>
			<text x="92" y="430" text-anchor="end">40</text>
			<text x="92" y="568" text-anchor="end">20</text>
			<text x="92" y="708" text-anchor="end">0</text>
		</g>
		<g id="x-axis">
			<text x="100" y="735" text-anchor="middle">0</text>
			<text x="150" y="735" text-anchor="middle">0.75</text>
			<text x="246" y="735" text-anchor="middle">2</text>
			<text x="432" y="735" text-anchor="middle">4.5</text>
			<text x="695" y="735" text-anchor="middle">8</text>
			<text x="990" y="735" text-anchor="middle">12</text>
		</g>
	</g>
	<g id="bars">
		<rect x="100" y="221" width="50" height="487" />
		<rect x="150" y="639" width="96" height="69" />
		<rect x="246" y="646" width="186" height="62" />
		<rect x="432" y="646" width="263" height="62" />
		<rect x="695" y="691" width="295" height="17" />
	</g>

	
</svg>