<svg version="1.0" xmlns="http://www.w3.org/2000/svg" viewBox="0 0 1561 1211"><path d="m153.8 17.2-.4 10.3.6 2.5.6 2.5h3.9l.3-12.8.3-12.7h-4.9l-.4 10.2zm16.1-9.5c-.4 2.8-.5 24-.2 25l.5 1.3h3.6l.6-1.6.6-1.6V7h-5l-.1.7zm774.8 6c-.2.1-78.4.6-173.8.9-232.4.9-277.8 1-281.9.6-1.9-.2-65.7-.1-141.7.1l-138.2.4-1.5 1.2-1.5 1.3.3 43.8.3 43.9-1.4.6-1.5.5-.9-.6-.9-.5-3.1.6-3 .7.3 2.6.3 2.7 4.8.3 4.7.3.1 1.5c.1 1.7.1 2.2 0 45.9L206 196h-6.5l-1.4.9-1.4.9.6 1.6.6 1.6h2.8c1.5 0 3.4.4 4.2.9l1.3.9-.6 19.3c-.4 10.7-.9 28.9-1.1 40.6l-.3 21.2-.7 1-.6 1.1h-6l.3 1.7.3 1.8 3.3.3 3.2.3.1 2.7c0 2.2 0 69.3-.1 79.4v2.8h-5.6l-1.2 1.2c-.7.7-1.2 1.5-1.2 1.9v.8l3.8.3 3.7.3v83l-4 .5-4 .5-.3 1.7-.3 1.8h6.9l.5 1.2c.6 1.7-.4 82.2-1 82.8-.3.3-1.9.5-3.6.5h-3.2l-.3 2.2-.3 2.3h2.4c1.4 0 3.2.3 4.1.6l1.5.6-.5 40.1c-.3 22.1-.7 40.7-.9 41.4l-.4 1.2-3.3.3-3.3.3-.3 2.2-.3 2.3h6.9l.6 1.6.6 1.6v26.6c0 14.7-.3 33.2-.7 41l-.6 14.4-1.1.3c-.6.2-2.3.6-3.8.9l-2.8.6v2.9l3.8.3 3.7.3.1 38v38l-.6 2.5-.6 2.5-3.5.5-3.4.5-.3 1.7-.3 1.8h6.9l1.1 1.4 1.2 1.5-.6 39.7c-.3 21.8-.8 40.1-1.1 40.6l-.5.8h-3.2c-1.8 0-3.8.4-4.5.9l-1.4.8.4 1.9.3 1.9 4.5.5 4.5.5.3 15.5c.1 8.5-.2 28.3-.6 44l-.9 28.5 1.4 1.5 1.3 1.4 23.8.1h23.7l.8 4c.5 2.2 1.1 5 1.3 6.3l.4 2.2h3v-9.6l1.2-1.2 1.2-1.2H359v7.9l1.1.6 1 .7 2-1.8 1.9-1.7v-5.7l13.3-.1c13.9-.1 72.5-.1 83.9 0l6.7.1.3 4.2.3 4.3 1.9.3 1.9.4.8-1.4c.5-.7.9-2.7.9-4.5v-3.1l2.8-.6 2.7-.5 10 .5c5.5.2 26.2.6 46 .7l36 .2.6 4.3c.3 2.3.8 4.5 1.2 4.8l.6.6 1.6-.5 1.5-.6v-6.9l1.3-.9 1.2-1 47.9-.1 47.9-.2 1.4 1.1 1.3 1.1v7.8h3.8l.7-5.2.7-5.1 41.7.6c22.9.4 45.5.7 50.2.7h8.7l.9 4.8.8 4.7h4l.3-4.7.3-4.8 40.2-.1c22.1-.1 43.4-.2 47.2-.3l7-.2 2.3.8 2.2.8v7.9l1 .6 1.1.7 1.4-1.2 1.5-1.2v-7.8l5.8-.1c18.6-.5 85.4-.6 88.9-.2l4.1.5.6 3.1c.4 1.8 1 3.8 1.5 4.6l.9 1.5 1.6-1.3 1.6-1.3v-6.8h102.9l.3 4.8.3 4.7h5l.3-4.7.3-4.8h97.1l-.6 3.7-.6 3.8.9 1.3.8 1.4 1.9-.4 1.9-.3.5-4.5.5-4.5h103.8l.3 3.5c.2 1.9.6 4.1.9 4.7l.4 1.3h2.8l1.1-2.5c.7-1.4 1.2-3.5 1.2-4.5v-2l2.3-.5c1.2-.2 23.4-.4 49.2-.2l47 .2.5 4.5.5 4.5 2.2.3 2.1.3.7-3.3c.3-1.8.9-4.1 1.2-5.1l.5-1.8 52.3.7 52.3.6 1.7-2.5 1.6-2.6-.4-142.3-.5-142.3.7-1.5.6-1.5-.7-45c-.4-24.8-1-118.4-1.3-208-.5-172-1.3-354.1-1.8-408.5l-.3-32.5-1.2-2.1-1.1-2.1-6.8-.6-6.8-.7-232 .5c-239.2.6-275.2.6-315.8.1-13-.1-23.9-.1-24 .1zm288.4 9.8.9.6.1-1.3.1-1.3.4 1.1.5 1.2 41.9-.5 42-.5v9l1.5 1.2 1.4 1.2 1.1-.7 1-.6v-7.7l1.4-1.1 1.3-1.1 48.4.2 48.4.3.5 5 .5 5h4l.3-5.4.3-5.4 45.7.7c25.1.4 45.9.9 46.3 1.2l.6.4.7 9.7c.5 8.1 1 60 .7 68l-.1 2.3h-2.4c-1.4 0-3.6.4-5 1l-2.6 1v4h7.6l1.6 1.2 1.7 1.3.3 39.2.4 39.2-.8 1.6-.9 1.5h-10l.3 2.2.3 2.3 5.5.5 5.5.5-.1 41.5-.2 41.5-5.3 1-5.4 1v3l3.5.3c1.9.1 4.5.5 5.7.7l2.1.5.1 40.4.1 40.5-1 .6c-.6.3-3.1.8-5.7 1.1-2.5.2-4.9.6-5.2.9l-.5.6 1 1.7 1.1 1.7 4.4.3c2.4.2 4.7.6 5.1 1l.8.8.2 40.4.3 40.5-5.8.3-5.8.3.3 2.2.3 2.2 5.3.3 5.2.3v1.2c.3 5-.2 80.2-.4 80.4-.2.2-2.2.5-4.5.7l-4.2.3-1.1 1.1-1.1 1.1.6 1.5.6 1.6h3.8c2.1 0 4.3.4 5 .8l1.2.8.5 41.6.4 41.7-6.7.3-6.6.3v4l6.5.5 6.5.5.1 36c.1 19.8-.1 38.8-.3 42.1l-.5 6.2-6.3.4-6.4.4-.8.7-.7.8 1 1.7 1.1 1.7 6.2.3 6.1.3.1 5.7c0 3.1.3 21.3.5 40.4l.4 34.7-6.2.3-6.3.3v4l6.3.3 6.2.3.1 18.2c0 10 .1 27 .2 37.7.1 10.7 0 21.5-.3 24l-.5 4.5-5 .5-5 .5v3l4.8.6 4.8.5.9 1.4.8 1.4.1 23.6.1 23.6-.7.7-.7.8-.3 7.7c-.2 4.2-.6 8.7-.8 9.8l-.5 2.2-1.7.4c-2.3.6-30.3-1.1-32.3-1.9-.8-.3-3.5-.8-6-.9-2.5-.2-6.1-.6-8-.9-1.9-.3-15.2-1.4-29.5-2.5-30.3-2.3-35.2-2.7-69-5.5-9.9-.8-20-1.7-22.5-1.9-23.2-2.5-35.4-3.8-40-4.1-3-.2-10.7-.9-17-1.4-14.6-1.4-37.7-3.2-45.5-3.7-9.2-.5-24.9-2.6-26-3.4l-1-.8-11-1.1c-6-.6-16.6-1.5-23.5-2.1-6.9-.5-19.7-1.6-28.5-2.4-8.8-.9-22.1-2-29.5-2.7-7.4-.6-14.4-1.5-15.5-1.9-1.1-.5-8.1-1.3-15.5-1.9-15.8-1.3-22-1.8-27.5-2.6-5-.6-17.1-1.9-38.5-4-9.1-.9-17.8-2-19.5-2.5-1.6-.5-9.3-1.6-17-2.5-7.7-.8-14.7-1.7-15.5-1.9-.8-.1-2.6-.6-4-.9-1.4-.3-11.3-1.6-22-2.8-10.7-1.2-20.4-2.5-21.5-2.9-1.1-.5-8.1-1.6-15.5-2.5-7.4-.9-18-2.3-23.5-3.1-5.5-.7-11.8-1.6-14-1.8-7-.9-17.9-2.7-21.5-3.7-3.1-.8-10.6-2-39.5-6.4-8.5-1.3-13.4-2.3-23-4.5-2.2-.6-7.6-1.7-12-2.5-10.4-1.8-33-6.8-42.2-9.3-4-1-7.3-1.6-7.3-1.3 0 .3-.4.1-.8-.4l-.7-1.1-11.5-2.8c-6.3-1.6-14.2-3.7-17.5-4.8-3.3-1-10.4-3-15.9-4.4-12.9-3.3-44.5-13.8-52.1-17.4-3.3-1.5-8.9-4-12.5-5.4-3.6-1.5-7.4-3.2-8.5-3.8-3.1-1.8-6.5-3.4-13.5-6.4-3.6-1.6-8.3-4-10.5-5.4-2.2-1.4-8.3-5-13.5-8-11-6.2-27.4-17.8-37.5-26.3-15.3-13-38.7-37.5-42.2-44.2-.9-1.7-3.1-4.8-5-7-4.8-5.7-5.3-6.3-5.3-7.3 0-.4-1.9-3.5-4.3-6.7-3.9-5.4-6.6-9.6-14.8-22.9-1.4-2.2-2.9-5.3-3.2-6.7-.4-1.4-1.5-3.5-2.5-4.7-1.1-1.2-5-8.1-8.7-15.4-3.7-7.3-7.6-14.9-8.6-16.8-3.4-6.5-15.1-33.4-17.1-39.3-1-3.2-3-8.3-4.4-11.2-1.3-3-2.4-5.8-2.4-6.4 0-.6-.6-2.5-1.4-4.3-2.6-6.1-4.4-11.2-7-19.6-1.4-4.6-3.5-10.5-4.5-13-1.1-2.6-3.2-9.2-4.7-14.7s-3.7-12.4-5-15.3c-1.3-2.9-2.4-6-2.4-7 0-.9-1.4-6.2-3-11.7-1.7-5.5-3.7-13.6-4.6-18-.9-4.4-1.9-8.5-2.4-9-1.5-1.9-7.9-29.2-8.6-36.7l-.4-4.7-1.9-5.8c-1.1-3.2-2.9-10.3-4-15.8-1.2-5.5-3.5-16.3-5.2-24-7.5-34.8-13.9-68.7-13.9-73.4v-3l-.9-.5-.8-.5-.6-4.8c-1.5-11.5-3.9-25.3-5.4-31.8l-1.6-7-3.1-6c-1.7-3.3-4.7-8.1-6.8-10.6l-3.8-4.7-7.2-4.3-7.3-4.4-8.5.2-8.5.1-4.6 2.1-4.5 2-4.8 4.2-4.7 4.1-1.3 2.7c-.7 1.4-1.9 4.8-2.5 7.5l-1.2 5-.4 32.5c-.8 65.8-1.6 111.9-2 122.1-.3 5.8-.9 21.1-1.5 34-.6 12.9-1.5 39-2.1 58-.5 19-1.1 38.5-1.4 43.5-1.4 29.6-3.5 97.1-3.5 113.9v11.9l-.7-.6-.6-.7-.4-149.2c-.1-82.1-.3-214-.4-293.1l-.1-143.8-.7-5.2-.6-5.2-2.6-.3-2.5-.3-1.6 1.8-1.5 1.8-.8 87.5c-.4 48.1-.9 93.3-1.1 100.5-.1 7.1-.3 48.4-.4 91.6l-.1 78.7-.6.6-.6.6-.3 19.7c-.1 10.9-.5 59.6-.8 108.3-.4 48.7-.9 108.5-1.1 133-.3 24.5-.7 83.2-1 130.5-.3 47.3-.7 91.8-1 99-.3 7.1-.7 17.2-.9 22.4l-.2 9.3-11.5-.1c-6.3-.1-14.8-.6-18.9-1.2l-7.4-.9-1-1-1-1v-15.7c.1-18.9 1.3-59.3 1.9-61.1l.4-1.2h7.2l.5-1.5.6-1.5-1.2-1.5-1.2-1.5h-5.7l-.6-1-.6-.9v-39.7l.1-39.7.6-.6c.3-.3 3.3-.8 6.7-1.1l6.2-.5.3-2.2.3-2.3h-11.9l-1.1-1.4-1.2-1.4-.1-38.4-.1-38.4.7-1.3.8-1.2 4.6.3 4.7.3.3-2.2.3-2.2-5.3-.3-5.3-.3-.2-41c-.1-22.6 0-41.8.3-42.8l.5-1.7h8l.6-1.6.6-1.6-1.4-.9c-.8-.5-2.6-.9-4.1-.9h-2.7l-.7-1.1-.7-1.2.2-38.4.2-38.5 1.1-2.4 1.1-2.4h7.7v-3.8l-2.2-.6c-1.3-.3-3.3-.6-4.5-.6h-2.2l-.6-2-.6-1.9 1-2 1.1-2v-20.7l-1.2-1.2-1.1-1.1 1-1.3 1.1-1.3-.4-5c-.2-2.8-.6-5.5-.9-6.2l-.4-1.2.9-.6.9-.5v-17.6l.1-17.6.5-.9.6-.9h9l-.3-1.8-.3-1.7-4-.5-4-.5-.2-36.7-.2-36.7.7-4.3.8-4.3 3.4-.5 3.5-.5v-4l-4.1-.9-4.2-.8.3-5.7c.1-3.1.3-21.7.4-41.4l.1-35.7h1.9c1.1 0 2.6-.3 3.5-.6l1.6-.6v-3.4l-3.5-1.3-3.5-1.2.5-30.7c.3-16.9.7-33.6.9-37.2.2-3.6.4-8.2.5-10.2l.1-3.7 3.8-.3 3.7-.3v-6l-3.7-.3-3.8-.3-.1-9.7c-.3-34.6-.2-44.2.6-57l.8-14.4 2.4-1.1 2.3-1V107l-2.6-1-2.6-1 .4-38.4c.2-21.1.5-38.7.8-39 .6-.5 9.5-1.4 22.4-2.3l7.8-.5 2.3.6 2.2.6.6 5.6.6 5.7 1 1 .9.9 1.1-.6 1.1-.7v-9.7l1.3-1 1.3-1.1 50-.3 49.9-.2 1.1.7 1.1.7.7 4 .6 4h4v-2.4c0-1.4.4-3.6 1-5l1-2.6h103.9l.3 4.7.3 4.8h5l.3-4.3.3-4.3 2.5-1 2.6-.9 1.1.7 1.2.8h89l.9 4.8 1 4.8 2-.3 2.1-.3.5-4.5.5-4.5 49.3-.3L681 25v7.6l1.4 1.9 1.3 1.8 1.7-.6 1.6-.6v-9.9l1.7-.6 1.7-.7 48 .6c26.5.4 48.2.8 48.4 1 .2.2.6 2.5.9 5.2l.5 4.8.8.9.9.9 1.4-.6 1.4-.5.6-5.2c.4-2.9.8-5.4 1-5.6.2-.2 22.3-.7 49-1.1l48.7-.6v6.2l1 .6 1 .6v4l1.7-.3 1.8-.3.8-5.3.9-5.2h15.6c8.6 0 28.1-.1 43.2-.1 15.1-.1 28.4.1 29.5.4 1.1.3 3.5.6 5.3.6l3.2.1v7.5l1 1.5.9 1.5 1.8-1.1 1.7-1.1.9-3.9c.4-2.1 1.1-4.2 1.5-4.6l.7-.7 49.7-.3 49.7-.2.7.7c.4.4 1 2.6 1.3 5l.6 4.2h4l.3-4.5.3-4.5 1.2-.7 1.2-.7 46.6-.1h46.6l1.3 1.4 1.2 1.5-.7 1.1-.6 1 .6 2 .6 2h3.9v-8.8l1.2-.4c1.7-.6 17.8.1 18.9.7zM320.4 272.2c1.1.6 4 2.5 6.4 4.1l4.2 3.1 3.1 4.8 3.2 4.9 2.4 8.2 2.5 8.2.8 7.5c.5 4.1 2.9 18.1 5.4 31 2.6 12.9 5.2 26.2 5.7 29.5.6 3.3 1.5 6.9 1.9 8 .5 1.1 2.5 11 4.5 22 3.3 18.3 4.7 24.9 8.8 40.5 2.7 10.3 4.7 20.5 5.2 26.9.3 3.5.8 6.7 1.1 7.2.7 1.1 2.2 6.8 8.9 32.4 5.2 19.8 7.8 28.5 16.1 53.5 4.2 12.6 5.3 16.1 9.8 31 1.9 6.3 4.2 12.6 5 14 .8 1.4 2.2 5.2 3.1 8.5 1 3.3 2.1 6.4 2.4 7 .4.5 1.6 3.2 2.5 6 1 2.7 2.7 7 3.9 9.5 1.1 2.5 2.3 5.4 2.8 6.5 4.7 11.6 16.1 35.8 21.3 45 .9 1.6 4 7 6.7 11.9 2.8 4.9 5.2 9.8 5.4 10.8.2 1 1.2 3.1 2.2 4.6 1 1.5 2.3 3.4 2.8 4.3 2.2 3.5 17 25.5 20.1 29.9 1.4 1.9 3.4 4.4 4.5 5.6 1 1.1 1.9 2.5 1.9 3s2 3.2 4.5 6.1c2.5 2.8 4.5 5.5 4.5 6 .1 2 27.9 29 39.1 37.9 3.5 2.8 10.9 8.1 16.4 11.9 5.5 3.7 10.7 7.3 11.5 8 .8.7 4.2 2.7 7.5 4.5 15.1 8.2 23.5 13.2 24 14l.6 1h4.6l7.6 4c4.2 2.2 11.6 5.5 16.4 7.4 4.8 1.8 10.8 4.2 13.3 5.3 6 2.6 16 6.1 24 8.4 3.6 1.1 7.9 2.5 9.5 3.3 1.7.7 5.5 1.9 8.5 2.6 12.9 2.8 26.8 6.2 31 7.5 2.5.8 8.3 2.4 13 3.6 4.7 1.1 9 2.2 9.5 2.3.6.2 1.7.6 2.5.9.8.4 5.3 1.6 10 2.6s13 3 18.5 4.4c5.5 1.4 17.4 3.7 26.5 5.2 9.1 1.4 17.8 3 19.4 3.5 1.6.5 12.2 2.3 23.5 4 11.3 1.7 24.2 3.8 28.6 4.6 18.4 3.4 35.8 5.9 61.5 8.9l13.5 1.6 1.7.9 1.8 1h3.4c4.7 0 29.7 3.3 34.6 4.5 2.6.7 8.1 1.3 33 4 8.5.9 16.9 2 18.5 2.5l3 1 28.5 2.5c15.7 1.4 33 3 38.5 3.6 5.5.6 16.5 1.7 24.5 2.4 8 .8 20.1 2.1 27 2.9 13.2 1.5 27 2.8 53.8 5.1 9 .8 17.3 1.7 18.4 2.1 1.1.3 7.7 1.2 14.6 2 7 .7 18.8 2 26.2 2.8 7.4.8 21.8 2.2 32 3.1 33.8 3 71.3 6.4 87 7.9 8.5.8 22.7 1.9 31.5 2.5 38 2.7 44.4 3.2 52 4.2 4.4.6 15.7 1.7 25 2.5 9.4.7 18.7 1.6 20.7 2l3.7.6.5 1.4.5 1.3-.8.5c-1 .7-44.8.9-74.6.4l-22-.3-.3-2.5c-.1-1.4-.5-3.5-.7-4.8l-.5-2.2h-4l-.5 2.5c-.3 1.4-.7 3.6-1 5l-.5 2.5h-48.5l-48.5-.1-1.5-2.9-1.6-3h-3.1l-1.1 3-1.1 3-36.6.1c-20.1.1-38.7.3-41.5.4l-5 .3-1-.8-1-.7-8.3-.1c-4.6-.1-8.7-.4-9.2-.7l-1-.6V988h-4.2l-1.1 3-1.1 3-4.1.1c-2.2 0-22.7.3-45.5.5l-41.5.4-2.2-.5-2.3-.5v-4.6l-1.4-1.9-1.3-1.8-1.7.6-1.6.6v6l-2 1.1-1.9 1-49.3-.2-49.3-.3v-4.8l-1.7-1-1.6-1.1-1.6 1.3-1.6 1.3v4.3l-46.7-.2c-25.8-.1-48-.2-49.5-.3h-2.7l-.3-2.8-.3-2.7h-3.9l-.6 2.5-.6 2.5-3.9.6-4 .6-45-.1-44.9-.1-.6-2.5-.6-2.5-1.9-.3-2-.2-1.8 3.1-1.8 3.2-33.7-.6c-18.5-.4-40.8-.7-49.4-.7h-15.7l-.3-2.8-.3-2.7-2.1-.3-2.1-.3-.6 3-.6 3.1-17.8.1c-16.5.2-74 .1-79 0l-2.2-.1-.7-3.5-.6-3.5h-1.2c-.7 0-1.7.5-2.4 1.2l-1.2 1.2v4.5l-1.7.4c-2 .5-66.3 0-84.3-.7l-11.5-.4.2-2.1c.3-2.4-1.3-7.1-2.4-7.1-.5 0-1.4.4-2.2.9l-1.4.9-.6 3.8-.6 3.7-51.8.4-51.7.4v-4.9l-1.9-2.3-1.9-2.3-1.6 1.3-1.6 1.3v6.8l-51.7-.2-51.8-.3.3-101.5c.3-118 1.1-275.7 1.7-324.5.2-18.7.4-47.7.4-64.4l.1-30.4.6.5c.3.3.5 6.7.5 14.2l.1 13.6.9.5.9.6V519l-1.2 1.9-1.2 1.9 1.2 3.8 1.1 3.8-.8 1-.8 1.1.3 15c1.1 48.9 1.3 80 1.2 185 0 10.4.2 50 .6 87.9l.6 68.9 1.2 1.4 1.1 1.4 2-.3 2.1-.3 1.1-7 1.2-7 .6-29c.4-16 1-52.4 1.3-81l.7-52 .9-1.8.9-1.7h-1.9l.8-3.8.8-3.7.7-44.5c.4-24.5.9-47.9 1-52 .2-4.1.6-20.3 1-36s.8-29.6 1-31c.1-1.4.6-16.5.9-33.5l.6-31 1-7.5 1-7.5.9-38.5c.6-21.2 1.3-39.9 1.5-41.5.3-1.7 1-21.7 1.6-44.5l1.1-41.5 1.1-6c.6-3.3 1.7-7.2 2.4-8.7l1.4-2.7 3.6-2.8 3.7-2.8 6.1-1.5 6.1-1.6 3.9.9c2.1.4 4.8 1.3 6 1.9zm-61.7 174-.4 2.3v-4l-.1-4 .5 1.7c.2 1 .2 2.8 0 4zm.5 22.3-.9 1.8-.7-1.1-.6-1 .6-1.7.7-1.6.9.9 1 1-1 1.7zm7.6 244-.2 3.5-.7-.8-.7-.7.5-2.8c.8-3.8 1.4-3.4 1.1.8zM166.5 97c-1.1.4-3.3 2.1-4.8 3.8l-2.8 2.9-.1 4.9c-.1 2.7.2 6.4.6 8.1l.7 3.2 3.1 2.6 3 2.5h5.2l3.8-2.6 3.8-2.7 1-3.6c.5-2 1-5.5 1-7.7v-4.1l-2.2-2.8-2.1-2.7-3.3-1.4c-3.8-1.6-4.1-1.6-6.9-.4zm8.5 12.3v5.3l-2.1 2.3-2.1 2.2-2-.3-2.1-.3-.7-1.5c-.4-.8-1.2-2.5-1.8-3.7-1.5-2.8-1.5-4.5-.1-7.7l1.1-2.4 2.2-1 2.1-.9 2.8 1.4 2.7 1.4v5.2zm-27 .6v13l1 .6 1.1.7 1.3-1.1 1.3-1.1.6-11.2.6-11.2-1.1-1.3-1-1.3H148v12.9zM40.7 157.6l-.7.7v14.6l-1.7.5c-1 .3-6 .5-11.1.4l-9.4-.1-1.4 1.5-1.5 1.4.7 1.8.7 1.7 12.6-.2 12.6-.1 2.3-1.5 2.3-1.4-.3-9.7-.3-9.7-2-.3-2.1-.3-.7.7zM71 169c-3 1.1-5.6 2-5.7 2-.2 0-.3.9-.3 1.9v2l2 .6 2.1.7 2.6-1.7 2.6-1.7 5.6-.5 5.7-.5 5.6 1.6c3.1.9 6.6 1.6 7.8 1.6h2.1l-.3-2.2-.3-2.3-4.5-1.7-4.5-1.7h-15L71 169zm94.9 12.6-3.6 1.5-1.1 2.3-1 2.2.5 2.7.5 2.6 1.9 1.7c1.1 1 3.6 2.4 5.6 3l3.7 1.3 1.3-1.1 1.3-1v1.1c0 .6-.9 2-2 3.1l-2 2-1.5-.6c-.8-.4-1.5-1-1.5-1.5v-.9h-4.9l-.6 1-.7 1.1 1.6 2.4 1.6 2.5h10.1l2.4-2.4 2.3-2.3 1.1-3.9c.6-2.2 1.1-5.5 1.1-7.4v-3.6l-1.6-2.3-1.7-2.3-3.3-1.4c-4.1-1.7-4.9-1.7-9.5.2zm8.4 6.6 1.8 2.1-.8.7c-.4.4-1.7 1.1-2.9 1.4l-2.1.6-2.3-1.8-2.3-1.8 1.2-2.3 1.2-2.2 2.2.6c1.2.4 3 1.6 4 2.7zm-137.4-1.7c-2.5.7-5.8 1.9-7.5 2.7-1.6.9-4.2 1.8-5.9 2.2-1.6.4-4.2 1.2-5.7 1.7l-2.7 1.1-.6 1.8-.6 1.7 1 2.6 1 2.5 3.3.5c2.9.4 9.3 2.7 19.6 6.8l3.2 1.3 2.1-2.1 2.2-2.1-3.2-1.6-3.1-1.7v-11.8l3-1.6c3.3-1.7 3.6-2.5 1.8-4.3-1.4-1.4-1.8-1.4-7.9.3zM35 197.4v3.5l-.9.5-.9.6-4.6-1.6-4.7-1.6.4-1.1.3-1.1 4-1.2c2.1-.6 4.5-1.2 5.2-1.3l1.2-.1v3.4zm59.2-5.2-1.2 1.2V208h-8v-8.8l-1.6-1.3-1.6-1.3-1.6 1.1-1.7 1v8.8l-2.7.3-2.8.3-.1-3.8c-.1-2.1 0-5.1.1-6.6l.2-2.8-1.2-1.5-1.2-1.4h-3.9l.3 10.7.3 10.8 14.8.3 14.7.3 1-2.6 1-2.5-.8-8.7-.7-8.6-1-.4-1.1-.3-1.2 1.2zm-72.8 24.5-3.2.4-1.8 2-1.8 2 1 1.7 1.1 1.7 3.4 1c1.9.6 5.4 2 7.8 3.2l4.4 2.1-1.9.9c-1 .6-4.4 1.8-7.4 2.8-3 1-6.1 2.2-6.8 2.8l-1.3 1 .3 3.1.3 3.1 13.6.3 13.6.3 1.3-1.6 1.2-1.5-.5-1.4-.6-1.5-8.3-.3-8.3-.3 7.5-2.4 7.5-2.3 1.5-1.4 1.5-1.4-1-1.6-1.1-1.6-5.7-1.8c-3.1-1-6.5-2.2-7.4-2.6l-1.8-.9 8-.5 8-.5.3-1.9.4-1.9-1.4-.8-1.3-.9-9 .2c-4.9.1-10.4.3-12.1.5zm72.1 1.5c-.2.7-.8 4.4-1.2 8.3l-.8 7-12 .6c-6.6.4-12.1.7-12.2.8-.2 0-.3.9-.3 2v1.9l2.2.5 2.2.6 12-.5 12.1-.6 1.3-1.1 1.4-1.1-.6-2.6-.5-2.6.8-6 .9-5.9-1-1.3c-.6-.6-1.7-1.2-2.5-1.2h-1.4l-.4 1.2zm-8.2 29.7c-7.7 2.6-9.8 3.4-16.3 6.5l-2.5 1.2-.3 2.1-.3 2.2 3.8 2.3 3.8 2.3 10.2 3.4 10.2 3.4 1.5-.6 1.6-.6v-3.8l-2.2-1-2.3-1-.3-5.5-.3-5.5 2.6-1.7 2.6-1.7-.3-2.2-.3-2.2-1.5-.2c-.8 0-5.2 1.1-9.7 2.6zm.7 10.7v3.4h-.6c-1.4 0-10.4-3.5-10.4-4.1 0-.7 9.3-3.6 10.3-3.1l.7.3v3.5zm-66.2-6-2.7 1.4-1.1 2-1 1.9v14.7l1.2 1.2 1.2 1.2h26.4l1.2-1.5 1.2-1.5-.5-1.4-.6-1.5-5.8-.3-5.8-.3-.3-3.1-.3-3.1 3.8-1.7c2.1-.9 4.9-2.2 6.3-2.9l2.5-1.3.3-1.7.3-1.7h-2.5c-1.4 0-4.3.7-6.5 1.6l-3.8 1.5-3.8-2.5-3.8-2.6h-1.6c-.9.1-2.8.7-4.3 1.6zm5.9 5.2 1.1.7.3 5 .3 5-3.2.3-3.2.3v-10.8l.7-.6c.8-.9 2.5-.9 4 .1zm138.1 15.8-2.8 1.5-.5 2.2c-.3 1.2-.5 3.5-.5 5.2 0 1.6-.2 4.8-.6 7.1l-.6 4 2.7 3.2 2.7 3.2h9.4l2.6-2.8c1.4-1.5 2.8-3.6 3.1-4.7l.6-2-1.3-2.3-1.3-2.4 1.1-4 1.1-4-3.3-2.9-3.2-2.9h-3.3l-3.2.1-2.7 1.5zm8.9 5.9c.7 2 .3 2.3-3.5 3.1l-3.2.6-.6-1.7-.7-1.7 1.4-.9c.8-.5 2.4-.9 3.7-.9h2.3l.6 1.5zm.2 11.1 1.5 1.3-1.8 2-1.8 1.9-3.1-1.3-3.2-1.4.3-1.8c.2-1 .9-2.1 1.5-2.5l1.2-.8 2 .6c1.1.4 2.6 1.2 3.4 2zm-85.2-14.9c-.4.3-.7 1.4-.7 2.2v1.6l2.5 1.9 2.5 1.9v3.4l-2.4 2.2-2.5 2.3-4.4.5-4.4.5-3.1-1.6-3.2-1.7v-6.5l2.1-1.7 2-1.8-.4-1.2-.4-1.2-1.7-.3-1.8-.4-2.9 2.8-2.9 2.8v7.1l1.9 2.9c1 1.5 3.2 3.7 4.7 4.7l2.9 1.9h12.2l3.4-2.3 3.4-2.2 1.8-3.5 1.8-3.5-.5-3.2-.5-3.3-2.8-2.5-2.8-2.4-1.6-.1c-.9 0-1.9.3-2.2.7zm-47 3-.7.6v6.8c0 3.7-.3 7.4-.6 8.3l-.6 1.6h-2.2c-1.1 0-2.6-.4-3.3-.8l-1.2-.7-.3-5-.3-5h-5l-.3 5.7-.3 5.8h-4.8l-.6-1.1c-.4-.6-.7-3.7-.7-6.9v-5.9l-1.3-1.7-1.2-1.7-1.5.6-1.5.5-.6 3.4c-.5 3.3 0 14.1.8 16.6l.5 1.3 13.6-.3 13.7-.3 1.3-1 1.3-1 .2-3.5c.2-1.9.2-6.5.1-10.3L45 278h-1.8c-1 0-2.2.3-2.5.7zm42.6 25.8-2.1 1.5-1.7 5.5-1.8 5.5-1.3 1.1-1.3 1.1-1.1-.7-1-.6v-8l1.5-.5 1.5-.6V304h-1.6c-.8 0-2.4.5-3.5 1l-1.9 1.1-1.5 2.9c-1.9 3.7-1.9 5.5.3 10.2l1.7 3.8 2.1.6c1.2.3 3.6.4 5.5.2l3.4-.3 1.7-3.5c1-1.9 2-4.8 2.3-6.3l.6-2.8 2.5-1.1 2.6-1.2 1.4 1.9c.8 1 1.4 2.7 1.4 3.7v1.9l-2.5 2.5-2.5 2.5v3.9h1.9c1.1 0 2.7-.3 3.6-.6l1.6-.6 1.4-2.9 1.5-2.8v-9.3l-2.9-2.9-2.9-2.9h-6.8l-2.1 1.5zm-68.2 4.4-1.4.9.6 1.5.6 1.6 5.3.3 5.3.3-.1 4.2c-.1 2.3-.4 4.9-.7 5.8l-.6 1.5h-7.9l-1.2 1.5-1.2 1.5.6 1.5.5 1.5h27.6l1.3-.9 1.4-.8-.4-1.9-.3-1.9-6.3-.3-6.2-.3v-11.8l6.3-.3 6.2-.3v-4l-14-.2-14-.3-1.4.9zm.3 27.3-.8 1.2-.2 9.1-.1 9 .8 2.2.9 2.3h2.9l1.1-1.9c.5-1.1 1-3.1 1-4.5V351l.8-.1c.4-.1 5.9-.4 12.2-.8l11.5-.6.3-2.1.3-2.1-3.2-.7c-1.7-.3-7.4-.6-12.5-.6H21v-6.6l-1.2-1.2c-1.5-1.5-3.5-1.5-4.4 0zm76.6 23v7.4l-1.2 1.2-1.2 1.2H84v-7.6l-1.4-2-1.5-1.9-1.8 1.1-1.8 1.1-.5 4.4-.5 4.4-.7-.3c-.5-.1-1.7-.2-2.8-.2h-1.9l-.3-7.3-.3-7.2h-5l-.3 9.5-.3 9.5 1.8 1.2 1.7 1.3h25.2l1.7-1.3 1.8-1.2-.3-10-.3-10-2.2-.3-2.3-.3v7.3zm66.4 6.3-.6 1.4.7 1.1.6 1h4.8c2.6 0 5 .3 5.4.6l.6.6-2.7 4-2.7 4.1-.3 6.8-.4 6.9h.9c.6 0 1.7-.8 2.6-1.8l1.7-1.9v-6.4l1.4-2.7c.8-1.5 2.9-4.1 4.6-5.7 1.7-1.7 3.6-3.8 4.2-4.8l.9-1.8-1.2-1.5-1.1-1.4h-18.9l-.5 1.5zM67 381l-1.5.9 1 1.6 1 1.6 6.5 2.3c3.6 1.3 8.1 3 10 3.8l3.5 1.5-3.5 1.1c-8.8 2.8-17.3 6.1-18.2 7l-1.1 1.1.6 1.5.6 1.6h6.2l10.2-4.1c5.6-2.2 10.9-4.4 11.7-4.8l1.5-.8v-5.7l-4-1.4c-2.2-.8-7.8-3-12.5-4.8-9.2-3.7-9.8-3.8-12-2.4zm-53.7 6.6-.6 1.6.6 7.8c.3 4.3.8 8.3 1.2 8.9l.6 1.1h28.8l.6-1 .7-1.1-1.2-1.4-1.2-1.4-5.1-.3-5.2-.3-.3-4.7-.3-4.6-1.5-1.2-1.4-1.2-1.5 1.2-1.5 1.2v6.4l-1.4 2-1.5 1.9-1.7-1.1-1.8-1.1.3-5.1.2-5.1-1.1-2-1.1-2.1h-4l-.6 1.6zm11.2 22.3c-1.1.4-3.2 1.3-4.6 2l-2.6 1.3-1.7 3-1.8 3 .5 3.1c.3 1.8 1 4.4 1.6 5.9l1 2.7 4 2.1 4 2h8.9l3.7-1.6 3.7-1.5 2.4-2.6 2.4-2.6v-8.5l-2.6-3.2-2.6-3.1-3.5-1.4-3.5-1.5-3.7.1c-2 .1-4.5.4-5.6.8zm13.5 7.6 2 1.8v5.6l-2.6 2-2.7 2.1h-9.8l-2.4-2.5-2.5-2.4v-1.6c0-.9.5-2.5 1.1-3.6l1-2 2.2-.9 2.2-1 4.8.4 4.7.3 2 1.8zm33.8-6.7-4.6.3-1.2 1.5-1.2 1.4 1.2 1.5 1.2 1.5h27.9l.6-1.6.6-1.6-1.4-1.3-1.4-1.3-8.5-.3c-4.7-.2-10.6-.3-13.2-.1zm-5.7 13-1 1.9v17.7l1 1.8 1 1.8h2.8l1.1-1.9c.5-1.1 1-3.1 1-4.5V438h22.5l1.3-.9 1.4-.8-.4-1.9-.3-1.9-11.5-.6c-6.3-.4-11.8-.7-12.2-.8l-.7-.1-.3-4.3-.3-4.2-2.2-.3-2.2-.3-1 1.9zm13 28.8-10.5 3.3-2 2-2 2.1 1 2.7.9 2.7 3.9.8c2.2.5 5.3 1.7 7 2.7 1.7 1 5.9 2.6 9.4 3.5l6.2 1.7 1-.6c.6-.3 1-1.2 1-2v-1.4l-2.2-1.5-2.2-1.5.2-5.3.3-5.3 2.4-2 2.5-2.1V449l-3.2.1-3.3.1-10.4 3.4zm5.7 8.7.3 3.7h-.6c-.3 0-2.8-.7-5.6-1.6l-4.9-1.6v-1.6l4.3-1.5c2.3-.8 4.7-1.3 5.2-1.2l1 .2.3 3.6zm81.7-9.6c-2.7.7-5.5 3.3-6.7 6.3l-1 2.5-.3 6-.3 6 1 1.8.9 1.8 4.6 2 4.6 2 3.3-1.6 3.3-1.6 1.6-2.2 1.5-2.1v-7.3l-1.8-1.6-1.8-1.7-4.7-.6-4.7-.7v-1.2c0-.7.6-1.8 1.4-2.5l1.5-1.1 3 2.2 3 2.2 1.5-.6 1.6-.6v-4.9l-1.2-.9c-1.6-1.3-7.7-2.2-10.3-1.6zm6 16.3-.6 1h1.9l-.5 1.9-.5 1.9-2.6.5-2.7.6-1.9-1.9-1.9-1.9 1.3-1.5 1.2-1.6h6.9l-.6 1zm-157.3-5.8.3 2.3 9.5.5 9.5.5-2.7.9c-1.6.4-2.8 1.1-2.8 1.5 0 .4-2.4 1.8-5.2 3-2.9 1.3-6.4 2.9-7.8 3.7l-2.5 1.3v6.6l13.5.3 13.5.3 2-1.5 1.9-1.4-1.3-1.6-1.3-1.5-8.6-.3-8.7-.3 6-3.1c3.3-1.6 7.9-4.3 10.3-5.8l4.3-2.7-.3-2.2-.3-2.2-14.8-.3-14.8-.3.3 2.3zm75 16-1.2 1.2v5.7c0 3.2-.3 6.4-.6 7.3l-.6 1.6H64v5h28.8l1.1-1.4 1.2-1.4-.3-9.3-.3-9.4-1.5-.3-1.5-.3-1.3 1.3zM22 490l-5.5 2-2.2 2.5-2.3 2.6v6l1.4 2.7c.8 1.5 2.7 3.9 4.3 5.3l2.8 2.7 3.2.7 3.3.7 5.3-1.2 5.4-1.1 2.7-2.8 2.6-2.8.9-3.1.9-3.1-.6-2.3c-.4-1.3-1.4-3.3-2.2-4.4l-1.5-2.1-4.2-2.2-4.2-2.1h-2.3c-1.3.1-4.8 1-7.8 2zm11.5 5.4 3.4 1.5.7 2.6.7 2.7-2 2.6-2 2.7-6 .3-6.1.3-2.1-2.7-2.1-2.7v-3.4l2-1.8 1.9-1.7 3.3-.8c4.7-1.1 4.5-1.1 8.3.4zm56.7 11.8-1 1.3-.6 6.5-.7 6.6-1.9 1.2-1.9 1.2-1.5-.6-1.5-.6-.3-4.6-.3-4.7-2.7-.3-2.8-.3-.2 2.3c0 1.3 0 3.3.1 4.4l.1 2.1-1.6 1.4-1.6 1.3-1.6-1.1-1.7-1v-14.8l-2.6-.3-2.7-.3-.7 7-.7 7 .7 3.3.8 3.3 1.1.7 1.1.8h25.3l1.6-.6 1.6-.6V506h-1.4c-.7 0-1.8.6-2.4 1.2zm-77.9 14.4-.5 1.4.6 1.5.5 1.5h27.9l1.3-1.6 1.3-1.6-1.9-1.4-2-1.5-13.3.2-13.3.1-.6 1.4zm19.1 14.1-2.2.4-1.6 1.8-1.6 1.8-1.8 5.4-1.7 5.4h-4l-.3-3.6-.3-3.6 1.5-1.3 1.6-1.2V537h-6l-1.6 2.5-1.7 2.5-.1 4-.1 3.9 2.1 2.8 2.1 2.8 2.7.9 2.6 1 2.6-1 2.6-.9 2.7-7 2.6-7 1.8-.3 1.8-.4 1.4 1.2 1.5 1.2v5.5l-2.6 2.6-2.6 2.6.4 1.8.3 1.8 2.1.3 2.1.3 2.7-3.1 2.6-3.2v-10.4l-3.3-3.2-3.3-3.2-1.4.1c-.8.1-2.5.4-3.6.6zm34.7 1.9-3.3 2.7.4 8 .3 7.9 1.9 1.4 2 1.4 12.2-.3 12.3-.2 1.2-1.2 1.2-1.2-1.3-1.6-1.2-1.5h-3.3c-1.9 0-4-.3-4.9-.6l-1.6-.6v-4.6l5.8-3.4 5.7-3.4.3-2.3.4-2.4-2.4.6c-1.2.3-4.1 1.2-6.2 2l-4 1.5-2.6-1.9-2.6-2-3.5-.5-3.5-.6-3.3 2.8zm9.5 5.8c.3 1.3.4 3.8.2 5.7l-.3 3.4h-6l-.3-4.4c-.2-2.4-.1-5 .2-5.7l.5-1.4H75l.6 2.4zm84.1-5.2-1.7 1.3-.6 5.7-.7 5.8 1.8.6 1.7.7 3.3-1.6 3.3-1.6 2.1 1.5 2.1 1.5v3.6l-1.8 1.6c-1 1-2.6 1.7-3.4 1.7h-1.6l-1.2-1.5-1.2-1.5H157v3.6l2 2.2 2.1 2.2h9.6l2.5-2.3 2.6-2.4.7-4.2.7-4.2-1.8-2.1c-2.4-2.6-6.7-4.8-9.4-4.8h-2v-2h9.9l.6-1 .7-1.1-1.2-1.4-1.2-1.5h-11.4l-1.7 1.2zM27.8 565.7l-2.6 2.8-1.3 4.3-1.3 4.3-1.6.9-1.7.9-.7-.6c-.3-.3-.6-2.1-.6-3.8v-3.3l1.5-1.2 1.6-1.3-.3-2.1-.3-2.1-2-.3-2.1-.3-2.1 2.3-2.2 2.3-.6 4-.7 4 2.4 3.5 2.4 3.5 3.7.3 3.7.3 2.5-2.5 2.5-2.5v-1.8c0-1 .9-3.3 2-5.1l2-3.2h3.8l1.2 1.5 1.2 1.5-.7 2.7-.6 2.8-2.1 2.2-2.1 2.2.6 1.5.6 1.6h3.2l1.9-1.8c1.1-1 2.6-3.5 3.5-5.5l1.6-3.8-2-4.4-1.9-4.3-2-1.1-2.1-1.1h-5.7l-2.6 2.7zm33.4 5.4.3 2.2 2.8 2.1 2.8 2.1h20.4l4-2 4-2 .3-2.3.3-2.2h-2.6c-1.4 0-4.2.7-6.2 1.5l-3.5 1.5H70.5l-2.9-1.5c-1.5-.8-3.7-1.5-4.8-1.5h-1.9l.3 2.1zm-48.5 21.6-1.8.5.3 2.1.3 2.2h29v-5l-13-.1c-7.2-.1-13.8 0-14.8.3zm2.6 14c-1.2.2-2.7 1-3.3 1.8l-1.2 1.4.4 2.3.3 2.3 8.3 2.9c4.5 1.7 8.2 3.3 8.2 3.7v.7l-7.5 2.3-7.5 2.2-1.1 1.3-1 1.3.3 2.8.3 2.8 12.5.3 12.5.3 2.3-.6 2.3-.6-.3-2.2-.3-2.2-8-.5-8-.5 7-2.3c3.9-1.2 7.6-2.6 8.3-3.1l1.4-.8-.4-1.9-.3-1.9-9.5-3.2-9.5-3.2 9.3.1 9.2.2 1.2-1.2 1.2-1.2-1.9-2-1.8-2-10.6.1c-5.8.1-11.6.4-12.8.6zm146.5 27-5.6 5.8-.6 2.1-.6 2.1.6 1.7.6 1.6h10.5l.7 4 .6 4h4l.2-1.3c.1-.6.2-2.3.2-3.7l.1-2.4 2.5-.6 2.5-.6.3-1.6.3-1.7-2.9-1.5-3-1.6.5-6 .6-6h-5.9l-5.6 5.7zm5.4 4.8c-.4 2.5-1.9 4.1-2.8 3.2-.2-.2 0-1.6.5-3.1l1.1-2.6h1.7l-.5 2.5zm-155.9 1.2-1.3.5v19.4l1.2 1.2 1.2 1.2h26.5l1.5-2.2 1.6-2.2v-15.2l-1.4-1.9-1.3-1.8-1.7.6-1.6.6v16.2l-4.2-.3-4.3-.3-.5-5-.5-5h-4l-.3 5.2-.3 5.3-2.6.6-2.5.7-.9-1.4-.9-1.4v-6.2c0-8.5-.6-9.9-3.7-8.6zm58.7 9.2-2.5.7-.3 2.2-.3 2.2 6.8.1c3.7.1 7.9.4 9.2.8l2.4.6-2.4 1.2c-1.3.7-5.5 3-9.4 5.1l-7 3.9-.3 2.2-.4 2.2 1.2 1.5 1.2 1.4h25.4l1.9-1.4 1.8-1.3-.6-1.7-.6-1.6H81.5l-1.3-.8-1.3-.9 2.8-1.2c3.4-1.5 10-5.8 13.1-8.5l2.2-1.9v-2.6l-2.7-1.5-2.8-1.4-9.5.1c-5.2 0-10.6.3-12 .6zm2.4 29.5-3.1 1.4-2.2 3-2.1 3v1.9c0 1.1.9 3.8 2 6.1l2 4.2 2.7 1.7 2.7 1.8h14.4l3.9-3.1 3.8-3.1.6-3.8.6-3.9-1.2-3.1c-.8-1.7-2.3-3.9-3.4-4.9l-2.1-1.9-7.8-.4-7.7-.3-3.1 1.4zm16.7 5.7 2.9 2v5l-2.5 2.4-2.4 2.5H76.3l-2-2.3-2.1-2.2-.4-2.2-.3-2.1 2.4-2.6 2.4-2.6h9.9l2.9 2.1zm-79.5 4.6-.7 1.7.7 7.8.7 7.8 1.1.8 1.1.7 12 .2c6.6 0 12.8-.1 13.8-.4l1.7-.4v-4.7l-2.2-.6c-1.3-.3-4-.6-6-.6H28v-8.9l-2-1.1-2-1.1-1 .6-1 .6v9.7l-2.1.5-2.1.6-1.4-.6-1.4-.5V687h-4.8l-.6 1.7zm62.7 19-6.3.4v4.9h28.6l1.2-1.2 1.2-1.2-1.7-1.8-1.6-1.8-7.6.2c-4.2.1-10.4.3-13.8.5zm-49.8 5c-3.8.8-8 3.2-10.5 5.8l-2.5 2.6.1 3.9.1 3.9 1.9 3.1 1.9 3.2 4 1.5c2.2.8 5.4 1.7 7 2l3 .5 5-2 5-1.9 2.4-4.3 2.4-4.2-1.1-3.7-1.2-3.7-2.7-2.6-2.8-2.5-4.7-1.2c-2.6-.6-4.8-1-5-1-.2.1-1.2.3-2.3.6zm10.3 8 2.7 2 .3 2 .3 2.1-2.5 2.8-2.4 2.9-5.6-.1H20l-2.5-2.4-2.6-2.4.3-2.5.3-2.5 3.2-2.2 3.2-2.1 4.1.2 4.2.2 2.6 2zm126-2-1.8.4v3.9h9v.9c0 .5-1.2 1.9-2.6 3l-2.6 2 .4 1.8.3 1.8h7.2l1.6 1.4 1.7 1.3v2.8l-2.5 1.6-2.5 1.6-2.5-1.6-2.4-1.6H158v3.1l2.5 2.4 2.4 2.5h7.8l2.6-2.1 2.7-2 1-3.9 1.1-4-1.1-2c-.6-1.1-1.9-2.4-3-3l-2-1.1 1.5-2.9c.8-1.6 1.5-3.6 1.5-4.4v-1.5l-1.7-.4c-2.5-.6-12.4-.6-14.5 0zm-92.1 1-.7.6v22.8l1.5.5 1.5.6 1.5-1.2 1.5-1.2v-5.4l1.2-1.2 1.2-1.2h21.7l.6-1.5.5-1.6-.7-.7-.7-.7-11.6-.5-11.7-.5-.3-2.5c-.1-1.4-.5-3.5-.7-4.8L71 719h-1.9c-1 0-2.1.3-2.4.7zm12.9 29.1-12.9 4.7-1 1.7-1.1 1.6 1.1 2.4 1.1 2.4 5.8 1.9c11 3.4 14.9 4.8 15.8 5.7l1 .8h6.7l.6-1.7.6-1.6-2.8-2.3-2.9-2.3-.2-2.3c-.2-1.3-.1-3.7.2-5.4l.4-3.2 2.1-.5 2-.6-.3-2.8-.3-2.8-1.5-.2-1.5-.2-12.9 4.7zm5.1 11.9c-.3.2-2.6-.1-5.2-.9l-4.7-1.3-.1-1-.2-1 5-1.7 5-1.6.3 3.5c.2 1.9.1 3.7-.1 4zM35 773.5v8.6l-3.7-.3-3.8-.3-1.1-5-1-5h-3.9l-.5 5-.5 5h-6l-.3-7.8-.3-7.7H9l-.1 3.7c-.1 2.1-.1 6.7.1 10.3l.2 6.5 1 .6.9.6 13.6-.4 13.7-.4 1.3-1.1 1.4-1.1-.3-9.6-.3-9.6-2.7-.3-2.8-.3v8.6zm31.7 3.2c-.4.3-.7 1.7-.7 3v2.3h30.1l.5-1.5.6-1.5-1.2-1.5-1.2-1.5H67.3l-.6.7zm9.4 12.3-3.4.8-3.1 3.1-3.1 3.1-.3 7.4-.4 7.3 1.3.5c.8.3 7.7.2 15.4-.1l14-.6.3-6 .3-6.1-2.3-3.4-2.3-3.5-3.5-1.7-3.5-1.8-3 .1c-1.6.1-4.5.5-6.4.9zm12.4 7.4 2.6 1.7-.3 3.7-.3 3.7-8.4.5-8.3.5-.9-.5c-.5-.4-1.1-2-1.5-3.6l-.6-3.1 3.3-2.7 3.3-2.8 4.3.5 4.3.5 2.5 1.6zm-77.8-2.7-.7.6v22.6l.9.5.9.6 1.6-.6 1.6-.6v-2.5c0-1.3.5-3.3 1-4.4l1.1-1.9H41l.2-1c0-.6.1-1.5.2-2.2l.1-1.2-6.5-1.2-6.5-1.2-1.1.9-1.2 1-4.3-.7-4.4-.7-1.2-1.6-1.2-1.6-.1-2.8V793h-1.8c-1 0-2.2.3-2.5.7zm150.3 13-3.5 1.8v7l1.7.3 1.6.3 1.4-2.8 1.3-2.8 1.5-.3 1.5-.3 1.8 1.3 1.8 1.4-.6 1.4c-.3.8-2.2 2.6-4.3 3.9-2 1.4-4.7 3.4-5.9 4.5l-2.3 1.9v7.3l3.3 1.2 3.3 1.2h10l1.2-1.2 1.2-1.2V828h-11.9l-.6-1-.6-1 5.4-3.4 5.4-3.5.7-1.6c.3-.9.6-2.9.6-4.4v-2.8l-2.2-2-2.3-2.1-3-.6-3-.6-3.5 1.7zm-73.5 13c-2.2.9-6.9 2.7-10.5 4-3.6 1.4-7.5 3.1-8.7 3.9L66 829v1.8c0 .9.4 2.3.8 3l.8 1.2 11.5 4.1 11.4 4.1 3 .1 3 .2.3-2.2.3-2.3-2.5-1.2-2.6-1.1v-10.5l2.6-1.6 2.5-1.7-.3-2.2-.3-2.2-2.5-.2-2.5-.1-4 1.5zM86 830c0 1-.2 2.5-.6 3.3l-.5 1.4-4.2-1.4c-2.3-.8-4.6-1.8-5-2.2l-.8-.8 4.8-1.5c5.3-1.7 6.3-1.6 6.3 1.2zm-56.5-9c-3.3 1-8.9 3-12.3 4.3l-6.4 2.4-.9 1.4c-.5.8-.9 2.4-.9 3.7v2.2l2.3.9c1.2.5 5.6 2 9.7 3.4s9.5 3.3 11.9 4.2l4.3 1.6 1.9-.6 1.9-.6v-2.8l-3-2.1-3-2.1v-10.8l1.9-.6c1.1-.3 2.5-1.2 3.1-2l1.2-1.5-1.2-1.5-1.2-1.5-1.7.1c-.9 0-4.3.9-7.6 1.9zm-.1 10.3 1 2.7-1 1-.9.9-5-2.2-4.9-2.3 1.3-.8c1.8-1.2 6.4-2.5 7.6-2.2.6.2 1.4 1.5 1.9 2.9zm-16.5 18.6-2.9 2.9v13.8l1.3 1.7 1.2 1.6 13.3.2 13.3.2 1.1-1.1 1.1-1.1-.6-1.4-.5-1.4-3.2-.7c-1.8-.3-4.3-.6-5.6-.6H29v-3.3l.1-3.2 5.9-2.7 6-2.7V848h-4.9l-3.6 1.7-3.5 1.7-3.9-2.2-3.9-2.2h-5.4l-2.9 2.9zm10.1 8v3.6l-.9 1.3-.8 1.4-2.4-.4-2.3-.3-.8-3.9-.8-3.9 1.6-1.8 1.6-1.8 2.4 1.1 2.4 1.1v3.6zm46.6-7.8-2.7 3.1.5 7.5.4 7.5.9.9 1 1 13.9-.3 13.9-.3v-5L92 864l-5.5-.5-.3-2.5-.3-2.6 4.3-2.3c2.4-1.3 5.1-3.1 6.1-3.9l1.7-1.5V848h-5.6l-2 1.5-1.9 1.4-2.3.1h-2.4l-2.5-2-2.6-2h-6.5l-2.6 3.1zm8.6 4.6 1.8 1.6v7.7h-7v-9.7l.7-.6c1.1-1.1 2.5-.8 4.5 1zm86 52.5.3 13.3h4l.3-8c.2-4.4 0-10.4-.3-13.3l-.6-5.2h-4l.3 13.2zm937.4 123.7-2.8 2.9.7 4.1.7 4.2-1.2 1.4-1.2 1.4 1.1 3.4 1.2 3.4 2.3 2.2 2.4 2.3 3.4.1 3.4.1 3.7-2.3 3.7-2.3v-6.9l-1-1.9-1-1.9 1.1-2.5 1.2-2.5-.7-2.5-.6-2.6-3-1.5-2.9-1.5h-7.7l-2.8 2.9zm9.9 5.1v1.5l-1.8.3c-1 .2-2.5.1-3.4-.2l-1.5-.6 1.2-1.6 1.3-1.5 2.1.3 2.1.3v1.5zm.5 10.5 1.2 1.4-.7 1.1-.6 1h-6.8l-.6-1-.7-1.1.6-1.4.5-1.5h5.9l1.2 1.5zm93.8-15.8-2.6 1.7-1.1 2.3c-1.5 3.3-1.4 4.9.6 8l1.7 2.6 3.1 1.2 3 1.3 3.5-.6 3.5-.5-1.9 2.2-1.9 2.1-4.9-.6-4.8-.7v3.3l2 2 2 2h7.6l2.1-1.5 2.2-1.6 1.1-3.7c.5-2 1-5.7 1-8.2v-4.5l-1.9-2.9c-1.1-1.6-3-3.5-4.3-4.2l-2.3-1.3h-5l-2.7 1.6zm9.5 6.1 1.7 1.8-1.3 1.8-1.3 1.8-2.8-.4-2.9-.3-1-1.7-1.1-1.6 1.3-1.6 1.3-1.6h4.5l1.6 1.8zm304-6.6-1 1.3-.2 12.1-.1 12.1 1.5 1.3 1.6 1.3.9-.9 1-1 .3-12.7.3-12.7-1-1c-1.3-1.3-2.2-1.3-3.3.2zm15 .4-3.2 1.6-.6 2.9-.6 2.9.6 1c1 1.6 2.6 1.2 5.1-1.5l2.3-2.5h3l1.1 1.9 1 1.9-3.3 2.1c-1.7 1.1-4.5 3.3-6.1 5l-2.9 3-.1 3.8-.1 3.8 8.8.3 8.7.3v-4.9l-1.6-.6c-.9-.3-3.6-.6-6.1-.6h-4.5l1.2-1.5c.7-.8 1.8-1.5 2.6-1.5h1.3l3.5-3.4 3.6-3.3v-7.4l-2.5-2.4-2.4-2.5h-5.6l-3.2 1.6zM361 1043.1v13l2.3-.3 2.2-.3.5-6.6c.3-3.6.3-9.4.2-12.8l-.4-6.1H361v13.1zm526.8-11.4-2.6 1.7-1.1 2.3-1.1 2.4v8.8l1 2.6 1 2.6 2.6 2.4 2.7 2.5h7.5l3.1-2.5 3-2.6.6-2 .7-2-1.1-2.7-1.1-2.7-4-2.3-4-2.2-2.5.6-2.5.6v-2.1l2.1-1.2 2.1-1.1 1.1 1.1 1.1 1.1h5.4l.7-1.7.6-1.8-2.1-1.7-2.2-1.8h-4.2l-4.1.1-2.7 1.6zm9 14.5c.7.7 1.2 1.8 1.2 2.5v1.2l-2 1.1-2 1.1-2-1.1-2-1.1v-3.7l1.3-.5c2.2-.9 4.3-.7 5.5.5zm410.4-14.9-1 1.2-.3 12-.3 12 1.8.3 1.7.4 1.4-1.2 1.5-1.2v-22.4l-1.2-1.2c-1.5-1.5-2.3-1.5-3.6.1zm15.7.7-3.6 1.9-1.3 3.1-1.2 3 .4 5.3.4 5.4 2.8 3.6 2.8 3.7h8.4l3.4-3.5 3.4-3.5.4-7 .4-7-3.5-3.5-3.5-3.5h-2.8l-2.9.1-3.6 1.9zm7.8 4.8c.6.4 1.6 1.9 2.1 3.2l.9 2.5-1.1 4.5-1.1 4.5-2.8.3-2.9.3-1.4-1.8-1.3-1.8-.1-4.7v-4.7l1.6-1.5 1.5-1.6h1.7c.9 0 2.2.4 2.9.8zm-756.4-5.1-4.3.4v3.9h5c2.8 0 5 .2 5 .5s-1.4 1.8-3.2 3.4l-3.1 2.8.6 1.6.6 1.7h9l.6 1 .7 1.1-1.5 2.3-1.6 2.3-2.1.6-2.1.5-3-2.5-3-2.6-1.6 1.6-1.5 1.5 1.8 2.5c2.2 3 5.5 4.7 9 4.7h2.6l2.7-1.6 2.8-1.6 1.2-3.4 1.2-3.4-.6-2.3c-.4-1.2-1.7-3.2-2.8-4.5l-2.1-2.3 1.2-1.9c.7-1.1 1.2-2.6 1.2-3.5v-1.4l-1.9-1.1-2-1-2.3.2c-1.3.1-4.2.3-6.5.5zm414.5 1-1.2 1.5 1.5.9 1.4.9h9.5v2.7l-2 1.8-2 1.8-1 3.6c-.5 2-1 5.5-1 7.8v4.3h1.8c.9 0 2.3-.4 3.1-.9l1.3-.9-.7-2-.6-2.1 2-4.3c1.2-2.4 3.5-6.5 5.1-9.2l3.1-4.9-.5-1.4-.5-1.3-9.1.1-9 .2-1.2 1.4zm-520.6.9-2.2 1.5v6.9h4l1-2.6 1-2.5 2.1.3 2.2.3 1.1 1.8 1.1 1.8-2.5 2c-1.4 1-4.1 3.2-6.1 4.9l-3.7 2.9-.6 2.7-.7 2.6 1.2 1.4 1.1 1.4h16.9l-.3-2.3-.3-2.2-5-.3-5-.3-.8-.8-.8-.8 2.8-1.8c1.5-1 4-2.9 5.6-4.3l2.7-2.6v-7.6l-2-2-2-2h-8.6l-2.2 1.6zm209.4 4.6-5.6 6.3-.6 2.3-.6 2.2 1.2 1.5 1.2 1.4 5.1.3 5.2.3.3 2.7.3 2.8h5.9v-5.9l2-1.1 2-1.1v-2.8l-2-1.1-2-1.1v-4.9c0-2.6-.3-5.5-.6-6.4l-.6-1.6h-5.6l-5.6 6.2zm4.5 7.1-1.1 1.1-.6-.7-.7-.7 1.4-1.6 1.3-1.6.4 1.2.4 1.2-1.1 1.1zm100.6-12.6-.7.6v12.8l1.6.6 1.6.6 3.3-1.6 3.3-1.6 1.5 1.2c.8.7 1.7 1.9 2 2.8l.5 1.7-1.4 2.1-1.5 2.1h-3.3l-2.3-2.2-2.4-2.2-1.6 1c-.9.6-1.8 1.5-2 2l-.4 1.1 2.6 2.8 2.6 2.8 5.6-.6 5.6-.6 1.4-1.4 1.3-1.3.7-5.2.6-5.1-1.7-2.5-1.6-2.5-4.8-1.5-4.7-1.5h4.6l4.7-.1.6-1.6.6-1.6-.6-.9-.5-.9h-14.6l-.6.7zm630.3 11.8v12.6l1.5.5 1.5.6 1.5-1.2 1.5-1.2V1032h-6v12.5zm17.7-11.8-.7.6v22.5l1.5 1.2 1.5 1.2 1.4-.5 1.3-.5.5-10.8c.3-6 .3-11.7 0-12.6l-.4-1.8h-2.2c-1.3 0-2.6.3-2.9.7zm-795.3 75.8-.6 1.6.6.6c.3.3 2.3.9 4.3 1.2l3.8.6.5 12.5.5 12.5 1.9.3 1.9.4.8-1.3.8-1.4-.3-9.5-.4-9.4.9-2.2.8-2.3 3.3-.3 3.3-.3v-4l-10.8-.3-10.7-.3-.6 1.6zm26-.3-.8 1.2-.1 11c-.1 6.1.1 12.4.3 13.9l.5 2.9 1.4.5 1.4.6 1-1 1-1 .5-11.3.5-11.2-1.1-3.4-1.2-3.4h-1.3c-.8 0-1.7.5-2.1 1.2zm45.1-.1-.7 1.1v26.9l1.2 1.5 1.2 1.4h17.6l1.2-1.5 1.2-1.4-.6-.9-.5-.9-7.3-.7-7.2-.7-.8-1.2c-.4-.6-.8-2.2-.8-3.4v-2.2l1-.6c.5-.3 3.9-.8 7.5-1.2l6.6-.6-.3-1.6-.3-1.6-7-.5-7-.5-.3-2.6-.3-2.6 1.6-1.3 1.5-1.3 7.1-.5 7-.5-.3-1.6-.3-1.6-10.2-.3-10.1-.3-.7 1.2zm-33.8.5-.7.7.1 11.1c.1 6.1.4 12.4.8 14.1l.6 3h4l.5-6.9.5-6.9 1.1 1.4c.7.8 1.7 3.2 2.4 5.4l1.2 4 1.9 2.4 1.9 2.4 2-1.8 2-1.8 2.1-5.9 2.2-5.8h1.9l-.2 4.7c-.3 6.1-.2 7.5 1 9.3l.9 1.4 1.9-1.8 2-1.7.1-12.4.1-12.4-.6-1.5-.6-1.6h-6.6l-2.3 6.2c-1.2 3.5-3.1 8.3-4.2 10.8l-1.9 4.5-1.3-4c-.7-2.2-2.4-6.9-3.7-10.5l-2.5-6.5-2.9-.3-3-.3-.7.7zm80.6.2-1.3.8-2.5 6.2c-1.4 3.4-2.5 6.7-2.5 7.3 0 .6-1.2 3.7-2.6 6.9l-2.6 5.8 1.2 2.3 1.3 2.3 2.3-2.8 2.4-2.7v-3.8l3.3-.6 3.2-.5 2.8.7 2.8.8 2.2 4 2.3 4h3.9l.3-2.2.3-2.1-2-4.3c-1.2-2.4-2.1-5-2.1-5.9 0-.9-.4-2-.8-2.6-.5-.5-1.7-3.2-2.7-5.9-1-2.8-2.5-5.8-3.3-6.8l-1.5-1.7h-1.6c-.9 0-2.2.4-2.8.8zm4.1 11.4c.3 1.3.6 2.9.6 3.5v1.3h-1.8c-1 0-2.1-.3-2.4-.6l-.6-.5 1.1-3c1.4-3.5 2.3-3.7 3.1-.7zm14.4-11c-.3.7-.4 7.3-.3 14.6l.2 13.3 1.2 1.2 1.2 1.2 1.7-1.1 1.7-1.1v-10.1l.8-.9.9-.8 5.6-.5 5.7-.5.3-1.8.3-1.7H778v-6.9l1.9-1 1.9-1.1 8.8.5 8.8.5.8.8.8.8v4.4c.1 2.5.3 8 .7 12.2l.5 7.8h3.8l.1-2.8c.1-1.5 0-6.7-.1-11.5l-.2-8.8 1.2-1.4 1.2-1.4 3.4-.7 3.4-.6v-3.8h-42.8l-.4 1.2zm45.9-.5-.7.6v28.6l1.9 1.1 2 1h7.5c4.1 0 8.1-.3 9-.6l1.6-.6v-4.8h-15l-.6-2.7-.7-2.6 1-1.6 1-1.6 6.4-.5 6.4-.5v-3l-3.5-.3c-1.9-.1-5-.5-6.7-.8l-3.3-.5v-6.9h11.6l1.9-1.3 1.8-1.4-.7-1.1-.7-1.2h-19.6l-.6.7zm25 0-.7.6v27.5l1.6 1.2 1.5 1.3 1.7-1.6 1.6-1.7.1-4.5v-4.5h9l1.3 2.7c.6 1.5 1.2 3.5 1.2 4.4 0 1 .3 2.4.6 3.3l.6 1.6h3.8l.1-2.8c.3-4.6-.3-9.6-1.2-11.4l-.9-1.7.9-.5.8-.6.7-3.9.6-3.9-.6-1.7-.6-1.6-2.9-1.4-2.8-1.5h-15.8l-.6.7zm16.1 5.6 1.2.9v3.7l-1.9 1.1-2 1H849v-3c0-1.7 0-3.3-.1-3.8-.1-2 7.2-2 9.9.1zm23.2 9.2v15.5l2.3.1c1.2.1 5.4.3 9.3.5l7.1.4 1.9-1.4 1.8-1.4-1.3-1.6-1.3-1.6-6.3.1-6.3.1-1.1-.7-1.1-.6v-6.7l1.6-.6c.9-.3 4.2-.6 7.5-.6h5.9v-3.1l-1.2-.4c-.7-.2-3.5-.6-6.3-.7-2.7-.2-5.6-.7-6.2-1.1l-1.3-.8v-4.8l1.1-.7c.6-.3 4.3-.9 8.2-1.3l7.2-.6v-3l-10.7-.3-10.8-.3v15.6zm24-13.6v2.1l3.5 4.6c4 5.2 4.2 6.1 1.8 10.3l-1.8 3.1h-2.7l.5 1.5.6 1.4-.9.6-1 .6v4.9h3.7l3.2-4.5 3.2-4.5h2.5l2.9 4.5 2.8 4.6 2.1-.3 2.1-.3.3-2.1.3-2.1-3.5-4.2c-1.9-2.3-3.8-5.1-4.1-6.2l-.7-2.1 1.9-2.1c2.6-2.9 6.3-9.1 6.3-10.6v-1.1h-4.7l-1.6 1.8c-1 1-1.7 2.2-1.7 2.6 0 .4-.8 1.9-1.9 3.2l-1.9 2.4-2.8-4.3c-1.6-2.3-2.8-4.3-2.9-4.4 0-.1-1.2-.4-2.8-.8l-2.7-.7v2.1zm25.7-.2c-.3 1-.4 7.5-.3 14.5l.1 12.7 1.2 1.2 1.2 1.2 1.5-.6 1.6-.6V1127h10.6l3.2-2.9 3.2-3v-8.2l-2.6-2.4-2.7-2.5h-16.6l-.4 1.7zm15.1 4.5c.7.7 1.2 2 1.2 3v1.8l-2.4 1.5-2.5 1.6-2.8-.3-2.8-.3-.3-2.8c-.2-1.6-.1-3.5.2-4.3l.5-1.4h7.7l1.2 1.2zm10.1-3.5-1.1 2.8.5 11.8.4 11.8 1.2 1.2 1.2 1.2 8.2-.3 8.1-.2.9-.9 1-1-.6-1.5-.6-1.6H962v-11.4c0-6.3-.3-12.1-.6-13l-.6-1.6H958l-1.1 2.7zm32.6-2c-1.1.2-2.7.7-3.5 1-.8.3-1.8.6-2.2.5-.4-.1-1.7 1.5-3 3.6l-2.3 3.7.2 5.6.1 5.7 1.7 3.6 1.7 3.6 3 2.5 3 2.5h8.9l3.8-1.9 3.8-2 2.1-5.9c2.6-6.9 2.6-7.5.9-12.4-1.7-4.7-4.3-7.7-8.4-9.4l-3.2-1.4-2.3.1c-1.3.1-3.2.3-4.3.6zm9.6 7.2 2.9 2.9v12l-3.1 2.6-3.1 2.6H994c-1.1 0-3-.5-4.3-1.1l-2.5-1.1-1-2.4c-.6-1.3-1.4-4.6-1.8-7.3l-.6-5 3-3.1 3-3h6.4l2.9 2.9zm15.8-6.4-2.6 1.4-1.2 2.9-1.2 2.8 1 2.6 1 2.5 2.7 2.2 2.7 2.1h3.6l.6 1 .6 1h3.7l1.1 1.4 1.2 1.5-1 2-1.1 1.9-3 .7-2.9.6-1.6-.9c-.9-.5-2.2-2-2.8-3.3l-1.3-2.4-2.2-.3-2.2-.3v.8c0 .4.5 2.4 1 4.3l1 3.6 2.9 1.7 2.9 1.7h9.5l3.3-3.6 3.4-3.5v-6.8l-2.7-1.9c-1.6-1.1-5.3-2.7-8.3-3.7-3-1-5.9-2.1-6.4-2.6l-.9-.8 1.7-2.5 1.6-2.6h1.5c.8 0 2.5.5 3.9 1.1l2.4 1.1.5 1.9.5 1.9h4.1l.6-2.1.7-2.1-1.9-2.6-2-2.7-2.4-.6c-1.3-.4-4-.7-5.9-.8h-3.5l-2.6 1.4zm40.2-.2-3.4 1.3-2.4 2.9-2.5 2.8.4 8.1.3 8.1 2.4 3.2 2.4 3.2 2.9 1.2 2.8 1.2 4.4-.5 4.4-.5 2.9-2.1 2.8-2 1.8-4.9 1.7-4.8v-3.5l-.1-3.5-1.7-3.4-1.7-3.4-2.5-1.9-2.5-1.8-4.5-.5-4.5-.5-3.4 1.3zm12 6.9 2.9 3.2v8.3l-2.2 3.3-2.3 3.4-2.8.7-2.8.8-2.8-1-2.8-1-1.2-2.5-1.1-2.5v-10.1l2.9-2.9 2.9-2.9h6.3l3 3.2zm-29.8-6.1-1.1 1.1.5 13.7.5 13.6.8.9.9.9 1.6-.7 1.6-.6-.3-14.7-.3-14.8-1.5-.3-1.5-.3-1.2 1.2zm42.4-.4-.7.6v27.5l1.5 1.2 1.5 1.2 1.5-1.2 1.4-1.2.3-9 .3-9 6.9 9.5 6.8 9.6 1.5.5 1.5.6.9-.6.9-.5v-30l-2.2.3-2.3.3-.3 10.4-.3 10.5-6.4-9.9c-3.6-5.4-7.1-10.2-7.7-10.7-1.6-.9-4.2-1-5.1-.1zm-379.9 54c-.8 1-2.3 4-3.3 6.7l-1.8 4.9.6 8.4.6 8.5 2.6 4.4 2.6 4.4h3.9v-1.3c0-.6-.9-3.1-2-5.5l-1.9-4.3-.7-5-.7-5 1.2-4.2c.7-2.3 2.1-5.9 3.2-8.1l1.9-3.8-.6-.9c-.3-.5-1.3-.9-2.3-.9h-1.8l-1.5 1.7zm9.8-.9c-.5.8-1 18.5-.7 26.4l.1 3.8h3.6l1.2-1.2 1.2-1.2v-9.6h9.9l1.1 1.9c.5 1.1 1 3.2 1 4.8 0 1.5.4 3.4.9 4.1l.8 1.4 1.9-.4 1.9-.3-.4-5.5c-.2-3-.7-6.4-1.1-7.5l-.8-2.1 1.4-1.9 1.4-1.9v-3c0-3.9-.7-4.9-4.7-7l-3.2-1.6h-15l-.5.8zm16.2 6c1.4 1.8 1.5 3.2.4 4.8l-.7 1.2-3 .2c-1.6.1-4 .2-5.2.1l-2.3-.1v-3.8c0-2.1.3-4.2.7-4.5l.6-.7 4.1.6 4.1.6 1.3 1.6zm10.7-4.3c-.4 1.1-.7 7.6-.7 14.4l-.1 12.4 1.8 1.3 1.8 1.3.8-.5.9-.5v2.1h14.5l1.3-.9 1.4-.8-.4-1.9-.3-1.9-7.6-.3-7.7-.3v-3.9l-.1-4h11.7l1.2-1.5 1.2-1.4-.7-1.1-.6-1H742v-6.9l1-.6c.6-.4 4.1-1 7.8-1.3l6.7-.7v-3l-10.2-.5-10.2-.5-.6 2zm140.5-1.6-7.5.6-.3 14.1-.3 14.1 1.7 1.4 1.6 1.3 8.1-.1 8-.2 1-1 1-1-.6-1.5-.6-1.6H875v-6.8l1.6-.6c.9-.3 3.8-.6 6.5-.6h5l.6-1.6.6-1.5-1.2-1.2-1.2-1.2h-11.4v-8l7.5-.5 7.5-.5.3-1.8.3-1.7h-1.3c-.7 0-2.2-.2-3.3-.4-1.1-.1-5.4 0-9.5.3zm35.3-.2-2.3.4-1.5 2.2-1.5 2.1v7.4l3.1 2.6 3.1 2.6 2.6.6c1.5.3 3.7.9 5 1.4l2.2 1v5.9l-2 .6-2 .6-2.9-.6-2.8-.6-1.1-2.4-1.2-2.5h-5v4l2.8 3.1 2.8 3.2 5.2.5 5.2.5 2.6-1.8 2.6-1.7 1.4-3.3 1.4-3.4-.7-1.8c-.3-1-1.5-2.8-2.6-4l-1.9-2.2-5-1.3-5-1.2-1.1-2.3-1-2.2.6-1.5.6-1.6h2.8c3.4 0 4.6.8 6.2 3.7l1.2 2.3h4l.6-1.6.6-1.6-.9-2.5-.9-2.5-4-1.4c-4-1.4-6.9-1.5-11.2-.7zm28.2.7c-1.6.7-4.3 2.7-5.9 4.4l-2.8 3-.5 4.6-.6 4.6 1.3 4.5 1.3 4.5 3.4 3 3.4 3h7.7l3.5-1.5 3.6-1.5 1.1-1.9c.5-1.1 1-3.1 1-4.5v-2.6h-2.9l-1.3 1.6c-.7.8-2.1 2.4-3.1 3.5l-1.8 2-3.1-.3-3.1-.3-2.1-2.8-2-2.8-.1-5.8v-5.9l2.4-2.6 2.4-2.6h5.9l2.9 3.1 2.8 3.1 1.8-.4 1.8-.3.3-1.7.3-1.6-2.8-3.1-2.8-3-4.5-.6-4.5-.5-3 1.4zm-148.6 1.2c-.8.9-2.1 3.5-2.9 5.9-.8 2.3-2.8 7.6-4.5 11.9l-3 7.7-7-.4-7-.4-.3-12.6-.3-12.7h-1.7c-1 0-2.3.5-3 1.2l-1.2 1.2v25.3l1.8 1.6 1.9 1.7h14.2l.6-1.1.7-1 1.4.5 1.4.5 1.5-.6 1.6-.5 2-3.9 1.9-3.9h3.4c1.9 0 4.2.3 5.1.6l1.6.6 2 3.9 1.9 3.9h1.5c.7 0 1.7-.5 2-1l.7-1.1-3.2-9.7c-1.8-5.3-4.1-11.8-5.2-14.5l-2-4.7h-4.6l-1.3 1.6zm4.6 11.6 1.3 3.3-.4.7c-.3.5-1.4.8-2.5.8h-2l-.5-1.3-.5-1.4 1-2.6c1.3-3.5 1.9-3.4 3.6.5zm11.8-11.7-.5 1.6.6.6c.3.3 2.3.9 4.3 1.2l3.8.6.5 12.5.5 12.5h5l.5-12.5.5-12.5 3.8-.9 3.7-1v-3.6h-22.1l-.6 1.5zm26.8-.1-1.1 1.4-.1 11.3-.1 11.4 1.3 2.8 1.3 2.8 1.5-.3 1.6-.3.5-13 .6-13-.8-2.3-.8-2.2h-1.4c-.7 0-1.9.6-2.5 1.4zm28.2-.2c-.6.7-1.5 2.9-2.2 4.8-.6 1.9-2.2 6.2-3.5 9.4l-2.4 5.9-3.2-10.1-3.3-10.2h-5.9l.7 2.7c.3 1.5 2.1 6.5 3.9 11.2 1.9 4.8 3.9 10.3 4.6 12.3l1.2 3.8h3.6l1.1-1.4c.6-.7 2.9-6.4 5.2-12.7l4-11.3-.3-2.5-.3-2.4-1.1-.4-1.1-.4-1 1.3zm107.1-.4-1.2.7-1 3.5c-.5 1.9-2.9 7.9-5.2 13.3l-4.3 9.9 1.5 1.4 1.4 1.5 1.7-.7 1.7-.6v-1.7c0-.9.8-2.6 1.8-3.9l1.8-2.3 4.9.3 5 .3 1.7 3.7c1 2 2.2 4 2.9 4.3l1.1.7 1.4-1.4 1.5-1.5-3-7.4c-1.6-4.1-3.5-9.5-4.1-12.1l-1.2-4.6-1.9-2.1-2-2.1h-1.7c-.9 0-2.2.4-2.8.8zm4.8 13.2.3 2.5-1.5.2c-.8.2-2.1-.1-2.8-.5l-1.3-.9 1.8-3.1 1.8-3.1.6 1.2c.4.7.9 2.3 1.1 3.7zm15.3-12-.7 1.1.1 14.1.1 14.2 1.1.7 1.2.7 8.1-.5 8.1-.5.9-.9.9-.8-1.3-1.6-1.2-1.5h-12.7l-.3-12.7-.3-12.8-1.7-.3-1.6-.3-.7 1.1zm21.3 8.1c-.1 4.9-.1 11.8.2 15.2l.5 6.2 9 .3 9 .2 1.4-.9 1.4-.9-.6-1.6-.6-1.6H1017v-7.9l6.8-.3 6.7-.3.3-2.2.3-2.2-6.8-.3-6.8-.3v-8l4-.1c2.2 0 5.7-.2 7.8-.2l3.7-.2v-4h-20.8l-.4 9.1zm24.2-8.1c0 .6.6 2.1 1.4 3.3l1.4 2.2 1.2 5.9 1.2 5.8-.7 4.6-.7 4.7-1.9 3.7c-1 2-1.9 4.4-1.9 5.3v1.5h4l1-2.5c.5-1.4 1.9-4.4 3-6.7l2-4.2v-12.5l-2.6-6-2.7-6.1h-4.7v1z"/></svg>